<?xml version="1.0" encoding="UTF-8"?>
<svg id="Layer_2" data-name="Layer 2" xmlns="http://www.w3.org/2000/svg" viewBox="0 0 1307.11 918.65">
  <defs>
    <style>
      .cls-1 {
        fill: #fff;
      }
    </style>
  </defs>
  <g id="Layer_1" data-name="Layer 1">
    <path class="cls-1" d="M1219.24,406.5c-44.75-44.75-101.32-73.78-163.6-83.95-54.2-8.84-108.87-2.87-159.33,17.22L735.77,61.7c-.52-.91-1.04-1.82-1.57-2.72-7.94-13.41-16.72-24.89-26.17-34.05-16.46-15.97-34.95-24.93-54.48-24.93s-38.02,8.96-54.48,24.93c-9.45,9.16-18.23,20.64-26.17,34.05-.53.9-1.05,1.81-1.57,2.72l-160.54,278.07c-50.46-20.09-105.13-26.06-159.33-17.22-62.28,10.17-118.85,39.19-163.6,83.94C31.21,463.16,0,538.49,0,618.62s31.21,155.47,87.87,212.13c36.51,36.51,81.97,63.08,131.42,76.84,7.41,2.07,14.97,3.86,22.4,5.33,19.46,3.84,39.01,5.72,58.43,5.72,78.8,0,155.14-31.02,212.01-87.89l-33.86-33.86,33.86,33.85,141.42-141.42,141.42,141.42,35.36-35.35,35.35-35.36-141.42-141.42,120.37-120.37,17.57-17.57,191.9,332.37c-2.68.65-5.37,1.24-8.05,1.77-65.68,12.96-133.1-7.51-180.36-54.77l-70.71,70.71c56.88,56.88,133.21,87.9,212,87.9,19.4,0,38.95-1.88,58.39-5.72,7.48-1.47,15.03-3.26,22.41-5.32,49.5-13.77,94.96-40.35,131.46-76.85,56.66-56.66,87.87-132,87.87-212.13s-31.21-155.47-87.87-212.13ZM158.58,477.2c53.12-53.13,131.16-71.47,201.4-49.43l-195.24,338.15c-2.09-1.92-4.16-3.87-6.17-5.88-77.98-77.98-77.98-204.86,0-282.84ZM475.28,793.91l-33.86-33.86c-47.26,47.26-114.68,67.74-180.41,54.76-2.66-.52-5.33-1.11-8.01-1.76l191.9-332.37,17.57,17.57,120.37,120.37-141.42,141.42,33.86,33.87ZM830.33,441.85l-35.36-35.36-141.42,141.42-141.42-141.42h0c-5.13-5.12-10.43-10.04-15.87-14.76l17.98-31.14,20.15-34.9,119.17-206.41,119.17,206.41,20.15,34.9,17.98,31.14c-5.44,4.72-10.74,9.63-15.87,14.76l57.72,57.72h0s-22.36-22.36-22.36-22.36ZM1148.53,760.04c-2.01,2.01-4.08,3.96-6.17,5.88l-195.24-338.15c70.24-22.04,148.28-3.69,201.4,49.44,77.98,77.98,77.98,204.86,0,282.84Z"/>
  </g>
</svg>