<?xml version="1.0" standalone="no"?>
<!DOCTYPE svg PUBLIC "-//W3C//DTD SVG 20010904//EN"
 "http://www.w3.org/TR/2001/REC-SVG-20010904/DTD/svg10.dtd">
<svg version="1.0" xmlns="http://www.w3.org/2000/svg"
 width="771.000000pt" height="332.000000pt" viewBox="0 0 771.000000 332.000000"
 preserveAspectRatio="xMidYMid meet">
<metadata>
Created by potrace 1.15, written by Peter Selinger 2001-2017
</metadata>
<g transform="translate(0.000000,332.000000) scale(0.100000,-0.100000)"
fill="#000000" stroke="none">
<path d="M2425 2837 c-174 -64 -468 -313 -800 -677 -38 -41 -95 -102 -128
-135 -32 -33 -93 -104 -135 -159 -43 -54 -99 -127 -127 -161 -27 -34 -79 -103
-115 -153 -36 -50 -68 -91 -72 -91 -5 -1 -8 42 -8 94 0 187 -47 413 -107 512
-47 78 -68 99 -129 128 -61 29 -74 31 -74 11 0 -8 24 -26 54 -39 62 -29 102
-77 146 -172 52 -115 88 -383 72 -540 l-9 -91 -106 -166 c-178 -280 -393 -675
-452 -831 -16 -45 -25 -88 -25 -127 l0 -60 41 0 c61 0 154 56 209 127 123 157
203 316 264 521 40 134 96 396 96 448 0 20 15 65 36 106 38 75 168 256 190
265 7 3 26 28 43 57 26 46 73 105 205 257 181 210 410 442 571 583 220 190
361 276 455 276 55 0 64 -21 57 -129 -8 -122 -59 -277 -187 -566 -85 -192
-164 -396 -186 -480 -26 -100 -25 -215 2 -252 32 -44 109 -90 169 -103 113
-23 224 2 591 133 55 20 126 39 157 43 54 6 57 5 66 -18 10 -27 57 -70 100
-93 15 -7 90 -33 166 -56 114 -35 159 -44 240 -47 167 -8 194 -5 320 38 66 23
148 44 182 47 57 5 69 3 135 -29 127 -61 130 -61 251 -55 80 4 146 14 232 37
276 73 407 84 515 45 25 -9 95 -20 155 -26 121 -10 199 -20 320 -43 103 -20
281 -20 370 -1 39 9 138 27 220 40 83 14 213 36 290 49 264 46 461 57 520 29
31 -15 37 -15 46 -3 38 60 -40 80 -244 61 -158 -14 -326 -36 -422 -56 -38 -8
-124 -24 -190 -35 -66 -10 -164 -29 -218 -40 -55 -11 -135 -20 -180 -20 -76 0
-289 33 -332 51 -11 5 -27 8 -35 6 -35 -4 -227 16 -279 30 -144 39 -273 30
-503 -36 -198 -56 -292 -66 -333 -37 -11 7 -40 17 -65 21 -25 4 -70 17 -100
30 -109 45 -158 41 -365 -29 -97 -33 -104 -34 -240 -31 -77 2 -156 8 -175 13
-267 78 -302 94 -345 162 -21 33 -31 40 -58 40 -44 0 -191 -40 -307 -85 -193
-73 -258 -91 -371 -100 -97 -8 -143 1 -201 41 -75 52 -87 123 -47 282 19 75
92 275 118 322 26 47 184 430 211 510 35 106 56 248 46 303 -14 76 -82 95
-191 54z m-1454 -1671 c-39 -227 -141 -544 -211 -659 -17 -27 -30 -51 -30 -54
0 -13 -104 -144 -141 -178 -83 -75 -109 -70 -109 20 0 77 23 146 94 285 145
282 395 697 405 669 2 -6 -2 -44 -8 -83z"/>
</g>
</svg>
