<?xml version="1.0" encoding="UTF-8" standalone="no"?>
<!-- Created with Inkscape (http://www.inkscape.org/) -->

<svg
   width="290.4491mm"
   height="37.130386mm"
   viewBox="0 0 290.44909 37.130387"
   version="1.1"
   id="svg5"
   inkscape:version="1.1.1 (3bf5ae0d25, 2021-09-20)"
   sodipodi:docname="Winston Churchill.svg"
   xmlns:inkscape="http://www.inkscape.org/namespaces/inkscape"
   xmlns:sodipodi="http://sodipodi.sourceforge.net/DTD/sodipodi-0.dtd"
   xmlns="http://www.w3.org/2000/svg"
   xmlns:svg="http://www.w3.org/2000/svg">
  <sodipodi:namedview
     id="namedview7"
     pagecolor="#ffffff"
     bordercolor="#666666"
     borderopacity="1.0"
     inkscape:pageshadow="2"
     inkscape:pageopacity="0.0"
     inkscape:pagecheckerboard="true"
     inkscape:document-units="mm"
     showgrid="false"
     fit-margin-top="0"
     fit-margin-left="0"
     fit-margin-right="0"
     fit-margin-bottom="0"
     inkscape:zoom="0.5"
     inkscape:cx="607"
     inkscape:cy="289"
     inkscape:window-width="1920"
     inkscape:window-height="1017"
     inkscape:window-x="-8"
     inkscape:window-y="-8"
     inkscape:window-maximized="1"
     inkscape:current-layer="layer1" />
  <defs
     id="defs2">
    <clipPath
       clipPathUnits="userSpaceOnUse"
       id="clipPath1232">
      <rect
         style="opacity:0.53578;fill:#e91373;fill-rule:evenodd;stroke:#e5f6fc;stroke-width:0.88115"
         id="rect1234"
         width="295.86508"
         height="46.199055"
         x="-163.71231"
         y="44.68092"
         ry="0.012539023" />
    </clipPath>
    <clipPath
       clipPathUnits="userSpaceOnUse"
       id="clipPath1372">
      <rect
         style="display:inline;opacity:0.53578;fill:#e91373;fill-rule:evenodd;stroke:#e5f6fc;stroke-width:0.874678"
         id="rect1374"
         width="290.4491"
         height="82.070358"
         x="-160.95674"
         y="3.0231948"
         ry="1.8877054" />
    </clipPath>
  </defs>
  <g
     inkscape:label="Layer 1"
     inkscape:groupmode="layer"
     id="layer1"
     transform="translate(160.95674,-47.963168)"
     style="display:inline">
    <path
       style="fill:#000000;stroke-width:0.264583"
       d="m -186.25801,214.19728 v -11.77396 h 171.97917 171.97917 v 11.77396 11.77396 H -14.27884 -186.25801 Z m 39.19517,5.97702 c 0.6112,-0.49441 0.62639,-0.61383 0.7068,-5.55625 l 0.0822,-5.05098 h -0.94208 -0.94208 v 3.41128 c 0,2.65411 -0.0809,3.44233 -0.36463,3.5512 -0.76793,0.29467 -0.95829,-0.44193 -0.95829,-3.7081 v -3.25438 h -0.92723 -0.92723 l 0.0673,3.79609 c 0.0487,2.74657 0.16773,3.91698 0.43046,4.23334 0.46653,0.56175 1.72252,0.56276 2.28344,0.002 0.40417,-0.40416 0.42926,-0.37093 0.34963,0.46302 -0.0831,0.87006 -0.12547,0.90098 -1.34255,0.97907 -1.19657,0.0768 -1.25677,0.11797 -1.25677,0.8599 0,0.7744 0.01,0.77925 1.55819,0.77925 1.13917,0 1.72615,-0.13587 2.18281,-0.50527 z m 280.10257,-1.14904 c 0.4771,-0.57486 1.38145,-3.10819 1.10959,-3.10819 -0.14298,0 -0.42053,0.38695 -0.61675,0.8599 l -0.35679,0.85989 -0.19415,-0.85989 c -0.10681,-0.47295 -0.35187,-0.8599 -0.54462,-0.8599 -0.27027,0 -0.23481,0.30429 0.15513,1.33053 0.44074,1.15994 0.45445,1.35013 0.10689,1.48351 -0.42786,0.16418 -0.55065,0.62554 -0.1665,0.62554 0.12769,0 0.35594,-0.14912 0.5072,-0.33139 z m -22.74117,-1.58683 c 0.24058,-0.86788 0.28876,-0.83575 0.6945,0.46302 0.21799,0.69774 0.63651,0.42705 0.92044,-0.59532 0.33901,-1.22073 0.34324,-1.38906 0.0349,-1.38906 -0.13396,0 -0.33163,0.38695 -0.43926,0.8599 l -0.19569,0.85989 -0.23445,-0.87787 c -0.27302,-1.02243 -0.83259,-0.99733 -0.95559,0.0429 -0.0925,0.78251 -0.5773,0.70606 -0.5773,-0.091 0,-0.27386 -0.13554,-0.58171 -0.3012,-0.68409 -0.2172,-0.13423 -0.24738,0.10069 -0.10827,0.84226 0.32396,1.72688 0.77917,1.94998 1.16187,0.56944 z m 3.63132,0.13229 c 0.27795,-1.26025 0.30488,-1.27716 0.55518,-0.34873 0.3388,1.25681 0.73753,1.2788 1.10244,0.0608 0.37219,-1.2423 0.37809,-1.36572 0.0651,-1.36572 -0.13395,0 -0.33163,0.38695 -0.43926,0.8599 l -0.19568,0.85989 -0.23445,-0.87787 c -0.27302,-1.02243 -0.83259,-0.99733 -0.9556,0.0429 -0.1021,0.86353 -0.57729,0.66685 -0.57729,-0.23895 0,-0.38738 -0.15333,-0.64584 -0.38312,-0.64584 -0.31207,0 -0.33226,0.15945 -0.10898,0.8599 0.15076,0.47294 0.31943,1.00872 0.37481,1.19062 0.17693,0.58117 0.63103,0.35501 0.79684,-0.39687 z m 3.77701,-0.13229 c 0.24059,-0.86788 0.28877,-0.83575 0.69451,0.46302 0.21799,0.69774 0.6365,0.42705 0.92043,-0.59532 0.33665,-1.21226 0.34263,-1.38906 0.047,-1.38906 -0.12732,0 -0.3184,0.38695 -0.42458,0.8599 l -0.19306,0.85989 -0.24911,-0.87787 c -0.27231,-0.9596 -0.83524,-1.01388 -0.97068,-0.0936 -0.10488,0.71294 -0.57689,0.76288 -0.57689,0.061 0,-0.28246 -0.13555,-0.59733 -0.30121,-0.69971 -0.21719,-0.13423 -0.24738,0.10069 -0.10826,0.84226 0.32395,1.72688 0.77917,1.94998 1.16186,0.56944 z m 2.95177,0.59531 c 0,-0.14552 -0.11906,-0.26459 -0.26458,-0.26459 -0.14552,0 -0.26458,0.11907 -0.26458,0.26459 0,0.14552 0.11906,0.26458 0.26458,0.26458 0.14552,0 0.26458,-0.11906 0.26458,-0.26458 z m 2.64531,-0.84207 c 0,-0.7408 -0.12576,-1.01443 -0.52629,-1.14156 -0.28971,-0.0919 -0.67548,-0.0753 -0.85722,0.037 -0.22672,0.14012 -0.12364,0.26177 0.32837,0.38758 0.63799,0.17757 0.63974,0.1842 0.0552,0.20974 -0.65021,0.0284 -0.9992,0.58301 -0.75964,1.20729 0.0929,0.24221 0.45005,0.36604 0.95382,0.33073 0.7412,-0.0519 0.80531,-0.13397 0.80579,-1.0308 z m -1.26175,0.26329 c 0.16351,-0.49059 0.73311,-0.57196 0.73311,-0.10473 0,0.23041 -0.18852,0.41892 -0.41892,0.41892 -0.23042,0 -0.37179,-0.14138 -0.31419,-0.31419 z m 2.68441,0.226 c -0.0182,-0.24253 -0.0479,-0.91722 -0.0661,-1.49931 -0.0523,-1.67434 -0.45996,-1.23018 -0.50269,0.54772 -0.0277,1.15255 0.0518,1.57591 0.28165,1.49931 0.17614,-0.0587 0.30538,-0.30519 0.28718,-0.54772 z m 2.54609,-0.47881 c 0,-0.94947 -0.31594,-1.28508 -1.21174,-1.28508 -0.62479,0 -0.41979,0.52647 0.22008,0.5652 l 0.59531,0.036 -0.61148,0.11678 c -1.2677,0.2421 -1.08495,1.67759 0.20204,1.58739 0.73951,-0.0518 0.80531,-0.13516 0.80579,-1.02032 z m -1.26175,0.25281 c 0.16351,-0.49059 0.73311,-0.57196 0.73311,-0.10473 0,0.23041 -0.18852,0.41892 -0.41892,0.41892 -0.23042,0 -0.37179,-0.14138 -0.31419,-0.31419 z m 2.63456,-0.0144 c 0.0546,-0.56489 0.24101,-0.88767 0.54595,-0.94544 0.37094,-0.0703 0.46302,0.10029 0.46302,0.85773 0,0.51999 0.11906,0.94544 0.26458,0.94544 0.14552,0 0.26458,-0.41671 0.26458,-0.92604 0,-0.64676 0.1197,-0.92604 0.39688,-0.92604 0.27718,0 0.39687,0.27928 0.39687,0.92604 0,0.50933 0.12592,0.92604 0.2798,0.92604 0.16555,0 0.24656,-0.45916 0.19844,-1.12448 l -0.0814,-1.12447 -1.60698,-0.0127 -1.60697,-0.0127 -0.0589,1.13712 c -0.068,1.31367 0.4199,1.56421 0.54406,0.2794 z m 6.56522,0.59315 c 0,-0.14552 -0.1261,-0.26459 -0.2802,-0.26459 -0.15412,0 -0.20661,0.11907 -0.11668,0.26459 0.0899,0.14552 0.21603,0.26458 0.28019,0.26458 0.0642,0 0.11669,-0.11906 0.11669,-0.26458 z m 2.38125,0 c 0,-0.14552 -0.23813,-0.26459 -0.52917,-0.26459 -0.36065,0 -0.52917,-0.17639 -0.52917,-0.55393 0,-0.33142 0.21257,-0.60953 0.52917,-0.69232 0.55094,-0.14408 0.73935,-0.60583 0.2472,-0.60583 -1.08135,0 -1.71929,1.3325 -0.98803,2.06375 0.38446,0.38448 1.27,0.42137 1.27,0.0529 z m 2.36915,-0.11773 c 0.75256,-0.90676 -0.28535,-2.43964 -1.24467,-1.83827 -0.94412,0.59184 -0.60452,2.22058 0.46302,2.22058 0.2554,0 0.60716,-0.17204 0.78165,-0.38231 z m -1.12892,-0.31773 c -0.3892,-0.38921 -0.18452,-1.19135 0.28112,-1.10167 0.25466,0.049 0.46302,0.31574 0.46302,0.59266 0,0.5264 -0.43156,0.82159 -0.74414,0.50901 z m 2.46393,0.19251 c 0,-0.78859 0.28522,-1.34455 0.68977,-1.34455 0.24482,0 0.36857,0.31089 0.36857,0.92604 0,0.50932 0.11906,0.92604 0.26458,0.92604 0.14552,0 0.26458,-0.41672 0.26458,-0.92604 0,-0.64676 0.1197,-0.92604 0.39688,-0.92604 0.27718,0 0.39687,0.27928 0.39687,0.92604 0,0.50932 0.12592,0.92604 0.2798,0.92604 0.16555,0 0.24657,-0.45916 0.19844,-1.12448 l -0.0814,-1.12448 -1.60698,-0.0126 -1.60697,-0.0127 -0.0589,1.13712 c -0.0338,0.6526 0.0591,1.13713 0.21791,1.13713 0.15224,0 0.27678,-0.22839 0.27678,-0.50753 z m -311.40071,-0.17065 c 0.31128,-0.37506 0.36481,-0.37506 0.57471,0 0.1273,0.22748 0.5232,0.4136 0.87977,0.4136 h 0.64831 v -3.6453 c 0,-4.12927 -0.19343,-4.68477 -1.73181,-4.97337 -1.66549,-0.31245 -3.03069,0.7151 -3.03069,2.28112 0,0.39343 0.18253,0.51671 0.76507,0.51671 0.59541,0 0.80188,-0.14668 0.93108,-0.66145 0.18834,-0.75043 1.06203,-0.91066 1.31867,-0.24185 0.23683,0.61716 -0.10855,1.06843 -1.48661,1.94237 -1.5965,1.01246 -2.12759,2.43313 -1.44483,3.8649 0.37201,0.7801 0.57117,0.91687 1.33515,0.91687 0.49386,0 1.05239,-0.18612 1.24118,-0.4136 z m -0.74148,-1.09941 c -0.5519,-0.19789 -0.37756,-1.52576 0.28164,-2.14504 0.85892,-0.80692 0.97513,-0.7347 0.97513,0.60603 0,1.20067 -0.49836,1.81095 -1.25677,1.53901 z m 5.22552,-3.77866 v -5.29167 h -0.79375 -0.79375 v 5.29167 5.29167 h 0.79375 0.79375 z m 3.3439,4.89479 c 0.0838,-0.21828 0.25862,-0.39687 0.38857,-0.39687 0.12996,0 0.23628,0.17859 0.23628,0.39687 0,0.26675 0.26681,0.39688 0.81375,0.39688 h 0.81375 l -0.0862,-3.69758 c -0.08,-3.43532 -0.12888,-3.74026 -0.6888,-4.29947 -0.86435,-0.86326 -2.81453,-0.85068 -3.52176,0.0227 -0.27818,0.34354 -0.50579,0.96862 -0.50579,1.38905 0,0.66896 0.0969,0.76444 0.77535,0.76444 0.60262,0 0.79418,-0.13261 0.85989,-0.59531 0.11361,-0.7999 1.11096,-0.81934 1.2243,-0.0239 0.0544,0.38203 -0.15632,0.73282 -0.63585,1.05833 -1.77065,1.20193 -2.48827,2.11896 -2.48827,3.17968 0,1.44346 0.60045,2.202 1.7431,2.202 0.57311,0 0.97669,-0.14947 1.07163,-0.39688 z m -0.96558,-1.46067 c -0.30883,-0.57707 -0.21046,-0.86068 0.61758,-1.78047 0.75222,-0.83557 0.869,-0.75335 0.75164,0.52916 -0.15522,1.69636 -0.81053,2.29523 -1.36922,1.25131 z m 5.61765,-1.64491 c 0.0651,-3.09095 0.12822,-3.5129 0.53684,-3.59128 0.4226,-0.0811 0.46302,0.22475 0.46302,3.50246 v 3.59128 h 0.92605 0.92604 v -3.44789 c 0,-2.91732 0.0652,-3.4729 0.42357,-3.61043 0.71923,-0.27599 0.89109,0.45675 0.89529,3.81717 l 0.004,3.24115 h 0.79375 0.79375 v -3.77759 c 0,-2.99079 -0.0858,-3.90006 -0.41187,-4.36562 -0.51128,-0.72996 -1.27545,-0.7528 -1.96938,-0.0589 l -0.52916,0.52917 -0.52917,-0.52917 c -0.62993,-0.62993 -1.04415,-0.66352 -1.73537,-0.1407 -0.59415,0.44939 -1.01611,0.52569 -0.77817,0.1407 0.0973,-0.15745 -0.21774,-0.26458 -0.77814,-0.26458 h -0.94165 v 4.23333 4.23334 h 0.91836 0.91836 z m 277.07093,-1.68523 c 0.31481,-0.1208 0.40823,-0.49781 0.37696,-1.52135 l -0.0416,-1.36075 -0.15687,1.29782 c -0.11666,0.96501 -0.29258,1.35038 -0.68604,1.50276 -0.29104,0.11271 -0.39007,0.2133 -0.22008,0.22353 0.17,0.0102 0.49742,-0.0537 0.7276,-0.14201 z m -7.38669,-2.22065 c 0,-0.7276 -0.11906,-1.32291 -0.26458,-1.32291 -0.14552,0 -0.26458,0.59531 -0.26458,1.32291 0,0.72761 0.11906,1.32292 0.26458,1.32292 0.14552,0 0.26458,-0.59531 0.26458,-1.32292 z m 1.52136,-0.47941 c 0.37124,-0.071 0.46992,0.112 0.49784,0.92304 l 0.0348,1.01158 0.1636,-0.92304 c 0.2328,-1.31343 1.01822,-1.41384 1.1666,-0.14914 l 0.11083,0.94447 -0.0278,-0.99448 -0.0277,-0.99447 -1.38907,-0.0207 -1.38906,-0.0207 0.0348,1.079 0.0349,1.07899 0.16359,-0.92304 c 0.10366,-0.58473 0.33332,-0.95549 0.62664,-1.01158 z m 3.89493,1.54808 c 0.21407,-0.13538 0.28707,-0.34191 0.16222,-0.45897 -0.12483,-0.11705 -0.28015,-0.064 -0.3451,0.11791 -0.17484,0.48948 -0.86778,0.40144 -0.86778,-0.11025 0,-0.24253 -0.0742,-0.36673 -0.16497,-0.27599 -0.25514,0.25513 0.10732,0.98204 0.48739,0.9775 0.18648,-0.002 0.51419,-0.11482 0.72824,-0.2502 z m 1.52903,-0.0315 c -0.25466,-0.14832 -0.46302,-0.49597 -0.46302,-0.77255 0,-0.27658 0.20836,-0.62423 0.46302,-0.77256 0.43584,-0.25386 0.43614,-0.27016 0.005,-0.27773 -0.58562,-0.0103 -0.90868,1.18083 -0.46521,1.71518 0.17957,0.21639 0.46077,0.38982 0.62484,0.38539 0.16409,-0.004 0.09,-0.1294 -0.16468,-0.27773 z m 2.51354,0.0129 c -0.79624,-0.32003 -0.75703,-0.78549 0.0661,-0.78549 0.74819,0 0.85067,-0.30736 0.26459,-0.79375 -0.31663,-0.26278 -0.47713,-0.26278 -0.79375,0 -0.74147,0.61535 -0.29692,1.87396 0.64823,1.83531 0.25156,-0.0103 0.17997,-0.10927 -0.18521,-0.25606 z m -0.38365,-1.36758 c 0.24694,-0.24694 0.38807,-0.24694 0.635,0 0.24694,0.24695 0.1764,0.3175 -0.3175,0.3175 -0.4939,0 -0.56443,-0.0706 -0.3175,-0.3175 z m 3.36021,0.3175 c 0,-0.7276 -0.11906,-1.32291 -0.26458,-1.32291 -0.14552,0 -0.26459,0.59531 -0.26459,1.32291 0,0.72761 0.11907,1.32292 0.26459,1.32292 0.14552,0 0.26458,-0.59531 0.26458,-1.32292 z m 2.26634,1.04903 c 0.51472,-0.27547 0.73282,-1.67493 0.3025,-1.94089 -0.11512,-0.0712 -0.16237,0.27243 -0.10507,0.76351 0.0956,0.819 0.0309,0.91398 -0.78287,1.1482 -0.48795,0.14044 -0.67096,0.26608 -0.40674,0.27921 0.26423,0.0131 0.71072,-0.0994 0.99218,-0.25003 z m 4.74512,0.0128 c 0.55613,-0.35453 0.0148,-1.1772 -0.82076,-1.24743 -0.63315,-0.0532 -0.63307,-0.0529 0.027,0.14422 0.83222,0.24854 0.88299,0.97526 0.0661,0.94643 -0.32743,-0.0116 -0.59532,0.0777 -0.59532,0.19844 0,0.29702 0.83278,0.2708 1.32292,-0.0417 z m 1.91823,0.0859 c -0.1819,-0.0734 -0.47956,-0.0734 -0.66146,0 -0.1819,0.0734 -0.0331,0.13346 0.33073,0.13346 0.3638,0 0.51263,-0.0601 0.33073,-0.13346 z m 4.71477,-0.24382 c 0.42936,-0.51736 0.003,-1.32107 -0.66852,-1.26096 -0.28779,0.0257 -0.39259,-0.0957 -0.29716,-0.34447 0.0824,-0.21467 0.032,-0.31291 -0.11411,-0.2226 -0.36542,0.22584 -0.32713,1.5465 0.056,1.92958 0.41933,0.41935 0.60695,0.40075 1.02383,-0.10155 z m -0.9879,-0.26019 c -0.22051,-0.57467 0.33932,-1.11509 0.74004,-0.71438 0.33866,0.33868 0.12885,1.12904 -0.29972,1.12904 -0.15465,0 -0.3528,-0.1866 -0.44032,-0.41466 z m 3.50729,-0.31074 c -0.0861,-0.0861 -0.15656,-0.0106 -0.15656,0.16775 0,0.17836 -0.11906,0.25071 -0.26458,0.16077 -0.29861,-0.18455 -0.36333,0.20993 -0.0808,0.49247 0.10107,0.10108 0.29059,-0.007 0.42113,-0.24033 0.13055,-0.23327 0.1669,-0.49456 0.0808,-0.58066 z m 0.78515,-1.59609 c -0.2771,-0.27709 -0.31946,0.0711 -0.16986,1.39545 l 0.14941,1.32291 0.0842,-1.28521 c 0.0463,-0.70686 0.0177,-1.35178 -0.0637,-1.43315 z m 2.66713,1.98557 c 0.0262,-0.29692 -0.003,-0.32697 -0.0802,-0.0821 -0.0669,0.21233 -0.38222,0.43451 -0.70067,0.49374 -0.47694,0.0887 -0.46281,0.10318 0.0802,0.0821 0.42741,-0.0166 0.67379,-0.19016 0.7007,-0.49374 z m -10.2308,-0.59902 c -0.17709,-0.21339 -0.57531,-0.37176 -0.8849,-0.35195 -0.50864,0.0326 -0.50255,0.0475 0.063,0.15471 0.35634,0.0676 0.68969,0.3625 0.77396,0.68475 0.0827,0.31617 0.19701,0.41915 0.25898,0.23327 0.061,-0.18304 -0.034,-0.50739 -0.21106,-0.72078 z m 2.38458,-0.26891 c 0.004,-0.5735 -0.45384,-1.1774 -0.89318,-1.1774 -0.14425,0 -0.0427,0.16053 0.22561,0.35674 0.26834,0.1962 0.40312,0.49386 0.29956,0.66146 -0.2845,0.4603 -0.89961,0.36527 -1.0246,-0.1583 -0.0842,-0.35246 -0.10435,-0.33667 -0.0846,0.0661 0.0183,0.37256 0.20328,0.52283 0.62495,0.50777 0.48313,-0.0172 0.5693,0.0851 0.44569,0.52917 -0.12271,0.44082 -0.0979,0.47146 0.12462,0.15369 0.15282,-0.21828 0.27969,-0.64096 0.28191,-0.93927 z m -18.51678,0.19844 c 0,-0.30727 -0.58857,-0.84801 -0.91282,-0.83862 -0.15279,0.004 -0.045,0.14311 0.23961,0.30818 0.51353,0.29787 0.51353,0.30167 0,0.50252 -0.48025,0.18785 -0.47464,0.20373 0.0779,0.22099 0.32743,0.0102 0.59532,-0.0767 0.59532,-0.19307 z m 25.73575,-0.22647 c -0.17912,-0.0725 -0.53631,-0.0769 -0.79375,-0.01 -0.25741,0.0671 -0.11086,0.12638 0.3257,0.13177 0.43657,0.005 0.6472,-0.0495 0.46805,-0.12197 z m -11.83425,-0.86718 c -0.0959,-0.1552 -0.4948,-0.26837 -0.88639,-0.25149 -0.54882,0.0237 -0.5907,0.0599 -0.18282,0.15797 0.29104,0.07 0.64029,0.23281 0.7761,0.36178 0.31353,0.2977 0.5239,0.10516 0.29311,-0.26826 z m 2.23041,-0.0279 c -0.21405,-0.13538 -0.62733,-0.23416 -0.91837,-0.21951 l -0.52917,0.0266 0.52917,0.12728 c 0.29104,0.07 0.64029,0.23281 0.7761,0.36178 0.13584,0.12897 0.31096,0.17047 0.38923,0.0922 0.0782,-0.0783 -0.0329,-0.25303 -0.24696,-0.38841 z m 5.61242,-0.047 c -0.18984,-0.18985 -0.31308,-0.20547 -0.31308,-0.0397 0,0.35316 0.31289,0.66606 0.48948,0.48948 0.0752,-0.0752 -0.004,-0.27759 -0.1764,-0.4498 z m 4.44174,0.047 c -0.21404,-0.13538 -0.62732,-0.23416 -0.91837,-0.21951 l -0.52916,0.0266 0.52916,0.12728 c 0.29105,0.07 0.6403,0.23281 0.77611,0.36178 0.13583,0.12897 0.31096,0.17047 0.38923,0.0922 0.0782,-0.0783 -0.0329,-0.25303 -0.24697,-0.38841 z m -17.65326,-0.1649 c -0.1819,-0.0734 -0.47956,-0.0734 -0.66146,0 -0.1819,0.0734 -0.0331,0.13346 0.33073,0.13346 0.3638,0 0.51263,-0.0601 0.33073,-0.13346 z M -152.83662,84.617588 c -0.11656,-0.181901 -0.22087,-0.806979 -0.2318,-1.389062 -0.0322,-1.71269 -1.03648,-3.661162 -2.23405,-4.33423 -1.26931,-0.713396 -2.00592,-0.565938 -3.20779,0.642152 -0.9177,0.922441 -1.99401,1.189577 -2.2374,0.555313 -0.26447,-0.689211 0.96802,-2.216097 3.32997,-4.125371 1.30928,-1.058354 2.38051,-2.089761 2.38051,-2.292011 0,-0.20225 0.10814,-0.367728 0.24031,-0.367728 0.32775,0 1.85928,-2.850015 2.91472,-5.423959 0.7976,-1.945164 1.9163,-3.571875 2.4564,-3.571875 0.12141,0 0.35085,0.285544 0.50987,0.63454 0.22402,0.49168 0.18531,0.953333 -0.17196,2.05052 -0.25359,0.778791 -0.60838,1.594575 -0.78842,1.812857 -0.18004,0.218281 -0.40315,0.716391 -0.4958,1.106913 -0.0927,0.39052 -0.51697,0.958197 -0.94293,1.261505 -0.42595,0.303307 -1.03968,0.99582 -1.36383,1.538919 -0.32416,0.5431 -0.95763,1.386102 -1.40772,1.87334 l -0.81834,0.885889 0.66145,0.437028 c 1.60962,1.063488 2.68251,2.616235 3.34188,4.83657 0.21053,0.708951 0.48363,1.289003 0.60688,1.289003 0.41217,0 1.62166,-0.721892 2.49523,-1.489303 0.47562,-0.417811 1.05962,-0.878718 1.29779,-1.024239 1.12663,-0.688369 2.78542,-1.892152 3.50302,-2.542138 0.43656,-0.395433 1.30091,-0.980101 1.92077,-1.299268 0.61986,-0.319164 1.21518,-0.719611 1.32292,-0.889881 0.27064,-0.427715 3.84483,-1.549535 4.59406,-1.441921 0.33618,0.04828 0.79367,0.413885 1.01666,0.812443 0.38986,0.696817 0.35549,0.821322 -0.89463,3.241146 -0.71504,1.384072 -1.42334,2.516494 -1.57399,2.516494 -0.18433,0 -0.18656,0.08736 -0.007,0.267097 0.39323,0.393229 2.37006,-0.272915 4.1068,-1.383895 0.80439,-0.514562 1.75072,-1.022877 2.10296,-1.129591 0.35224,-0.106712 1.17622,-0.508992 1.83106,-0.893956 0.65485,-0.384963 2.04009,-1.102381 3.07833,-1.594265 3.65583,-1.732016 4.32441,-0.312738 1.63707,3.475188 -0.34407,0.484971 -0.48709,1.054283 -0.43205,1.719792 0.0743,0.898154 0.14978,0.987941 0.77681,0.923864 0.99169,-0.101343 3.35801,-1.130562 4.59713,-1.999501 1.96991,-1.381401 4.59838,-2.824316 5.14489,-2.824316 0.31494,0 0.54366,0.172741 0.54366,0.410601 0,0.44998 -1.05457,2.53093 -1.41731,2.796731 -0.12467,0.09136 -0.0917,0.249563 0.0734,0.351565 0.31837,0.196757 0.934,-0.06359 5.98578,-2.531388 1.75266,-0.85617 3.31662,-1.556676 3.47548,-1.556676 0.15887,0 0.62987,-0.177861 1.04669,-0.395245 1.02168,-0.532842 4.119973,-0.522865 5.257512,0.01693 1.11569,0.529429 1.655379,1.709066 1.219542,2.66563 -0.169397,0.371784 -0.514504,0.729974 -0.766901,0.79598 -0.252399,0.066 -0.723828,0.580316 -1.04762,1.142921 -0.423682,0.736163 -0.993273,1.2143 -2.031883,1.705639 -0.79373,0.375499 -1.57551,0.682725 -1.73727,0.682725 -0.16176,0 -0.67514,0.197395 -1.14086,0.438658 -1.74822,0.905656 -3.3603,0.629701 -3.3603,-0.575217 0,-0.493085 0.17318,-0.682911 0.72761,-0.79752 2.16814,-0.448199 6.13886,-2.10738 6.52027,-2.724521 0.2721,-0.440269 -0.51794,-1.133623 -1.56642,-1.374711 -1.21591,-0.279588 -4.26723,0.141708 -4.88771,0.674843 -0.62487,0.536914 -4.48098,2.506385 -4.90736,2.506385 -0.21137,0 -0.38431,0.107416 -0.38431,0.238699 0,0.131286 -0.32742,0.369102 -0.7276,0.528479 -0.40018,0.15938 -1.17569,0.540718 -1.72336,0.847423 -1.28103,0.717405 -2.25482,0.509519 -2.66162,-0.568208 -0.40631,-1.076463 -0.7954,-1.025792 -3.35408,0.43679 -2.63156,1.504243 -4.93004,1.812914 -5.94463,0.798325 -0.52993,-0.529929 -0.59521,-0.769364 -0.41477,-1.521355 0.11778,-0.490844 0.50587,-1.428226 0.86242,-2.08307 0.76002,-1.395841 1.0595,-2.648024 0.63164,-2.641018 -0.16172,0.0026 -0.81797,0.359836 -1.45833,0.79375 -0.64036,0.433914 -1.42558,0.788935 -1.74493,0.788935 -0.31935,0 -0.79614,0.238125 -1.05953,0.529167 -0.26339,0.291041 -0.68398,0.529166 -0.93465,0.529166 -0.25067,0 -0.60398,0.178594 -0.78514,0.396875 -0.18116,0.218282 -0.45723,0.396875 -0.61349,0.396875 -0.15626,0 -0.70723,0.28719 -1.22437,0.638199 -0.51714,0.35101 -1.88246,0.84354 -3.03403,1.094513 -2.01316,0.438748 -2.10737,0.437697 -2.44739,-0.02731 -0.47289,-0.646715 -0.45529,-0.750189 0.27541,-1.618953 1.06422,-1.265317 1.7522,-2.704881 1.7522,-3.666371 0,-0.846818 -0.0625,-0.917993 -0.80646,-0.917993 -0.68935,0 -1.55986,0.431106 -4.00691,1.984375 -0.22926,0.14552 -1.05574,0.690218 -1.83662,1.210437 -0.78089,0.520221 -2.24482,1.47085 -3.25318,2.11251 -1.00836,0.641662 -2.02039,1.364057 -2.24896,1.605325 -1.01484,1.071234 -2.75645,2.34777 -3.20312,2.34777 -0.26868,0 -0.58388,-0.148829 -0.70044,-0.33073 z m 62.295691,-0.630195 c -0.261691,-0.656108 -0.320614,-1.303554 -0.185753,-2.041057 0.200126,-1.094396 0.193032,-1.309745 -0.14633,-4.442502 -0.269878,-2.491319 -0.05537,-3.096115 1.538509,-4.337778 1.40566,-1.095039 2.592327,-1.675569 4.676495,-2.287788 1.080161,-0.317294 1.261039,-0.49515 1.949569,-1.916981 0.417661,-0.862475 0.852797,-2.324015 0.967653,-3.250144 0.264197,-2.130322 0.826145,-3.049635 1.7957,-2.937656 0.701157,0.08098 0.711036,0.109694 0.711036,2.066497 0,1.835465 -0.07458,2.103503 -0.993785,3.571875 -1.233247,1.970024 -1.359472,2.232853 -1.165492,2.426835 0.08528,0.08528 1.0259,0.240318 2.090269,0.344532 2.175629,0.213019 2.652792,0.411737 3.745259,1.559724 0.708036,0.744019 0.754409,0.915469 0.614429,2.271729 -0.117981,1.143137 -0.07092,1.466972 0.213206,1.466972 0.200536,0 0.459825,-0.159393 0.576197,-0.354209 0.116371,-0.194815 1.090705,-0.879424 2.165183,-1.521354 1.074478,-0.641929 2.265103,-1.375754 2.645833,-1.63072 2.34723,-1.571881 4.219247,-1.801529 5.218232,-0.640138 0.348358,0.40499 0.633378,0.951595 0.633378,1.214678 0,0.263084 0.3082,0.786535 0.68489,1.163223 0.725855,0.725858 0.681204,1.262673 -0.08984,1.080103 -0.327036,-0.07744 -0.596241,0.177887 -0.91789,0.870572 -0.250322,0.539083 -0.411834,1.023445 -0.358915,1.076364 0.05292,0.05292 0.495853,-0.305506 0.984298,-0.796501 0.488447,-0.490996 1.304803,-1.174655 1.814126,-1.519246 0.509323,-0.344588 1.461823,-1.088567 2.116666,-1.653286 2.187994,-1.88686 3.209844,-2.440477 3.664808,-1.985513 0.433445,0.433446 0.416367,0.488138 -0.75392,2.414472 -1.13923,1.875208 -1.778947,3.783499 -1.506424,4.493686 0.09321,0.242903 0.499949,0.570793 0.903859,0.728638 0.92655,0.362096 4.363911,0.105254 5.321332,-0.39761 0.387596,-0.203576 1.597689,-0.751957 2.689096,-1.218621 3.15899,-1.350727 4.537903,-2.039779 5.953125,-2.974808 0.727604,-0.480724 2.034415,-1.274768 2.904024,-1.764538 0.869609,-0.489773 1.881902,-1.201725 2.249543,-1.582113 0.367641,-0.380392 1.233721,-1.186744 1.924622,-1.791896 0.690904,-0.60515 1.256186,-1.220703 1.256186,-1.367896 0,-0.147191 0.686763,-0.961755 1.526138,-1.810142 0.839377,-0.848386 1.821643,-2.137833 2.182812,-2.865437 0.361172,-0.727605 0.722318,-1.382448 0.80255,-1.455209 0.08023,-0.07276 0.363779,-0.727604 0.630103,-1.455208 0.266327,-0.727604 0.587637,-1.436026 0.71402,-1.574271 0.126387,-0.138245 0.229794,-0.422468 0.229794,-0.631605 0,-0.600044 2.351315,-4.011833 2.764848,-4.011833 0.909182,0 1.655932,1.806067 0.931796,2.253607 -0.149656,0.09249 -0.797726,1.200849 -1.440153,2.463012 -0.642427,1.262161 -1.531501,2.830621 -1.975721,3.485465 -0.444219,0.654844 -0.80818,1.339908 -0.808805,1.522367 -5.29e-4,0.182457 -0.512302,1.432613 -1.137062,2.778126 -0.624761,1.345509 -1.290805,2.863101 -1.480095,3.372424 -1.219817,3.282161 -1.63453,4.284279 -2.401126,5.802072 -0.814853,1.61335 -2.267958,3.283267 -3.638275,4.181133 -0.415337,0.27214 -1.320107,0.417611 -2.722422,0.437719 -1.800768,0.02582 -2.179185,-0.04866 -2.653115,-0.522224 -0.672518,-0.671994 -0.51303,-1.627997 0.417423,-2.502112 l 0.629187,-0.591089 1.266655,0.537231 c 2.250832,0.954656 2.806645,0.976484 3.790231,0.148849 0.80309,-0.675754 2.622825,-4.043444 2.644778,-4.894551 0.0049,-0.191439 0.239022,-0.82432 0.520189,-1.406403 1.009536,-2.089986 0.413994,-3.03466 -0.875694,-1.389063 -1.381787,1.763112 -1.961245,2.288657 -3.55033,3.219993 -0.896125,0.525206 -1.790735,1.116335 -1.988021,1.313622 -0.197287,0.197286 -0.769602,0.56633 -1.27181,0.820094 -0.502206,0.253765 -1.21076,0.728472 -1.574562,1.05491 -0.363802,0.326435 -1.197239,0.877284 -1.852083,1.224105 -0.654844,0.346821 -1.570855,0.908587 -2.03558,1.248365 -0.464725,0.339778 -1.453706,0.778365 -2.197735,0.974635 -0.74403,0.196274 -1.494896,0.468906 -1.668587,0.605851 -0.607931,0.479312 -4.825915,1.631553 -6.13664,1.676366 -2.731643,0.0934 -3.571875,-0.546468 -3.571875,-2.720094 0,-1.284854 -0.07833,-1.551646 -0.463021,-1.576959 -1.111748,-0.07316 -1.591321,0.139578 -2.711979,1.20301 -2.478765,2.352191 -3.580374,2.921516 -4.202497,2.171907 -0.226308,-0.272685 -0.168306,-0.654125 0.239721,-1.576541 0.296042,-0.669253 0.647052,-1.284063 0.780021,-1.366243 0.336804,-0.208155 0.626885,-2.347238 0.410686,-3.028418 -0.09817,-0.30929 -0.462582,-0.748496 -0.809813,-0.976011 -0.751964,-0.492704 -1.935459,-0.201835 -3.084303,0.758037 -1.066636,0.891185 -6.24666,4.757184 -7.126703,5.318863 -0.422051,0.269367 -0.944118,0.421934 -1.160153,0.339032 -0.482918,-0.185312 -0.512946,-1.064416 -0.05252,-1.537499 0.4392,-0.451274 1.11715,-2.575269 1.040564,-3.260045 -0.113036,-1.010688 -0.651965,-1.665127 -1.74098,-2.11413 -2.094082,-0.863393 -3.059303,-0.701762 -4.547108,0.761437 -0.942261,0.926674 -1.442749,1.76676 -1.442749,2.421699 0,0.243285 -0.284276,0.665949 -0.631725,0.93925 -0.347448,0.273304 -0.711885,0.826222 -0.809855,1.228704 -0.09797,0.402484 -0.448275,1.148508 -0.778452,1.657831 -0.330176,0.509323 -0.741981,1.337453 -0.915122,1.840291 -0.380055,1.103768 -1.025435,2.12846 -1.340564,2.12846 -0.126601,0 -0.402656,-0.432417 -0.613453,-0.960925 z m 3.62834,-7.469449 c 0.657937,-0.998684 1.196248,-1.944159 1.196248,-2.101051 0,-1.103059 -2.209591,0.08147 -2.651885,1.421635 -0.259535,0.7864 -0.154247,2.495206 0.153742,2.495206 0.0581,0 0.643958,-0.817105 1.301895,-1.81579 z m 62.221342,2.489882 c -0.385051,-0.356854 -0.700093,-0.757515 -0.700093,-0.89036 0,-0.37506 1.063043,-1.635815 1.379286,-1.635815 0.630349,0 2.59312,1.182208 2.742105,1.651611 0.453017,1.427334 -2.116201,2.084088 -3.421298,0.874564 z m 15.6770545,-1.278668 c -0.6893137,-0.463552 -0.9764342,-0.911002 -1.2308915,-1.918229 -0.392327,-1.552972 -0.263607,-2.308741 0.7606343,-4.465981 2.9025824,-6.113362 7.2765128,-11.275209 11.6736392,-13.776511 1.4837092,-0.844005 3.0580092,0.333648 2.7207739,2.035273 -0.5046583,2.546432 -1.6654701,4.472173 -3.4460948,5.716929 -1.41032176,0.985893 -1.66259933,1.074708 -2.11436744,0.744368 C -1.3682023,65.540211 -1.024109,64.75913 0.18056272,64.178525 1.765745,63.41453 2.2978406,62.83948 2.6261965,61.535457 c 0.2361856,-0.937975 0.191688,-1.98714 -0.08428,-1.98714 -0.030779,0 -0.6431174,0.174527 -1.3607548,0.387842 -1.02944346,0.305993 -1.58715074,0.710795 -2.6428012,1.918229 -1.7509914,2.002751 -3.5567833,4.418735 -3.5567833,4.758653 0,0.148371 -0.2712852,0.673333 -0.6028557,1.166583 -0.3315732,0.493249 -0.9268857,1.648806 -1.3229167,2.567903 -1.1564753,2.683901 -0.9077114,4.446227 0.7378382,5.227092 2.1392463,1.01514 7.3452754,-0.209314 11.6919748,-2.749941 1.047795,-0.612431 1.9786071,-1.23248 2.0684729,-1.377884 0.089863,-0.145405 0.6613287,-0.516819 1.269918,-0.825365 0.6085893,-0.308547 1.4828913,-0.872393 1.9428933,-1.25299 0.460002,-0.380598 1.273275,-0.989653 1.807276,-1.353455 0.534001,-0.363802 1.348261,-1.064387 1.809467,-1.556859 0.461206,-0.492469 1.180753,-1.041567 1.598994,-1.220219 0.418242,-0.178652 1.608867,-1.156673 2.645833,-2.173382 1.986629,-1.947813 3.806754,-2.944226 4.362675,-2.388304 0.436107,0.436107 0.383024,0.619313 -0.426757,1.472893 -2.246188,2.367672 -4.384649,5.080288 -4.832874,6.130454 -0.155276,0.363802 -0.694312,1.078177 -1.197859,1.5875 -1.73147,1.751335 -3.307053,4.508402 -2.568226,4.494067 0.352997,-0.0069 2.567321,-0.824727 2.842186,-1.049782 0.39841,-0.326213 3.565904,-2.020906 6.017766,-3.219662 1.495674,-0.73126 1.637657,0.151924 0.289009,1.797767 -0.839869,1.024951 -0.937678,1.281671 -0.722585,1.896613 0.2173,0.621245 0.410941,0.721564 1.530885,0.793089 0.774179,0.04944 1.626597,-0.08158 2.151634,-0.330729 0.478234,-0.226936 0.987179,-0.412613 1.130988,-0.412613 0.143809,0 1.225907,-0.47625 2.404666,-1.058333 1.178755,-0.582083 2.256464,-1.058334 2.394905,-1.058334 0.524589,0 0.571344,0.581401 0.138004,1.716085 -0.246674,0.645909 -0.378243,1.357464 -0.292375,1.58123 0.240599,0.626996 1.285047,0.484534 2.574766,-0.3512 4.851061,-3.143465 5.714608,-3.614846 7.033742,-3.839485 1.190969,-0.202812 1.482487,0.280521 1.371944,2.274668 -0.08385,1.512665 -0.04317,1.668409 0.454411,1.739564 0.30058,0.04298 0.895892,-0.06492 1.322917,-0.239795 0.427024,-0.174871 0.984768,-0.291851 1.23943,-0.259958 0.254661,0.03189 0.463021,-0.07463 0.463021,-0.236728 0,-0.385932 1.63336,-1.061093 2.571189,-1.062818 0.404857,-7.94e-4 1.212352,-0.294688 1.794436,-0.653201 0.582083,-0.358516 1.302411,-0.655564 1.600729,-0.660104 0.298318,-0.0046 0.655505,-0.107249 0.79375,-0.228237 0.368152,-0.322199 2.314443,-0.838354 3.161226,-0.838354 0.493612,0 1.01609,0.301421 1.605182,0.926042 0.82772,0.877639 1.867416,1.202251 2.339298,0.730372 0.21114,-0.211141 4.016719,-1.312945 5.316482,-1.539248 0.436562,-0.07601 1.041016,-0.26161 1.343231,-0.412449 0.745114,-0.371888 2.249736,-0.194058 2.560381,0.302609 0.191722,0.306536 -0.0055,0.662477 -0.816052,1.473068 -1.263414,1.263415 -1.6632,2.411722 -1.006753,2.891727 0.898255,0.656823 6.728712,-1.312021 7.835837,-2.646024 0.197988,-0.238564 0.754353,-0.598533 1.236366,-0.799931 0.961089,-0.401569 6.017125,-5.237178 6.362962,-6.085541 0.118613,-0.291042 0.612987,-1.213776 1.09855,-2.050521 0.958136,-1.651042 1.68365,-1.951866 2.5087,-1.040185 0.40349,0.44583 0.403701,0.561993 0.0032,1.581684 -0.237781,0.605282 -0.64053,1.166606 -0.895059,1.247386 -0.254503,0.08078 -0.53168,0.351285 -0.615923,0.601128 -0.08424,0.249841 -0.271093,0.632852 -0.415238,0.851133 -0.985599,1.49261 -3.365791,7.323614 -3.098562,7.590846 0.518531,0.518525 5.94368,-2.408545 6.407336,-3.456983 0.303847,-0.687072 1.579986,-1.185135 1.988873,-0.776234 0.279982,0.279961 -0.0095,1.02149 -0.881169,2.257486 -0.251089,0.355997 -0.251513,0.525647 -0.0026,0.775173 0.326099,0.326097 0.466354,0.286078 2.446787,-0.698023 0.363802,-0.18078 1.010655,-0.412131 1.437428,-0.514115 0.4268,-0.101986 1.134454,-0.487066 1.572578,-0.855731 0.43815,-0.368668 1.071218,-0.774708 1.406842,-0.902314 0.335624,-0.127603 0.610235,-0.363477 0.610235,-0.524161 0,-0.263742 1.510004,-0.116731 1.830573,0.178221 0.06093,0.05606 -0.337211,0.984604 -0.884793,2.063427 -1.17438,2.313713 -1.125934,3.067807 0.196532,3.058681 0.882836,-0.0061 2.908671,-0.808021 3.189631,-1.26261 0.0901,-0.145854 0.75967,-0.479428 1.48786,-0.741275 0.72816,-0.26185 1.32395,-0.567875 1.32395,-0.680059 0,-0.112183 0.64132,-0.677751 1.42518,-1.256818 2.40151,-1.774092 4.49495,-3.87562 5.1894,-5.209427 1.75768,-3.374638 2.847,-4.602334 4.08432,-4.602334 0.90578,0 0.44141,1.265153 -1.69958,4.630208 -0.55549,0.873125 -1.09479,2.004219 -1.19843,2.513542 -0.10363,0.509323 -0.28273,1.045104 -0.39801,1.190625 -0.21775,0.274892 -0.78764,3.065404 -0.78764,3.856744 0,1.258052 1.86812,0.779553 4.9866,-1.277257 2.90449,-1.915676 6.63303,-5.66323 7.4448,-7.482769 0.51168,-1.146855 1.01364,-1.930334 1.70841,-2.666445 0.37227,-0.394417 0.67686,-0.833186 0.67686,-0.97504 0,-0.141853 0.29887,-0.453741 0.66416,-0.693086 0.50726,-0.33237 0.78851,-0.36861 1.19062,-0.153414 0.28956,0.15497 0.52647,0.405197 0.52647,0.556065 0,0.372549 -1.25796,2.53933 -2.13408,3.675827 -1.93484,2.509909 -3.1066,5.213792 -3.19622,7.375324 -0.0551,1.328507 0,1.471838 0.84974,2.175695 0.49977,0.414423 1.1127,0.756698 1.36205,0.760614 0.48985,0.0077 3.11851,-2.974446 3.11851,-3.537844 0,-0.46736 0.78666,-2.011289 1.02478,-2.011289 0.43006,0 0.8273,0.681247 0.8273,1.418733 0,1.590797 -2.10574,4.091096 -4.47913,5.318432 -1.12802,0.583314 -2.66599,0.442722 -4.34837,-0.397499 -1.32472,-0.661596 -1.32805,-0.670354 -1.23391,-3.230812 0.0308,-0.836744 -0.0204,-1.521354 -0.11383,-1.521354 -0.45323,0 -1.74733,0.85902 -1.99705,1.325655 -0.15496,0.289536 -0.41947,0.526429 -0.58777,0.526429 -0.16833,0 -1.11958,0.483322 -2.11391,1.074046 -3.18011,1.88926 -6.01787,2.579693 -6.54609,1.592681 -0.30355,-0.567179 -0.0711,-3.656775 0.29195,-3.881178 0.37853,-0.233955 0.25201,-0.902216 -0.17085,-0.902216 -0.21828,0 -0.39687,0.232529 -0.39687,0.516731 0,0.363665 -0.2694,0.591116 -0.90948,0.76785 -0.958,0.264517 -1.21446,0.439878 -2.66798,1.824273 -0.49654,0.472943 -1.02232,0.859896 -1.16837,0.859896 -0.14608,0 -0.91631,0.297656 -1.71167,0.661458 -0.79534,0.363802 -1.751384,0.661459 -2.1245,0.661459 -0.373142,0 -0.678418,0.119062 -0.678418,0.264583 0,0.145521 -0.160311,0.264583 -0.356235,0.264583 -0.195924,0 -0.701939,0.164568 -1.124479,0.36571 -0.433017,0.206129 -1.191974,0.310028 -1.739292,0.238104 -0.76327,-0.100304 -1.038939,-0.291452 -1.288229,-0.893316 -0.262943,-0.634769 -0.24392,-0.877495 0.111151,-1.41942 0.235585,-0.35954 0.428334,-0.896025 0.428334,-1.192186 0,-0.735783 -1.323684,-0.742437 -1.852083,-0.0093 -0.209762,0.291042 -0.503952,0.5299 -0.653733,0.530797 -0.149754,7.94e-4 -0.609547,0.177522 -1.021741,0.392504 -1.064181,0.555045 -4.807585,0.838142 -5.331646,0.403206 -0.335094,-0.278093 -0.575706,-0.223655 -1.395253,0.315685 -1.001501,0.659085 -1.816577,0.891776 -4.096147,1.169424 -1.626288,0.198078 -1.851943,-0.273328 -0.946521,-1.977347 0.645293,-1.214396 0.67527,-2.400928 0.06583,-2.604072 -0.147241,-0.04908 -1.036926,0.542973 -1.977068,1.31568 -2.473195,2.032739 -6.373913,4.191712 -7.882445,4.362789 -1.876925,0.212855 -4.322138,0.0882 -4.718238,-0.240535 -0.609963,-0.506225 -0.388657,-1.705491 0.572587,-3.102896 0.509323,-0.740426 0.926042,-1.456508 0.926042,-1.591294 0,-0.13479 -0.565547,-0.06711 -1.256771,0.150402 -0.691224,0.217509 -1.852083,0.559546 -2.579688,0.760082 -0.727604,0.200536 -1.561041,0.474575 -1.852083,0.608981 -0.291042,0.134403 -1.124479,0.455115 -1.852083,0.712689 -0.727604,0.257575 -2.061959,0.865482 -2.965233,1.350902 -2.715178,1.459148 -3.635971,1.103244 -1.933512,-0.747342 0.580959,-0.631507 1.026658,-1.32679 0.990441,-1.545071 -0.158726,-0.956601 -2.885299,-0.318474 -4.728728,1.106709 -0.530265,0.409956 -1.149927,0.745374 -1.37703,0.745374 -0.227099,0 -1.221996,0.310184 -2.210882,0.6893 -0.988885,0.379114 -2.036098,0.715143 -2.32714,0.746729 -0.291042,0.03159 -0.789231,0.197649 -1.107085,0.369033 -0.709113,0.382341 -1.248021,0.389392 -2.530936,0.03311 -0.852172,-0.23666 -0.992187,-0.382747 -0.992187,-1.03522 0,-0.908182 -0.235945,-1.596697 -0.547167,-1.596697 -0.124282,0 -0.438967,0.221345 -0.699296,0.491877 -0.260331,0.270531 -0.823254,0.576103 -1.250942,0.679047 -0.427686,0.102947 -1.08253,0.401302 -1.455208,0.663012 -1.684481,1.182907 -4.909805,1.881979 -6.598124,1.43011 -0.596458,-0.159637 -0.620525,-0.248068 -0.467077,-1.716178 0.172331,-1.64879 0.0109,-1.866278 -0.756145,-1.018701 -0.26339,0.291042 -0.626292,0.529167 -0.80645,0.529167 -0.180157,0 -0.38949,0.161387 -0.465182,0.35864 -0.140764,0.366826 -3.856168,1.043495 -5.82398,1.060698 -1.293079,0.0113 -1.562293,-0.404772 -1.401551,-2.166146 0.127461,-1.396688 0.123765,-1.405186 -0.449659,-1.033788 -2.914539,1.887694 -4.168995,2.575208 -4.707811,2.580156 -0.348078,0.0032 -1.151884,0.241321 -1.786239,0.529167 -2.7455966,1.245846 -3.324243,0.200575 -1.248209,-2.254769 0.615204,-0.727604 1.645357,-2.08211 2.289231,-3.010014 0.643877,-0.927904 1.336156,-1.913366 1.538404,-2.189919 0.646324,-0.883788 0.118475,-0.819791 -1.266272,0.153527 -0.739741,0.519951 -1.495028,0.94742 -1.678422,0.949936 -0.183393,0.0024 -0.61383,0.30017 -0.956527,0.661458 -0.342696,0.361286 -0.733488,0.656887 -0.868431,0.656887 -0.3561129,0 -3.8971957,2.368852 -4.1312515,2.763655 -0.2956216,0.498647 -1.0316739,0.819137 -3.3730671,1.468697 -1.1641667,0.322966 -2.26767236,0.709821 -2.45223247,0.859673 -0.18456276,0.149855 -0.77987527,0.370004 -1.32291673,0.489223 -0.543044,0.119216 -1.6280738,0.359825 -2.411177,0.534688 -0.9474042,0.211548 -1.5671271,0.231323 -1.8520834,0.05909 -0.2355427,-0.142361 -0.7259135,-0.173101 -1.0897156,-0.06831 -1.1132529,0.32067 -1.4748246,0.266427 -2.4082693,-0.361297 z M -112.24367,67.223753 c -1.26,-0.991114 -1.18696,-2.912936 0.1107,-2.912936 1.62484,0 2.36073,1.771983 1.1919,2.870039 l -0.61848,0.581027 z M 9.3457401,66.692067 C 9.2696301,66.401025 9.0942748,66.1629 8.9560618,66.1629 c -0.1382157,0 -0.2136246,-0.327422 -0.1675791,-0.727604 0.081171,-0.705453 0.1341093,-0.728051 1.7388763,-0.742286 1.962383,-0.01741 2.441845,0.187968 2.024184,0.867045 -0.408551,0.664268 -1.940433,1.661179 -2.5526127,1.661179 -0.2922958,0 -0.5746221,-0.228722 -0.6531902,-0.529167 z M 118.72324,49.468631 c -0.0798,-0.305078 -0.0805,-0.722823 -0.003,-0.928325 0.18312,-0.477184 1.24725,-0.74988 1.77459,-0.454761 0.34687,0.194128 0.30892,0.349383 -0.26461,1.082207 -0.77264,0.987258 -1.30125,1.092703 -1.50831,0.300879 z"
       id="path916"
       clip-path="url(#clipPath1372)" />
  </g>
</svg>
