<?xml version="1.0" encoding="UTF-8"?>
<svg version="1.1" xmlns="http://www.w3.org/2000/svg" width="512" height="151">
<path d="M0 0 C1.89617208 3.79234417 1.44724127 8.38267782 1.625 12.5625 C1.69255493 14.11565918 1.69255493 14.11565918 1.76147461 15.70019531 C2.03994968 23.20107478 1.86662577 30.53889561 1.25390625 38.015625 C1.05565254 41.12668315 1.01313604 44.10965744 1.0625 47.21875 C1.10252632 54.3742238 0.01107237 61.32530054 -1.02148438 68.390625 C-1.77546563 73.8894278 -2.16132832 78.55483147 -1 84 C-1.66 84 -2.32 84 -3 84 C-3.06731323 84.88353149 -3.06731323 84.88353149 -3.13598633 85.78491211 C-3.34981994 88.50350163 -3.58105974 91.22035495 -3.8125 93.9375 C-3.91788086 95.32678711 -3.91788086 95.32678711 -4.02539062 96.74414062 C-5.08792248 108.85700372 -5.08792248 108.85700372 -8 114 C-10.63528683 115.73056161 -11.57329383 116.05818721 -14.75 115.625 C-15.4925 115.41875 -16.235 115.2125 -17 115 C-19.42558501 109.39024934 -19.13862207 104.40279548 -18.8125 98.4375 C-18.76424072 97.42389404 -18.71598145 96.41028809 -18.66625977 95.3659668 C-18.2432055 87.73615639 -17.24266733 80.28972542 -16.0234375 72.75292969 C-14.61081705 63.50379729 -14.72939241 54.33095059 -15 45 C-15.72590332 45.01047363 -16.45180664 45.02094727 -17.19970703 45.03173828 C-20.50810241 45.0734696 -23.81644224 45.09938064 -27.125 45.125 C-28.26710938 45.14175781 -29.40921875 45.15851562 -30.5859375 45.17578125 C-32.24882813 45.18544922 -32.24882813 45.18544922 -33.9453125 45.1953125 C-34.96125488 45.20578613 -35.97719727 45.21625977 -37.02392578 45.22705078 C-40.28863374 44.97797954 -42.93424429 44.1179329 -46 43 C-51.15112304 42.35610962 -55.11582086 43.33937909 -60 45 C-63.32377104 45.52693931 -66.64290574 45.78708694 -70 46 C-70.85335938 46.06574219 -71.70671875 46.13148437 -72.5859375 46.19921875 C-80.32458838 46.54448164 -85.10527478 44.41227102 -91 39.5 C-93 37 -93 37 -93 33 C-94.65 33 -96.3 33 -98 33 C-97.835 33.66 -97.67 34.32 -97.5 35 C-96.87627151 38.74237092 -96.34623502 42.23123719 -97 46 C-101.04077843 51.47460303 -107.74431831 56.11313388 -114.3125 57.90234375 C-119.03911399 58.02751891 -121.62880404 56.65579783 -125.625 54.3125 C-126.58792969 53.78366211 -126.58792969 53.78366211 -127.5703125 53.24414062 C-131.33649739 51.13337922 -134.69769712 48.80252907 -138 46 C-141.93021771 47.33531039 -144.34327555 48.99805492 -147.3125 51.875 C-153.31970013 57.35507826 -159.55032125 61.29457596 -168 61 C-169.65166912 60.58507502 -171.29747702 60.14630086 -172.9375 59.6875 C-176.05308992 58.95497962 -177.40122128 58.6949811 -180.28515625 60.1640625 C-181.77194572 61.27063244 -183.25367756 62.38402781 -184.73046875 63.50390625 C-188.68963737 66.11382291 -192.3360255 66.6489008 -197 66 C-202.71836875 63.87483606 -207.70934536 61.34863646 -212 57 C-213.53545874 56.0585702 -215.10021774 55.16365136 -216.6875 54.3125 C-217.89986328 53.65701172 -217.89986328 53.65701172 -219.13671875 52.98828125 C-219.75160156 52.66214844 -220.36648438 52.33601563 -221 52 C-221 51.34 -221 50.68 -221 50 C-224.58089877 49.04857872 -226.32296108 48.64512455 -229.66796875 50.3984375 C-230.49941406 51.05070312 -231.33085937 51.70296875 -232.1875 52.375 C-236.80350877 55.93450292 -236.80350877 55.93450292 -240 57 C-239.84664747 58.95727418 -239.84664747 58.95727418 -239 61 C-236.94877525 62.17075821 -236.94877525 62.17075821 -234.5 62.9375 C-232.03515625 63.91796875 -232.03515625 63.91796875 -230 65 C-228.9375 67.75 -228.9375 67.75 -229 70 C-231.46213995 72.36365435 -232.88167837 72.98437261 -236.3125 73.4375 C-239.72017956 73.03319904 -240.77239848 72.7223731 -243.5 71 C-247.12918196 68.73480589 -249.68173761 68.29337525 -254 69 C-254.99 69.825 -255.98 70.65 -257 71.5 C-260 74 -260 74 -263.5 74.5625 C-267.66364975 73.893342 -269.87148776 72.82329153 -273 70 C-273.78116491 66.61495204 -273.13345629 65.25023054 -271.5 62.1875 C-271.005 61.465625 -270.51 60.74375 -270 60 C-276.5982523 58.27871679 -280.98656647 60.03447114 -287 63 C-287.86625 63.5775 -288.7325 64.155 -289.625 64.75 C-293.24534997 66.65544735 -295.92402677 66.32348994 -300 66 C-301.3479743 65.36345658 -302.68596724 64.70394612 -304 64 C-305.98491642 64.26676204 -305.98491642 64.26676204 -308 65 C-308.86625 65.103125 -309.7325 65.20625 -310.625 65.3125 C-311.40875 65.539375 -312.1925 65.76625 -313 66 C-313.6837045 67.32467746 -314.34964186 68.65863633 -315 70 C-319.019297 72.36429235 -323.45562797 72.91862977 -328 72 C-332.98088242 69.66339239 -336.7316499 66.77667435 -339.6875 62.125 C-340.450625 61.09375 -341.21375 60.0625 -342 59 C-345.21276343 58.4136018 -345.21276343 58.4136018 -348 59 C-348.99 61.31 -349.98 63.62 -351 66 C-351.66 66 -352.32 66 -353 66 C-353 66.99 -353 67.98 -353 69 C-353.66 69 -354.32 69 -355 69 C-355 69.66 -355 70.32 -355 71 C-358.19233485 72.59616743 -361.53461497 72.51466114 -365 72 C-367.43119623 70.12984906 -368.64069173 68.71861655 -370 66 C-375.94 66.495 -375.94 66.495 -382 67 C-382.0825 68.98 -382.165 70.96 -382.25 73 C-383.06526036 83.41721565 -386.77836963 88.31392146 -394.4375 95.1875 C-397.46798919 98.51364667 -399.4964234 102.06345653 -401.66796875 105.98828125 C-402.10753906 106.65214844 -402.54710937 107.31601563 -403 108 C-403.66 108 -404.32 108 -405 108 C-405.495 109.485 -405.495 109.485 -406 111 C-406.66 111 -407.32 111 -408 111 C-408.24363281 111.58652344 -408.48726563 112.17304687 -408.73828125 112.77734375 C-410.21916268 115.38607914 -411.84668778 116.69710231 -414.1875 118.5625 C-418.75509149 122.45341127 -421.56530366 126.67165094 -424.4921875 131.875 C-424.98976563 132.57625 -425.48734375 133.2775 -426 134 C-426.99 134 -427.98 134 -429 134 C-429.40617554 134.88993652 -429.40617554 134.88993652 -429.82055664 135.79785156 C-433.03576595 141.80099542 -439.33622307 147.31668924 -445 151 C-448.94033746 151.99079169 -452.06186612 151.94032993 -456 151 C-456.495 150.01 -456.495 150.01 -457 149 C-456.05016642 147.49460339 -455.08988109 145.99579653 -454.125 144.5 C-453.59132813 143.6646875 -453.05765625 142.829375 -452.5078125 141.96875 C-451.76144531 140.99421875 -451.76144531 140.99421875 -451 140 C-450.34 140 -449.68 140 -449 140 C-449 139.34 -449 138.68 -449 138 C-447.68799596 136.64567325 -446.35368596 135.31266518 -445 134 C-444.67 133.34 -444.34 132.68 -444 132 C-443.34 132 -442.68 132 -442 132 C-441.6596875 131.01 -441.6596875 131.01 -441.3125 130 C-438.50104438 123.57381573 -434.27109906 117.85681022 -430.33203125 112.078125 C-429.06658465 110.10387987 -428.00572843 108.11631955 -427 106 C-426.34 106 -425.68 106 -425 106 C-424.89945313 105.45214844 -424.79890625 104.90429688 -424.6953125 104.33984375 C-423.5443631 100.46670504 -421.25796045 97.1969437 -419.1796875 93.75390625 C-417.8347996 90.61435006 -417.98803272 89.20456306 -419 86 C-428.45804371 84.6488509 -436.14579968 89.13963094 -444 94 C-446.23787037 95.69483228 -448.24629736 97.44223537 -450.26171875 99.390625 C-453.8977092 102.7569802 -457.95517697 106 -463 106 C-463 106.66 -463 107.32 -463 108 C-463.639375 108.103125 -464.27875 108.20625 -464.9375 108.3125 C-465.618125 108.539375 -466.29875 108.76625 -467 109 C-467.33 109.99 -467.66 110.98 -468 112 C-470.64 112.33 -473.28 112.66 -476 113 C-476.13685034 111.14795877 -476.23282109 109.29288028 -476.3125 107.4375 C-476.37050781 106.40496094 -476.42851562 105.37242188 -476.48828125 104.30859375 C-475.82190009 99.79319501 -474.25170375 97.18036838 -471 94 C-467.77040724 91.76109284 -464.37422838 89.96723667 -460.875 88.1875 C-459.08034457 87.24422094 -457.28605764 86.30024036 -455.4921875 85.35546875 C-454.70183105 84.94965576 -453.91147461 84.54384277 -453.09716797 84.12573242 C-450.80060842 82.93583929 -450.80060842 82.93583929 -448 81 C-446.68 81 -445.36 81 -444 81 C-444 80.34 -444 79.68 -444 79 C-428.3542728 69.67015531 -428.3542728 69.67015531 -422.8125 68.8125 C-419.05853088 68.01247379 -418.29396703 67.77996381 -415.875 65.125 C-413.76370459 62.32879569 -413.76370459 62.32879569 -414.2265625 60.09375 C-415.10968296 57.70308047 -416.25442577 55.59820517 -417.5 53.375 C-422.02897848 44.40893535 -421.20276766 36.5756677 -419 27 C-408.63414634 23.68292683 -408.63414634 23.68292683 -404 26 C-404 26.66 -404 27.32 -404 28 C-402.68 28.66 -401.36 29.32 -400 30 C-400 30.66 -400 31.32 -400 32 C-399.34 32 -398.68 32 -398 32 C-398 32.66 -398 33.32 -398 34 C-397.34 34 -396.68 34 -396 34 C-395.4225 34.66 -394.845 35.32 -394.25 36 C-392.11882385 38.26329211 -392.11882385 38.26329211 -389 38.4375 C-385.73019003 37.96065271 -384.462811 37.11098086 -382 35 C-381.34 35 -380.68 35 -380 35 C-379.67 34.01 -379.34 33.02 -379 32 C-378.34 32 -377.68 32 -377 32 C-377 31.34 -377 30.68 -377 30 C-372.47806839 27.7390342 -368.96161052 27.59987012 -364 28 C-362 29.375 -362 29.375 -361 31 C-361 31.66 -361 32.32 -361 33 C-356.57750043 32.50861116 -355.00085475 31.18272473 -352 28 C-349.3472619 26.13102543 -346.64427228 24.39129197 -343.87109375 22.70703125 C-343.15050781 22.26746094 -342.42992187 21.82789062 -341.6875 21.375 C-341.01074219 20.97023438 -340.33398438 20.56546875 -339.63671875 20.1484375 C-337.84395932 19.08400007 -337.84395932 19.08400007 -337 17 C-335.00045254 16.95745644 -332.99958364 16.95919217 -331 17 C-330 18 -330 18 -329.875 20.9375 C-329.90452214 23.85428779 -330.19504303 26.67056596 -330.5625 29.5625 C-331.47762103 38.11234501 -331.36208854 47.96834404 -328 56 C-325.17318015 57.22062677 -325.17318015 57.22062677 -322.875 56.5625 C-320.61066812 55.02339707 -320.61066812 55.02339707 -320.4375 51.5 C-320.38464844 50.79617187 -320.33179688 50.09234375 -320.27734375 49.3671875 C-319.70519182 44.48374992 -318.2014395 39.402879 -316 35 C-313.04015767 34.01338589 -310.97653066 33.58399794 -308.046875 34.83203125 C-306.32512701 35.82238629 -304.65774928 36.90588548 -303 38 C-303 38.66 -303 39.32 -303 40 C-297.07582328 41.93442505 -292.11191164 43.42222428 -286.13671875 40.69140625 C-284.04543978 39.60539961 -281.9581721 38.5116335 -279.875 37.41015625 C-275.80585063 35.41428271 -272.39067222 34.25068483 -267.90625 35.65625 C-264.59664358 37.98925124 -264.66363157 41.68184214 -263.90625 45.46875 C-263.23734845 48.14835001 -263.23734845 48.14835001 -260.90625 49.34375 C-260.2771875 49.5603125 -259.648125 49.776875 -259 50 C-259.0825 48.9275 -259.165 47.855 -259.25 46.75 C-259 43 -259 43 -257.32421875 40.9140625 C-254.79860178 38.83414264 -252.61236707 37.79197763 -249.5625 36.625 C-245.0481822 34.85446366 -240.72101716 32.89986411 -236.375 30.75 C-229.67739609 27.64584106 -223.78268981 25.66905359 -216.625 28.1875 C-214.09574187 29.93389252 -212.09201062 31.75856005 -210 34 C-209.34 34.33 -208.68 34.66 -208 35 C-208 35.66 -208 36.32 -208 37 C-201.50892777 35.05267833 -195.83433566 32.47511641 -189.89453125 29.20703125 C-186.59656476 27.83176587 -184.53971814 27.56752448 -181 28 C-178.5078125 29.27734375 -178.5078125 29.27734375 -176.125 30.9375 C-171.50941362 33.86648865 -168.48708633 35.09300146 -163 35 C-160.21692394 33.66457328 -160.21692394 33.66457328 -158 32 C-157.01 32 -156.02 32 -155 32 C-155 31.34 -155 30.68 -155 30 C-153.3203125 28.4921875 -153.3203125 28.4921875 -151.125 26.875 C-150.04605469 26.06675781 -150.04605469 26.06675781 -148.9453125 25.2421875 C-147 24 -147 24 -145 24 C-145 23.34 -145 22.68 -145 22 C-144.195625 21.62875 -143.39125 21.2575 -142.5625 20.875 C-139.76709582 19.50662033 -137.38342129 17.8367675 -134.875 16 C-128.88471325 11.94239023 -122.05710335 9.69398977 -114.7890625 10.2421875 C-108.9872965 11.4025407 -103.38707855 13.17024164 -97.73828125 14.91601562 C-91.61789108 16.73976825 -86.2602773 18.0867591 -80 16 C-78.79117904 13.99983534 -78.79117904 13.99983534 -78 12 C-77.34 12 -76.68 12 -76 12 C-76 11.34 -76 10.68 -76 10 C-70.77274275 7.46557224 -66.37770923 7.30067376 -60.8125 8.9375 C-54.68306041 11.82769133 -48.03873064 16.72398813 -43.44921875 21.671875 C-41.48739685 23.46977108 -39.60270841 24.001307 -37.0625 24.75 C-36.20785156 25.01296875 -35.35320312 25.2759375 -34.47265625 25.546875 C-30.62418875 26.25212339 -28.48311068 25.23149053 -25 23.5625 C-21.38417868 20.47398595 -20.61641288 17.93572981 -19.0703125 13.55078125 C-17.48284185 9.76750266 -15.1078552 6.68163506 -12 4 C-11.34 4 -10.68 4 -10 4 C-10 3.34 -10 2.68 -10 2 C-6.5980513 -0.09350689 -3.94727588 -0.17942163 0 0 Z M-71.80078125 27.26953125 C-73.27752947 28.77447514 -74.64694774 30.38293754 -76 32 C-75.67 32.99 -75.34 33.98 -75 35 C-72.839688 35.95830831 -72.839688 35.95830831 -70.25 36.5625 C-66.72311061 37.52254152 -63.36158801 38.54331186 -60 40 C-58.78702351 37.7193293 -58.78702351 37.7193293 -58 35 C-58.76603959 32.7142289 -58.76603959 32.7142289 -60 31 C-60.66 31 -61.32 31 -62 31 C-62.33 29.68 -62.66 28.36 -63 27 C-67.57505406 25.61922619 -67.57505406 25.61922619 -71.80078125 27.26953125 Z " fill="#000000" transform="translate(493,0)"/>
<path d="M0 0 C-0.33 0.66 -0.66 1.32 -1 2 C-2.10794922 2.15275391 -2.10794922 2.15275391 -3.23828125 2.30859375 C-7.02228768 3.25593341 -8.55482729 5.23068412 -11.1875 8.0625 C-12.75759039 9.74087249 -14.35460894 11.39537969 -16 13 C-16.66 13 -17.32 13 -18 13 C-16.4722133 9.56247993 -14.49818944 6.81046312 -12 4 C-11.34 4 -10.68 4 -10 4 C-10 3.34 -10 2.68 -10 2 C-6.5980513 -0.09350689 -3.94727588 -0.17942163 0 0 Z " fill="#000000" transform="translate(493,0)"/>
<path d="M0 0 C0.99 0.66 1.98 1.32 3 2 C1.79618552 4.49361571 0.54571278 6.68143083 -1 9 C-1.33 9.66 -1.66 10.32 -2 11 C-3 10 -3 10 -3.25 7.75 C-2.95277626 4.48053884 -1.83765781 2.67991764 0 0 Z " fill="#000000" transform="translate(223,60)"/>
<path d="M0 0 C4.21878192 -0.19622241 7.17010894 0.19769832 11 2 C10.67 2.66 10.34 3.32 10 4 C9.38511719 3.91621094 8.77023437 3.83242188 8.13671875 3.74609375 C7.32847656 3.64425781 6.52023437 3.54242188 5.6875 3.4375 C4.88699219 3.33308594 4.08648437 3.22867188 3.26171875 3.12109375 C0.83182884 2.85244822 0.83182884 2.85244822 -2 4 C-1.34 2.68 -0.68 1.36 0 0 Z " fill="#000000" transform="translate(314,56)"/>
<path d="M0 0 C0.99 0.33 1.98 0.66 3 1 C2.34 2.32 1.68 3.64 1 5 C3.31 5.66 5.62 6.32 8 7 C8 7.33 8 7.66 8 8 C1.9453125 8.1953125 1.9453125 8.1953125 0 8 C-0.66 7.34 -1.32 6.68 -2 6 C-1.44444444 1.44444444 -1.44444444 1.44444444 0 0 Z " fill="#000000" transform="translate(417,29)"/>
<path d="M0 0 C-3.27688103 1.95218444 -5.77069727 2.27063566 -9.5625 2.25 C-10.98755859 2.25773437 -10.98755859 2.25773437 -12.44140625 2.265625 C-15 2 -15 2 -18 0 C-16.86111328 0.01740234 -16.86111328 0.01740234 -15.69921875 0.03515625 C-14.70535156 0.04417969 -13.71148437 0.05320313 -12.6875 0.0625 C-11.70136719 0.07410156 -10.71523438 0.08570313 -9.69921875 0.09765625 C-0.73084677 -0.22681452 -0.73084677 -0.22681452 0 0 Z " fill="#000000" transform="translate(428,44)"/>
<path d="M0 0 C2.31 0 4.62 0 7 0 C8.0625 1.8125 8.0625 1.8125 9 4 C8.67 4.99 8.34 5.98 8 7 C7.34 6.34 6.68 5.68 6 5 C6 3.68 6 2.36 6 1 C4.35 1 2.7 1 1 1 C0.67 1.99 0.34 2.98 0 4 C0 2.68 0 1.36 0 0 Z " fill="#000000" transform="translate(394,32)"/>
<path d="M0 0 C-1.28913487 0.67154933 -2.58140204 1.33708859 -3.875 2 C-4.59429687 2.37125 -5.31359375 2.7425 -6.0546875 3.125 C-8 4 -8 4 -10 4 C-9 1 -9 1 -6.6875 -0.25 C-3.83402593 -1.04631835 -2.75197675 -0.8214856 0 0 Z " fill="#000000" transform="translate(341,56)"/>
<path d="M0 0 C-3.44069624 2.29379749 -4.72290301 3 -9 3 C-9 2.34 -9 1.68 -9 1 C-5.57367167 -0.61798838 -3.61944899 -1.34053666 0 0 Z " fill="#000000" transform="translate(125,29)"/>
</svg>
