<?xml version="1.0" encoding="utf-8"?>
<!-- Generator: Adobe Illustrator 13.0.1, SVG Export Plug-In . SVG Version: 6.00 Build 14948)  -->
<!DOCTYPE svg PUBLIC "-//W3C//DTD SVG 1.1//EN" "http://www.w3.org/Graphics/SVG/1.1/DTD/svg11.dtd">
<svg version="1.1" xmlns="http://www.w3.org/2000/svg" xmlns:xlink="http://www.w3.org/1999/xlink" x="0px" y="0px"
	 width="785.424px" height="288.6px" viewBox="0 0 785.424 288.6" enable-background="new 0 0 785.424 288.6" xml:space="preserve">
<g id="Layer_2">
</g>
<g id="Layer_1">
	<g>
		<g>
			<path d="M450.025,1.8c1.095,1.905,2.783,3.217,2.398,6.601c5.3,1.181,7.065-3.974,10.2-3c-2.563,6.637-10.328,8.072-15,12.6
				c4.188,15.336-19.424,19.581-15.601,3.601c1.059-1.542,4.342-0.858,5.399-2.4C431.785,9.177,440.192-0.119,450.025,1.8z
				 M441.025,12c2.351,2.318,4.539,2.335,6.6,1.2c-0.002-3.998-2.309-5.691-5.4-6.6C441.359,7.935,440.718,9.493,441.025,12z
				 M439.225,27.6c2.59-0.612,4.662-1.739,4.2-5.4c-1.835,0.436-1.765-1.035-3.6-0.6C439.367,23.3,438.055,26.129,439.225,27.6z"/>
			<path d="M429.025,12c1.789,4.02-2.033,8.938-5.4,7.8C421.721,15.472,424.863,12.141,429.025,12z"/>
			<path d="M457.825,19.2c0.996,3.536-2.375,7.524-7.2,7.2C450.404,21.379,453.542,19.717,457.825,19.2z"/>
			<path d="M445.825,35.4c1.34,4.379-1.87,6.09-1.2,11.399c0.557,1.443,4.363-0.362,3.6,2.4c0.393,2.392-2.28,1.719-4.198,1.8
				c-2.63,2.57-0.421,9.979-6,9.601c-0.458-3.258,0.739-4.859,0.6-7.801c-10.494-5.59-14.295,5.63-20.399,8.4
				c4.834-7.301,10.095-16.823,16.801-22.8C437.34,36.337,441.813,33.965,445.825,35.4z M440.425,40.8
				c-3.225-0.216-8.229,2.965-9,7.2c1.79,1.249,5.328-1.167,7.2,0C439.99,46.365,440.34,43.714,440.425,40.8z"/>
			<path d="M504.023,37.2c-2.573,5.426-5.679,10.321-13.198,10.8c-2.32-1.479-2.172-5.428-4.802-6.6
				c-1.655,0.144-1.368,2.23-2.398,3c-0.204,4.55,7.485,6.638,8.398,10.8c2.683,12.205-10.573,9.101-18,6
				c1.807-4.54,8.957-3.469,12.602-1.8c-0.791-3.81-4.097-5.104-6.602-7.2c-5.153-9.5,10.179-21.495,14.4-9.6
				C499.26,42.74,500.04,35.944,504.023,37.2z"/>
			<path d="M372.625,42c1.35,3.772-1.984,6.913-5.4,7.8C366.241,47.677,368.053,42.067,372.625,42z"/>
			<path d="M408.625,43.2c1.934,4.663-1.664,8.641-6,9C400.577,47.422,403.824,43.094,408.625,43.2z"/>
			<path d="M472.225,58.2c-4.484-0.676-2.605-6.326-1.199-9C476.92,48.436,475.748,57.225,472.225,58.2z"/>
			<path d="M505.225,52.8c1.467,3.074-0.363,7.483-3.6,7.801C497.28,58.889,500.247,52.101,505.225,52.8z"/>
			<path d="M87.026,81c0.657,3.857-2.089,4.312-3.6,6C79.011,85.186,84.108,77.413,87.026,81z"/>
			<path d="M118.826,84c1.979,3.564-2.703,7.196-6,5.4C113.306,86.079,114.76,83.734,118.826,84z"/>
			<path d="M57.626,108.6c-2.292,0.292-1.878-2.122-3-3c-2.994,5.966,0.772,15.263-6.6,18.6c3.179,2.621,6.434,5.166,9,8.4
				c2.135,0.135,3.595-0.405,4.2-1.801c-0.354-3.646-7.471-0.528-6-6c5.814-1.487,9.576,0.324,12,4.2
				c-1.297,4.903-6.292,6.107-9,9.601c1.57,5.029,0.513,12.688,2.4,17.399c1.258,2.942,7.134,1.267,7.2,5.4
				c-11.487,7.624-12.443-10.165-14.4-18c-9.916,2.483-13.511,11.289-25.8,11.399c-1.656-1.93-3.493-5.943-1.2-8.399
				c3.889-0.689,3.843,2.558,6,3.6c9.339-1.461,13.187-8.413,19.8-12.6c-0.801-5.398-4.285-8.115-9-9.601
				c-0.21-2.16-0.917-2.892,0-4.8c-1.953-1.661-5.769-3.247-4.2-6.6c3.112-1.611,3.841,2.465,7.2,2.399
				c4.674-1.533,2.139-6.624,0.6-9.6C45.403,98.643,64.771,97.919,57.626,108.6z"/>
			<path d="M163.826,106.8c-2.084,5.794-10.264,1.008-12.6-1.8c-2.556,5.63,6.687,9.693,2.4,16.2
				c-3.814,5.789-12.928,2.163-16.8-2.4c-2.413-0.413-3.425,0.575-5.4,0.601c4.597-8.3,10.43,0.703,18,0.6
				c3.518-3.839-2.532-6.954-3-10.8c-1.105-9.081,7.262-11.099,11.4-3.6C160.474,105.352,162.463,105.763,163.826,106.8z"/>
			<path d="M106.826,110.4c3.674-0.075,7.209-0.009,9,1.8c0.139,3.139-3.682,2.318-6.6,2.4c-1.307,1.093,0.107,4.906-1.2,6
				c-4.002,0.201-3.06-4.54-5.4-6c-9.37-2.687-12.195,3.478-18,3.6c1.402-9.198,10.396-10.804,15-16.8
				C103.74,102.686,104.41,107.416,106.826,110.4z M97.826,110.4c2.02,0.763,2.48-3.043,1.2-3.601
				C98.532,108.06,96.556,109.139,97.826,110.4z"/>
			<path d="M39.626,109.2c-0.607,2.806-4.191,6.244-6.6,3.6C33.242,109.638,37.692,105.176,39.626,109.2z"/>
			<path d="M64.826,112.2c0.322,3.122-0.951,4.649-2.4,6c-1.488-0.312-2.137-1.463-3-2.4
				C59.932,113.153,62.606,109.555,64.826,112.2z"/>
			<path d="M132.026,112.2c0.121,3.32-0.652,5.748-4.2,5.4C125.679,114.659,128.861,109.829,132.026,112.2z"/>
			<path d="M164.426,120c-0.374,2.626-0.716,5.284-3.6,5.4c-0.016-0.583-0.734-0.465-1.2-0.601
				C158.904,120.784,161.06,118.135,164.426,120z"/>
			<path d="M101.426,141c3.947-2.853,4.836-8.764,9-11.399c6.958,1.928,9.377,11.307,8.4,19.199c-3.51-3.489-4.636-9.363-7.2-13.8
				c-4.352,5.048-5.637,13.164-12.6,15.601c-3.99-2.41-2.29-10.511-4.8-14.4c-7.03,3.169-7.276,13.124-15,15.6
				c1.201-8.822,8.477-16.704,15-22.199C98.297,131.729,98.852,137.374,101.426,141z"/>
			<path d="M144.026,130.2c0.969-0.169,1.033,0.567,1.8,0.6c1.024,4.688,1.046,9.658,0.6,14.4c6.955-0.692,5.079-9.739,6.6-14.4
				c4.013,0.899,5.023,7.515,2.4,12.601c-0.789,1.529-4.577,3.323-6.6,6c-4.646,6.149-12.797,18.125-20.4,17.399
				c-2.763-1.687-2.976-7.287-0.6-9.6c3.258-0.458,2.82,2.779,4.2,4.2C144.113,159.087,140.837,141.41,144.026,130.2z"/>
			<path d="M242.426,153c-1.625,10.993-7.313,23.074-15,30c-3.033,0.633-3.433-1.368-6-1.2c-2.087,0.113-2.667,1.733-3.6,3
				c0.129,4.846,9.106,6.226,10.2,10.801c2.863,11.979-13.993,12.082-18.6,4.8c-3.276,0.523-4.158,3.441-8.4,3
				c0.264-10.314,15.083-6.36,18.6-1.8c8.009-4.981-5.723-8.82-6.6-14.399c-1.041-6.625,5.948-12.584,13.8-9
				C234.624,172.397,234.24,158.414,242.426,153z"/>
			<path d="M71.426,175.799c-7.417-0.219-13.11-7.263-22.2-7.8c-3.034-0.401-4.539,1.375-6-0.6c0.279-4.423,7.084-3.895,9.6-3.601
				C60.284,164.67,69.319,170.392,71.426,175.799z"/>
			<path d="M30.626,178.799c4.184-1.016,5.485-4.915,9-6.6c3.535,5.466-4.668,7.612-7.2,10.8c-0.38,7.674,5.606,12.917,0.6,18.601
				c-3.016-2.584-2.033-9.167-4.2-12.601c-5.406,2.594-8.533,7.467-13.8,10.2c-2.932-1.068-4.896-3.104-4.8-7.2
				c1.415-0.186,1.116-2.084,3-1.8c1.688,0.112,2.556,1.044,2.4,3c5.01-1.99,7.838-6.162,10.8-10.2
				c-0.497-4.104-2.727-6.473-4.2-9.6c-2.763,0.236-3.89,2.109-7.2,1.8c-1.461-6.222,7.309-8.897,11.4-6
				C29.874,171.641,27.785,176.224,30.626,178.799z"/>
			<path d="M130.826,179.399c-3.178-0.422-4.253-2.947-7.2-3.601c-3.092,6.7,7.048,5.347,7.8,10.2c-0.583,0.018-0.465,0.734-0.6,1.2
				c-2.863,0.463-3.862-0.938-6.6-0.601c-2.17,1.029-1.774,4.626-1.8,7.801c2.127,2.646,9.788-2.213,9,4.199
				c-3.633,1.431-6.486,0.226-11.4,0.601c-2.572-4.712-0.147-12.239-0.6-18c-0.152-1.941-1.63-4.077-1.2-6
				C119.832,168.014,133.715,172.265,130.826,179.399z"/>
			<path d="M150.626,172.799c2.286,6.698-3.84,9.606-7.8,12c-0.652,2.08,0.833,6.602,2.4,8.4c2.769-0.22,3.453-0.739,6,0
				c0.559,4.959-4.759,4.041-8.4,4.8c-2.5-1.5-1.799-6.201-3.6-8.399c-1.242,2.158-0.565,6.234-4.2,6
				C131.213,184.023,137.157,167.171,150.626,172.799z M139.226,180.6c2.534,0.742,7.942-0.319,7.2-4.801
				C142.011,175.385,139.312,176.685,139.226,180.6z"/>
			<path d="M115.826,175.2c0.07,6.729-12.735-2.04-10.8,7.2c3.797-0.869,8.338-0.833,9,3c-2.225,1.638-5.021-0.302-7.8,0
				c-3.326,1.674-0.716,9.283-6.6,8.398c1.59-7.314-1.075-13.457,1.2-19.8C103.916,174.209,112.909,172.899,115.826,175.2z"/>
			<path d="M172.226,178.2c-3.622,0.967-6.318,0.208-10.2,0c-0.827,0.773-0.594,2.606-0.6,4.2c2.22,0.964,6.675-0.85,9,1.2
				c0.795,5.297-5.475,2.084-8.4,2.399c-1.323,1.325-2.519,5.137-1.8,6.601c2.511,4.359,10.4-0.371,12.6,4.199
				c-3.578,1.452-9.801,2.68-14.4,1.2c-3.42-5.43-1.932-18.284,0.6-23.399C163.187,174.441,171.734,172.931,172.226,178.2z"/>
			<path d="M184.226,176.399c5.333,3.867,7.207,11.193,12.6,15c4.216-3.998-0.532-10.98,0.6-15c7.574,2.569,4.952,17.555,0.6,21.6
				c-6.622,0.317-7.739-11.631-13.2-13.8c-4.873,2.886-0.928,10.728-3,14.399c-9.271-3.526,0.273-15.351,0.6-22.2
				C183.026,176.399,183.626,176.399,184.226,176.399z"/>
			<path d="M57.026,179.399c7.488,3.109,4.38,17.022-6.6,13.8c-6.082,2.518-5.087,12.112-11.4,14.399
				c-0.481-9.708,9.096-14.483,9-25.801c-1.473-2.068-4.691,1.176-6-0.6C44.742,172.655,52.816,182.323,57.026,179.399z
				 M51.026,187.799c1.078,1.671,5.522,1.671,6.6,0c0.395-2.193-1.298-2.302-1.2-4.199C53.057,183.43,51.507,185.08,51.026,187.799z
				"/>
			<path d="M86.426,180c3.054,8.53-4.332,17.067-11.4,13.8c-3.771-1.741-5.203-9.261-2.4-13.199
				C75.302,176.839,83.922,176.8,86.426,180z M77.426,189c1.445-0.246,1.304,1.097,3,0.601c1.749-0.852,2.672-2.527,2.4-5.399
				C80.063,178.729,73.085,184.28,77.426,189z"/>
			<path d="M106.226,70.2c-0.293,1.894,1.081,2.119,0.6,4.2c-0.971,0.829-1.477,2.123-3.6,1.8c5.822,10.949-4.139,17.791-14.4,13.8
				c0-1,0-2,0-3c2.519-1.026,5.613-1.57,7.8,0c1.449-1.15,2.031-3.169,3.6-4.2c-0.875-3.524-3.301-5.499-2.4-10.8
				C100.504,70.695,103.04,67.731,106.226,70.2z"/>
			<path d="M402.025,36c5.086,0.197,6.683-5.997,11.398-4.2c-3.74,6.021-9.432,11.365-16.8,12c0.154-4.448-1.706-7.582-5.399-9.6
				c-4.291,3.735-2.427,12.467,3.601,12.6c0.439,9.24-3.365,14.235-12.601,13.801c1.229,3.377,6.381,8.015,8.399,12.6
				c3.041-2.294-0.703-7.775,1.2-10.8c1.438-0.363,2.736-0.863,4.8-0.601c4.495,9.596-7.729,18.753-0.601,27.601
				c7.614-1.508,13.221-1.351,20.399-3c5.526-5.475,4.077-17.923,12.601-20.4c3.95,2.871,4.493,12.726,3,17.4
				c8.455,0.719,13.145-29.912,22.801-22.2c-0.287,6.714-3.726,10.275-3.602,17.4c6.493-0.11,14.676-3.724,22.801-4.2
				c3.516-2.177,9.851-11.002,13.801-3.601c3.893-2.962,9.697-9.736,13.8-2.399c71.743-15.395,149.315-19.783,231.6-23.4
				c5.757-0.253,11.589-1.88,17.4,0.601c-4.505,5.157-12.435,2.729-18.6,3c-7.19,0.315-14.621,1.482-21.602,1.8
				c-32.905,1.495-61.353,2.501-92.398,4.8c-20.119,1.49-39.681,4.922-59.399,7.2c-19.35,2.234-38.902,5.461-57,10.8
				c0.168,2.032,0.954,3.445,0.6,6c-9.258,19.742-24.209,33.79-35.398,51.6c6.438,0.549,11.586-1.9,18.6-3
				c3.391-3.415,6.606-10.188,11.4-10.199c3.477,0.754,1.818,2.948,2.398,6.6c3.504,0.708,10.613-0.583,15-2.4
				c2.964-3.23,4.843-9.897,10.2-12.6c7.525-3.795,19.278-2.425,21,6.6c8.718-3.739,22.979-1.774,30.601-6
				c3.837-2.127,3.299-6.545,6.601-9c6.877-3.91,12.65,3.524,17.399,4.2c6.41,0.912,17.737-3.534,24.6-4.8
				c17.896-3.302,31.619-6.349,49.2-9.6c8.476-1.567,17.546-1.112,25.2-3.601c9.96-3.236,18.594-11.389,28.199-16.8
				c18.974-10.686,38.859-21.191,57.601-27c1.549,4.988-4.508,6.168-7.2,7.2c-23.072,8.843-45.613,21.588-65.398,34.8
				c18.133,1.003,39.697-2.711,58.8-3.6c2.298-0.107,5.688-0.346,8.398,0c1.143,0.146,5.997-0.43,5.4,3
				c-10.25,0.384-20.646,1.457-32.4,2.399c-20.064,1.611-42.452-1.117-55.198,6c-3.754,2.095-8.1,5.301-11.4,7.8
				c-19.68,14.896-41.34,27.325-58.2,44.4c-2.81,8.79-6.153,17.046-13.8,21c-1.241-2.3,1.011-4.871-2.399-5.4
				c2.521-6.878,7.729-11.071,11.399-16.8c-10.514-0.711-11.996,12.803-22.2,14.4c-1.308-1.254,0.301-1.712,0-3.601
				c-4.146-0.256-6.256,6.479-10.8,7.801c-0.566-4.262,4.34-7.992,4.2-13.801c-7.845,2.158-9.949,15.25-18,19.2
				c1.766-8.435,6.523-13.875,7.8-22.8c-9.273,4.326-9.734,17.465-19.199,21.6c1.229-6.57,4.809-10.792,6.6-16.8
				c-5.188,3.215-7.686,14.313-15,17.4c-1.953-1.646-2.211-4.989-2.398-8.4c-4.167,1.438-8.489,7.908-14.4,9.601
				c-2.689,0.29-2.68-2.121-4.8-2.4c-7.595,1.924-13.155,11.202-21.601,8.4c-3.969,2.434-12.576,4.975-15.601,0
				c1.951-10.267,1.604-25.974,4.2-33.601c-8.852,0.75-17.422,6.978-24,12c1.883,12.375-5.712,19.677-6,31.8
				c8.776-1.824,11.85-12.548,18-15c-0.585,10.637-10.525,17.06-18.601,22.2c3.236,3.766,8.146,1.272,12,1.2
				c13.816-0.262,30.404-0.272,47.399,0.6c6.404,0.329,13.244,2.235,19.2,1.2c6.896-1.198,14.002-6.103,21.601-9
				c8.804-3.356,19.55-4.62,28.199-7.8c5.562-2.044,14.273-4.849,21.601-6.6c3.948-10.853,10.75-22.05,20.399-25.2
				c4.26,3.369,0.178,11.009-1.199,14.399c-0.881,1.92-5.41,0.19-5.4,3c14.439,2.84,11.812-16.587,22.2-19.8
				c1.649,3.078-0.178,7.257,0,10.8c5.1-2.3,5.028-9.77,12-10.199c-0.488,6.312-2.688,10.911-4.2,16.199
				c12.325-3.885,14.811-20.774,26.4-23.399c-0.241,4.959-3.137,7.265-4.801,10.8c24.042-8.431,53.867-5.933,83.999-2.4
				c2.575,0.303,6.502,0.582,9,1.2c1.845,0.457,6.245,0.162,5.4,4.2c-2.578,1.676-10.413-1.513-15.601-1.2
				c-2.324,0.273,0.073,2.335-1.801,3.601c-28.854-2.198-53.316,4.497-76.199,10.199c0.318,4.29,7.684,4.706,7.199,7.801
				c-5.538,5.879-12.549-4.165-16.8-7.2c-6.663,0.137-2.916,10.683-5.399,15c-2.925-2.879-3.64-8.38-3.601-12.601
				c-40.367,4.479-78.526,13.029-109.799,28.2c12.419,4.064,27.235,3.402,43.199,4.2c11.376,0.567,24.363,3.37,34.2,1.8
				c7-1.118,15.408-5.118,23.398-7.8c27.104-9.1,59.686-18.622,93.6-21.6c5.448-0.479,12.851-0.441,16.802,1.8
				c-1.452,3.182-6.337,1.559-9.602,1.8c-40.854,3.021-78.626,13.175-110.999,25.8c42.742,2.854,89.469-6.015,131.399-7.2
				c-0.186,5.879-6.06,3.391-8.4,3.602c-38.349,3.45-78.424,8.507-117.6,8.398c-5.272-0.015-12.705-1.416-19.2-0.6
				c-6.71,0.843-15.023,5.347-22.199,8.399c-19.929,8.479-46.389,15.899-67.2,22.8c-30.71,10.183-57.178,25.93-87,33
				c3.255-4.146,11.143-3.659,14.4-7.8c21.054-6.156,40.769-16.169,61.2-24.601c29.445-12.15,62.315-18.076,89.999-31.8
				c-16.345-3.274-38.703-1.523-58.199-3.601c-9.196-0.979-16.496-2.926-24.601,0c-7.51,2.711-14.896,7.579-22.801,11.399
				c-21.715,10.497-46.832,22.926-67.8,33c13.599-10.857,31.155-18.808,48-27c6.24-3.035,12.433-6.673,18.601-9.601
				c6.255-2.969,13.434-4.829,18-10.199c-34.711-2.284-71.272-3.399-109.199-1.2c-11.764,0.683-25.663-1.049-34.8,2.399
				c-21.566,1.273-38.683,18.13-61.2,20.399c-7.527,0.76-17.296-0.734-16.8-7.199c0.626-8.146,24.866-11.451,34.8-13.2
				c9.83-1.729,14.56-3.507,24-4.199c2.003-0.147,5.48,0.271,6.6,0c11.521-2.813,17.202-15.563,24.602-23.4
				c-6.383,0.353-13.571,6.795-21,9.601c-5.72,2.159-13.481,4.394-18.601,0.6c1.442-12.958,15.522-13.278,20.4-22.8
				c12.231-5.768,24.456-11.544,37.2-16.8c5.044-17.972,15.764-33.416,14.398-55.8c-4.503,1.896-5.313,7.486-11.398,7.8
				c-2.959,0.159-0.95-4.65-2.4-6c-13.371,4.325-11.27,25.422-24.6,30c3.721-9.521,11.863-17.679,12.6-28.2
				c-5.316-1.111-12.844,0.751-18,1.8c-4.777,7.022-4.176,19.424-13.8,21.601c1.696-6.304,5.112-10.888,4.2-19.801
				c-4.761-1.064-10.823,1.509-16.2,1.801c-15.998,13.423-34.286,27.819-58.2,34.8c-7.259,2.119-15.764,6.253-23.4,3.6
				c-0.294-6.894,4.877-8.322,7.2-12.6c17.677-8.187,36.236-20.43,57-25.2c13.048-2.998,23.756-4.768,30-15
				c-1.635-8.357-5.76-14.88-10.8-19.8c-1.976-1.93-6.479-2.54-6-6.601c4.813-1.312,9.537,2.391,13.8,3.601
				c0.156-1.772-2.89-5.498-3.6-8.4c-0.126-2.926,3.187-2.413,6-2.399C379.74,36.196,397.07,17.681,402.025,36z M390.625,53.4
				c-2.031-0.968-3.257-2.743-6-3C384.386,53.855,389.847,58.087,390.625,53.4z M490.225,73.8c-0.101,0.699-0.947,0.651-1.8,0.601
				c-1.893,8.208-1.325,16.61-4.8,24C489.163,96.65,497.887,81.304,490.225,73.8z M448.825,85.8
				c-5.83,18.37-10.115,38.285-16.8,55.801c19.451-3.137,31.88-11.406,40.8-25.2c3.426-5.299,5.449-13.146,6-20.4
				c0.513-6.765,0.378-15.167-2.4-18.6C466.369,79.344,458.516,83.49,448.825,85.8z M425.425,85.2
				c2.206,0.956,2.806-4.565,0.602-4.2C425.964,82.693,423.764,83.548,425.425,85.2z M379.227,91.8c3.014,0.395,4.843-0.754,6.6,0
				c1.156-2.412,0.379-5.781-2.4-6C381.979,87.752,380.209,89.384,379.227,91.8z M601.225,109.2
				c-2.001,7.999-4.033,15.967-11.399,18.6c-4.92-6.266,4.644-11.624,6-17.399c-5.992-0.593-9.468,1.332-13.8,2.399
				c-4.975,17.827-22.158,26.641-22.199,47.4c6.957-7.442,9.945-18.854,19.199-24c2.159,1.575,0.764,5.132,0.601,7.8
				c3.524-1.106,6.339-7.149,10.8-3.6c0.424,3.225-0.685,4.916-1.2,7.2c5.235-0.547,6.683-7.469,12-6
				c0.949,4.164-2.944,6.635-1.2,9.6c3.959-3.842,3.75-11.852,10.2-13.2c3.64,3.871-3.87,8.475-2.399,12
				c5.333-4.791,9.691-13.776,19.8-10.2c13.618-13.511,31.129-24.714,47.399-35.398c5.316-3.492,11.974-6.659,15-12
				C657.944,95.52,630.814,103.59,601.225,109.2z M304.226,123c-2.213,4.188-8.048,4.752-9,10.2
				c27.929-5.671,48.742-18.458,67.2-33.6C339.682,101.662,322.771,114.741,304.226,123z M584.425,108
				c2.571-0.629,6.879,0.479,7.199-2.399C588.768,105.332,584.021,103.629,584.425,108z M519.625,120
				c5.751,0.001,15.63-0.66,19.8-4.2C536.651,106.588,519.225,111.575,519.625,120z M573.625,113.4
				c-6.625,1.025-11.577,2.754-18,4.2c-5.465,1.229-10.646,1.754-13.2,3c-4.29,2.093-5.755,7.514-10.2,10.199
				c-6.351,3.839-14.67,4.342-22.8,7.801c-5.909,9.234-4.543,25.305-6.6,36c4.034-0.165,7.073-1.326,9-3.601
				c2.504-7.744,8.409-14.658,13.198-19.8c4.219-4.527,10.022-8.55,12.602-13.2c1.941-3.503,1.039-8.048,6-9.6
				c9.094,11.595-6.931,24.262-5.4,36c8.563-0.438,11.361-6.639,16.2-10.8c2.247-17.753,15.358-24.643,20.399-39.601
				C574.223,114.001,574.11,113.514,573.625,113.4z M516.625,124.8c-2.054,2.348-3.852,4.949-4.8,8.4
				c10.663-0.736,18.694-4.105,22.8-11.4C529.675,121.477,521.301,124.718,516.625,124.8z M489.625,142.2
				c9.186-3.016,18.417-5.983,21-15.6C496.979,125.153,494.188,134.564,489.625,142.2z M483.023,141c2.77-2.239,7.526-5.665,6-10.2
				C485.961,133.135,484.617,137.192,483.023,141z M458.425,138.6c-6.375,4.175-12.393,10.371-19.2,15
				c-3.318,2.257-6.99,4.385-10.198,6.6c-3.738,2.581-7.948,4.375-10.801,6.6c-4.732,3.691-7.146,10.857-11.399,15.601
				c-4.633,5.164-9.826,7.735-12.601,13.2c25.432-0.051,48.522-2.755,74.399-1.801c0.132-3.132-4.304-1.695-4.2-4.8
				c-0.544-14.344,5.384-22.217,9-32.399c-8.706,2.367-26.471,18.092-33.6,7.8c5.52-11.726,22.854-11.167,34.198-15.601
				c2.724-5.478,6.503-9.897,7.802-16.8C472.365,132.909,464.648,134.524,458.425,138.6z M540.023,145.2
				c1.064-2.45,4.298-8.067,1.802-10.2C540.924,137.711,539.253,142.811,540.023,145.2z M429.025,146.399
				c-1.292,5.708-5.194,8.806-6.602,14.399c11.24-5.359,21.021-12.181,28.8-21C443.534,141.708,435.552,143.326,429.025,146.399z
				 M517.225,170.399c11.5-0.319,19.092-9.695,18-24.601C527.891,152.28,517.945,159.301,517.225,170.399z M715.824,145.799
				c-10.061,0.22-36.426,3.516-28.2,13.2c23.49-2.108,41.977-9.223,67.2-9.6C747.133,147.067,732.161,145.444,715.824,145.799z
				 M372.025,181.2c18.621,0.612,29.927-11.266,43.8-17.4c2.188-4.811,5.311-8.688,7.2-13.8c0.031-1.032-0.463-1.538-1.2-1.8
				C403.86,157.835,383.194,164.769,372.025,181.2z M636.624,158.399c2.772-1.028,3.065-4.534,4.2-7.2
				C636.809,150.984,638.895,156.869,636.624,158.399z M643.225,167.399c7.437,0.033,9.863-8.131,9-14.4
				C650.612,158.792,644.352,163.122,643.225,167.399z M444.025,164.399c6.407,1.345,10.104-5.048,16.8-5.4
				c-0.177-2.22,6.341-3.324,3.6-4.2C457.516,157.89,445.895,156.269,444.025,164.399z M628.225,168.6
				c2.408-0.079,6.133,1.958,6.601-1.2c-0.163-1.237-2.657-0.144-2.399-1.8c2.104-1.51,1.237-9.146,1.199-10.801
				C631.625,159.2,628.907,162.882,628.225,168.6z M669.624,162.6c1,0,2,0,3,0c0.274-1.486,3.014-3.568,0.601-4.2
				C672.349,160.125,669.789,160.165,669.624,162.6z M654.023,165.6c1.365-0.436,3.064-0.535,4.2-1.2
				c0.144-1.107,1.944-5.425-0.601-5.4C657.195,161.971,653.696,161.871,654.023,165.6z M338.425,205.799
				c-6.381,1.534-13.061,4.644-16.2,9c11.167,3.806,19.681-0.414,27-3c8.56-3.022,18.31-4.889,24-10.199
				C362.617,202.388,349.117,203.228,338.425,205.799z"/>
		</g>
	</g>
</g>
</svg>
