<?xml version="1.0" encoding="UTF-8"?>
<svg version="1.1" xmlns="http://www.w3.org/2000/svg" width="468pt" height="78pt" viewBox="98 253 805 598">
<path d="M0 0 C1.32 0 2.64 0 4 0 C4 0.66 4 1.32 4 2 C4.58007812 2.10957031 5.16015625 2.21914063 5.7578125 2.33203125 C10.57475122 3.30972673 14.73320759 4.43992455 19 7 C19.33 7.66 19.66 8.32 20 9 C21.91623682 10.04261772 21.91623682 10.04261772 24.26953125 10.98828125 C25.59500977 11.54999023 25.59500977 11.54999023 26.94726562 12.12304688 C27.89279297 12.51556641 28.83832031 12.90808594 29.8125 13.3125 C30.76705078 13.71404297 31.72160156 14.11558594 32.70507812 14.52929688 C34.60513838 15.32776076 36.50632507 16.12355003 38.40869141 16.91650391 C40.57352462 17.82167913 42.73208537 18.73887446 44.88671875 19.66796875 C45.91410156 20.10753906 46.94148438 20.54710937 48 21 C48.86625 21.37125 49.7325 21.7425 50.625 22.125 C53.06984599 23.02573273 55.4353097 23.56033881 58 24 C58 24.66 58 25.32 58 26 C58.99 26 59.98 26 61 26 C61 26.66 61 27.32 61 28 C61.56203125 28.11730469 62.1240625 28.23460937 62.703125 28.35546875 C65.254688 29.07146857 67.39395084 30.10071038 69.75 31.3125 C70.63558594 31.76109375 71.52117187 32.2096875 72.43359375 32.671875 C73.95448112 33.45894 75.46996509 34.25685221 76.97265625 35.078125 C83.01071136 38.30867678 89.43627004 40.11893105 96 42 C96 42.66 96 43.32 96 44 C97.32 44.33 98.64 44.66 100 45 C100 45.66 100 46.32 100 47 C100.59167969 47.18175781 101.18335938 47.36351562 101.79296875 47.55078125 C106.25907529 48.97148398 109.99818672 50.53734567 114 53 C116.63153981 54.09838183 119.31371005 55.04487468 122 56 C127.06979649 57.85763536 132.05276659 59.83558538 137 62 C137 62.66 137 63.32 137 64 C137.6290625 64.17015625 138.258125 64.3403125 138.90625 64.515625 C144.66855588 66.14712124 149.72925467 68.19399169 155 71 C156.87280447 71.94187827 158.74801798 72.87897455 160.625 73.8125 C163.89418712 75.43887952 167.15195627 77.0791293 170.390625 78.765625 C178.43462676 82.91387703 186.42160279 86.17095411 195 89 C195 89.66 195 90.32 195 91 C195.556875 91.17015625 196.11375 91.3403125 196.6875 91.515625 C201.3920866 93.00964912 205.72956159 94.75267112 210.10546875 97.03125 C213.00290968 98.51282804 216.00172182 99.73756708 219 101 C225.45173339 103.77883648 231.73419364 106.82654144 238 110 C239.39569917 110.68777233 240.79152321 111.37529135 242.1875 112.0625 C244.60642907 113.25998964 246.82006732 114.50844174 249.125 115.9375 C253.68594973 118.60861176 258.71646194 120.14110399 263.6953125 121.8515625 C271.84120172 124.68240343 271.84120172 124.68240343 273 127 C274.86902745 127.88986638 274.86902745 127.88986638 277.1875 128.6875 C282.90668422 130.86819614 288.2771231 133.60285337 293.703125 136.4140625 C296.76776947 137.88828721 299.76970342 138.95767899 303 140 C304.24462147 140.59362707 305.47610331 141.21621798 306.6875 141.875 C310.82240599 144.01017304 315.09096614 145.55144829 319.484375 147.0703125 C321.75732019 147.91031398 323.85951605 148.86974446 326 150 C326 150.66 326 151.32 326 152 C326.99 152 327.98 152 329 152 C329 152.66 329 153.32 329 154 C330.7015625 154.37125 330.7015625 154.37125 332.4375 154.75 C337.22541608 155.93199002 341.56069233 157.88310791 346 160 C346 160.99 346 161.98 346 163 C345.34 163 344.68 163 344 163 C343.67 163.99 343.34 164.98 343 166 C341.34388916 166.76181099 339.68123646 167.5135642 337.984375 168.1796875 C332.06853091 170.53155925 332.06853091 170.53155925 328 175 C330.64 175 333.28 175 336 175 C336.2147228 190.79368816 336.14993776 206.51756999 335.20003891 222.28692245 C333.9880096 242.61529791 333.40926642 262.94680074 332.93554688 283.30352783 C332.83209422 287.69724123 332.72235835 292.09079828 332.61328125 296.484375 C332.40299161 304.98944847 332.19918352 313.49465918 332 322 C330.62350784 322.16801117 330.62350784 322.16801117 329.21920776 322.3394165 C325.7693976 322.76178231 322.31989884 323.18654206 318.87057495 323.612854 C317.38611201 323.79584107 315.90153575 323.97791147 314.4168396 324.15899658 C306.28058442 325.15200006 298.17493773 326.18217768 290.125 327.75 C284.27973722 328.8613809 278.94131788 329.2829199 273 329 C273 326.69 273 324.38 273 322 C272.34 322 271.68 322 271 322 C270.14027755 315.17154877 269.80681334 308.43863807 269.625 301.5625 C269.22504965 288.89316367 268.40311136 276.26680103 267.5 263.625 C267.43419739 262.68882843 267.36839478 261.75265686 267.30059814 260.78811646 C267.11068316 258.10062193 266.91575977 255.41354536 266.71875 252.7265625 C266.66145721 251.91929214 266.60416443 251.11202179 266.5451355 250.2802887 C266.25571805 246.43628193 265.78498538 242.77882677 265 239 C264.8599637 237.23547604 264.7559922 235.46780956 264.68359375 233.69921875 C264.64169922 232.72275391 264.59980469 231.74628906 264.55664062 230.74023438 C264.51732422 229.73283203 264.47800781 228.72542969 264.4375 227.6875 C264.39431641 226.66076172 264.35113281 225.63402344 264.30664062 224.57617188 C264.20093175 222.05090431 264.09883532 219.52554438 264 217 C261.69 217 259.38 217 257 217 C257 217.66 257 218.32 257 219 C254.89980986 220.47309111 252.82232271 221.81309635 250.625 223.125 C250.02171875 223.49753906 249.4184375 223.87007812 248.796875 224.25390625 C244.27034684 227 244.27034684 227 242 227 C242 227.66 242 228.32 242 229 C241.01 229 240.02 229 239 229 C238.62875 229.9590625 238.62875 229.9590625 238.25 230.9375 C237 233 237 233 234.875 233.75 C234.25625 233.8325 233.6375 233.915 233 234 C233 234.66 233 235.32 233 236 C226.66666667 239.8 226.66666667 239.8 222.875 240.9375 C219.28736289 242.26336589 217.6218674 244.24703923 215 247 C211.4538348 249.62107863 208.01942353 251.44256294 203.953125 253.11328125 C196.23422855 256.61766024 189.22894414 261.78080502 182.265625 266.57250977 C179.55837324 268.41228194 177.18538345 269.92875656 174.11328125 271.109375 C173.41589844 271.40328125 172.71851563 271.6971875 172 272 C171.67 272.99 171.34 273.98 171 275 C170.34 275 169.68 275 169 275 C169 275.66 169 276.32 169 277 C168.43152344 277.24234375 167.86304688 277.4846875 167.27734375 277.734375 C162.32466159 279.88412018 157.54126201 282.06710162 153 285 C152.67 285.99 152.34 286.98 152 288 C149.69 288.33 147.38 288.66 145 289 C145 289.66 145 290.32 145 291 C143.68 291.33 142.36 291.66 141 292 C141 292.99 141 293.98 141 295 C139.88625 295.37125 138.7725 295.7425 137.625 296.125 C128.21385557 299.68908087 120.02159177 305.9469899 111.7109375 311.51953125 C108.38577465 313.74634103 105.0475916 315.95108247 101.6875 318.125 C100.82511719 318.68445313 99.96273438 319.24390625 99.07421875 319.8203125 C97 321 97 321 95 321 C95 321.66 95 322.32 95 323 C94.236875 323.350625 93.47375 323.70125 92.6875 324.0625 C88.47103712 326.15065304 84.60594361 328.79182443 80.68359375 331.37890625 C78.17177944 332.89623221 75.75224271 333.99963692 73 335 C73 335.66 73 336.32 73 337 C72.36191406 337.33773438 71.72382812 337.67546875 71.06640625 338.0234375 C70.24011719 338.46945312 69.41382813 338.91546875 68.5625 339.375 C67.73878906 339.81585937 66.91507813 340.25671875 66.06640625 340.7109375 C63.86533422 341.83418559 63.86533422 341.83418559 63 344 C61.3364521 344.67441131 59.66933058 345.3400321 58 346 C56.66209359 346.99387334 55.32781878 347.9926892 54 349 C53.34 349 52.68 349 52 349 C52 349.66 52 350.32 52 351 C51.32453125 351.31453125 50.6490625 351.6290625 49.953125 351.953125 C45.21873598 354.22453707 41.66410213 356.20954952 38 360 C35.68020619 361.03101947 33.34570085 362.02936517 31 363 C28.99419671 364.32458708 26.99284138 365.6559907 25 367 C24.34 367 23.68 367 23 367 C22.67 367.99 22.34 368.98 22 370 C19.671875 371.53515625 19.671875 371.53515625 16.75 373.0625 C15.79609375 373.56910156 14.8421875 374.07570313 13.859375 374.59765625 C11 376 11 376 8.203125 376.99609375 C7.47609375 377.32738281 6.7490625 377.65867187 6 378 C5.67 378.99 5.34 379.98 5 381 C3.02678947 382.3726682 1.02456848 383.70427617 -1 385 C-1.7734375 385.86625 -1.7734375 385.86625 -2.5625 386.75 C-4 388 -4 388 -6.25 388.5625 C-10.46354767 387.70063798 -12.97046328 384.93349954 -16 382 C-16.66 382.99 -17.32 383.98 -18 385 C-20.41796875 385.515625 -20.41796875 385.515625 -23 385 C-24.73828125 382.796875 -24.73828125 382.796875 -26.3125 379.75 C-29.33072464 374.16925641 -32.63583589 368.93532124 -36.203125 363.69140625 C-37.3935261 361.90839242 -38.53190618 360.08944874 -39.61328125 358.23828125 C-40.8506652 355.91737253 -40.8506652 355.91737253 -42.9375 354.625 C-46.48390312 351.83086421 -48.34840199 347.76534262 -49.88671875 343.59765625 C-51.15223971 340.644774 -52.75781883 338.37908969 -54.6875 335.8125 C-55.3990625 334.85214844 -56.110625 333.89179687 -56.84375 332.90234375 C-57.5553125 331.94457031 -58.266875 330.98679687 -59 330 C-62.97215225 324.53829066 -66.56843749 319.09032168 -69.76171875 313.140625 C-71.41099854 310.2895041 -73.37989548 307.76392665 -75.39453125 305.1640625 C-79.06332613 300.21877695 -82.2654723 294.91323989 -85.4140625 289.625 C-87.66175443 285.87425028 -89.47371904 283.61627297 -93 281 C-95.02632941 277.74559216 -96.75431249 274.50205708 -98.4375 271.0625 C-100.96087344 266.11668806 -103.50354028 261.45904823 -107.5 257.5625 C-110 255 -110 255 -115 246 C-126.88 246 -138.76 246 -151 246 C-151 246.66 -151 247.32 -151 248 C-152.07241943 247.98984863 -153.14483887 247.97969727 -154.24975586 247.96923828 C-164.88522829 247.90040612 -175.46663104 248.18021313 -186.08666992 248.74462891 C-188.56462136 248.87511171 -191.04294317 248.99459261 -193.52148438 249.11328125 C-202.71119839 249.57625001 -211.77347095 250.34712885 -220.89038086 251.60205078 C-225.90521057 252.0876548 -230.96171376 252 -236 252 C-236 244.41 -236 236.82 -236 229 C-233.69 229 -231.38 229 -229 229 C-230.20864802 220.31269567 -230.20864802 220.31269567 -232.0625 211.75 C-233.12957064 207.15589436 -233.2654559 202.60836685 -233.46289062 197.90722656 C-233.84667454 190.45489796 -234.82461224 183.08843737 -235.77947998 175.69332886 C-237.31958468 163.75793259 -238.66299914 152.06290105 -238 140 C-236.35 139.67 -234.7 139.34 -233 139 C-232.67 138.01 -232.34 137.02 -232 136 C-215.25622842 135.9203821 -198.51798288 136.14827106 -181.77669144 136.40385818 C-179.53756696 136.43787883 -177.29843295 136.47119886 -175.05929565 136.50436401 C-157.33898029 136.767914 -139.62343235 137.08483526 -121.90911865 137.62860107 C-107.93564896 138.05525644 -93.97922743 138.11186135 -80 138 C-79.54016724 137.05205566 -79.54016724 137.05205566 -79.07104492 136.08496094 C-76.05976197 129.95770478 -72.76245877 124.14563692 -69.13085938 118.37109375 C-66.84353948 114.65664263 -65.31079893 111.18976827 -64 107 C-63.01 105.515 -63.01 105.515 -62 104 C-61.34 104 -60.68 104 -60 104 C-59.79375 103.05125 -59.5875 102.1025 -59.375 101.125 C-57.91737608 95.98106632 -55.17040391 91.28176833 -52 87 C-51.34 87 -50.68 87 -50 87 C-49.814375 86.21625 -49.62875 85.4325 -49.4375 84.625 C-47.75290829 80.37689917 -45.40126567 77.13547879 -42.734375 73.44921875 C-40.57548543 70.40051658 -38.81410534 67.26538962 -37 64 C-35.69746118 61.9553619 -34.38313182 59.91986911 -33.05078125 57.89453125 C-31.96405266 55.93518788 -31.44144459 54.18781881 -31 52 C-30.34 52 -29.68 52 -29 52 C-28.7525 50.9275 -28.505 49.855 -28.25 48.75 C-26.94428127 44.83284382 -25.86461573 43.7778092 -23 41 C-21.90380042 38.6705759 -20.93794008 36.38918071 -20 34 C-19.32022017 32.43412584 -18.63246894 30.87169231 -17.9375 29.3125 C-17.61652344 28.58675781 -17.29554688 27.86101562 -16.96484375 27.11328125 C-16.02277171 25.04987651 -15.02709267 23.02223135 -14 21 C-14.99 20.67 -15.98 20.34 -17 20 C-15.4585799 16.43082939 -13.30524541 13.91782231 -10.6875 11.0625 C-9.88699219 10.18851562 -9.08648437 9.31453125 -8.26171875 8.4140625 C-5.89086188 5.8835106 -3.49027972 3.41245848 -1 1 C-0.67 0.67 -0.34 0.34 0 0 Z M-9 24 C-9.28875 24.9075 -9.5775 25.815 -9.875 26.75 C-11 30 -11 30 -12 31.9375 C-13.98869256 36.03917841 -14.93914142 40.5797559 -16 45 C-16.66 45 -17.32 45 -18 45 C-24.53612904 56.49734791 -24.53612904 56.49734791 -29 68.875 C-29.33 69.90625 -29.66 70.9375 -30 72 C-31.485 72.495 -31.485 72.495 -33 73 C-34.19763724 75.54310815 -34.19763724 75.54310815 -35.1875 78.6875 C-38.56535455 87.97404875 -43.46655361 96.2231515 -48.9375 104.4375 C-51.14970734 107.87707818 -51.53935412 110.93096137 -52 115 C-53.375 117.5 -53.375 117.5 -55 120 C-55.70574369 121.70020072 -56.41091891 123.40066461 -57.10546875 125.10546875 C-58.44246914 127.93710712 -60.21321334 130.45064552 -62.01171875 133.0078125 C-63.37033412 135.37588159 -63.37033412 135.37588159 -63 140 C-53.76 140 -44.52 140 -35 140 C-35 141.98 -35 143.96 -35 146 C-36.0415625 145.97679687 -37.083125 145.95359375 -38.15625 145.9296875 C-45.73727635 145.8111922 -53.2657815 145.90637937 -60.8125 146.6875 C-62.09769531 146.81511719 -63.38289063 146.94273437 -64.70703125 147.07421875 C-68.73710122 148.20722775 -69.80578922 149.49946839 -72 153 C-73.09417286 155.04466646 -74.02942252 157.11325312 -74.97265625 159.23046875 C-76 161 -76 161 -79 163 C-79.90639099 164.90811426 -79.90639099 164.90811426 -80.5 167.125 C-81.45697184 170.2642727 -82.4831583 173.32173936 -83.6875 176.375 C-85.17022054 179.82758415 -85.17022054 179.82758415 -85 183 C-85.66 183 -86.32 183 -87 183 C-88.84450762 185.64646745 -90.10391705 188.25731842 -91.3125 191.25 C-92.54132404 194.2537921 -94.1301835 196.72493908 -96 199.375 C-98.56380631 203.09726694 -100.08078754 206.54845437 -101.34375 210.87109375 C-101.97499277 212.91887534 -102.76985108 214.75448954 -103.6875 216.6875 C-105.05605912 220.14148255 -105.50049786 222.32968238 -105 226 C-103.62485459 227.7087646 -103.62485459 227.7087646 -102 229 C-101.67 229.99 -101.34 230.98 -101 232 C-79.65529264 232.98016731 -58.36211184 233.11851633 -37 233 C-37 234.98 -37 236.96 -37 239 C-38.09570312 239.04898438 -39.19140625 239.09796875 -40.3203125 239.1484375 C-50.49018672 239.6212004 -60.65168543 240.20316877 -70.81072998 240.86895752 C-72.78338168 240.99809382 -74.75619213 241.12479759 -76.72900391 241.25146484 C-77.95925293 241.33348145 -79.18950195 241.41549805 -80.45703125 241.5 C-81.54991455 241.5721875 -82.64279785 241.644375 -83.76879883 241.71875 C-87.20376976 242.01773651 -90.59158134 242.48312425 -94 243 C-93.505 245.475 -93.505 245.475 -93 248 C-92.01 248 -91.02 248 -90 248 C-90 249.65 -90 251.3 -90 253 C-89.34 253 -88.68 253 -88 253 C-87.34 254.98 -86.68 256.96 -86 259 C-85.34 259 -84.68 259 -84 259 C-83.896875 259.721875 -83.79375 260.44375 -83.6875 261.1875 C-82.92807244 264.29424912 -81.73748869 266.32694048 -80 269 C-77.95579715 272.27072456 -76.40028271 275.41177556 -75 279 C-73.37750573 282.47677344 -71.57116853 285.71568229 -69.5 288.9375 C-67.22387308 292.50641201 -65.55661818 296.06749092 -64 300 C-63.34 300 -62.68 300 -62 300 C-61.73960937 300.71929688 -61.47921875 301.43859375 -61.2109375 302.1796875 C-59.95225079 305.11120945 -58.4233937 307.49416206 -56.625 310.125 C-53.12319118 315.49833922 -50.90109512 320.89524113 -49 327 C-48.34 327 -47.68 327 -47 327 C-46.74347656 327.68449219 -46.48695313 328.36898438 -46.22265625 329.07421875 C-44.81957643 332.43174841 -43.16300435 335.61371609 -41.4375 338.8125 C-40.91893433 339.78123047 -40.91893433 339.78123047 -40.38989258 340.76953125 C-37.36950854 346.38257462 -34.24468441 351.93584461 -31.05834961 357.45629883 C-28.72605442 361.54032467 -26.77903877 365.64500289 -25 370 C-21.66574574 369.35294153 -19.25210091 368.09780203 -16.375 366.3125 C-15.49585938 365.77496094 -14.61671875 365.23742187 -13.7109375 364.68359375 C-11.9627469 363.59790189 -10.21769857 362.50712588 -8.4765625 361.41015625 C-3.53576629 358.34748604 1.2932999 355.99425556 6.7265625 353.9375 C9.86494744 352.64332064 12.33656046 351.10271543 15 349 C15 348.34 15 347.68 15 347 C15.66 346.75121094 16.32 346.50242187 17 346.24609375 C20.75695503 344.68558769 24.36670597 342.88920226 28 341.0625 C29.04800781 340.54139648 29.04800781 340.54139648 30.1171875 340.00976562 C35.70011932 337.25026605 35.70011932 337.25026605 41 334 C41 333.34 41 332.68 41 332 C41.86753906 331.74089844 42.73507812 331.48179687 43.62890625 331.21484375 C47.04660572 329.98320466 49.84242024 328.45371168 52.9375 326.5625 C56.25724966 324.57312148 59.46438451 322.68159063 63.0625 321.25 C65.86179132 320.05881221 66.96558851 319.12688474 69 317 C71.1875 316 71.1875 316 74 315 C75.43813815 314.46002991 76.87560791 313.91827722 78.3125 313.375 C79.529375 312.92125 80.74625 312.4675 82 312 C82 311.34 82 310.68 82 310 C83.175625 309.5359375 83.175625 309.5359375 84.375 309.0625 C86.92330128 308.07124962 86.92330128 308.07124962 89 307 C89 306.34 89 305.68 89 305 C89.78375 304.79375 90.5675 304.5875 91.375 304.375 C95.49227974 302.8132732 98.92952079 300.69910592 102.6328125 298.33984375 C105 297 105 297 107.0546875 296.56640625 C109.78667583 295.7709478 111.02947877 294.01894614 113 292 C115.41015625 290.5078125 115.41015625 290.5078125 118.0625 289.125 C119.02542969 288.61710937 119.98835937 288.10921875 120.98046875 287.5859375 C121.97691406 287.06257813 122.97335937 286.53921875 124 286 C126.83337437 284.4370144 129.66312099 282.86764029 132.4921875 281.296875 C134.94819391 280.02679069 137.41678713 278.98143571 140 278 C140 277.34 140 276.68 140 276 C141.0828125 275.8453125 141.0828125 275.8453125 142.1875 275.6875 C145.31397652 274.92325019 147.29689676 273.73770922 150 272 C153.60662783 269.88324326 157.22802988 267.81054566 161 266 C161 264.68 161 263.36 161 262 C160.01 262 159.02 262 158 262 C157.67 255.4 157.34 248.8 157 242 C156.34 242 155.68 242 155 242 C154.54277701 235.40431522 154.08686056 228.80988931 153.74609375 222.20703125 C153.70476318 221.41280762 153.66343262 220.61858398 153.62084961 219.80029297 C153.54188912 218.25649578 153.46575718 216.71255062 153.39282227 215.16845703 C153.35600342 214.45157715 153.31918457 213.73469727 153.28125 212.99609375 C153.25095703 212.36888428 153.22066406 211.7416748 153.18945312 211.09545898 C152.94386185 208.37908028 152.44839137 205.69034821 152 203 C156.29 203 160.58 203 165 203 C164.67515625 205.72636719 164.67515625 205.72636719 164.34375 208.5078125 C162.28324262 226.76221839 161.61600414 244.62727516 162 263 C164.31 262.67 166.62 262.34 169 262 C169.33 261.01 169.66 260.02 170 259 C172.75 257.9375 172.75 257.9375 176 257 C177.67163195 256.34588315 179.34015202 255.68346682 181 255 C181 254.34 181 253.68 181 253 C181.556875 252.84144531 182.11375 252.68289063 182.6875 252.51953125 C187.72072079 250.980658 191.84490627 249.08214032 196.17578125 246.0859375 C198.1092381 244.93497175 199.80329237 244.43643198 202 244 C202 243.34 202 242.68 202 242 C203.546875 241.5978125 203.546875 241.5978125 205.125 241.1875 C208.6485042 240.19001103 211.76880827 238.7338102 215 237 C215 236.34 215 235.68 215 235 C216.11375 234.566875 216.11375 234.566875 217.25 234.125 C221.63575532 232.46482112 221.63575532 232.46482112 225.26171875 229.6328125 C227.51704906 227.51432246 229.95655199 226.25829601 232.6875 224.8125 C233.68136719 224.28269531 234.67523437 223.75289062 235.69921875 223.20703125 C236.45847656 222.80871094 237.21773437 222.41039062 238 222 C238.07550073 218.46153231 237.99258478 215.35233683 237.0625 211.9375 C235.86082058 206.96153171 235.5446762 202.01824448 235.24609375 196.91796875 C235.06062035 193.78872921 235.06062035 193.78872921 234 190 C236.97 190 239.94 190 243 190 C242.75443359 191.37865234 242.75443359 191.37865234 242.50390625 192.78515625 C241.76062905 197.98809668 241.89314293 203.19312905 241.9375 208.4375 C241.94426758 209.96407227 241.94426758 209.96407227 241.95117188 211.52148438 C241.96287563 214.01438509 241.97927152 216.50716074 242 219 C243.98 218.67 245.96 218.34 248 218 C248 217.34 248 216.68 248 216 C248.63808594 215.81824219 249.27617188 215.63648438 249.93359375 215.44921875 C251.17302734 215.07216797 251.17302734 215.07216797 252.4375 214.6875 C253.26121094 214.44386719 254.08492187 214.20023438 254.93359375 213.94921875 C255.95646484 213.47935547 255.95646484 213.47935547 257 213 C257.33 212.01 257.66 211.02 258 210 C260.29618835 208.58377028 262.53655989 207.3357627 264.9375 206.125 C265.94889038 205.60099609 265.94889038 205.60099609 266.98071289 205.06640625 C268.98178659 204.03334808 270.98943465 203.01444011 273 202 C274.0621875 201.46117187 275.124375 200.92234375 276.21875 200.3671875 C278.47373289 199.23321622 280.73291867 198.10953627 283 197 C283 196.34 283 195.68 283 195 C283.99773437 194.63841797 283.99773437 194.63841797 285.015625 194.26953125 C288.76290196 192.6754671 292.21973744 190.7091778 295.75 188.6875 C297.18095989 187.8762497 298.61194926 187.06505141 300.04296875 186.25390625 C302.29632148 184.97135927 304.54864878 183.68703298 306.80078125 182.40234375 C311.11197066 179.96752693 315.40766755 177.85647482 320 176 C320 175.34 320 174.68 320 174 C321.0828125 173.5978125 321.0828125 173.5978125 322.1875 173.1875 C325.01133746 172.07277918 325.01133746 172.07277918 327.5 170.5 C329.94096287 169.03542228 332.33645513 167.98931667 335 167 C335 165.68 335 164.36 335 163 C319.34992774 156.43685982 319.34992774 156.43685982 303.34375 150.83203125 C299.9354417 149.6220818 297.08059476 147.88607842 294 146 C289.88447605 143.94223803 286.58369848 143.82024712 282 144 C282 143.34 282 142.68 282 142 C275.39721198 138.80828685 268.87756251 135.87524994 261.9375 133.5 C257.49394087 131.96992958 253.39916706 130.26585078 249.25 128.0625 C243.50092289 125.0525525 237.59459487 123.06493358 231.40527344 121.17993164 C226.48336853 119.64551308 222.42216907 117.65110136 218 115 C216.00428677 114.32060826 214.00405227 113.65438441 212 113 C210.13932148 112.053339 208.278942 111.10607002 206.421875 110.15234375 C197.54582464 105.73476204 197.54582464 105.73476204 188 104 C188 103.34 188 102.68 188 102 C187.36578125 101.8040625 186.7315625 101.608125 186.078125 101.40625 C178.22998135 98.89137524 170.63605586 95.9037429 163.03222656 92.73046875 C158.6835137 90.94533319 154.71754385 89.51478084 150 89 C150 88.34 150 87.68 150 87 C148.40671875 86.52820313 148.40671875 86.52820313 146.78125 86.046875 C133.5967231 82.07794393 133.5967231 82.07794393 128.0625 79.0390625 C124.19455619 77.09043929 120.10061596 75.67136936 116.05078125 74.1484375 C113.35231613 73.13262605 110.67286442 72.0810472 108 71 C108 70.34 108 69.68 108 69 C107.3201001 68.77860352 106.6402002 68.55720703 105.93969727 68.32910156 C102.81233802 67.30764104 99.68742807 66.27887299 96.5625 65.25 C94.95858398 64.72792969 94.95858398 64.72792969 93.32226562 64.1953125 C87.92554784 62.4129103 82.68301768 60.52747885 77.5222168 58.14746094 C72.29382565 55.76884915 66.97662755 53.58706303 61.68066406 51.36376953 C59.63497711 50.50419228 57.59092232 49.64081139 55.546875 48.77734375 C48.84233717 45.95582009 42.12983593 43.23131248 35.25366211 40.84790039 C33.04803528 40.01807242 31.01564006 39.04483611 28.9375 37.9375 C25.14001556 35.92475463 21.2612394 34.84529341 17.1015625 33.80859375 C15 33 15 33 13 30 C5.97296367 26.15291999 -1.01648815 24.19428901 -9 24 Z " fill="#000000" transform="translate(498,273)"/>
<path d="M0 0 C0.66 0.33 1.32 0.66 2 1 C1.67 1.66 1.34 2.32 1 3 C1.66 3 2.32 3 3 3 C3.03092239 4.6082666 3.03092239 4.6082666 3.06246948 6.24902344 C3.25829474 16.37144866 3.46379482 26.49363779 3.67867851 36.61567688 C3.78883399 41.81905997 3.89562361 47.02246608 3.99462891 52.22607422 C4.09036546 57.25128828 4.19506382 62.27624415 4.3058815 67.30114746 C4.34652606 69.21473733 4.3839844 71.12839771 4.41814804 73.04211426 C4.46668861 75.73015709 4.52672935 78.41772212 4.58935547 81.10546875 C4.60086639 81.89022079 4.61237732 82.67497284 4.62423706 83.48350525 C4.75927716 88.60867294 5.67057812 93.04957562 7 98 C7.27374927 100.78039671 7.34603532 103.53926135 7.37890625 106.33203125 C7.39590073 107.09045822 7.4128952 107.84888519 7.43040466 108.6302948 C7.48299822 111.02428131 7.52361435 113.41825486 7.5625 115.8125 C7.60653862 118.22451679 7.65323595 120.63640644 7.70530701 123.04826355 C7.73708875 124.54174597 7.76403232 126.03534122 7.78553772 127.52900696 C7.84713485 130.60971405 8.01836796 133.05510389 9 136 C9.66 136 10.32 136 11 136 C10.99214478 134.58690552 10.99214478 134.58690552 10.98413086 133.14526367 C10.96693174 129.59854501 10.95447417 126.05187167 10.94506836 122.50512695 C10.94008708 120.97972914 10.93329962 119.45433599 10.92456055 117.92895508 C10.87601174 109.22729551 10.9597633 100.65612974 12 92 C12.33 92 12.66 92 13 92 C13.18158971 110.68356302 12.61829316 129.32951988 12 148 C10.67947632 148.15819214 10.67947632 148.15819214 9.33227539 148.31958008 C5.24175001 148.81241124 1.1519173 149.31056764 -2.9375 149.8125 C-4.03786591 149.94730774 -4.03786591 149.94730774 -5.16046143 150.08483887 C-13.4374441 151.10436332 -21.6825094 152.17008942 -29.875 153.75 C-35.72026278 154.8613809 -41.05868212 155.2829199 -47 155 C-47 152.69 -47 150.38 -47 148 C-47.66 148 -48.32 148 -49 148 C-49.85972245 141.17154877 -50.19318666 134.43863807 -50.375 127.5625 C-50.77495035 114.89316367 -51.59688864 102.26680103 -52.5 89.625 C-52.56580261 88.68882843 -52.63160522 87.75265686 -52.69940186 86.78811646 C-52.88931684 84.10062193 -53.08424023 81.41354536 -53.28125 78.7265625 C-53.33854279 77.91929214 -53.39583557 77.11202179 -53.4548645 76.2802887 C-53.74428195 72.43628193 -54.21501462 68.77882677 -55 65 C-55.1400363 63.23547604 -55.2440078 61.46780956 -55.31640625 59.69921875 C-55.35830078 58.72275391 -55.40019531 57.74628906 -55.44335938 56.74023438 C-55.48267578 55.73283203 -55.52199219 54.72542969 -55.5625 53.6875 C-55.60568359 52.66076172 -55.64886719 51.63402344 -55.69335938 50.57617188 C-55.79906825 48.05090431 -55.90116468 45.52554438 -56 43 C-58.31 43 -60.62 43 -63 43 C-63 43.66 -63 44.32 -63 45 C-65.10019014 46.47309111 -67.17767729 47.81309635 -69.375 49.125 C-70.27992188 49.68380859 -70.27992188 49.68380859 -71.203125 50.25390625 C-75.72965316 53 -75.72965316 53 -78 53 C-78 53.66 -78 54.32 -78 55 C-78.99 55 -79.98 55 -81 55 C-81.37125 55.9590625 -81.37125 55.9590625 -81.75 56.9375 C-83 59 -83 59 -85.125 59.75 C-85.74375 59.8325 -86.3625 59.915 -87 60 C-87 60.66 -87 61.32 -87 62 C-93.33333333 65.8 -93.33333333 65.8 -97.125 66.9375 C-100.71263711 68.26336589 -102.3781326 70.24703923 -105 73 C-108.5461652 75.62107863 -111.98057647 77.44256294 -116.046875 79.11328125 C-123.76577145 82.61766024 -130.77105586 87.78080502 -137.734375 92.57250977 C-140.44162676 94.41228194 -142.81461655 95.92875656 -145.88671875 97.109375 C-146.58410156 97.40328125 -147.28148437 97.6971875 -148 98 C-148.33 98.99 -148.66 99.98 -149 101 C-149.66 101 -150.32 101 -151 101 C-151 101.66 -151 102.32 -151 103 C-151.56847656 103.24234375 -152.13695312 103.4846875 -152.72265625 103.734375 C-157.67533841 105.88412018 -162.45873799 108.06710162 -167 111 C-167.33 111.99 -167.66 112.98 -168 114 C-171.465 114.495 -171.465 114.495 -175 115 C-175 115.66 -175 116.32 -175 117 C-176.32 117.33 -177.64 117.66 -179 118 C-179 118.99 -179 119.98 -179 121 C-180.11375 121.37125 -181.2275 121.7425 -182.375 122.125 C-191.78614443 125.68908087 -199.97840823 131.9469899 -208.2890625 137.51953125 C-211.61422535 139.74634103 -214.9524084 141.95108247 -218.3125 144.125 C-219.17488281 144.68445313 -220.03726563 145.24390625 -220.92578125 145.8203125 C-223 147 -223 147 -225 147 C-225 147.66 -225 148.32 -225 149 C-225.763125 149.350625 -226.52625 149.70125 -227.3125 150.0625 C-231.52896288 152.15065304 -235.39405639 154.79182443 -239.31640625 157.37890625 C-241.82822056 158.89623221 -244.24775729 159.99963692 -247 161 C-247 161.66 -247 162.32 -247 163 C-247.95712891 163.50660156 -247.95712891 163.50660156 -248.93359375 164.0234375 C-249.75988281 164.46945312 -250.58617187 164.91546875 -251.4375 165.375 C-252.26121094 165.81585937 -253.08492187 166.25671875 -253.93359375 166.7109375 C-256.13466578 167.83418559 -256.13466578 167.83418559 -257 170 C-258.6635479 170.67441131 -260.33066942 171.3400321 -262 172 C-263.33790641 172.99387334 -264.67218122 173.9926892 -266 175 C-266.66 175 -267.32 175 -268 175 C-268 175.66 -268 176.32 -268 177 C-268.67546875 177.31453125 -269.3509375 177.6290625 -270.046875 177.953125 C-274.78126402 180.22453707 -278.33589787 182.20954952 -282 186 C-284.31979381 187.03101947 -286.65429915 188.02936517 -289 189 C-291.00580329 190.32458708 -293.00715862 191.6559907 -295 193 C-295.66 193 -296.32 193 -297 193 C-297.33 193.99 -297.66 194.98 -298 196 C-300.328125 197.53515625 -300.328125 197.53515625 -303.25 199.0625 C-304.20390625 199.56910156 -305.1578125 200.07570313 -306.140625 200.59765625 C-309 202 -309 202 -311.796875 202.99609375 C-312.52390625 203.32738281 -313.2509375 203.65867187 -314 204 C-314.33 204.99 -314.66 205.98 -315 207 C-316.97321053 208.3726682 -318.97543152 209.70427617 -321 211 C-321.515625 211.5775 -322.03125 212.155 -322.5625 212.75 C-324 214 -324 214 -326.25 214.5625 C-330.46354767 213.70063798 -332.97046328 210.93349954 -336 208 C-336.66 208.99 -337.32 209.98 -338 211 C-340.625 211.1875 -340.625 211.1875 -343 211 C-343 210.01 -343 209.02 -343 208 C-342.01 208.33 -341.02 208.66 -340 209 C-340.33 207.02 -340.66 205.04 -341 203 C-341.66 203 -342.32 203 -343 203 C-343.66 200.69 -344.32 198.38 -345 196 C-343.576875 195.195625 -343.576875 195.195625 -342.125 194.375 C-339.09764298 192.64769751 -336.10753867 190.86600385 -333.125 189.0625 C-320.34004559 181.39152736 -320.34004559 181.39152736 -314.6875 179.375 C-311.51219303 178.19098723 -309.58265156 177.0859878 -307 175 C-306.34 175 -305.68 175 -305 175 C-305 174.34 -305 173.68 -305 173 C-301.23105858 171.0172149 -297.45953347 169.03939559 -293.6875 167.0625 C-292.0797168 166.21655273 -292.0797168 166.21655273 -290.43945312 165.35351562 C-289.41142578 164.81533203 -288.38339844 164.27714844 -287.32421875 163.72265625 C-286.37635498 163.22515869 -285.42849121 162.72766113 -284.4519043 162.21508789 C-282 161 -282 161 -279 160 C-279 159.34 -279 158.68 -279 158 C-276.33395686 156.58214979 -273.66718728 155.16569508 -271 153.75 C-270.25621094 153.35425781 -269.51242187 152.95851563 -268.74609375 152.55078125 C-264.44743868 150.27062508 -260.13323795 148.06603898 -255.7265625 146.00097656 C-253.82019219 144.89575622 -252.53752365 143.56603542 -251 142 C-248.625 140.9375 -248.625 140.9375 -246 140 C-245.13375 139.62875 -244.2675 139.2575 -243.375 138.875 C-241 138 -241 138 -238 138 C-238 137.34 -238 136.68 -238 136 C-233.61538462 133 -233.61538462 133 -231 133 C-231 132.34 -231 131.68 -231 131 C-228.42236925 129.48938849 -225.83870395 127.99141595 -223.25 126.5 C-222.52039063 126.07074219 -221.79078125 125.64148438 -221.0390625 125.19921875 C-220.33007812 124.79316406 -219.62109375 124.38710938 -218.890625 123.96875 C-218.24125977 123.59169922 -217.59189453 123.21464844 -216.92285156 122.82617188 C-215 122 -215 122 -211 122 C-210.67 121.01 -210.34 120.02 -210 119 C-207.6550293 117.39013672 -207.6550293 117.39013672 -204.57421875 115.6796875 C-202.91422852 114.75349609 -202.91422852 114.75349609 -201.22070312 113.80859375 C-200.64070557 113.49132324 -200.06070801 113.17405273 -199.46313477 112.84716797 C-197.69913285 111.88136904 -195.94389442 110.90100775 -194.18945312 109.91796875 C-185.55263095 105.13588613 -185.55263095 105.13588613 -182.69848633 104.43408203 C-182.13798584 104.29083496 -181.57748535 104.14758789 -181 104 C-180.67 103.34 -180.34 102.68 -180 102 C-178.68392712 101.30733006 -177.36114632 100.62575822 -176.015625 99.9921875 C-172.4615462 98.2426991 -169.03702843 96.24773869 -165.5859375 94.3046875 C-163.34306868 93.17308903 -161.45131327 92.47184903 -159 92 C-159 90.68 -159 89.36 -159 88 C-159.99 88 -160.98 88 -162 88 C-163.14982602 83.90996141 -163.11094256 79.96822949 -163.0625 75.75 C-163.05798828 75.00492188 -163.05347656 74.25984375 -163.04882812 73.4921875 C-163.03709246 71.6614236 -163.0191585 69.83070127 -163 68 C-163.66 68 -164.32 68 -165 68 C-167.13815573 55.04651286 -167.58807595 42.10568895 -168 29 C-163.71 29 -159.42 29 -155 29 C-155.14218861 32.312692 -155.28865331 35.62510582 -155.4375 38.9375 C-155.47681641 39.86369141 -155.51613281 40.78988281 -155.55664062 41.74414062 C-155.74734837 45.92504109 -155.97441929 50.06563184 -156.5 54.21875 C-157.30611429 60.96798141 -157.3659749 67.77396171 -157.5625 74.5625 C-157.60579176 75.96680703 -157.64940904 77.37110406 -157.69335938 78.77539062 C-157.79876511 82.18350951 -157.90088982 85.5916932 -158 89 C-152.34061877 87.58950197 -152.34061877 87.58950197 -148 84 C-144.53199138 81.59907095 -143.34827524 81 -139 81 C-139 80.34 -139 79.68 -139 79 C-135.52520864 76.50249371 -131.84461969 75.1762582 -127.85546875 73.76171875 C-125.83379988 73.02255645 -125.83379988 73.02255645 -123.75 71.3125 C-122 70 -122 70 -118 70 C-118 69.34 -118 68.68 -118 68 C-109.738041 63.59225513 -109.738041 63.59225513 -105 63 C-105 62.34 -105 61.68 -105 61 C-104.46890625 60.75765625 -103.9378125 60.5153125 -103.390625 60.265625 C-98.89327995 58.15760725 -98.89327995 58.15760725 -95.0625 55.0625 C-91.90434272 51.90434272 -88.02618104 49.89650227 -84 48 C-83.34 48 -82.68 48 -82 48 C-82.20496094 47.11441406 -82.40992188 46.22882813 -82.62109375 45.31640625 C-84.75048301 35.52529106 -85.64485632 26.00525464 -86 16 C-83.03 16 -80.06 16 -77 16 C-77.33 25.57 -77.66 35.14 -78 45 C-76.02 44.67 -74.04 44.34 -72 44 C-72 43.34 -72 42.68 -72 42 C-65.25 39 -65.25 39 -63 39 C-62.98066406 38.4225 -62.96132813 37.845 -62.94140625 37.25 C-61.45020219 33.68596043 -58.24422872 32.62593655 -54.9375 31 C-54.2566333 30.65259766 -53.5757666 30.30519531 -52.87426758 29.94726562 C-51.52791226 29.26228065 -50.1786 28.58307171 -48.82617188 27.91015625 C-47.30846973 27.15374 -45.80123501 26.37636504 -44.296875 25.59375 C-39.29464286 23 -39.29464286 23 -37 23 C-37 22.34 -37 21.68 -37 21 C-33.68803022 19.1032393 -30.37532578 17.20776518 -27.0625 15.3125 C-26.13630859 14.78205078 -25.21011719 14.25160156 -24.25585938 13.70507812 C-21.50628048 12.13251195 -18.75361854 10.5654799 -16 9 C-15.15622803 8.51684326 -14.31245605 8.03368652 -13.44311523 7.53588867 C-12.65751221 7.09092041 -11.87190918 6.64595215 -11.0625 6.1875 C-10.37414062 5.795625 -9.68578125 5.40375 -8.9765625 5 C-6.06018406 3.52452 -3.17604908 2.74333064 0 2 C0 1.34 0 0.68 0 0 Z " fill="#000000" transform="translate(818,447)"/>
<path d="M0 0 C1.32 0.33 2.64 0.66 4 1 C4 1.99 4 2.98 4 4 C4.66 4 5.32 4 6 4 C6 4.66 6 5.32 6 6 C7.65 6.33 9.3 6.66 11 7 C11 7.66 11 8.32 11 9 C11.73476562 9.24878906 12.46953125 9.49757813 13.2265625 9.75390625 C16.2424232 11.10891972 18.01062998 12.64568285 20.375 14.9375 C24.10676457 18.38172492 27.21225484 20.37012931 32 22 C32 22.66 32 23.32 32 24 C32.886875 24.20625 33.77375 24.4125 34.6875 24.625 C38.16914117 26.07020954 39.30399873 27.45680977 41.50390625 30.4140625 C43.92600544 32.98161413 46.95934478 34.30657174 50.109375 35.82421875 C52 37 52 37 53 40 C56.96 40.33 60.92 40.66 65 41 C65.02707879 44.85421425 65.04687762 48.70823638 65.0625 52.5625 C65.07087891 53.64853516 65.07925781 54.73457031 65.08789062 55.85351562 C65.10464886 61.36697416 64.82143455 66.54202375 64 72 C63.75873954 76.16404507 63.63164573 80.33121847 63.5 84.5 C63.43058852 86.69803015 63.35776385 88.89595562 63.28125 91.09375 C63.25095703 92.05990234 63.22066406 93.02605469 63.18945312 94.02148438 C62.97551944 97.38487473 62.47882668 100.66424089 62 104 C61.72685964 106.81060951 61.52039346 109.62502756 61.31640625 112.44140625 C61.25661087 113.23794617 61.19681549 114.03448608 61.13520813 114.85516357 C61.00804569 116.5499076 60.88184231 118.24472382 60.75653076 119.93960571 C60.4302118 124.3507626 60.09683233 128.7613784 59.76171875 133.171875 C59.69619812 134.03424271 59.63067749 134.89661041 59.56317139 135.78511047 C58.99858377 143.1491523 58.33629979 150.50167014 57.63134766 157.85351562 C57.02501266 164.3228127 56.62233796 170.79293069 56.34130859 177.28442383 C56.21394568 180.04428018 56.06075606 182.70645447 55.5 185.41577148 C55.0020552 187.98937777 54.82798172 190.38216804 54.75390625 193 C54.72248535 193.95704834 54.69106445 194.91409668 54.65869141 195.90014648 C54.62694824 196.92309814 54.59520508 197.9460498 54.5625 199 C54.28814114 206.5079142 53.90583401 213.96491851 53.125 221.4375 C51.87323811 233.51795777 51.04552648 245.6265095 50.1784668 257.73925781 C50.04875683 259.54883468 49.91895497 261.35840497 49.7890625 263.16796875 C49.72425186 264.0712088 49.65944122 264.97444885 49.59266663 265.90505981 C49.1570707 271.93489954 48.69406114 277.96207403 48.2109375 283.98828125 C46.78398207 301.83883538 45.58491499 319.67557491 44.70336914 337.56176758 C44.04929442 350.72915417 43.11841225 363.86315125 42 377 C41.01 377 40.02 377 39 377 C39 378.32 39 379.64 39 381 C27.07077626 382.12339204 15.14719844 382.32059218 3.17480469 382.55224609 C0.57216787 382.60388195 -2.03030381 382.66106584 -4.6328125 382.71875 C-5.82803024 382.73911316 -5.82803024 382.73911316 -7.0473938 382.7598877 C-10.27170819 382.83286483 -12.92058872 382.97352957 -16 384 C-17.55421729 384.08106686 -19.11167027 384.10756898 -20.66796875 384.09765625 C-21.56064453 384.09443359 -22.45332031 384.09121094 -23.37304688 384.08789062 C-24.30181641 384.07951172 -25.23058594 384.07113281 -26.1875 384.0625 C-27.59805664 384.05573242 -27.59805664 384.05573242 -29.03710938 384.04882812 C-31.35810008 384.03704645 -33.67905807 384.01911114 -36 384 C-36 380.37 -36 376.74 -36 373 C-36.66 373 -37.32 373 -38 373 C-38.08040527 372.26475098 -38.16081055 371.52950195 -38.24365234 370.77197266 C-38.61621683 367.38912961 -38.99556503 364.00707904 -39.375 360.625 C-39.50132812 359.46871094 -39.62765625 358.31242187 -39.7578125 357.12109375 C-40.32178863 352.12990498 -40.89375484 347.22952477 -42.0390625 342.3359375 C-43.17823459 336.96678705 -43.34112373 331.58134911 -43.57829285 326.11686707 C-44.06055955 315.61139365 -45.09723241 305.15786096 -46.10180664 294.69165039 C-46.43862167 291.17579141 -46.76756452 287.65925637 -47.09570312 284.14257812 C-48.05639766 273.96261998 -49.01570472 263.80873823 -50.59765625 253.70336914 C-51.13245987 250.10999509 -51.46023446 246.51057934 -51.75390625 242.890625 C-51.90599629 240.91465488 -51.90599629 240.91465488 -53 239 C-53.1884053 237.08202671 -53.32220465 235.15858017 -53.4296875 233.234375 C-53.5011499 232.04610107 -53.5726123 230.85782715 -53.64624023 229.63354492 C-53.72173096 228.3519751 -53.79722168 227.07040527 -53.875 225.75 C-54.48518045 215.9794724 -55.36881315 206.32392296 -56.81933594 196.63769531 C-58.26537607 186.72667464 -59.11724788 176.75961566 -59.99780273 166.78588867 C-60.17291382 164.81906128 -60.17291382 164.81906128 -60.3515625 162.8125 C-60.45291504 161.64332031 -60.55426758 160.47414063 -60.65869141 159.26953125 C-60.98446955 156.14877237 -61.48059801 153.09317903 -62 150 C-62.11005741 148.64912655 -62.19515613 147.29579802 -62.24609375 145.94140625 C-62.27896484 145.22533203 -62.31183594 144.50925781 -62.34570312 143.77148438 C-62.40673246 142.30288493 -62.46404518 140.83412618 -62.51757812 139.36523438 C-62.68040176 135.94593798 -62.96698067 133.10691974 -63.984375 129.8125 C-65.51107209 124.08151399 -65.54127598 118.34493662 -65.8125 112.4375 C-66.64836138 96.11807966 -68.42706262 79.92902774 -70.32348633 63.70288086 C-72.42988708 45.46324478 -72.42988708 45.46324478 -72 37 C-71.01 37 -70.02 37 -69 37 C-69 34.69 -69 32.38 -69 30 C-67.741875 29.731875 -66.48375 29.46375 -65.1875 29.1875 C-57.28212039 27.41282295 -49.6452289 25.59852103 -42.36328125 21.96484375 C-39.72790478 20.88891319 -37.06369707 20.22163931 -34.29907227 19.56030273 C-29.94204146 18.49845865 -25.62987979 17.27380726 -21.3125 16.0625 C-20.38888672 15.81048828 -19.46527344 15.55847656 -18.51367188 15.29882812 C-11.89547351 13.45504052 -11.89547351 13.45504052 -6 10 C-4.89363605 7.60931266 -4.89363605 7.60931266 -4 5 C-2.71332828 3.29705213 -1.38903267 1.62053812 0 0 Z M-11 19 C-11.33 19.66 -11.66 20.32 -12 21 C-14.3984375 22.03515625 -14.3984375 22.03515625 -17.375 23.0625 C-18.35210937 23.40410156 -19.32921875 23.74570312 -20.3359375 24.09765625 C-22.22233089 24.73659595 -24.11054199 25.37018066 -26 26 C-26 26.66 -26 27.32 -26 28 C-27.08474609 28.17208984 -27.08474609 28.17208984 -28.19140625 28.34765625 C-31.10337007 29.02400946 -33.30533763 30.03617501 -35.9375 31.4375 C-39.55525007 33.35817555 -43.10546701 34.73510608 -47 36 C-47.02478762 41.58674804 -47.04290152 47.1734638 -47.05493164 52.76025391 C-47.05994885 54.65934812 -47.06676411 56.5584385 -47.07543945 58.45751953 C-47.08761963 61.19304352 -47.09325454 63.92851626 -47.09765625 66.6640625 C-47.10281754 67.50804596 -47.10797882 68.35202942 -47.11329651 69.22158813 C-47.11371093 73.61302408 -46.8028198 77.66865467 -46 82 C-45.55248401 87.05436677 -45.28423402 92.12161506 -45 97.1875 C-44.95609131 97.95398865 -44.91218262 98.72047729 -44.86694336 99.51019287 C-43.92805868 116.2299229 -43.61980216 132.9567909 -43.4296875 149.69995117 C-43.26662513 162.17085785 -42.73072645 174.591435 -41.95683098 187.03761673 C-41.19946484 199.22908255 -40.57391249 211.42191553 -40.03515625 223.625 C-39.97597204 224.96460376 -39.97597204 224.96460376 -39.91559219 226.33127022 C-39.66954565 231.92206986 -39.4277738 237.51304848 -39.18733215 243.10409164 C-39.01781469 247.03662839 -38.84631674 250.96907799 -38.67494011 254.90153408 C-37.03326141 292.59760031 -35.49257724 330.29776067 -34 368 C-23.27223102 371.16810464 -13.06318227 371.12217011 -2 371 C-2 371.66 -2 372.32 -2 373 C-1.24074219 373.06058594 -0.48148438 373.12117188 0.30078125 373.18359375 C1.29464844 373.26738281 2.28851563 373.35117187 3.3125 373.4375 C4.29863281 373.51871094 5.28476563 373.59992188 6.30078125 373.68359375 C9 374 9 374 12 375 C13.78674355 375.22972417 15.5799387 375.41090635 17.375 375.5625 C18.31085938 375.64628906 19.24671875 375.73007812 20.2109375 375.81640625 C23.72968992 375.9869025 27.21460246 376.01792756 30.73681641 376.01147461 C31.90918854 376.00981796 33.08156067 376.00816132 34.28945923 376.00645447 C35.18393768 376.00432449 36.07841614 376.00219452 37 376 C37.0154612 374.61132469 37.0154612 374.61132469 37.03123474 373.19459534 C37.15293726 362.28932464 37.27772685 351.38409071 37.40385818 340.47887039 C37.43756683 337.55670654 37.47098266 334.63453944 37.50436401 331.71237183 C37.94793208 293.02269086 37.94793208 293.02269086 38.2890625 277.28125 C38.31221527 276.20483246 38.33536804 275.12841492 38.35922241 274.01937866 C38.38199249 272.96417023 38.40476257 271.90896179 38.42822266 270.82177734 C39.41179485 225.22358329 39.08893297 179.60607812 39 134 C21.57117669 133.86695262 4.22117232 134.17490507 -13.1875 135 C-15.32875103 135.09690832 -17.47002717 135.1932636 -19.61132812 135.2890625 C-24.74119464 135.51972648 -29.87067217 135.75766448 -35 136 C-34.33333333 131.33333333 -33.66666667 126.66666667 -33 122 C-32.36567551 122.07072723 -31.73135101 122.14145447 -31.07780457 122.21432495 C-24.3760845 122.96145052 -17.67427314 123.70775328 -10.97241211 124.45361328 C-8.48313158 124.73075307 -5.99387312 125.00809118 -3.50463867 125.28564453 C0.10752433 125.68836908 3.71977053 126.09034051 7.33203125 126.4921875 C8.41515091 126.6131076 9.49827057 126.73402771 10.61421204 126.85861206 C20.4052027 127.94657602 30.20224531 128.97513077 40 130 C40.11578142 118.20426202 40.20465847 106.40865891 40.25906086 94.61246872 C40.28516963 89.1351593 40.32059157 83.65823823 40.37719727 78.18115234 C40.4314706 72.8967532 40.46141089 67.61272791 40.47438622 62.32807159 C40.48363446 60.31057091 40.50169406 58.293091 40.52865028 56.27574921 C40.56487835 53.45258659 40.56994796 50.63097434 40.56762695 47.80761719 C40.58560333 46.97108109 40.60357971 46.13454498 40.62210083 45.2726593 C40.58633286 41.25949326 40.43558646 39.44806323 37.58415222 36.51495361 C33.5097376 34.12633691 29.83986968 32 25 32 C25 31.34 25 30.68 25 30 C23.9378125 29.46890625 22.875625 28.9378125 21.78125 28.390625 C13.28125 24.140625 13.28125 24.140625 11.15625 23.07617188 C9.67914352 22.33895659 8.19985852 21.60609473 6.71875 20.87695312 C1.10532407 18.10532407 1.10532407 18.10532407 0 17 C-4.06087895 16.65192466 -7.24323249 17.46314057 -11 19 Z " fill="#000000" transform="translate(184,301)"/>
<path d="M0 0 C1.32 0 2.64 0 4 0 C4 0.66 4 1.32 4 2 C4.58007812 2.10957031 5.16015625 2.21914063 5.7578125 2.33203125 C10.57475122 3.30972673 14.73320759 4.43992455 19 7 C19.495 7.99 19.495 7.99 20 9 C21.91623682 10.04261772 21.91623682 10.04261772 24.26953125 10.98828125 C25.15318359 11.36275391 26.03683594 11.73722656 26.94726562 12.12304688 C27.89279297 12.51556641 28.83832031 12.90808594 29.8125 13.3125 C31.24432617 13.91481445 31.24432617 13.91481445 32.70507812 14.52929688 C34.60513838 15.32776076 36.50632507 16.12355003 38.40869141 16.91650391 C40.57352462 17.82167913 42.73208537 18.73887446 44.88671875 19.66796875 C45.91410156 20.10753906 46.94148437 20.54710937 48 21 C48.86625 21.37125 49.7325 21.7425 50.625 22.125 C53.06984599 23.02573273 55.4353097 23.56033881 58 24 C58 24.66 58 25.32 58 26 C58.99 26 59.98 26 61 26 C61 26.66 61 27.32 61 28 C61.56203125 28.11730469 62.1240625 28.23460937 62.703125 28.35546875 C65.254688 29.07146857 67.39395084 30.10071038 69.75 31.3125 C71.07837891 31.98539062 71.07837891 31.98539062 72.43359375 32.671875 C73.95448112 33.45894 75.46996509 34.25685221 76.97265625 35.078125 C83.01071136 38.30867678 89.43627004 40.11893105 96 42 C96 42.66 96 43.32 96 44 C97.98 44.495 97.98 44.495 100 45 C100 45.66 100 46.32 100 47 C100.59167969 47.18175781 101.18335938 47.36351562 101.79296875 47.55078125 C106.25907529 48.97148398 109.99818672 50.53734567 114 53 C116.63153981 54.09838183 119.31371005 55.04487468 122 56 C127.06979649 57.85763536 132.05276659 59.83558538 137 62 C137 62.66 137 63.32 137 64 C137.6290625 64.17015625 138.258125 64.3403125 138.90625 64.515625 C144.66855588 66.14712124 149.72925467 68.19399169 155 71 C156.87280447 71.94187827 158.74801798 72.87897455 160.625 73.8125 C163.89418712 75.43887952 167.15195627 77.0791293 170.390625 78.765625 C178.43462676 82.91387703 186.42160279 86.17095411 195 89 C195 89.66 195 90.32 195 91 C195.556875 91.17015625 196.11375 91.3403125 196.6875 91.515625 C201.3920866 93.00964912 205.72956159 94.75267112 210.10546875 97.03125 C213.00290968 98.51282804 216.00172182 99.73756708 219 101 C225.45173339 103.77883648 231.73419364 106.82654144 238 110 C239.39569917 110.68777233 240.79152321 111.37529135 242.1875 112.0625 C244.60642907 113.25998964 246.82006732 114.50844174 249.125 115.9375 C253.68594973 118.60861176 258.71646194 120.14110399 263.6953125 121.8515625 C271.84120172 124.68240343 271.84120172 124.68240343 273 127 C274.86902745 127.88986638 274.86902745 127.88986638 277.1875 128.6875 C282.90668422 130.86819614 288.2771231 133.60285337 293.703125 136.4140625 C296.76776947 137.88828721 299.76970342 138.95767899 303 140 C304.24462147 140.59362707 305.47610331 141.21621798 306.6875 141.875 C310.82240599 144.01017304 315.09096614 145.55144829 319.484375 147.0703125 C321.75732019 147.91031398 323.85951605 148.86974446 326 150 C326 150.66 326 151.32 326 152 C326.99 152 327.98 152 329 152 C329 152.66 329 153.32 329 154 C330.134375 154.2475 331.26875 154.495 332.4375 154.75 C337.22541608 155.93199002 341.56069233 157.88310791 346 160 C346 160.99 346 161.98 346 163 C345.34 163 344.68 163 344 163 C343.67 163.99 343.34 164.98 343 166 C341.34388916 166.76181099 339.68123646 167.5135642 337.984375 168.1796875 C332.06853091 170.53155925 332.06853091 170.53155925 328 175 C330.64 175 333.28 175 336 175 C336.49915931 195.98260943 335.6521027 216.85930399 334.5625 237.8125 C334.46127335 239.77372299 334.46127335 239.77372299 334.35800171 241.77456665 C334.16056987 245.56477711 333.95859871 249.35470641 333.75390625 253.14453125 C333.69343109 254.27693237 333.63295593 255.4093335 333.57064819 256.5760498 C333.2376734 262.56187976 332.78271534 268.51884504 332.21620178 274.48677063 C331.90646328 278.087314 331.77435465 281.68121001 331.68359375 285.29296875 C331.6524221 286.36832634 331.6524221 286.36832634 331.62062073 287.46540833 C331.55638939 289.70602952 331.49684332 291.9467446 331.4375 294.1875 C331.39419379 295.72722239 331.35057619 297.26693606 331.30664062 298.80664062 C331.20084264 302.53766684 331.09923932 306.26879289 331 310 C330.34 310 329.68 310 329 310 C329 312.64 329 315.28 329 318 C328.67 318 328.34 318 328 318 C327.26141696 311.51944362 326.89513176 305.06743192 326.75390625 298.55078125 C326.73725922 297.80279266 326.72061218 297.05480408 326.70346069 296.28414917 C326.6370255 293.17381936 326.57501004 290.06349073 326.52319336 286.95288086 C326.4831957 284.6519374 326.43178155 282.35146006 326.37890625 280.05078125 C326.36628502 279.01610466 326.36628502 279.01610466 326.35340881 277.96052551 C326.24727758 273.72205191 325.5566105 270.03506616 324.45866394 265.9835968 C323.70510205 262.72464656 323.64212385 259.44925991 323.5859375 256.12109375 C323.56652603 255.37126724 323.54711456 254.62144073 323.52711487 253.84889221 C323.46663198 251.37854185 323.42027116 248.90817256 323.375 246.4375 C323.33684198 244.69856392 323.29850817 242.9596317 323.26000977 241.22070312 C322.8200316 219.81712353 322.90768067 198.40672203 323 177 C322.34 177 321.68 177 321 177 C321.37100593 174.43569434 321.66005689 173.28752197 323.671875 171.5859375 C324.35765625 171.18632812 325.0434375 170.78671875 325.75 170.375 C326.46671875 169.95605469 327.1834375 169.53710938 327.921875 169.10546875 C330.22460208 167.88052182 332.53259983 166.84816881 335 166 C335 165.34 335 164.68 335 164 C319.34992774 157.43685982 319.34992774 157.43685982 303.34375 151.83203125 C299.9354417 150.6220818 297.08059476 148.88607842 294 147 C290.05429595 145.12579058 286.33121349 144.50955453 282 144 C282 143.34 282 142.68 282 142 C281.26910156 141.88269531 280.53820312 141.76539063 279.78515625 141.64453125 C276.97854091 140.99503401 274.95549051 140.06366063 272.4375 138.6875 C268.7268832 136.76347648 265.11435598 135.30688627 261.125 134.0625 C256.95574802 132.7450587 253.2342465 131.17722362 249.375 129.125 C243.57937685 126.09320771 237.64369839 124.07972294 231.40576172 122.18017578 C226.48373838 120.64551526 222.42234336 118.65120585 218 116 C216.00428677 115.32060826 214.00405227 114.65438441 212 114 C210.88625 113.4225 209.7725 112.845 208.625 112.25 C202.04766919 108.84526405 194.94718867 106.52931626 188 104 C188 103.34 188 102.68 188 102 C187.40574219 101.91363281 186.81148437 101.82726562 186.19921875 101.73828125 C180.35642215 100.74782273 175.54677767 99.00952164 170.2265625 96.44140625 C163.66467295 93.51000523 156.7974785 91.31895222 150 89 C150 88.34 150 87.68 150 87 C149.28457031 86.86207031 148.56914063 86.72414063 147.83203125 86.58203125 C140.93057634 85.16366328 134.45308895 83.46378098 128.23828125 80.10546875 C124.30774769 78.16421046 120.16471132 76.74878677 116.05078125 75.24609375 C113.13435107 74.05487579 110.58135586 72.80551236 108 71 C108 70.34 108 69.68 108 69 C106.42412109 68.63648438 106.42412109 68.63648438 104.81640625 68.265625 C103.39832849 67.92754024 101.98036585 67.58897239 100.5625 67.25 C99.87478516 67.09273438 99.18707031 66.93546875 98.47851562 66.7734375 C93.90366772 65.66696266 89.79143803 64.12277399 85.5246582 62.14648438 C80.36107774 59.80162664 75.06990156 57.74875882 69.8125 55.625 C62.46939286 52.6502268 55.1378684 49.66606969 47.875 46.5 C43.635882 44.65461281 39.4131037 43.09134923 35.00390625 41.7109375 C32.23008117 40.72685141 29.71799876 39.34687359 27.12109375 37.97265625 C23.89929678 36.49525764 20.5335479 35.66393376 17.1015625 34.80859375 C15 34 15 34 13 31 C6.0612898 27.30008649 -1.25132743 25.14858642 -9 24 C-8.9690625 24.78761719 -8.938125 25.57523437 -8.90625 26.38671875 C-9 29 -9 29 -10.5 30.8125 C-10.995 31.204375 -11.49 31.59625 -12 32 C-12 30.35 -12 28.7 -12 27 C-13.98 28.65 -15.96 30.3 -18 32 C-17.39301257 27.87248551 -15.96189209 24.6678852 -14 21 C-14.99 20.67 -15.98 20.34 -17 20 C-15.4585799 16.43082939 -13.30524541 13.91782231 -10.6875 11.0625 C-9.88699219 10.18851562 -9.08648437 9.31453125 -8.26171875 8.4140625 C-5.89086188 5.8835106 -3.49027972 3.41245848 -1 1 C-0.67 0.67 -0.34 0.34 0 0 Z " fill="#000000" transform="translate(498,273)"/>
<path d="M0 0 C7.26 0 14.52 0 22 0 C21.90912109 2.76503906 21.90912109 2.76503906 21.81640625 5.5859375 C21.75428113 7.49073145 21.69216257 9.39552562 21.63015747 11.30032349 C21.58481611 12.69068957 21.53930246 14.08105005 21.49362183 15.47140503 C21.23300934 23.41139884 20.98465205 31.35128568 20.78125 39.29296875 C20.22798557 60.55161129 19.20763451 81.76883614 18 103 C16.00045254 103.04254356 13.99958364 103.04080783 12 103 C10.07673625 101.07673625 10.31909928 97.69104943 10 95.0625 C9.91169922 94.35246826 9.82339844 93.64243652 9.73242188 92.91088867 C9.02018515 86.86281184 8.63542125 80.81824167 8.4296875 74.73266602 C8.25598112 70.51189709 7.78473007 66.43549984 7.1015625 62.265625 C5.73922883 53.78922432 4.952748 45.26493495 4.14013672 36.72192383 C3.87249432 33.91118571 3.59876456 31.10108704 3.32421875 28.29101562 C3.15068899 26.4948257 2.97749931 24.69860289 2.8046875 22.90234375 C2.72346649 22.06694565 2.64224548 21.23154755 2.55856323 20.37083435 C2.48493561 19.59224564 2.41130798 18.81365692 2.33544922 18.01147461 C2.23790848 16.99107338 2.23790848 16.99107338 2.13839722 15.95005798 C1.99795223 13.97114637 2 11.9838891 2 10 C1.34 10 0.68 10 0 10 C0 6.7 0 3.4 0 0 Z " fill="#000000" transform="translate(510,497)"/>
<path d="M0 0 C6.6 0 13.2 0 20 0 C20.24760847 34.03240882 19.74746532 68.06660373 17 102 C15.02 102 13.04 102 11 102 C8.80446173 86.11561325 7.00735517 70.20611229 5.35839844 54.25708008 C5.19466501 52.69742801 5.03092818 51.1377763 4.8671875 49.578125 C4.79436554 48.85717148 4.72154358 48.13621796 4.64651489 47.39341736 C4.33402772 44.43363699 3.94503125 41.83509376 3 39 C2.79798556 37.39598427 2.63600457 35.78673719 2.5 34.17578125 C2.4175 33.22896484 2.335 32.28214844 2.25 31.30664062 C2.1675 30.31857422 2.085 29.33050781 2 28.3125 C1.83465439 26.37098079 1.66800892 24.4295718 1.5 22.48828125 C1.41878906 21.54807129 1.33757812 20.60786133 1.25390625 19.63916016 C1.03517604 17.36562786 0.75579708 15.11661088 0.4375 12.85546875 C-0.04593781 8.59517306 0 4.28763705 0 0 Z " fill="#000000" transform="translate(468,508)"/>
<path d="M0 0 C4.62 0 9.24 0 14 0 C14.0232194 4.17691221 14.04305052 8.35359173 14.05493164 12.53051758 C14.05989558 13.94523893 14.06666892 15.35995533 14.07543945 16.7746582 C14.08786025 18.83285763 14.09330749 20.8909881 14.09765625 22.94921875 C14.10289307 24.17987061 14.10812988 25.41052246 14.11352539 26.6784668 C14.06910127 30.10698054 13.81362787 33.49564337 13.52734375 36.91210938 C12.86629826 45.087603 12.66832789 53.26021219 12.46484375 61.45703125 C12.42171826 63.09755698 12.37830172 64.73807507 12.33460999 66.37858582 C12.2215886 70.651062 12.11246358 74.9236287 12.00421143 79.19622803 C11.89257797 83.57424091 11.77717461 87.95215434 11.66210938 92.33007812 C11.43776254 100.88662698 11.217541 109.44327542 11 118 C9.68 118 8.36 118 7 118 C6.31474921 111.00169407 5.65104675 104.00156856 5 97 C4.91459961 96.09121094 4.82919922 95.18242187 4.74121094 94.24609375 C3.07121982 76.24948357 2.12068124 58.22098065 1.21142578 40.17333984 C1.03193516 36.61127322 0.84363559 33.04973567 0.65234375 29.48828125 C0.1356739 19.64227607 -0.09959847 9.86024807 0 0 Z " fill="#000000" transform="translate(526,366)"/>
<path d="M0 0 C4.62 0 9.24 0 14 0 C13.88619427 9.91682736 13.76143384 19.83346072 13.625 29.75 C13.61483479 30.4893856 13.60466957 31.22877121 13.59419632 31.99056244 C13.19498731 60.68291036 12.29042272 89.33270524 11 118 C9.68 117.67 8.36 117.34 7 117 C6.96463638 116.4097554 6.92927277 115.8195108 6.89283752 115.21138 C6.52378136 109.0629449 6.14988685 102.91481753 5.77319336 96.7668457 C5.63328172 94.47297567 5.4946 92.17903028 5.35717773 89.88500977 C5.15933077 86.58589376 4.95704874 83.2870749 4.75390625 79.98828125 C4.6934462 78.96414627 4.63298615 77.94001129 4.57069397 76.88484192 C4.48071388 75.44391426 4.48071388 75.44391426 4.38891602 73.97387695 C4.33784195 73.13226517 4.28676788 72.29065338 4.23414612 71.42353821 C3.99013479 68.89788978 3.49829207 66.48645075 3 64 C2.87323679 62.55044183 2.7796949 61.09761227 2.71875 59.64379883 C2.66364258 58.40144218 2.66364258 58.40144218 2.60742188 57.13398743 C2.57197266 56.25059189 2.53652344 55.36719635 2.5 54.45703125 C2.45939453 53.53339279 2.41878906 52.60975433 2.37695312 51.65812683 C2.24763405 48.70972963 2.1233524 45.76115242 2 42.8125 C1.87628336 39.88172044 1.75136134 36.95101356 1.62304688 34.02043152 C1.54345713 32.20065499 1.4664589 30.38076248 1.39257812 28.56074524 C1.16804281 23.40243403 0.7722496 18.29190058 0.21070862 13.15901184 C-0.21731639 8.77328209 -0.05642417 4.40108511 0 0 Z " fill="#000000" transform="translate(479,356)"/>
<path d="M0 0 C3.96 0 7.92 0 12 0 C12.42821849 22.6321402 11.51646712 45.05687733 10.14404297 67.64794922 C10.00735776 69.89940622 9.87079996 72.15087096 9.734375 74.40234375 C9.66819977 75.49264893 9.60202454 76.5829541 9.53384399 77.70629883 C8.75291791 90.79577657 8.30283811 103.89095824 8 117 C5.525 117.495 5.525 117.495 3 118 C1.61268646 88.96132647 0.76131492 59.94214814 0.375 30.875 C0.36475422 30.10466934 0.35450844 29.33433868 0.34395218 28.54066467 C0.21841563 19.0272258 0.10486458 9.51368956 0 0 Z " fill="#000000" transform="translate(575,367)"/>
<path d="M0 0 C5.94 0 11.88 0 18 0 C17.90486278 7.66009347 17.79846627 15.31992805 17.68261719 22.97973633 C17.64485793 25.57344535 17.60992421 28.16719739 17.578125 30.76098633 C17.36535919 47.91855428 16.63217684 64.91606152 15 82 C13.02 82 11.04 82 9 82 C6.72569353 68.39964729 5.45035693 54.86230059 4.73486328 41.10327148 C4.14655976 30.35669639 2.77702301 19.90611558 0.3671875 9.4140625 C-0.1050481 6.3093646 0 3.1404069 0 0 Z " fill="#000000" transform="translate(563,494)"/>
<path d="M0 0 C0.33 0 0.66 0 1 0 C1.14077598 34.38030238 0.93615275 68.74751915 0.5 103.125 C0.48804218 104.06784977 0.47608437 105.01069954 0.46376419 105.98212051 C0.31517296 117.65482883 0.16051483 129.32744965 0 141 C0.99 141 1.98 141 3 141 C2.98839844 140.34773437 2.97679687 139.69546875 2.96484375 139.0234375 C2.91529006 134.2238086 3.00586249 129.72215315 4 125 C4.33 125 4.66 125 5 125 C4.67 130.61 4.34 136.22 4 142 C3.01 142 2.02 142 1 142 C1 143.32 1 144.64 1 146 C-10.92922374 147.12339204 -22.85280156 147.32059218 -34.82519531 147.55224609 C-37.42783213 147.60388195 -40.03030381 147.66106584 -42.6328125 147.71875 C-43.82803024 147.73911316 -43.82803024 147.73911316 -45.0473938 147.7598877 C-48.27170819 147.83286483 -50.92058872 147.97352957 -54 149 C-55.55421729 149.08106686 -57.11167027 149.10756898 -58.66796875 149.09765625 C-59.56064453 149.09443359 -60.45332031 149.09121094 -61.37304688 149.08789062 C-62.30181641 149.07951172 -63.23058594 149.07113281 -64.1875 149.0625 C-65.12787109 149.05798828 -66.06824219 149.05347656 -67.03710938 149.04882812 C-69.35810008 149.03704645 -71.67905807 149.01911114 -74 149 C-74 145.37 -74 141.74 -74 138 C-74.66 138 -75.32 138 -76 138 C-76 137.34 -76 136.68 -76 136 C-75.01 136 -74.02 136 -73 136 C-73.0714624 135.01136963 -73.1429248 134.02273926 -73.21655273 133.00415039 C-73.99980014 121.47108932 -74.11962739 109.99340036 -74.0625 98.4375 C-74.05746671 96.63606898 -74.05290709 94.83463656 -74.04882812 93.03320312 C-74.03798636 88.68876677 -74.02082646 84.34439949 -74 80 C-73.67 80 -73.34 80 -73 80 C-72.34 97.49 -71.68 114.98 -71 133 C-59.0155682 134.64005885 -59.0155682 134.64005885 -47.0625 135.625 C-46.01932617 135.68300781 -46.01932617 135.68300781 -44.95507812 135.7421875 C-43.30366281 135.83330007 -41.65186873 135.9175151 -40 136 C-40 136.66 -40 137.32 -40 138 C-39.24074219 137.98839844 -38.48148438 137.97679687 -37.69921875 137.96484375 C-36.70535156 137.95582031 -35.71148437 137.94679688 -34.6875 137.9375 C-33.70136719 137.92589844 -32.71523437 137.91429687 -31.69921875 137.90234375 C-29 138 -29 138 -26 139 C-24.08330242 139.21608346 -22.16155357 139.3887142 -20.23828125 139.53515625 C-18.56088867 139.66567383 -18.56088867 139.66567383 -16.84960938 139.79882812 C-15.09874023 139.9293457 -15.09874023 139.9293457 -13.3125 140.0625 C-11.54422852 140.19881836 -11.54422852 140.19881836 -9.74023438 140.33789062 C-6.82706468 140.5619806 -3.9136711 140.78254296 -1 141 C-1.00222061 140.07421646 -1.00444122 139.14843292 -1.00672913 138.19459534 C-1.0342714 126.31724042 -1.05186105 114.43988186 -1.0625 102.5625 C-1.06335602 101.61360397 -1.06421204 100.66470795 -1.06509399 99.6870575 C-1.09157603 66.44627723 -0.78233016 33.23238652 0 0 Z " fill="#000000" transform="translate(222,536)"/>
<path d="M0 0 C4.29 0 8.58 0 13 0 C13.27003648 13.60083749 12.21102677 27.01094477 11.125 40.5625 C10.75401159 45.29017083 10.38674529 50.01812845 10.01953125 54.74609375 C9.92961411 55.89686401 9.83969696 57.04763428 9.74705505 58.23327637 C8.93085604 68.73622207 8.22196611 79.24402836 7.59619141 89.76000977 C7.52964355 90.83178467 7.4630957 91.90355957 7.39453125 93.0078125 C7.31489136 94.36350342 7.31489136 94.36350342 7.23364258 95.74658203 C7 98 7 98 6 101 C4.68 101 3.36 101 2 101 C1.34 67.67 0.68 34.34 0 0 Z " fill="#000000" transform="translate(623,377)"/>
<path d="M0 0 C0.88945313 0.00257813 1.77890625 0.00515625 2.6953125 0.0078125 C3.57960938 0.00523437 4.46390625 0.00265625 5.375 0 C7.8203125 0.1328125 7.8203125 0.1328125 10.8203125 1.1328125 C10.67792413 3.17472231 10.53124222 5.21633295 10.3828125 7.2578125 C10.30160156 8.39476562 10.22039063 9.53171875 10.13671875 10.703125 C9.84300285 13.8868603 9.38906937 16.98792157 8.8203125 20.1328125 C8.1603125 20.1328125 7.5003125 20.1328125 6.8203125 20.1328125 C6.75972656 21.01324219 6.69914063 21.89367187 6.63671875 22.80078125 C6.55292969 23.96222656 6.46914063 25.12367188 6.3828125 26.3203125 C6.26099609 28.04314453 6.26099609 28.04314453 6.13671875 29.80078125 C5.86627438 32.64879421 5.44509503 35.34491732 4.8203125 38.1328125 C4.1603125 38.1328125 3.5003125 38.1328125 2.8203125 38.1328125 C2.78292969 38.86242187 2.74554687 39.59203125 2.70703125 40.34375 C2.09436681 50.07430284 0.5315117 59.54363961 -1.1796875 69.1328125 C-1.8396875 69.1328125 -2.4996875 69.1328125 -3.1796875 69.1328125 C-3.5096875 73.7528125 -3.8396875 78.3728125 -4.1796875 83.1328125 C-6.6546875 83.6278125 -6.6546875 83.6278125 -9.1796875 84.1328125 C-9.025 83.01132812 -8.8703125 81.88984375 -8.7109375 80.734375 C-8.01614886 75.17851236 -7.81154821 69.61386474 -7.57421875 64.0234375 C-7.53683594 63.22164063 -7.49945312 62.41984375 -7.4609375 61.59375 C-7.43064453 60.88009277 -7.40035156 60.16643555 -7.36914062 59.43115234 C-7.1796875 57.1328125 -7.1796875 57.1328125 -6.70703125 54.57202148 C-5.94686683 49.61441214 -5.73171691 44.64974019 -5.4609375 39.64453125 C-5.33209541 37.38997029 -5.20318723 35.13541311 -5.07421875 32.88085938 C-4.87528224 29.33431013 -4.67788472 25.78768225 -4.48193359 22.2409668 C-4.29135907 18.81275344 -4.09518712 15.38489489 -3.8984375 11.95703125 C-3.8411145 10.8873259 -3.7837915 9.81762054 -3.72473145 8.71549988 C-3.66797241 7.73390396 -3.61121338 6.75230804 -3.55273438 5.7409668 C-3.50467651 4.87304001 -3.45661865 4.00511322 -3.40710449 3.11088562 C-3.08605029 0.31835601 -2.8182988 0.1717243 0 0 Z " fill="#000000" transform="translate(673.1796875,391.8671875)"/>
<path d="M0 0 C4.29 0 8.58 0 13 0 C12.40938185 22.00289993 11.76524085 44.00240119 11 66 C9.35 66 7.7 66 6 66 C5.00007608 61.74412545 4.75685682 57.53772128 4.5625 53.1875 C4.26608249 47.37595844 3.7791405 41.64163674 3 35.875 C2.11511676 29.28098121 1.59510575 22.74772578 1.24609375 16.109375 C1.04480155 13.56606402 0.62234867 11.44858492 0 9 C-0.12447135 5.99277207 -0.04428988 3.01171196 0 0 Z " fill="#000000" transform="translate(607,488)"/>
<path d="M0 0 C1.77074917 -0.02705729 3.54161711 -0.04642195 5.3125 -0.0625 C6.29863281 -0.07410156 7.28476562 -0.08570313 8.30078125 -0.09765625 C11 0 11 0 14 1 C13.03644647 10.41002278 13.03644647 10.41002278 12 15 C11.34 15 10.68 15 10 15 C9.67 17.97 9.34 20.94 9 24 C8.34 24 7.68 24 7 24 C6.88785156 25.23621094 6.77570312 26.47242188 6.66015625 27.74609375 C6.00831038 33.61270662 4.73324269 39.30969283 3.4375 45.0625 C3.20353516 46.11888672 2.96957031 47.17527344 2.72851562 48.26367188 C2.15653688 50.84341273 1.58028727 53.42211775 1 56 C0.34 56 -0.32 56 -1 56 C-1 57.98 -1 59.96 -1 62 C-2.32 62 -3.64 62 -5 62 C-4.86076462 58.74968216 -4.71245815 55.49983939 -4.5625 52.25 C-4.52318359 51.32960938 -4.48386719 50.40921875 -4.44335938 49.4609375 C-4.40146484 48.57148438 -4.35957031 47.68203125 -4.31640625 46.765625 C-4.27974854 45.94868164 -4.24309082 45.13173828 -4.20532227 44.29003906 C-4 42 -4 42 -3.51147461 40.10327148 C-2.64999956 36.56073806 -2.51661531 32.92362577 -2.24609375 29.296875 C-2.18092056 28.45908508 -2.11574738 27.62129517 -2.04859924 26.75811768 C-1.84169989 24.08898064 -1.63953897 21.41950891 -1.4375 18.75 C-1.29783854 16.93747589 -1.15786819 15.12497556 -1.01757812 13.3125 C-0.67480376 8.87526764 -0.33627789 4.43772923 0 0 Z " fill="#000000" transform="translate(711,403)"/>
<path d="M0 0 C0.99 0.495 0.99 0.495 2 1 C4.61756898 1.1329636 7.21280157 1.21003518 9.83203125 1.24609375 C11.45247816 1.27909094 13.07292075 1.31230139 14.69335938 1.34570312 C17.23588379 1.39265626 19.77839886 1.43696567 22.32104492 1.47680664 C32.39461761 1.64230459 42.07869376 2.08943669 52 4 C51.67 4.66 51.34 5.32 51 6 C49.02 6 47.04 6 45 6 C45 6.66 45 7.32 45 8 C43.89785156 8.10957031 42.79570313 8.21914063 41.66015625 8.33203125 C33.70738185 9.15381794 25.8564242 10.12980816 18 11.625 C11.9068471 12.77927122 6.20337752 13.29539893 0 13 C0 8.71 0 4.42 0 0 Z " fill="#000000" transform="translate(771,589)"/>
<path d="M0 0 C4.62 0 9.24 0 14 0 C13.14594408 5.12433554 12.35660159 7.67219656 10 12.0625 C8.02968386 15.74263375 6.60829186 18.85601167 6 23 C5.34 23 4.68 23 4 23 C3.87625 23.94875 3.7525 24.8975 3.625 25.875 C3 29 3 29 1 31 C0.28072705 33.31765729 -0.3909893 35.65095874 -1 38 C-2.32 38 -3.64 38 -5 38 C-4.56673866 30.24611593 -3.49982822 22.73173697 -2.09326172 15.10791016 C-1.17075841 10.08158171 -0.46294729 5.09242015 0 0 Z " fill="#000000" transform="translate(745,416)"/>
<path d="M0 0 C0.33 0 0.66 0 1 0 C1.18159485 18.68409223 0.61288424 37.32891946 0 56 C-4.62 56.33 -9.24 56.66 -14 57 C-14 56.67 -14 56.34 -14 56 C-11.03 55.505 -11.03 55.505 -8 55 C-17.96687989 52.98708112 -27.86975045 52.42772165 -38 52 C-38 51.67 -38 51.34 -38 51 C-27.77 51 -17.54 51 -7 51 C-7 34.83 -7 18.66 -7 2 C-4.87347576 6.25304849 -4.67380795 9.33337793 -4.62109375 13.94140625 C-4.60409927 14.70549301 -4.5871048 15.46957977 -4.56959534 16.25682068 C-4.51658815 18.69196369 -4.476226 21.12709132 -4.4375 23.5625 C-4.39351484 26.001393 -4.34677253 28.44015709 -4.29469299 30.87889099 C-4.26283858 32.39463083 -4.2359168 33.91048415 -4.21446228 35.42640686 C-4.15340212 38.53869718 -3.9914659 41.0256023 -3 44 C-2.34 44 -1.68 44 -1 44 C-1.00523682 43.05793701 -1.01047363 42.11587402 -1.01586914 41.14526367 C-1.03306826 37.59854501 -1.04552583 34.05187167 -1.05493164 30.50512695 C-1.05991292 28.97972914 -1.06670038 27.45433599 -1.07543945 25.92895508 C-1.12398826 17.22729551 -1.0402367 8.65612974 0 0 Z " fill="#000000" transform="translate(830,539)"/>
<path d="M0 0 C2.97 0 5.94 0 9 0 C9.02757191 1.66656881 9.04664803 3.33327851 9.0625 5 C9.07410156 5.928125 9.08570313 6.85625 9.09765625 7.8125 C9.00487615 10.84084254 8.65864317 13.76923572 8.25610352 16.76953125 C7.77053282 20.99848631 7.62594129 25.24925879 7.4375 29.5 C7.37272461 30.87671875 7.37272461 30.87671875 7.30664062 32.28125 C7.20166544 34.52072061 7.09950752 36.76028092 7 39 C5.68 39 4.36 39 3 39 C2.90912109 37.86111328 2.90912109 37.86111328 2.81640625 36.69921875 C2.73261719 35.70535156 2.64882813 34.71148437 2.5625 33.6875 C2.44068359 32.20830078 2.44068359 32.20830078 2.31640625 30.69921875 C2.08187441 27.90624401 2.08187441 27.90624401 1 25 C0.85060226 23.08234406 0.75189717 21.16053478 0.68359375 19.23828125 C0.64169922 18.12001953 0.59980469 17.00175781 0.55664062 15.84960938 C0.51732422 14.68236328 0.47800781 13.51511719 0.4375 12.3125 C0.39431641 11.13365234 0.35113281 9.95480469 0.30664062 8.74023438 C0.20048824 5.82694117 0.09843758 2.91356243 0 0 Z " fill="#000000" transform="translate(697,470)"/>
<path d="M0 0 C0.66 0.33 1.32 0.66 2 1 C1.67 1.66 1.34 2.32 1 3 C1.66 3 2.32 3 3 3 C3 8.61 3 14.22 3 20 C2.67 20 2.34 20 2 20 C2 14.72 2 9.44 2 4 C0.68 4.33 -0.64 4.66 -2 5 C-2.268125 5.598125 -2.53625 6.19625 -2.8125 6.8125 C-5.32818217 11.44665136 -11.36707812 13.15389116 -16.02734375 15.0859375 C-20.19780926 17.01839082 -24.2966462 19.27569375 -28 22 C-28.33 22.99 -28.66 23.98 -29 25 C-32.5625 26.1875 -32.5625 26.1875 -36 27 C-36.33 25.02 -36.66 23.04 -37 21 C-33.68803022 19.1032393 -30.37532578 17.20776518 -27.0625 15.3125 C-26.13630859 14.78205078 -25.21011719 14.25160156 -24.25585938 13.70507812 C-21.50628048 12.13251195 -18.75361854 10.5654799 -16 9 C-15.15622803 8.51684326 -14.31245605 8.03368652 -13.44311523 7.53588867 C-12.26471069 6.86843628 -12.26471069 6.86843628 -11.0625 6.1875 C-10.37414062 5.795625 -9.68578125 5.40375 -8.9765625 5 C-6.06018406 3.52452 -3.17604908 2.74333064 0 2 C0 1.34 0 0.68 0 0 Z " fill="#000000" transform="translate(818,447)"/>
<path d="M0 0 C2.97 0 5.94 0 9 0 C8.67 9.57 8.34 19.14 8 29 C8.66 29.33 9.32 29.66 10 30 C8.68 30 7.36 30 6 30 C6 30.66 6 31.32 6 32 C5.34 32 4.68 32 4 32 C1.52250366 21.295346 0.38929894 10.96749079 0 0 Z " fill="#000000" transform="translate(732,463)"/>
<path d="M0 0 C0.33 0 0.66 0 1 0 C1.66 17.49 2.32 34.98 3 53 C7.95 53.66 12.9 54.32 18 55 C18 55.33 18 55.66 18 56 C12.72 56 7.44 56 2 56 C2.33 59.63 2.66 63.26 3 67 C8.61 67.33 14.22 67.66 20 68 C20 68.33 20 68.66 20 69 C13.4 69 6.8 69 0 69 C0 65.37 0 61.74 0 58 C-0.66 58 -1.32 58 -2 58 C-2 57.34 -2 56.68 -2 56 C-1.01 56 -0.02 56 1 56 C0.9285376 55.01136963 0.8570752 54.02273926 0.78344727 53.00415039 C0.00019986 41.47108932 -0.11962739 29.99340036 -0.0625 18.4375 C-0.05746671 16.63606898 -0.05290709 14.83463656 -0.04882812 13.03320312 C-0.03798636 8.68876677 -0.02082646 4.34439949 0 0 Z " fill="#000000" transform="translate(148,616)"/>
<path d="M0 0 C0.66 0 1.32 0 2 0 C0.52344214 36.42967359 0.52344214 36.42967359 -1 41 C-2.32 41 -3.64 41 -5 41 C-5 33.74 -5 26.48 -5 19 C-4.34 19 -3.68 19 -3 19 C-2.67 19.99 -2.34 20.98 -2 22 C-1.34 22 -0.68 22 0 22 C0 14.74 0 7.48 0 0 Z " fill="#000000" transform="translate(630,437)"/>
<path d="M0 0 C4.29 0 8.58 0 13 0 C12.40938185 22.00289993 11.76524085 44.00240119 11 66 C9.35 66 7.7 66 6 66 C5.67 63.03 5.34 60.06 5 57 C7 59 7 59 7.125 61.625 C7.08375 62.40875 7.0425 63.1925 7 64 C7.99 64 8.98 64 10 64 C9.99476318 63.22325928 9.98952637 62.44651855 9.98413086 61.64624023 C9.86909425 41.73908291 10.22419585 21.89236109 11 2 C7.37 2 3.74 2 0 2 C0 1.34 0 0.68 0 0 Z " fill="#000000" transform="translate(607,488)"/>
<path d="M0 0 C1.32 0.33 2.64 0.66 4 1 C4 1.99 4 2.98 4 4 C3.34 4 2.68 4 2 4 C1.67 4.99 1.34 5.98 1 7 C-0.65611084 7.76181099 -2.31876354 8.5135642 -4.015625 9.1796875 C-9.93146909 11.53155925 -9.93146909 11.53155925 -14 16 C-11.36 16 -8.72 16 -6 16 C-6 26.56 -6 37.12 -6 48 C-6.33 48 -6.66 48 -7 48 C-7 38.1 -7 28.2 -7 18 C-10.3 17.67 -13.6 17.34 -17 17 C-17 16.34 -17 15.68 -17 15 C-17.99 14.67 -18.98 14.34 -20 14 C-11.738041 8.62870159 -11.738041 8.62870159 -7 7 C-7 6.01 -7 5.02 -7 4 C-4.69 4.33 -2.38 4.66 0 5 C0 3.35 0 1.7 0 0 Z " fill="#000000" transform="translate(840,432)"/>
<path d="M0 0 C0.33 0 0.66 0 1 0 C1.32651542 23.07208223 0.41089943 45.97344591 -1 69 C-2.99954746 69.04254356 -5.00041636 69.04080783 -7 69 C-8 68 -8 68 -8.09765625 66.15234375 C-8.06510417 64.1015625 -8.03255208 62.05078125 -8 60 C-6.5393715 62.64738916 -6 63.89448334 -6 67 C-5.01 67 -4.02 67 -3 67 C-1.46600765 33.50151187 -1.46600765 33.50151187 0 0 Z " fill="#000000" transform="translate(529,531)"/>
<path d="M0 0 C0.33 0 0.66 0 1 0 C1.18533778 16.35091044 0.61149705 32.66359597 0 49 C-2.475 49.495 -2.475 49.495 -5 50 C-5 41.75 -5 33.5 -5 25 C-4.67 25 -4.34 25 -4 25 C-4 32.59 -4 40.18 -4 48 C-3.34 48 -2.68 48 -2 48 C-2.01160156 47.29101562 -2.02320313 46.58203125 -2.03515625 45.8515625 C-2.10650568 37.43232986 -1.87336965 29.0379467 -1.5625 20.625 C-1.52326416 19.50818848 -1.48402832 18.39137695 -1.44360352 17.24072266 C-1.2174397 11.43686417 -0.8322979 5.74915019 0 0 Z " fill="#000000" transform="translate(583,435)"/>
<path d="M0 0 C1.32 0 2.64 0 4 0 C4 0.66 4 1.32 4 2 C4.70125 2.0825 5.4025 2.165 6.125 2.25 C9.65272947 3.17027725 12.06111614 4.88126977 15 7 C14.01 7.495 14.01 7.495 13 8 C13 27.8 13 47.6 13 68 C12.67 68 12.34 68 12 68 C11.99635437 67.24244919 11.99270874 66.48489838 11.98895264 65.70439148 C11.95109739 58.56770734 11.89427408 51.43154666 11.81609726 44.29519939 C11.77657492 40.62622466 11.74441026 36.95749162 11.72900391 33.28833008 C11.71386791 29.74781155 11.67947887 26.20795727 11.63169098 22.66773415 C11.60961645 20.65869347 11.60752363 18.64946564 11.60565186 16.64030457 C11.58593323 15.41926529 11.5662146 14.19822601 11.54589844 12.94018555 C11.53701599 11.86318893 11.52813354 10.78619232 11.51898193 9.67655945 C11.24637179 6.88115276 11.24637179 6.88115276 9.08599854 5.18806458 C7.16592426 4.0945009 5.29787917 3.13952813 3.25 2.3125 C2.1775 1.879375 1.105 1.44625 0 1 C0 0.67 0 0.34 0 0 Z " fill="#000000" transform="translate(212,333)"/>
<path d="M0 0 C0.33 0 0.66 0 1 0 C1.42061015 17.7123608 0.15018457 35.33579574 -1 53 C-1.33 53 -1.66 53 -2 53 C-2.41277905 14.92907039 -2.41277905 14.92907039 0 0 Z " fill="#000000" transform="translate(586,382)"/>
<path d="M0 0 C0.33 0 0.66 0 1 0 C1.06058594 0.95261719 1.12117187 1.90523438 1.18359375 2.88671875 C1.26738281 4.14097656 1.35117187 5.39523437 1.4375 6.6875 C1.51871094 7.92886719 1.59992187 9.17023438 1.68359375 10.44921875 C1.90024107 13.800403 1.90024107 13.800403 2.51367188 16.2265625 C3.14051971 19.80135738 3.12365049 23.31014786 3.09765625 26.92578125 C3.0962413 27.67337204 3.09482635 28.42096283 3.09336853 29.19120789 C3.08779764 31.56501365 3.0752506 33.93872303 3.0625 36.3125 C3.05748123 37.92773301 3.05291899 39.5429675 3.04882812 41.15820312 C3.03783775 45.10550555 3.02059332 49.05273647 3 53 C2.67 53 2.34 53 2 53 C0.63946971 35.29682333 -0.31417175 17.76815763 0 0 Z " fill="#000000" transform="translate(528,402)"/>
<path d="M0 0 C0.33 0 0.66 0 1 0 C2.05619003 4.28297531 2.11702092 8.42985646 2.0625 12.8125 C2.05798828 13.50537109 2.05347656 14.19824219 2.04882812 14.91210938 C2.03713156 16.60811068 2.01919924 18.30406703 2 20 C2.66 20 3.32 20 4 20 C4.75770785 24.11481205 5.17155355 28.09340234 5.31640625 32.2734375 C5.37924805 34.00400391 5.37924805 34.00400391 5.44335938 35.76953125 C5.48267578 36.95933594 5.52199219 38.14914062 5.5625 39.375 C5.60568359 40.58800781 5.64886719 41.80101562 5.69335938 43.05078125 C5.79905513 46.03375032 5.90115321 49.01679742 6 52 C5.67 52 5.34 52 5 52 C3.94005319 46.45498899 3.68744233 40.99079561 3.48242188 35.36523438 C3.31749594 31.90178974 3.0079266 29.026422 2.00390625 25.6796875 C0.63107907 20.64776843 0.53720429 15.75641652 0.375 10.5625 C0.33632812 9.54478516 0.29765625 8.52707031 0.2578125 7.47851562 C0.16419128 4.98585064 0.07846007 2.4931805 0 0 Z " fill="#000000" transform="translate(118,405)"/>
<path d="M0 0 C0.33 0 0.66 0 1 0 C3.59655487 13.16241023 5.18998659 25.53206189 5 39 C4.67 39 4.34 39 4 39 C2.30636421 32.12583119 1.43506737 25.42634002 0.875 18.375 C0.78863281 17.37726562 0.70226562 16.37953125 0.61328125 15.3515625 C0.18528363 10.21559101 -0.10104552 5.15332138 0 0 Z " fill="#000000" transform="translate(568,535)"/>
<path d="M0 0 C0.66 0.33 1.32 0.66 2 1 C1.67 1.66 1.34 2.32 1 3 C1.66 3 2.32 3 3 3 C3 8.61 3 14.22 3 20 C2.67 20 2.34 20 2 20 C2 14.72 2 9.44 2 4 C0.68 4.33 -0.64 4.66 -2 5 C-2.309375 5.639375 -2.61875 6.27875 -2.9375 6.9375 C-4 9 -4 9 -6.625 10.25 C-7.40875 10.4975 -8.1925 10.745 -9 11 C-8.67 9.68 -8.34 8.36 -8 7 C-9.65 7.66 -11.3 8.32 -13 9 C-9.48177751 4.56398034 -5.24609814 3.47966871 0 2 C0 1.34 0 0.68 0 0 Z " fill="#000000" transform="translate(818,447)"/>
<path d="M0 0 C0.33 0 0.66 0 1 0 C1.33 4.29 1.66 8.58 2 13 C2.33 13 2.66 13 3 13 C3 17.29 3 21.58 3 26 C1.35 26.33 -0.3 26.66 -2 27 C-1.84660156 25.88625 -1.69320312 24.7725 -1.53515625 23.625 C-0.92693771 18.75925164 -0.66688586 13.89607197 -0.4375 9 C-0.39431641 8.12988281 -0.35113281 7.25976562 -0.30664062 6.36328125 C-0.20175782 4.24231781 -0.10049925 2.12117567 0 0 Z " fill="#000000" transform="translate(666,449)"/>
<path d="M0 0 C0.66 0 1.32 0 2 0 C2 0.66 2 1.32 2 2 C4.31 2 6.62 2 9 2 C8.67 14.21 8.34 26.42 8 39 C7.67 39 7.34 39 7 39 C7 27.12 7 15.24 7 3 C4.36 3 1.72 3 -1 3 C-0.67 2.01 -0.34 1.02 0 0 Z " fill="#000000" transform="translate(768,482)"/>
<path d="M0 0 C2.97 0 5.94 0 9 0 C9 0.66 9 1.32 9 2 C6.69 2 4.38 2 2 2 C2.1387881 5.60447434 2.28723935 9.20848712 2.4375 12.8125 C2.47681641 13.83666016 2.51613281 14.86082031 2.55664062 15.91601562 C2.59853516 16.89892578 2.64042969 17.88183594 2.68359375 18.89453125 C2.72025146 19.80050049 2.75690918 20.70646973 2.79467773 21.63989258 C2.9208205 24.15048782 2.9208205 24.15048782 4 27 C4.068991 29.06145107 4.08467727 31.12501401 4.0625 33.1875 C4.05347656 34.27417969 4.04445313 35.36085938 4.03515625 36.48046875 C4.02355469 37.31191406 4.01195312 38.14335937 4 39 C3.67 39 3.34 39 3 39 C2.90912109 37.86111328 2.90912109 37.86111328 2.81640625 36.69921875 C2.73261719 35.70535156 2.64882813 34.71148437 2.5625 33.6875 C2.44068359 32.20830078 2.44068359 32.20830078 2.31640625 30.69921875 C2.08187441 27.90624401 2.08187441 27.90624401 1 25 C0.85060226 23.08234406 0.75189717 21.16053478 0.68359375 19.23828125 C0.64169922 18.12001953 0.59980469 17.00175781 0.55664062 15.84960938 C0.51732422 14.68236328 0.47800781 13.51511719 0.4375 12.3125 C0.39431641 11.13365234 0.35113281 9.95480469 0.30664062 8.74023438 C0.20048824 5.82694117 0.09843758 2.91356243 0 0 Z " fill="#000000" transform="translate(697,470)"/>
<path d="M0 0 C4.29 0 8.58 0 13 0 C13.09612736 8.07469789 12.79780028 15.96501147 12 24 C11.67 24 11.34 24 11 24 C11 16.74 11 9.48 11 2 C7.37 2 3.74 2 0 2 C0 1.34 0 0.68 0 0 Z " fill="#000000" transform="translate(607,488)"/>
<path d="M0 0 C10.625 -0.125 10.625 -0.125 14 1 C13.67 3.97 13.34 6.94 13 10 C12.67 10 12.34 10 12 10 C12.33 7.36 12.66 4.72 13 2 C9.37 2 5.74 2 2 2 C2.04125 3.4025 2.0825 4.805 2.125 6.25 C2.23999767 10.1599209 1.87184371 11.25631258 0 15 C0 10.05 0 5.1 0 0 Z " fill="#000000" transform="translate(711,403)"/>
<path d="M0 0 C0.33 0 0.66 0 1 0 C1 8.91 1 17.82 1 27 C-0.98 27 -2.96 27 -5 27 C-6 26 -6 26 -6.09765625 24.15234375 C-6.06510417 22.1015625 -6.03255208 20.05078125 -6 18 C-4.5393715 20.64738916 -4 21.89448334 -4 25 C-3.01 25 -2.02 25 -1 25 C-0.67 16.75 -0.34 8.5 0 0 Z " fill="#000000" transform="translate(527,573)"/>
<path d="M0 0 C1.93922422 0.45098238 3.87633594 0.91105559 5.8125 1.375 C6.89144531 1.63023437 7.97039063 1.88546875 9.08203125 2.1484375 C12 3 12 3 15 5 C16.36125 5.433125 16.36125 5.433125 17.75 5.875 C21.52651677 7.18225581 24.57756499 8.946539 28 11 C28 11.33 28 11.66 28 12 C26.35 12 24.7 12 23 12 C23 11.34 23 10.68 23 10 C22.27425781 9.88398438 21.54851563 9.76796875 20.80078125 9.6484375 C17.9308517 8.98399077 15.77968119 8.00693828 13.1875 6.625 C8.87137399 4.39252103 4.5814021 2.61197481 0 1 C0 0.67 0 0.34 0 0 Z " fill="#000000" transform="translate(757,405)"/>
<path d="M0 0 C-3.86501058 1.74548865 -7.67775511 2.63415697 -11.81640625 3.4375 C-14.00797486 3.91964196 -14.00797486 3.91964196 -15.90234375 4.95703125 C-18.53685962 6.2669302 -21.15147702 6.95756599 -24 7.6875 C-25.03125 7.95949219 -26.0625 8.23148437 -27.125 8.51171875 C-29.88946552 8.98122716 -31.39750728 8.93214283 -34 8 C-29.4963492 6.23070862 -25.13796935 4.70095507 -20.4140625 3.609375 C-15.95240643 2.48313172 -11.56773049 1.06513944 -7.171875 -0.29296875 C-4.19286495 -0.95700917 -2.7907034 -1.08450602 0 0 Z " fill="#000000" transform="translate(170,317)"/>
<path d="M0 0 C5.28 0 10.56 0 16 0 C16 0.66 16 1.32 16 2 C16.75925781 1.97679687 17.51851562 1.95359375 18.30078125 1.9296875 C19.29464844 1.91164063 20.28851563 1.89359375 21.3125 1.875 C22.29863281 1.85179687 23.28476563 1.82859375 24.30078125 1.8046875 C27 2 27 2 30 4 C23.07 3.67 16.14 3.34 9 3 C9 2.34 9 1.68 9 1 C6.03 1 3.06 1 0 1 C0 0.67 0 0.34 0 0 Z " fill="#000000" transform="translate(166,672)"/>
<path d="M0 0 C0.33 0 0.66 0 1 0 C1 9.24 1 18.48 1 28 C2.65 27.67 4.3 27.34 6 27 C4.71034824 28.37562854 3.37310707 29.70766393 2 31 C1.34 31 0.68 31 0 31 C0 29.68 0 28.36 0 27 C-0.99 27 -1.98 27 -3 27 C-2.67 25.68 -2.34 24.36 -2 23 C-2 23.99 -2 24.98 -2 26 C-1.34 26 -0.68 26 0 26 C0 17.42 0 8.84 0 0 Z " fill="#000000" transform="translate(659,508)"/>
<path d="M0 0 C2.77645652 3.38323178 5.3088316 6.82622147 7.6875 10.5 C8.28949219 11.4178125 8.89148438 12.335625 9.51171875 13.28125 C10.96297529 15.93236431 11.59578837 18.02500237 12 21 C9 19 9 19 8.5625 17.125 C8.14973901 14.84607248 8.14973901 14.84607248 6.1875 13.1875 C3.33089693 10.33089693 1.81162572 7.62325143 0 4 C0 2.68 0 1.36 0 0 Z " fill="#000000" transform="translate(435,573)"/>
<path d="M0 0 C0.99 0.495 0.99 0.495 2 1 C3.27282972 6.07530844 3.11634713 11.18082325 3.0625 16.375 C3.05798828 17.20644531 3.05347656 18.03789062 3.04882812 18.89453125 C3.03713164 20.92971897 3.01919935 22.96486923 3 25 C2.67 25 2.34 25 2 25 C1.66068773 22.33397504 1.32842824 19.66736986 1 17 C0.90460938 16.25621094 0.80921875 15.51242187 0.7109375 14.74609375 C0.10772324 9.79111949 -0.09075591 4.99157504 0 0 Z " fill="#000000" transform="translate(333,449)"/>
<path d="M0 0 C-0.6875 2.4375 -0.6875 2.4375 -2 5 C-5.58595117 6.29492681 -9.21671203 6.08798344 -13 6 C-9.13878354 2.5930443 -5.3218579 0 0 0 Z " fill="#000000" transform="translate(810,454)"/>
<path d="M0 0 C0.66 0 1.32 0 2 0 C2 0.66 2 1.32 2 2 C3.32 2.66 4.64 3.32 6 4 C2.67692308 7.93846154 2.67692308 7.93846154 -0.75 8.25 C-1.4925 8.1675 -2.235 8.085 -3 8 C-3 7.01 -3 6.02 -3 5 C-2.01 5.33 -1.02 5.66 0 6 C0 4.02 0 2.04 0 0 Z " fill="#000000" transform="translate(478,650)"/>
<path d="M0 0 C0.99 0 1.98 0 3 0 C3 0.66 3 1.32 3 2 C4.98 2 6.96 2 9 2 C9 2.33 9 2.66 9 3 C6.69 3 4.38 3 2 3 C2 8.61 2 14.22 2 20 C1.67 20 1.34 20 1 20 C1 14.39 1 8.78 1 3 C0.34 3 -0.32 3 -1 3 C-0.67 2.01 -0.34 1.02 0 0 Z " fill="#000000" transform="translate(820,447)"/>
<path d="M0 0 C0.66 0 1.32 0 2 0 C0.121963 6.21196855 -2.23475981 10.56339706 -7 15 C-6.41512359 10.99251347 -5.15605425 8.14263232 -3.0625 4.6875 C-2.53785156 3.80449219 -2.01320313 2.92148437 -1.47265625 2.01171875 C-0.98667969 1.34785156 -0.50070312 0.68398438 0 0 Z " fill="#000000" transform="translate(446,360)"/>
<path d="M0 0 C1.32 0 2.64 0 4 0 C4 8.25 4 16.5 4 25 C3.67 25 3.34 25 3 25 C2.98541748 24.34402832 2.97083496 23.68805664 2.95581055 23.01220703 C2.88148586 20.04919969 2.78477631 17.08733883 2.6875 14.125 C2.66494141 13.09246094 2.64238281 12.05992187 2.61914062 10.99609375 C2.58369141 10.00996094 2.54824219 9.02382813 2.51171875 8.0078125 C2.48553467 7.09660645 2.45935059 6.18540039 2.43237305 5.24658203 C2.28968994 4.50520996 2.14700684 3.76383789 2 3 C1.01 2.34 0.02 1.68 -1 1 C-0.67 0.67 -0.34 0.34 0 0 Z " fill="#000000" transform="translate(760,487)"/>
<path d="M0 0 C1.32 0.33 2.64 0.66 4 1 C4 1.99 4 2.98 4 4 C3.34 4 2.68 4 2 4 C1.67 4.99 1.34 5.98 1 7 C-2.0625 8.1875 -2.0625 8.1875 -5 9 C-5.66 8.34 -6.32 7.68 -7 7 C-7 6.01 -7 5.02 -7 4 C-4.69 4.33 -2.38 4.66 0 5 C0 3.35 0 1.7 0 0 Z " fill="#000000" transform="translate(840,432)"/>
<path d="M0 0 C0.66 0 1.32 0 2 0 C0.50829734 4.9723422 -1.60457417 9.41845739 -4 14 C-4.66 14 -5.32 14 -6 14 C-2.90009699 3.90882638 -2.90009699 3.90882638 0 0 Z " fill="#000000" transform="translate(401,437)"/>
<path d="M0 0 C6.22987798 0.50512524 11.45474233 3.32604123 17 6 C12.59971545 7.56010089 10.15984272 6.03753658 6.12890625 4.125 C3.89486962 2.94444486 1.90898961 1.65999096 0 0 Z " fill="#000000" transform="translate(495,298)"/>
<path d="M0 0 C1.32 0.33 2.64 0.66 4 1 C4 1.99 4 2.98 4 4 C2.88625 4.474375 1.7725 4.94875 0.625 5.4375 C-1.26710994 6.25306463 -3.15712709 7.07856355 -5 8 C-3.62845496 5.04590299 -2.01136276 2.55991624 0 0 Z " fill="#000000" transform="translate(184,301)"/>
<path d="M0 0 C0.66 0 1.32 0 2 0 C2 0.66 2 1.32 2 2 C4.31 2 6.62 2 9 2 C9 5.96 9 9.92 9 14 C8.67 14 8.34 14 8 14 C8 10.37 8 6.74 8 3 C5.03 3 2.06 3 -1 3 C-0.67 2.01 -0.34 1.02 0 0 Z " fill="#000000" transform="translate(768,482)"/>
<path d="M0 0 C0.33 1.32 0.66 2.64 1 4 C0.01 4.33 -0.98 4.66 -2 5 C-2.70381157 6.98723268 -3.3711811 8.98777953 -4 11 C-4.99 11.495 -4.99 11.495 -6 12 C-5.44271087 8.65626525 -4.64826111 5.96687001 -3 3 C-2.34 3 -1.68 3 -1 3 C-0.67 2.01 -0.34 1.02 0 0 Z " fill="#000000" transform="translate(383,470)"/>
<path d="M0 0 C0 1.32 0 2.64 0 4 C1.32 3.67 2.64 3.34 4 3 C4 3.66 4 4.32 4 5 C1.69 5.66 -0.62 6.32 -3 7 C-3.33 5.02 -3.66 3.04 -4 1 C-2 0 -2 0 0 0 Z " fill="#000000" transform="translate(785,467)"/>
<path d="M0 0 C1.98 0 3.96 0 6 0 C4.68 1.32 3.36 2.64 2 4 C3.65 4 5.3 4 7 4 C7 4.33 7 4.66 7 5 C2.71 5 -1.58 5 -6 5 C-6 4.67 -6 4.34 -6 4 C-4.02 3.67 -2.04 3.34 0 3 C0 2.01 0 1.02 0 0 Z " fill="#000000" transform="translate(216,430)"/>
<path d="M0 0 C0.65234375 1.765625 0.65234375 1.765625 1 4 C0.00390625 5.921875 0.00390625 5.921875 -1.4375 7.75 C-2.14712891 8.67039062 -2.14712891 8.67039062 -2.87109375 9.609375 C-3.24363281 10.06828125 -3.61617188 10.5271875 -4 11 C-5 8 -5 8 -3.5625 4.8125 C-3.046875 3.884375 -2.53125 2.95625 -2 2 C-1.34 2 -0.68 2 0 2 C0 1.34 0 0.68 0 0 Z " fill="#000000" transform="translate(442,393)"/>
<path d="M0 0 C0 0.66 0 1.32 0 2 C-2.64738916 3.4606285 -3.89448334 4 -7 4 C-7.33 4.99 -7.66 5.98 -8 7 C-9.32 6.67 -10.64 6.34 -12 6 C-10.37829621 4.99466333 -8.75252763 3.99588093 -7.125 3 C-5.76761719 2.1646875 -5.76761719 2.1646875 -4.3828125 1.3125 C-2 0 -2 0 0 0 Z " fill="#000000" transform="translate(489,635)"/>
<path d="M0 0 C0 0.99 0 1.98 0 3 C2.64 3 5.28 3 8 3 C8 3.33 8 3.66 8 4 C4.37 4 0.74 4 -3 4 C-3 3.34 -3 2.68 -3 2 C-3.99 1.67 -4.98 1.34 -6 1 C-3.92446352 0.4465236 -2.15634036 0 0 0 Z " fill="#000000" transform="translate(826,445)"/>
<path d="M0 0 C0.99 0 1.98 0 3 0 C3.185625 0.8971875 3.185625 0.8971875 3.375 1.8125 C3.95475985 4.26231348 3.95475985 4.26231348 6 7 C5.34 7.66 4.68 8.32 4 9 C4 8.34 4 7.68 4 7 C3.34 7 2.68 7 2 7 C1.34 4.69 0.68 2.38 0 0 Z " fill="#000000" transform="translate(473,643)"/>
<path d="M0 0 C0.66 0.33 1.32 0.66 2 1 C-2.296875 5.00390625 -2.296875 5.00390625 -4 6 C-6.203125 5.65234375 -6.203125 5.65234375 -8 5 C-6.71475739 4.13619741 -5.42157581 3.28419631 -4.125 2.4375 C-3.04605469 1.72400391 -3.04605469 1.72400391 -1.9453125 0.99609375 C-1.30335938 0.66738281 -0.66140625 0.33867188 0 0 Z " fill="#000000" transform="translate(615,562)"/>
<path d="M0 0 C0.66 0.33 1.32 0.66 2 1 C-2.296875 5.00390625 -2.296875 5.00390625 -4 6 C-6.203125 5.65234375 -6.203125 5.65234375 -8 5 C-6.71475739 4.13619741 -5.42157581 3.28419631 -4.125 2.4375 C-3.04605469 1.72400391 -3.04605469 1.72400391 -1.9453125 0.99609375 C-1.30335938 0.66738281 -0.66140625 0.33867187 0 0 Z " fill="#000000" transform="translate(763,478)"/>
<path d="M0 0 C4.95696581 1.23924145 7.11658466 2.78577758 10 7 C9.1646875 6.566875 9.1646875 6.566875 8.3125 6.125 C5.97810314 4.93364233 5.97810314 4.93364233 3.3125 4.0625 C2.549375 3.711875 1.78625 3.36125 1 3 C0.67 2.01 0.34 1.02 0 0 Z " fill="#000000" transform="translate(216,325)"/>
<path d="M0 0 C-0.75 1.9375 -0.75 1.9375 -2 4 C-4.125 4.75 -4.125 4.75 -6 5 C-6 3.68 -6 2.36 -6 1 C-3.92446352 0.4465236 -2.15634036 0 0 0 Z " fill="#000000" transform="translate(791,466)"/>
<path d="M0 0 C3.86107457 2.57404971 3.94319692 4.61020259 5 9 C4.34 9 3.68 9 3 9 C0.56839395 5.63316085 0 4.26649636 0 0 Z " fill="#000000" transform="translate(460,619)"/>
<path d="M0 0 C1.65 0 3.3 0 5 0 C4.67 1.32 4.34 2.64 4 4 C2.35 3.67 0.7 3.34 -1 3 C-0.67 2.01 -0.34 1.02 0 0 Z " fill="#000000" transform="translate(219,431)"/>
<path d="M0 0 C1.64846769 0.44876616 3.29373455 0.90930488 4.9375 1.375 C5.85402344 1.63023437 6.77054688 1.88546875 7.71484375 2.1484375 C10 3 10 3 11 5 C6.87248551 4.39301257 3.6678852 2.96189209 0 1 C0 0.67 0 0.34 0 0 Z " fill="#000000" transform="translate(716,388)"/>
<path d="M0 0 C0.66 0 1.32 0 2 0 C2 0.66 2 1.32 2 2 C3.32 2.66 4.64 3.32 6 4 C4.68 4.99 3.36 5.98 2 7 C0.5393715 4.35261084 0 3.10551666 0 0 Z " fill="#000000" transform="translate(478,650)"/>
<path d="M0 0 C1 2 1 2 0.44140625 4.1640625 C0.15136719 4.97617187 -0.13867188 5.78828125 -0.4375 6.625 C-0.72496094 7.44226563 -1.01242187 8.25953125 -1.30859375 9.1015625 C-1.53675781 9.72804688 -1.76492188 10.35453125 -2 11 C-2.33 11 -2.66 11 -3 11 C-3.36923077 4.6 -3.36923077 4.6 -1.5 1.5625 C-1.005 1.046875 -0.51 0.53125 0 0 Z " fill="#000000" transform="translate(395,486)"/>
<path d="M0 0 C0.99 0 1.98 0 3 0 C3 0.66 3 1.32 3 2 C4.98 2 6.96 2 9 2 C9 2.33 9 2.66 9 3 C5.7 3 2.4 3 -1 3 C-0.67 2.01 -0.34 1.02 0 0 Z " fill="#000000" transform="translate(820,447)"/>
</svg>
