<?xml version="1.0" encoding="UTF-8" standalone="no"?>
<!-- Created with Inkscape (http://www.inkscape.org/) -->

<svg
   xmlns:dc="http://purl.org/dc/elements/1.1/"
   xmlns:cc="http://creativecommons.org/ns#"
   xmlns:rdf="http://www.w3.org/1999/02/22-rdf-syntax-ns#"
   xmlns:svg="http://www.w3.org/2000/svg"
   xmlns="http://www.w3.org/2000/svg"
   xmlns:sodipodi="http://sodipodi.sourceforge.net/DTD/sodipodi-0.dtd"
   xmlns:inkscape="http://www.inkscape.org/namespaces/inkscape"
   width="459.17941"
   height="142.16963"
   id="svg2"
   version="1.1"
   inkscape:version="0.48.1 r9760"
   sodipodi:docname="Firma Napoleón Bonaparte.svg">
  <defs
     id="defs4" />
  <sodipodi:namedview
     id="base"
     pagecolor="#ffffff"
     bordercolor="#666666"
     borderopacity="1.0"
     inkscape:pageopacity="0.0"
     inkscape:pageshadow="2"
     inkscape:zoom="0.35"
     inkscape:cx="187.34525"
     inkscape:cy="-298.25892"
     inkscape:document-units="px"
     inkscape:current-layer="layer1"
     showgrid="false"
     fit-margin-top="0"
     fit-margin-left="0"
     fit-margin-right="0"
     fit-margin-bottom="0"
     inkscape:window-width="1280"
     inkscape:window-height="712"
     inkscape:window-x="0"
     inkscape:window-y="0"
     inkscape:window-maximized="0" />
  <metadata
     id="metadata7">
    <rdf:RDF>
      <cc:Work
         rdf:about="">
        <dc:format>image/svg+xml</dc:format>
        <dc:type
           rdf:resource="http://purl.org/dc/dcmitype/StillImage" />
        <dc:title></dc:title>
      </cc:Work>
    </rdf:RDF>
  </metadata>
  <g
     inkscape:label="Capa 1"
     inkscape:groupmode="layer"
     id="layer1"
     transform="translate(-162.65474,-91.933639)">
    <path
       style="fill:#000000"
       d="m 163.646,233.4029 c -1.59311,-1.16491 -1.4365,-1.42037 1.72971,-2.8214 3.61665,-1.60034 11.4342,-3.30511 28.48144,-6.21093 5.5,-0.93751 12.475,-2.35231 15.5,-3.144 3.025,-0.79169 6.85,-1.59927 8.5,-1.79464 4.5884,-0.54329 21.44426,-3.37816 26.5,-4.45685 2.475,-0.52807 8.1,-1.47315 12.5,-2.10019 4.4,-0.62703 11.6,-1.83634 16,-2.68735 4.4,-0.851 9.125,-1.65772 10.5,-1.79271 1.375,-0.13498 5.86913,-0.55832 9.98696,-0.94074 4.11783,-0.38242 7.74995,-0.85785 8.07137,-1.0565 0.32143,-0.19865 3.2523,-0.61927 6.51304,-0.93471 10.8543,-1.05001 32.2906,-4.3259 33.5991,-5.1346 0.3847,-0.23776 5.34123,-1.31649 11.0145,-2.39718 11.14049,-2.12213 13.85312,-2.72602 26.81503,-5.96954 12.30495,-3.07913 22.3494,-6.45401 41,-13.77579 28.53326,-11.20148 39.46199,-18.05169 40.55367,-25.41934 0.4515,-3.0471 0.20829,-3.77357 -1.43829,-4.29617 -3.0994,-0.98371 -6.11538,-8.30859 -6.11538,-14.85235 0,-5.56102 -1.06204,-7.18273 -2.74014,-4.18414 -0.46173,0.82507 -3.52159,4.49166 -6.79969,8.14796 -3.27809,3.6563 -7.65226,8.54905 -9.72037,10.87276 -4.15818,4.67211 -12.21103,7.95275 -13.6814,5.57364 -0.94925,-1.53591 -0.24088,-10.73005 1.09816,-14.25324 0.55577,-1.46231 0.87429,-3.71231 0.70782,-5 -0.16647,-1.28769 0.0475,-2.90375 0.47549,-3.59125 1.04296,-1.67536 -0.4816,-1.57722 -5.27157,0.33935 -3.01596,1.20674 -4.2418,2.40634 -5.09224,4.98319 -0.61604,1.86662 -2.4111,4.61237 -3.98902,6.10168 -1.57793,1.48931 -2.60099,3.1414 -2.27349,3.67131 0.3378,0.54657 0.0686,0.63788 -0.62205,0.21102 -0.66964,-0.41386 -1.97749,-0.0647 -2.90634,0.77588 -2.70878,2.45141 -7.37733,3.95399 -11.68516,3.76089 -3.04992,-0.13671 -4.60785,-0.87775 -6.55915,-3.11993 l -2.55915,-2.94063 -5.46327,2.83453 c -6.24207,3.23858 -15.29295,4.59129 -16.99532,2.54006 -0.77483,-0.93362 -1.77768,-1.03294 -3.56567,-0.35315 -3.59925,1.36843 -6.99764,1.16275 -8.68611,-0.52573 -1.88835,-1.88834 -0.85514,-6.83131 3.308,-15.82578 1.66137,-3.5894 3.02067,-6.86796 3.02067,-7.2857 0,-0.41773 0.61145,-1.46994 1.35877,-2.33825 0.74732,-0.86831 2.5236,-4.16881 3.94729,-7.33445 l 2.58852,-5.75572 -4.49472,3.75572 c -2.47211,2.06564 -7.49017,6.94675 -11.15127,10.84692 -6.19332,6.59775 -6.67091,7.4328 -6.86311,12 -0.2696,6.40612 -0.58511,8.34082 -1.32146,8.10323 -0.33146,-0.10694 -1.71896,0.861 -3.08333,2.15099 -4.58711,4.33701 -11.72955,7.84504 -14.99647,7.36556 -3.51894,-0.51647 -5.41623,-3.35358 -4.5502,-6.80413 1.11402,-4.43861 -0.53523,-3.33823 -8.00828,5.34314 -3.80335,4.41831 -5.481,5.11849 -7.18813,3 -1.56384,-1.94067 0.27045,-5.41238 4.20569,-7.95998 5.77218,-3.73681 7.58869,-12.93177 2.69162,-13.62465 -2.5123,-0.35546 -9.52724,5.39082 -8.53699,6.99308 0.28606,0.46285 0.088,0.84155 -0.44014,0.84155 -2.19914,0 -7.47698,13.17838 -12.70131,31.71426 -0.96332,3.41784 -2.75207,7.15425 -3.97499,8.30313 l -2.2235,2.08887 -2.98371,-5.80313 c -1.64104,-3.19172 -3.80158,-8.05313 -4.80119,-10.80313 -0.99962,-2.75 -2.20578,-5.51513 -2.68037,-6.14474 -0.47459,-0.62961 -0.79381,-1.52961 -0.70939,-2 0.5543,-3.08825 -0.31646,-3.33688 -3.19719,-0.91291 -4.66917,3.92885 -9.71672,1.87245 -7.79709,-3.17658 0.82953,-2.18183 0.7073,-2.33653 -1.33806,-1.69351 -1.23804,0.38922 -3.81933,1.54469 -5.73618,2.5677 -3.47112,1.85253 -8.09173,2.44979 -9.33489,1.20663 -0.35938,-0.35938 0.18556,-2.04688 1.21098,-3.75 9.16182,-15.21697 21.88245,-41.57633 24.04628,-49.82809 0.1055,-0.40233 0.57964,-2.08376 1.05365,-3.73652 0.5464,-1.905181 0.48704,-3.236641 -0.16217,-3.637881 -1.00434,-0.62071 -11.82866,9.282181 -11.82866,10.821741 0,0.43129 -0.9,1.68416 -2,2.78416 -1.1,1.1 -2,2.675 -2,3.5 0,0.825 -0.41742,1.5 -0.9276,1.5 -0.51017,0 -2.56844,2.70112 -4.57391,6.00248 -2.00547,3.30137 -4.40055,6.75673 -5.3224,7.67857 -0.92185,0.92185 -1.60302,1.81042 -1.51372,1.9746 0.44729,0.82232 -1.01505,4.34435 -1.80375,4.34435 -0.49947,0 -1.29688,1.0125 -1.77202,2.25 -0.47515,1.2375 -2.45101,4.60125 -4.39081,7.475 -1.93979,2.87375 -4.70591,7.59875 -6.14693,10.5 -1.44101,2.90125 -3.47113,6.625 -4.51136,8.275 -1.04023,1.65 -1.92421,3.7875 -1.96441,4.75 -0.0431,1.03255 -0.85887,1.75 -1.98976,1.75 -2.2148,0 -3.11941,-1.83347 -1.97355,-4 1.33533,-2.52478 3.69187,-8.36152 4.44116,-11 0.39048,-1.375 1.60004,-4.41085 2.68791,-6.74633 1.08787,-2.33547 1.70932,-4.94635 1.381,-5.80193 -0.32832,-0.85559 -0.24758,-1.3397 0.17942,-1.0758 0.42699,0.2639 1.26184,-0.72523 1.85521,-2.19806 0.59336,-1.47284 2.28895,-5.57794 3.76798,-9.12245 1.56629,-3.75365 2.89976,-9.18177 3.19359,-12.99999 l 0.50446,-6.55544 -6.9313,7.36317 c -3.81221,4.04974 -7.20371,6.92238 -7.53667,6.38364 -0.33296,-0.53873 0.28401,-1.7844 1.37104,-2.76815 1.08703,-0.98375 1.97642,-2.46889 1.97642,-3.30032 0,-0.83142 0.28059,-1.23109 0.62353,-0.88815 0.34294,0.34294 2.03044,-0.974 3.75,-2.92654 3.69872,-4.19985 7.75076,-6.5229 9.49616,-5.44418 2.77596,1.71563 0.26902,15.82424 -4.48491,25.24035 -0.73858,1.4629 -2.27482,5.02419 -3.41387,7.91397 -1.63041,4.1364 -1.74124,4.98049 -0.52095,3.96774 0.85252,-0.70753 1.55004,-2.13132 1.55004,-3.16398 0,-1.03265 0.36714,-1.87755 0.81586,-1.87755 0.44872,0 1.86558,-1.9125 3.14857,-4.25 1.28299,-2.3375 2.98493,-5.00915 3.7821,-5.93699 0.79716,-0.92784 1.11078,-2.23487 0.69692,-2.90451 -0.4801,-0.77682 -0.33458,-0.95925 0.40204,-0.50399 0.63498,0.39244 1.15451,0.23696 1.15451,-0.34549 0,-0.58246 0.008,-1.27598 0.0176,-1.54116 0.01,-0.26517 0.95625,-1.50267 2.10345,-2.75 1.14719,-1.24732 4.52428,-6.09286 7.50464,-10.76786 6.7094,-10.52439 11.13461,-15.197041 17.00608,-17.956951 3.54522,-1.66646 4.85969,-1.88004 5.95844,-0.96815 2.07127,1.719 1.72281,6.752361 -0.9336,13.485481 -2.65335,6.72535 -12.72703,27.67774 -13.67345,28.43962 -0.34162,0.275 -1.68348,2.75 -2.98193,5.5 -1.29845,2.75 -3.43741,6.73001 -4.75323,8.84448 -1.31583,2.11446 -2.16884,4.06805 -1.89559,4.3413 0.94641,0.94641 4.6748,-0.83267 4.00756,-1.91229 -0.40466,-0.65475 -0.201,-0.79325 0.51538,-0.3505 1.63863,1.01272 9.33253,-3.68354 14.499,-8.85002 4.95897,-4.95897 10.08358,-6.45427 11.70928,-3.41663 0.95632,1.7869 0.51356,2.95982 -3.85953,10.22425 -2.139,3.55324 -0.34713,13.00439 4.15629,21.92219 3.30306,6.54079 3.5814,6.16966 8.1021,-10.80278 1.75524,-6.58984 6.21771,-17.24316 8.79613,-20.99914 2.85157,-4.15387 8.76741,-9.28976 11.49186,-9.97674 1.24879,-0.31489 3.19938,-0.0754 4.33466,0.53217 2.44985,1.31112 5.1247,7.18107 4.2779,9.38781 -0.95179,2.48032 1.49099,1.8237 5.74254,-1.5436 3.80203,-3.01126 6.88106,-3.31695 6.86806,-0.68189 -0.003,0.70477 -1.32148,2.02959 -2.92889,2.94406 -1.91871,1.09158 -3.27759,2.94849 -3.95618,5.40616 -1.19218,4.31771 -0.78022,5.43117 2.00942,5.43117 1.25713,0 1.73498,-0.42883 1.28648,-1.15451 -0.45142,-0.73042 -0.27328,-0.88242 0.48496,-0.4138 2.09257,1.29328 8.9659,-3.9968 11.47386,-8.8309 1.07858,-2.07896 1.22388,-3.55631 0.52942,-5.38287 -0.78194,-2.05667 -0.46197,-3.23204 1.748,-6.42102 2.73187,-3.94209 23.41127,-23.86719 27.75463,-26.74225 1.29173,-0.85506 4.69101,-3.692151 7.55395,-6.304651 2.86294,-2.6125 5.85967,-4.75 6.65939,-4.75 2.01307,0 3.13808,3.25902 1.32119,3.8273 -2.27057,0.71019 -10.05022,9.169011 -9.40017,10.220821 0.32356,0.52353 -0.0236,0.95188 -0.77146,0.95188 -1.44948,0 -6.2894,8.60773 -6.08194,10.81667 0.068,0.72416 -0.12995,1.06306 -0.43991,0.7531 -0.81173,-0.81174 -6.27795,5.55403 -5.64651,6.57572 0.29046,0.46998 0.16406,0.85735 -0.2809,0.86083 -1.00435,0.008 -4.30902,5.69922 -4.30902,7.42108 0,0.69593 -0.64447,2.57196 -1.43214,4.16896 -3.75793,7.61909 -2.77221,11.33118 2.59586,9.77573 2.98948,-0.86624 3.33628,-1.34312 3.33628,-4.58777 0,-1.99157 0.20161,-3.41866 0.44803,-3.17131 0.24642,0.24734 0.92142,-0.39801 1.5,-1.43411 3.27581,-5.86621 10.28861,-11.1789 14.75626,-11.1789 2.60853,0 4.79571,1.66808 4.79571,3.65751 0,1.32566 -10.10809,11.53486 -14.55947,14.7051 -3.62999,2.58525 -1.85343,4.10169 3.18227,2.71633 7.62896,-2.09878 14.25528,-6.78547 16.6537,-11.7789 2.48282,-5.16911 7.69331,-8.64371 11.47793,-7.65401 4.05358,1.06004 2.10382,4.53612 -4.00443,7.13917 -1.5125,0.64456 -2.75,1.80842 -2.75,2.58637 0,0.77795 -0.70514,1.68504 -1.56697,2.01575 -2.3879,0.91633 -1.41862,5.82555 1.429,7.23757 3.19297,1.58327 6.80353,0.41014 13.01889,-4.23005 5.08736,-3.79807 8.06626,-9.05325 6.53567,-11.5298 -0.46728,-0.75607 -0.29215,-0.90617 0.49191,-0.42159 0.67139,0.41494 1.99063,0.0528 2.94106,-0.8073 1.94608,-1.76118 13.99475,-4.85041 15.43822,-3.95829 0.51743,0.31979 0.6532,2.43559 0.30172,4.70178 -0.35148,2.2662 -0.9168,7.44604 -1.25627,11.51077 l -0.61721,7.39041 3.14199,-1.85602 c 1.72809,-1.02081 3.14199,-2.1614 3.14199,-2.53465 0,-0.37325 1.2375,-2.03179 2.75,-3.68565 3.93372,-4.30135 8.25,-9.36465 8.25,-9.67782 0,-0.14722 2.74974,-3.02595 6.11052,-6.39717 4.11137,-4.12415 6.89993,-6.12951 8.5234,-6.12951 2.40092,0 2.40964,0.0388 1.75906,7.83982 -0.80696,9.67611 0.52119,14.23019 5.18822,17.78991 4.13444,3.15349 4.27113,5.21463 0.78619,11.85442 -2.65237,5.0535 -8.80828,10.57664 -13.39037,12.01397 -1.36236,0.42735 -3.47228,1.5538 -4.6887,2.50322 -1.21642,0.94942 -7.51642,3.85449 -14,6.45572 -6.48358,2.60123 -13.26609,5.36253 -15.07225,6.13622 -1.80616,0.7737 -3.82246,1.40672 -4.48067,1.40672 -1.88909,0 -11.68817,4.26705 -11.2893,4.91596 0.19745,0.32122 -1.20624,0.69895 -3.1193,0.8394 -1.91307,0.14044 -4.31463,0.70294 -5.33681,1.25 -1.02218,0.54705 -3.01621,0.99464 -4.43117,0.99464 -1.41497,0 -6.73205,1.10497 -11.81574,2.45549 -5.0837,1.35052 -11.26808,2.8861 -13.74308,3.4124 -4.04917,0.86103 -3.54825,0.95927 5,0.98053 5.225,0.013 9.95,0.0812 10.5,0.15158 0.55,0.0704 5.275,0.0151 10.5,-0.1229 5.225,-0.13797 25.7,-0.30068 45.5,-0.36159 19.8,-0.0609 60.525,-0.37417 90.5,-0.69615 50.98332,-0.54763 77.68671,-0.0291 87.74835,1.70398 l 4.24835,0.73175 -0.63427,-4.62755 c -0.4331,-3.15976 -0.27398,-4.62754 0.50165,-4.62754 0.62475,0 1.16936,0.7875 1.21023,1.75 0.14042,3.30688 0.96691,6.59474 1.95792,7.78884 0.67128,0.80884 0.58394,1.51496 -0.2699,2.18207 -1.71993,1.34379 -9.76233,3.2504 -9.76233,2.31435 0,-0.41364 -2.5875,-0.82165 -5.75,-0.90668 -3.1625,-0.085 -10.7,-0.36561 -16.75,-0.6235 -24.93705,-1.06298 -79.55129,-0.7074 -81.0394,0.52762 -0.83686,0.69453 -1.4606,0.78404 -1.4606,0.20961 0,-0.77875 -11.86819,-1.08468 -15,-0.38667 -0.275,0.0613 -32.45,0.35143 -71.5,0.64475 -39.05,0.29331 -72.575,0.74736 -74.5,1.00899 -6.14587,0.83529 -12.3399,1.49048 -18.23622,1.92897 -3.15493,0.23462 -6.07993,0.63585 -6.5,0.89161 -0.87436,0.53235 -22.86587,3.01744 -25.51378,2.88311 -0.9625,-0.0488 -1.75,0.22076 -1.75,0.59908 0,0.37832 -1.0125,0.72717 -2.25,0.77523 -3.08782,0.11991 -8.26767,0.89351 -21.75,3.24832 -6.325,1.10471 -13.525,2.24699 -16,2.53839 -2.475,0.2914 -6.525,0.96431 -9,1.49536 -2.475,0.53105 -7.65,1.24214 -11.5,1.5802 -3.85,0.33806 -8.35,0.81077 -10,1.05047 -1.65,0.2397 -5.025,0.68801 -7.5,0.99626 -6.36087,0.79221 -18.04023,2.48045 -21,3.03553 -11.15882,2.09275 -14.44074,2.77026 -21.22971,4.38254 -6.36332,1.51121 -8.03937,1.60928 -9.48144,0.55481 z m 103.25081,-82.77127 c 0.54622,-2.17629 0.35369,-2.48286 -1.28941,-2.05318 -1.81539,0.47473 -5.25025,6.5382 -5.25025,9.26813 0,2.01712 5.83953,-4.4254 6.53966,-7.21495 z m 99.46034,-11.1473 c 7.14299,-7.02005 8.43074,-8.55069 7.19379,-8.55069 -2.3172,0 -6.274,3.25623 -9.29844,7.6521 -3.59292,5.22213 -2.68782,5.60856 2.10465,0.89859 z m -159.36137,-0.32639 c -0.33626,-0.54408 0.28249,-2.1256 1.375,-3.51449 1.0925,-1.3889 1.98637,-2.7442 1.98637,-3.01178 0,-0.26759 1.35,-1.9317 3,-3.69803 2.70015,-2.89052 3,-3.00104 3,-1.10576 0,1.15817 -0.57798,2.10576 -1.28439,2.10576 -0.70642,0 -2.08186,1.35 -3.05654,3 -0.97468,1.65 -2.22326,3 -2.77462,3 -0.55137,0 -0.78062,0.35898 -0.50945,0.79774 0.27117,0.43876 0.12898,1.38681 -0.31598,2.10677 -0.49231,0.79657 -1.04836,0.92176 -1.4204,0.31979 z"
       id="path3071"
       inkscape:connector-curvature="0" />
  </g>
</svg>
