<?xml version="1.0" standalone="no"?>
<!DOCTYPE svg PUBLIC "-//W3C//DTD SVG 20010904//EN"
 "http://www.w3.org/TR/2001/REC-SVG-20010904/DTD/svg10.dtd">
<svg version="1.0" xmlns="http://www.w3.org/2000/svg"
 width="468pt" height="79pt" viewBox="0 0 468 79"
 preserveAspectRatio="xMidYMid meet">
<metadata>
Created by POTRACE VERSION, written by Peter Selinger 2001-2007
</metadata>
<g transform="translate(0,79) scale(0.015758,-0.015758)"
fill="#000000" stroke="none">
<path d="M21687 4556 c-20 -18 -37 -42 -37 -53 0 -10 -7 -28 -15 -40 -8 -11
-21 -47 -30 -79 -8 -31 -22 -65 -31 -75 -10 -11 -14 -27 -11 -41 4 -12 -3 -54
-14 -93 -11 -38 -24 -86 -29 -105 -5 -19 -14 -57 -20 -85 -6 -27 -16 -77 -20
-110 -5 -33 -14 -94 -20 -135 -6 -41 -13 -91 -15 -110 -3 -19 -9 -71 -15 -115
-6 -44 -13 -109 -16 -145 -3 -36 -7 -117 -9 -180 -3 -63 -7 -227 -9 -365 -3
-152 -1 -263 5 -282 6 -18 12 -79 14 -135 1 -57 6 -139 10 -183 3 -44 10 -89
15 -100 5 -11 16 -63 25 -115 9 -52 22 -129 29 -170 8 -41 19 -99 25 -128 6
-30 14 -59 18 -65 4 -6 6 -23 5 -38 -1 -14 7 -59 17 -100 11 -41 28 -97 38
-126 13 -38 28 -58 56 -77 21 -14 46 -26 55 -26 9 0 35 11 57 25 22 13 54 30
70 38 17 8 44 25 60 38 17 14 42 32 56 41 14 9 36 38 49 65 12 26 30 57 40 68
10 11 27 38 39 60 15 28 29 41 49 45 22 4 29 13 37 45 7 28 28 58 67 98 31 31
62 57 68 57 6 0 18 -4 28 -10 9 -5 29 -14 45 -20 15 -5 27 -16 27 -25 0 -8 17
-26 38 -39 20 -13 53 -38 72 -55 19 -17 42 -38 51 -46 9 -8 25 -15 37 -15 12
0 43 -12 69 -27 41 -23 61 -27 138 -29 51 -2 105 -9 125 -17 19 -8 49 -18 67
-22 17 -3 41 -2 51 4 16 8 25 7 44 -8 23 -19 23 -19 65 15 23 19 46 34 51 34
5 0 15 -6 21 -14 6 -7 25 -16 42 -20 22 -4 34 -14 42 -36 6 -16 23 -34 39 -41
15 -6 38 -30 51 -53 16 -30 29 -41 47 -42 14 -1 35 -6 47 -12 12 -7 32 -12 45
-12 13 0 29 -5 35 -11 6 -6 39 -11 74 -11 35 0 71 1 79 2 8 0 26 -2 40 -5 19
-5 33 0 54 20 21 20 37 25 67 23 21 -1 44 3 51 10 7 7 21 12 33 12 11 0 30 11
42 24 13 13 40 26 61 30 21 3 46 14 56 25 13 14 26 18 55 14 23 -3 41 -1 45 6
4 6 16 11 26 11 10 0 31 11 47 24 15 13 47 30 71 37 28 8 47 21 55 38 8 14 19
25 26 23 8 -2 31 9 52 23 29 21 45 25 68 20 20 -4 31 -13 31 -24 0 -10 3 -21
6 -24 4 -4 15 -30 25 -59 10 -29 18 -63 19 -74 0 -12 7 -38 15 -57 8 -20 15
-51 15 -69 0 -28 6 -36 38 -54 20 -12 52 -25 70 -29 25 -5 38 -3 53 11 10 9
19 23 19 30 0 7 9 18 21 25 12 6 29 9 40 6 11 -3 28 5 45 21 18 19 38 27 67
29 23 2 55 8 72 13 17 6 45 23 63 39 21 20 38 28 52 24 15 -4 19 -2 15 9 -4 9
4 22 19 32 14 9 33 16 42 16 9 0 29 8 45 17 24 15 32 15 54 3 14 -7 25 -19 25
-25 0 -7 9 -20 20 -30 11 -10 20 -29 20 -41 0 -13 11 -43 25 -66 14 -24 28
-51 32 -61 3 -9 9 -17 14 -17 5 0 9 -13 9 -29 0 -16 6 -33 13 -38 6 -6 26 -13
42 -17 17 -4 43 -7 60 -6 16 0 41 8 55 18 14 9 45 27 70 39 25 12 56 23 70 23
14 0 43 9 64 20 22 10 60 37 86 59 26 22 72 51 101 65 30 13 72 40 93 60 22
20 43 36 47 36 4 0 11 9 14 20 3 11 18 23 33 26 15 3 34 8 43 10 8 2 24 -2 34
-10 13 -9 21 -32 25 -77 5 -46 20 -91 54 -161 33 -67 54 -99 69 -104 12 -4 36
-17 52 -29 17 -12 58 -34 91 -48 34 -15 69 -27 78 -27 10 0 26 5 37 11 14 7
29 7 50 0 21 -7 39 -6 66 3 32 11 43 11 70 -2 28 -13 35 -13 66 2 19 9 43 16
52 16 9 0 31 14 48 32 17 17 48 35 67 40 19 5 46 12 60 15 14 4 38 19 53 35
16 15 33 28 38 28 6 0 21 24 34 53 17 38 36 60 69 82 25 17 48 41 51 54 4 14
15 37 26 52 10 15 19 33 19 40 0 7 12 23 27 35 20 16 26 29 25 55 0 19 10 61
23 94 13 33 26 82 30 108 6 42 10 50 36 59 24 8 27 13 18 24 -6 8 -15 14 -20
14 -5 0 -9 -8 -9 -17 0 -14 -2 -15 -9 -5 -5 9 -1 29 10 52 11 22 19 46 19 55
0 8 8 15 19 15 10 0 34 -6 53 -14 19 -8 40 -21 47 -30 7 -9 40 -17 87 -21 58
-6 84 -14 120 -37 27 -19 63 -33 92 -36 26 -3 71 -18 100 -34 29 -15 64 -28
79 -28 15 0 36 -11 49 -25 13 -14 34 -25 47 -25 13 0 41 -15 63 -34 36 -31 44
-34 109 -33 42 0 71 -5 73 -12 2 -6 9 -11 16 -11 7 0 26 -15 43 -33 17 -17 36
-42 42 -55 7 -12 27 -29 46 -37 19 -7 35 -21 35 -30 0 -9 7 -18 15 -21 8 -4
15 -17 15 -30 0 -13 10 -45 22 -71 14 -29 23 -67 23 -98 0 -47 -2 -50 -27 -53
-20 -2 -28 1 -28 13 0 8 -10 19 -22 24 -13 5 -39 25 -58 45 -27 27 -43 35 -70
36 -19 0 -46 -6 -60 -13 -14 -7 -26 -21 -28 -31 -3 -12 14 -36 43 -66 26 -27
45 -54 43 -62 -3 -7 -6 -17 -6 -23 -1 -5 9 -9 22 -7 13 2 39 -7 57 -20 19 -13
61 -49 94 -80 33 -32 67 -58 75 -58 8 0 24 -7 34 -15 11 -8 30 -15 43 -15 16
0 28 11 43 40 12 23 27 43 35 46 8 3 18 16 22 27 4 12 8 27 9 32 0 6 8 27 17
49 9 21 17 51 17 65 0 15 -7 52 -16 82 -9 30 -22 61 -30 70 -8 8 -14 24 -14
33 0 10 -6 30 -13 44 -8 15 -31 62 -53 105 -21 43 -56 99 -77 124 -21 26 -43
55 -48 65 -5 10 -30 27 -54 38 -25 11 -45 25 -45 31 0 5 -17 17 -37 26 -21 8
-45 21 -53 28 -8 7 -46 25 -85 40 -38 15 -78 31 -87 36 -10 5 -24 9 -31 9 -8
0 -34 14 -59 30 -27 18 -74 37 -114 45 -37 8 -79 23 -93 33 -14 10 -48 28 -74
40 -26 12 -60 30 -74 42 -17 13 -41 20 -70 20 -24 0 -42 4 -39 9 3 5 -25 18
-63 30 -38 12 -77 21 -88 21 -10 0 -24 9 -31 20 -8 13 -23 20 -42 20 -20 0
-35 8 -45 24 -12 18 -14 37 -9 74 6 46 4 53 -21 78 -16 16 -25 34 -22 45 3 10
-4 34 -14 54 -11 19 -18 49 -17 67 3 26 -2 35 -25 46 -18 9 -30 24 -34 43 -3
16 -17 38 -31 49 -13 11 -35 20 -47 20 -12 0 -28 6 -34 14 -7 8 -23 17 -36 20
-13 3 -26 14 -30 25 -3 10 -17 23 -31 29 -20 10 -31 9 -57 -5 -18 -10 -43 -20
-57 -23 -17 -4 -26 -13 -28 -30 -2 -14 -10 -32 -17 -40 -7 -8 -20 -45 -30 -81
-11 -44 -15 -81 -11 -110 4 -24 8 -68 10 -97 2 -31 10 -60 20 -71 10 -11 16
-27 14 -37 -2 -11 3 -19 11 -19 8 0 22 -14 30 -30 11 -20 38 -40 84 -62 36
-18 84 -51 104 -73 21 -22 45 -40 53 -40 8 -1 26 -10 39 -21 24 -19 24 -22 12
-62 -8 -23 -13 -61 -12 -84 1 -35 -3 -45 -23 -58 -13 -9 -30 -30 -37 -47 -7
-16 -12 -50 -12 -75 0 -38 -5 -48 -29 -66 -16 -12 -28 -30 -28 -42 0 -12 -5
-37 -11 -56 -6 -19 -24 -47 -40 -62 -16 -15 -36 -41 -44 -58 -9 -16 -20 -29
-25 -29 -5 0 -23 -12 -41 -28 -17 -15 -51 -46 -74 -70 -32 -32 -52 -43 -81
-46 -22 -3 -59 -14 -84 -25 -25 -11 -59 -21 -77 -21 -17 0 -35 5 -38 10 -4 6
-53 10 -114 10 -104 0 -109 1 -116 23 -5 12 -12 40 -17 62 -5 22 -11 57 -15
77 -3 21 -11 42 -19 49 -8 6 -14 24 -14 40 0 15 -4 39 -9 52 -5 13 -12 54 -15
92 -3 37 -10 73 -16 80 -6 8 -13 29 -15 47 -3 18 -14 41 -27 51 -12 10 -29 16
-37 13 -9 -2 -32 -11 -51 -18 -19 -7 -51 -28 -70 -47 -19 -18 -50 -40 -68 -47
-18 -8 -37 -12 -42 -9 -6 4 -10 -7 -10 -23 0 -25 -6 -32 -40 -46 -22 -9 -40
-20 -40 -25 0 -5 -14 -12 -31 -16 -17 -4 -33 -13 -36 -21 -3 -8 -20 -21 -38
-28 -19 -8 -36 -24 -40 -38 -4 -12 -19 -33 -34 -45 -14 -12 -35 -22 -46 -23
-11 0 -26 -9 -33 -21 -9 -14 -20 -19 -33 -16 -13 3 -28 -2 -40 -14 -12 -12
-33 -19 -59 -19 -30 0 -42 5 -47 18 -3 9 -14 26 -24 38 -12 13 -21 43 -25 85
-4 35 -13 72 -22 81 -8 9 -17 38 -20 64 -3 29 -16 64 -34 90 -16 24 -41 47
-58 53 -21 7 -39 7 -60 0 -16 -6 -32 -19 -35 -29 -3 -10 -20 -24 -37 -31 -17
-7 -42 -22 -57 -34 -14 -12 -38 -28 -52 -36 -14 -8 -42 -25 -62 -38 -21 -13
-42 -32 -48 -42 -5 -11 -19 -19 -30 -19 -11 0 -34 -13 -52 -30 -18 -16 -37
-30 -43 -30 -6 0 -31 -14 -54 -32 -24 -17 -59 -34 -77 -38 -20 -5 -38 -3 -48
4 -9 6 -19 30 -22 53 -3 24 -1 43 6 47 7 5 2 20 -14 47 -14 22 -28 54 -32 71
-3 18 -12 44 -20 58 -7 14 -13 33 -13 43 0 11 -9 32 -21 48 -18 26 -26 29 -72
29 -29 0 -68 -5 -88 -10 -19 -5 -48 -23 -64 -40 -16 -16 -34 -30 -40 -30 -6 0
-18 -9 -28 -20 -9 -11 -25 -20 -35 -20 -10 0 -31 -18 -48 -40 -16 -22 -32 -40
-36 -40 -4 0 -10 5 -13 10 -3 6 -15 10 -25 10 -11 0 -27 -11 -36 -25 -9 -14
-21 -25 -26 -25 -6 0 -38 -12 -72 -27 -33 -15 -76 -38 -95 -50 -19 -13 -44
-23 -57 -23 -13 0 -33 -9 -44 -20 -11 -11 -29 -20 -41 -20 -11 0 -40 -11 -65
-25 -31 -17 -53 -23 -70 -19 -16 4 -31 1 -42 -10 -15 -13 -28 -14 -74 -7 -30
5 -79 22 -109 38 -38 20 -54 35 -55 50 -1 12 2 26 5 31 3 5 21 17 38 26 19 9
35 27 39 41 3 14 12 25 19 25 7 0 15 -6 18 -12 3 -10 9 -8 24 4 11 10 24 18
30 18 6 0 21 16 33 35 12 19 28 35 36 35 8 0 14 7 14 15 0 8 9 29 20 47 11 18
20 43 20 54 0 12 9 33 20 47 11 14 20 32 20 40 0 8 -7 31 -15 50 -8 20 -15 47
-15 59 -1 15 -13 31 -36 46 -26 16 -50 22 -91 22 -36 0 -72 -8 -103 -22 -27
-12 -53 -33 -59 -45 -6 -13 -15 -23 -21 -23 -6 0 -33 -17 -61 -37 -35 -27 -53
-49 -61 -75 -6 -20 -26 -52 -44 -70 -20 -20 -33 -43 -34 -59 0 -16 -11 -33
-30 -47 -16 -13 -30 -32 -30 -43 0 -11 -7 -22 -15 -25 -8 -4 -21 -1 -28 5 -8
6 -34 8 -68 4 -30 -3 -59 -9 -64 -14 -6 -4 -30 -11 -53 -15 -22 -3 -52 -4 -66
0 -17 4 -23 11 -20 21 5 12 -4 14 -52 11 -33 -2 -68 -7 -78 -12 -13 -5 -21 -3
-24 4 -2 7 -11 19 -19 28 -9 8 -22 13 -30 10 -7 -3 -16 1 -19 8 -3 8 -23 26
-45 40 -21 14 -45 26 -53 26 -9 0 -20 9 -26 19 -5 11 -19 22 -30 26 -11 3 -19
9 -19 13 1 4 1 14 0 23 0 9 -12 21 -26 27 -14 6 -25 20 -25 30 0 10 -11 29
-25 42 -14 13 -30 40 -35 60 -6 21 -21 49 -35 64 -13 14 -33 26 -45 26 -12 0
-20 7 -20 16 0 13 -7 15 -35 11 -20 -3 -45 -16 -55 -29 -11 -13 -19 -33 -20
-45 0 -12 -11 -33 -25 -47 -14 -14 -25 -36 -25 -50 0 -15 -25 -54 -70 -108
-38 -45 -72 -96 -76 -113 -4 -17 -25 -46 -50 -69 -24 -21 -44 -47 -44 -58 0
-10 -17 -35 -37 -53 -21 -19 -44 -35 -51 -35 -7 0 -23 -7 -35 -15 -13 -8 -28
-11 -36 -6 -7 5 -18 30 -23 57 -6 27 -10 60 -9 73 1 14 -8 43 -18 65 -11 23
-22 68 -24 101 -3 33 -9 71 -15 85 -5 14 -15 42 -21 62 -7 20 -9 48 -5 62 4
17 -3 49 -21 93 -22 56 -26 77 -20 120 3 28 6 80 6 115 0 35 -7 96 -16 136 -9
39 -14 76 -10 82 3 5 1 37 -5 70 -9 49 -8 65 5 90 9 17 13 40 9 54 -3 13 -2
26 3 29 5 3 8 41 7 84 0 43 -4 86 -9 96 -4 9 -4 30 -1 45 4 15 8 52 10 82 3
30 7 87 10 125 4 39 11 99 16 135 5 36 14 128 20 205 6 77 18 169 26 205 8 36
14 88 13 116 -1 28 1 57 6 64 5 7 9 34 11 59 1 25 9 75 19 111 9 36 25 92 36
125 10 33 19 76 19 96 0 20 -5 50 -11 68 -9 24 -17 31 -38 31 -17 0 -41 -13
-64 -34z m5742 -1859 c5 -13 16 -28 24 -35 8 -7 18 -24 21 -37 4 -16 13 -25
26 -25 16 0 20 -7 20 -32 0 -18 3 -44 6 -58 l5 -25 -15 27 c-9 15 -25 29 -35
33 -11 3 -42 27 -69 53 -27 26 -55 58 -62 71 -6 13 -8 27 -3 31 4 4 17 10 28
13 11 3 26 5 33 6 7 0 16 -9 21 -22z"/>
<path d="M25978 4294 c-3 -3 -39 -10 -80 -16 -40 -5 -79 -14 -85 -20 -7 -6
-24 -7 -38 -4 -14 4 -37 0 -53 -8 -15 -8 -40 -12 -55 -9 -24 5 -29 1 -43 -33
-9 -21 -16 -67 -17 -103 0 -36 5 -91 12 -121 7 -30 14 -81 17 -113 2 -32 13
-76 24 -97 11 -21 30 -46 42 -54 12 -9 34 -16 49 -16 14 0 34 9 45 21 15 17
19 35 17 88 -1 36 -2 80 -2 96 0 17 0 45 0 63 0 24 7 37 27 49 15 9 39 29 53
44 19 20 33 26 52 22 21 -4 33 2 54 24 16 16 38 35 51 42 12 6 29 28 38 49
l15 37 -38 32 c-21 18 -47 33 -59 33 -11 0 -23 -3 -26 -6z"/>
<path d="M1210 3700 c-14 -11 -48 -37 -76 -58 -28 -20 -79 -69 -115 -109 -42
-47 -74 -95 -93 -140 -16 -37 -44 -84 -62 -105 -18 -20 -41 -56 -51 -80 -11
-23 -27 -49 -36 -57 -9 -7 -19 -29 -23 -50 -4 -20 -11 -42 -17 -49 -6 -7 -14
-34 -20 -60 -5 -26 -10 -64 -10 -84 -1 -20 -8 -43 -14 -49 -7 -7 -13 -26 -13
-41 0 -16 -11 -45 -24 -66 -13 -21 -31 -72 -39 -113 -9 -40 -20 -103 -26 -139
-6 -36 -14 -94 -19 -130 -5 -36 -8 -85 -6 -110 1 -25 5 -129 8 -232 3 -103 10
-196 15 -205 5 -10 18 -36 29 -58 10 -22 22 -65 26 -95 3 -30 10 -77 15 -105
5 -27 18 -88 29 -135 12 -47 30 -111 42 -143 11 -33 25 -82 31 -110 5 -28 16
-58 24 -67 8 -9 15 -29 15 -43 0 -15 16 -62 36 -105 20 -42 41 -88 49 -102 7
-14 16 -46 19 -72 4 -25 13 -51 21 -58 7 -6 40 -12 74 -13 48 -1 66 3 88 20
l28 20 -2 124 c0 68 -4 169 -8 224 -4 55 -14 112 -22 128 -9 18 -11 33 -5 45
5 9 8 62 6 117 -2 55 -8 129 -14 165 -6 36 -18 94 -26 131 -8 36 -16 92 -16
125 0 32 -9 86 -19 119 -10 33 -23 94 -30 135 -6 41 -20 101 -31 134 -14 42
-18 71 -13 102 5 35 2 49 -14 71 -11 15 -28 64 -37 108 -9 44 -22 95 -30 114
-8 18 -14 44 -14 58 0 13 7 35 16 48 9 14 14 34 11 45 -3 11 -1 23 4 26 5 3 9
14 9 25 0 10 4 27 9 37 5 9 13 33 19 52 6 19 14 53 18 75 4 24 21 56 43 82 20
23 47 56 61 74 18 24 24 43 22 75 -1 38 1 43 29 54 18 8 38 28 49 50 10 20 30
44 44 54 14 9 26 23 26 31 0 8 19 24 43 34 23 11 71 21 107 24 45 4 75 1 100
-9 20 -9 64 -15 101 -15 42 0 79 -5 98 -15 18 -9 55 -19 85 -23 32 -4 65 -17
87 -33 19 -14 50 -33 71 -41 20 -8 58 -36 85 -61 26 -25 51 -46 56 -46 4 0 7
-7 7 -15 0 -9 9 -33 20 -55 11 -22 20 -50 20 -64 0 -13 6 -31 13 -38 9 -9 13
-34 11 -78 -2 -36 -9 -94 -15 -130 -6 -36 -20 -90 -31 -120 -11 -30 -23 -59
-28 -65 -5 -6 -16 -30 -25 -55 -8 -25 -22 -63 -30 -85 -8 -22 -25 -60 -38 -85
-13 -25 -46 -70 -75 -100 -31 -33 -52 -64 -52 -78 0 -12 -18 -42 -40 -66 -22
-24 -40 -53 -40 -64 0 -11 -10 -33 -23 -49 -13 -15 -33 -45 -45 -66 -12 -21
-22 -42 -22 -46 0 -5 -16 -26 -36 -47 -20 -21 -43 -53 -50 -71 -8 -17 -19 -35
-24 -38 -6 -4 -22 -31 -35 -61 -13 -30 -38 -71 -55 -92 -16 -20 -30 -47 -30
-59 0 -12 -8 -30 -19 -40 -10 -10 -34 -63 -53 -118 -33 -94 -34 -105 -27 -175
4 -41 8 -98 8 -127 1 -37 8 -62 24 -86 13 -19 43 -55 67 -80 24 -26 51 -47 59
-47 9 0 27 -7 40 -16 15 -11 34 -15 57 -11 21 4 56 -2 92 -13 31 -11 64 -20
73 -20 8 0 33 8 55 19 21 10 61 26 88 35 27 9 61 23 75 31 14 7 41 18 60 24
19 6 45 11 58 11 13 0 31 9 40 20 11 13 30 20 51 20 18 0 43 6 55 14 12 8 38
17 57 21 19 4 44 14 55 21 11 8 30 14 42 14 13 0 27 9 34 22 6 12 28 39 47 60
20 22 45 38 57 38 12 0 29 -8 38 -18 10 -10 17 -22 17 -26 0 -4 9 -19 20 -33
11 -14 20 -35 20 -47 0 -11 10 -63 22 -115 22 -87 27 -97 78 -151 30 -32 64
-70 75 -84 11 -14 34 -40 50 -58 17 -19 49 -48 71 -66 32 -24 52 -32 83 -32
23 0 52 -6 64 -14 12 -8 31 -16 42 -17 11 -1 36 1 55 5 19 4 46 12 60 18 14 6
40 18 59 27 18 9 42 27 52 41 11 14 28 35 39 48 10 13 22 40 25 60 3 20 13 62
21 92 9 30 20 68 25 84 5 16 9 51 9 77 0 26 -5 51 -11 55 -6 4 -9 19 -5 37 3
16 1 70 -5 119 -8 68 -8 92 2 104 8 9 27 14 58 12 25 -1 74 -1 109 0 54 2 67
6 87 28 20 21 28 24 39 15 10 -9 31 -9 80 -1 36 6 77 8 91 4 17 -4 37 1 62 16
21 13 54 27 73 32 19 5 58 11 86 12 28 2 63 11 77 21 15 9 27 21 27 26 0 5 8
9 19 9 10 0 30 9 44 20 14 11 39 20 56 20 28 0 34 -5 51 -44 10 -24 24 -46 30
-48 8 -2 14 -36 17 -93 2 -53 13 -117 25 -155 12 -36 27 -70 35 -76 8 -7 11
-22 7 -40 -4 -23 2 -39 28 -74 19 -25 39 -57 46 -72 9 -23 18 -28 44 -28 18 0
42 7 52 15 11 8 28 15 38 15 11 0 41 20 67 45 26 25 55 45 65 45 9 0 16 4 16
9 0 5 20 29 44 53 25 23 58 55 74 70 17 15 32 42 36 63 5 23 21 49 48 75 23
22 48 40 55 40 8 0 18 -11 23 -25 5 -14 22 -41 37 -60 16 -19 33 -35 39 -35 6
0 17 -7 24 -15 7 -8 23 -15 35 -15 12 0 28 -7 35 -15 7 -8 18 -15 25 -15 7 0
34 -17 61 -37 27 -21 65 -44 84 -50 19 -7 53 -13 76 -13 29 0 53 -8 80 -28 39
-28 40 -28 176 -26 93 1 143 5 153 14 8 7 25 10 38 6 12 -3 35 1 51 9 16 8 36
15 46 15 10 0 23 7 30 15 7 8 28 15 47 15 18 0 50 7 70 15 19 8 55 15 79 15
23 0 55 5 70 10 15 6 33 18 40 28 7 9 10 20 8 23 -2 4 3 12 10 18 11 10 22 9
46 -4 28 -15 34 -15 55 -1 13 9 26 23 29 33 3 10 34 33 68 50 35 18 75 36 91
39 15 3 30 10 33 15 3 5 44 9 90 8 71 -2 90 -6 116 -26 18 -13 39 -23 48 -23
9 0 26 -11 39 -23 12 -13 45 -34 74 -47 28 -12 66 -30 82 -38 17 -9 56 -19 88
-23 33 -4 67 -15 77 -24 16 -15 30 -16 81 -11 34 4 80 14 101 23 32 13 44 13
62 4 12 -7 62 -13 111 -14 l90 -2 67 52 c41 32 77 53 93 53 14 0 25 6 25 13 0
8 21 33 46 57 26 24 73 56 105 71 31 15 76 46 98 68 23 23 41 47 41 54 0 8 15
31 33 53 17 21 46 53 63 69 18 17 43 53 56 80 14 28 28 63 32 78 4 16 12 27
19 25 7 -3 24 -27 39 -54 15 -27 29 -53 32 -59 2 -5 19 -52 36 -103 22 -67 29
-103 24 -127 -4 -23 -1 -41 10 -57 9 -12 16 -35 16 -50 0 -15 4 -37 9 -50 5
-13 17 -42 27 -66 11 -28 25 -44 41 -48 13 -4 38 0 56 7 17 7 51 29 75 48 40
33 42 38 42 89 0 34 5 59 15 68 8 9 15 25 15 37 0 11 -5 35 -12 53 -8 23 -20
35 -42 41 -27 8 -32 15 -41 60 -5 28 -13 55 -17 59 -5 4 -8 15 -8 25 0 9 -16
45 -35 79 -19 34 -35 67 -35 73 0 7 -11 35 -25 62 -13 28 -25 59 -25 70 0 12
-9 46 -20 78 -19 53 -19 59 -4 99 9 24 20 63 24 88 5 25 18 94 31 153 18 90
26 111 45 124 14 8 37 15 52 15 15 0 41 12 59 28 23 21 38 27 55 22 13 -3 35
-14 49 -24 22 -17 33 -18 89 -9 34 6 67 8 72 5 4 -3 74 -7 154 -8 80 -2 148
-6 151 -10 4 -3 20 -6 38 -6 17 0 37 -6 44 -12 8 -9 43 -12 114 -11 59 1 125
9 157 18 30 9 67 19 83 22 15 3 32 14 38 25 6 11 23 24 39 29 16 6 31 18 34
26 4 9 2 31 -4 49 -6 18 -19 35 -28 38 -9 2 -70 4 -135 4 -65 0 -123 5 -130
10 -7 6 -37 13 -67 16 -30 3 -107 10 -170 16 -63 6 -126 15 -140 20 -14 5 -93
8 -176 7 -103 -1 -156 -6 -166 -14 -12 -11 -18 -9 -34 8 -16 18 -25 19 -81 13
-48 -5 -74 -2 -113 12 -28 10 -56 25 -63 32 -8 10 -8 19 0 30 7 12 7 23 -3 37
-6 11 -19 49 -28 85 -9 35 -23 71 -30 80 -8 8 -17 25 -20 37 -4 12 -26 42 -50
67 -24 26 -48 46 -53 46 -6 0 -21 -6 -34 -13 -13 -7 -41 -24 -61 -37 -22 -15
-38 -33 -38 -44 0 -11 -11 -31 -24 -45 -12 -15 -30 -44 -38 -66 -9 -22 -22
-81 -29 -132 -12 -89 -13 -91 -42 -97 -16 -3 -44 -6 -63 -6 -24 0 -34 -5 -39
-20 -3 -11 -11 -20 -16 -20 -5 0 -12 6 -15 14 -4 10 -34 14 -127 15 -67 2
-155 4 -194 5 -45 2 -76 -1 -82 -8 -4 -6 -6 -31 -2 -56 4 -32 12 -47 28 -56
13 -6 31 -18 41 -27 10 -10 30 -17 45 -17 14 0 28 -4 31 -9 3 -4 31 -11 63
-15 32 -4 83 -9 113 -12 30 -2 80 -6 110 -8 30 -2 75 -10 100 -18 42 -13 46
-17 56 -59 7 -26 17 -55 23 -67 6 -11 11 -35 11 -52 0 -17 10 -61 22 -98 11
-37 30 -86 40 -110 11 -23 22 -66 25 -95 5 -51 4 -54 -35 -95 -23 -23 -44 -51
-47 -62 -4 -11 -10 -20 -15 -20 -4 0 -19 -20 -33 -44 -13 -24 -27 -56 -31 -72
-4 -15 -21 -44 -37 -63 -16 -20 -34 -40 -40 -46 -5 -5 -27 -27 -48 -47 -21
-21 -43 -38 -49 -38 -5 0 -26 -20 -46 -45 -21 -25 -42 -45 -48 -45 -6 0 -32
-14 -58 -31 -27 -17 -50 -39 -53 -49 -4 -14 -23 -21 -96 -31 -72 -10 -92 -17
-97 -31 -3 -10 -10 -18 -15 -18 -5 0 -18 5 -28 12 -15 9 -27 7 -62 -10 -25
-13 -45 -18 -47 -12 -2 6 -12 10 -22 10 -10 0 -22 5 -25 10 -3 6 -21 10 -39
10 -18 0 -44 8 -57 18 -13 10 -58 24 -99 31 -41 6 -79 17 -85 24 -5 7 -23 21
-40 30 -16 9 -61 28 -100 42 -54 20 -80 25 -115 20 -32 -4 -54 -2 -75 9 -17 9
-38 16 -48 16 -10 0 -27 -5 -38 -10 -14 -8 -26 -7 -45 3 -22 11 -37 12 -83 2
-31 -7 -68 -18 -83 -25 -16 -7 -28 -21 -28 -30 0 -10 -19 -24 -53 -38 -29 -12
-60 -22 -70 -22 -10 0 -20 -7 -24 -15 -3 -9 -17 -22 -32 -29 -14 -8 -45 -17
-69 -21 -36 -6 -46 -4 -57 11 -7 10 -16 56 -20 101 -4 50 -12 86 -19 91 -7 4
-16 29 -18 55 -3 26 -12 56 -21 65 -8 9 -18 36 -22 60 -4 26 -15 48 -28 57
-12 8 -36 15 -53 15 -17 0 -37 -7 -44 -15 -9 -11 -22 -14 -40 -10 -18 4 -31 1
-39 -9 -9 -10 -13 -51 -14 -118 0 -81 5 -118 23 -173 13 -38 33 -90 46 -115
13 -25 24 -50 24 -56 0 -5 -12 -22 -27 -36 -16 -14 -37 -30 -48 -35 -11 -6
-49 -13 -85 -16 -36 -4 -93 -3 -128 2 -48 7 -71 17 -98 41 -23 20 -42 29 -53
25 -10 -3 -40 6 -67 19 -27 14 -60 39 -73 56 -12 17 -40 39 -61 48 -28 12 -55
39 -94 92 -30 41 -67 92 -82 113 -15 20 -36 37 -46 37 -10 0 -26 -4 -36 -8 -9
-5 -30 -15 -47 -23 -17 -8 -31 -24 -33 -36 -2 -12 -15 -29 -30 -39 -15 -9 -49
-40 -75 -68 -27 -28 -53 -59 -58 -69 -5 -9 -15 -17 -21 -17 -6 0 -33 -23 -60
-50 -27 -28 -53 -50 -58 -50 -5 0 -20 4 -34 10 -25 9 -26 13 -26 84 0 41 -4
77 -8 80 -5 3 -14 29 -21 59 -6 30 -11 58 -10 63 1 5 -1 20 -5 35 -5 18 0 39
18 75 13 27 36 60 50 73 14 14 26 31 26 38 0 8 6 16 14 19 7 3 28 34 46 70 18
35 37 64 41 64 4 0 11 10 14 23 4 12 24 49 45 82 30 48 39 71 41 115 1 30 3
84 3 120 0 36 -11 115 -25 175 -14 61 -33 124 -42 140 -9 17 -21 41 -27 54 -6
14 -35 56 -65 95 -29 39 -64 83 -77 98 -13 14 -44 44 -69 66 -39 33 -57 40
-106 46 -33 4 -67 4 -76 0 -9 -3 -23 -17 -33 -31 -9 -15 -21 -54 -26 -87 -5
-34 -11 -104 -14 -156 -3 -52 -8 -126 -13 -165 -4 -38 -6 -162 -6 -275 0 -113
7 -255 14 -316 8 -61 11 -123 7 -138 -4 -15 -17 -31 -30 -36 -14 -5 -44 -24
-69 -43 -32 -25 -60 -36 -98 -41 -30 -4 -83 -21 -119 -39 -44 -21 -81 -31
-115 -32 -27 -1 -59 -5 -70 -9 -11 -4 -31 -11 -45 -16 -14 -4 -50 -13 -80 -19
-32 -7 -110 -11 -185 -9 -71 2 -136 7 -143 12 -7 4 -21 5 -31 1 -11 -3 -22 -1
-26 5 -3 6 -46 10 -102 10 l-95 0 -42 44 c-24 26 -64 55 -97 69 -44 19 -67 23
-110 19 -30 -2 -60 -9 -67 -15 -7 -6 -19 -24 -26 -41 -9 -22 -9 -38 -2 -61 6
-17 22 -46 36 -64 14 -18 36 -43 49 -57 15 -15 35 -24 56 -24 18 0 49 -7 68
-15 20 -8 39 -20 42 -25 4 -6 19 -16 33 -22 15 -6 38 -11 52 -12 20 -1 26 -8
31 -36 3 -19 16 -55 27 -80 12 -25 22 -56 22 -69 0 -13 10 -39 21 -58 20 -31
20 -38 9 -73 -7 -21 -10 -48 -7 -60 4 -14 -2 -29 -16 -43 -15 -15 -21 -32 -20
-58 2 -29 -3 -39 -24 -50 -14 -7 -29 -24 -34 -38 -9 -22 -13 -23 -55 -17 -26
3 -61 17 -82 33 -20 16 -46 37 -58 48 -11 11 -34 38 -50 60 -16 22 -36 52 -43
68 -8 15 -18 27 -23 27 -4 0 -8 11 -8 24 0 14 -4 28 -10 31 -5 3 -10 26 -10
51 0 37 -3 44 -17 42 -16 -3 -18 9 -19 129 -1 108 -4 134 -17 148 -9 9 -17 20
-17 24 0 4 7 16 15 27 8 10 14 26 14 34 0 8 -12 30 -27 48 l-27 32 -59 -24
c-40 -16 -64 -33 -74 -51 -7 -15 -30 -41 -50 -59 -20 -17 -47 -41 -60 -53 -13
-13 -31 -23 -42 -23 -10 0 -23 -6 -27 -13 -4 -7 -38 -28 -75 -45 -37 -18 -76
-45 -87 -61 -16 -22 -30 -29 -66 -33 -25 -3 -54 -13 -63 -21 -9 -8 -42 -23
-72 -32 -30 -9 -68 -23 -85 -30 -16 -8 -54 -23 -84 -35 -52 -21 -55 -21 -92
-5 -26 12 -49 15 -76 11 -21 -4 -54 -9 -73 -12 -30 -4 -42 1 -82 33 -27 22
-47 47 -47 58 -1 11 10 46 23 78 13 32 33 65 45 73 12 9 28 32 37 52 9 20 20
53 26 72 5 19 10 44 11 56 1 12 17 34 35 49 18 15 43 48 54 72 11 24 29 48 38
53 10 6 24 27 30 47 7 21 22 59 34 85 11 25 28 48 36 51 8 2 30 35 49 73 18
38 40 73 47 77 8 4 23 26 34 47 11 22 28 47 39 57 10 10 22 34 26 53 4 19 18
52 32 72 14 21 29 58 34 84 6 30 18 55 37 72 20 19 37 54 56 117 15 50 37 119
49 155 11 36 24 69 28 73 3 5 3 26 -2 46 -6 26 -4 56 5 91 8 32 12 77 9 114
-5 47 -14 73 -39 112 -22 34 -34 63 -34 86 0 21 -9 46 -21 62 -11 14 -27 26
-35 26 -8 0 -20 14 -25 30 -7 19 -18 30 -29 30 -12 0 -20 9 -22 22 -2 15 -16
29 -38 40 -19 9 -57 37 -85 63 -27 25 -65 50 -85 55 -19 5 -53 15 -74 23 -22
8 -49 24 -61 35 -11 11 -41 25 -65 32 -25 7 -51 17 -58 23 -7 5 -29 10 -49 9
-20 -1 -43 3 -50 10 -8 6 -36 9 -73 5 -32 -3 -62 -2 -65 2 -4 3 -34 11 -68 18
-34 6 -73 14 -87 18 -17 4 -33 -1 -50 -15z m7330 -925 c0 -19 -4 -35 -9 -35
-6 0 -13 5 -16 11 -4 5 -4 21 -1 35 4 13 11 24 16 24 6 0 10 -16 10 -35z
m-3897 -192 c9 -10 26 -28 39 -41 13 -13 31 -30 41 -39 9 -9 17 -26 17 -38 0
-11 5 -26 12 -33 8 -8 11 -56 10 -153 -1 -77 -7 -149 -12 -159 -6 -10 -10 -28
-10 -40 0 -13 -16 -37 -37 -56 -21 -19 -52 -48 -68 -64 -17 -17 -36 -30 -43
-30 -8 0 -13 17 -13 48 -1 26 -3 63 -4 82 -1 19 -6 121 -9 225 -4 105 -9 196
-12 204 -2 8 3 36 12 63 12 38 20 48 38 48 12 0 30 -8 39 -17z m3913 -127 c3
-8 4 -27 2 -43 l-3 -28 -19 27 c-10 16 -16 35 -12 43 3 8 10 15 16 15 6 0 13
-6 16 -14z"/>
<path d="M15416 3485 c-13 -14 -27 -42 -30 -63 -4 -20 -9 -77 -12 -127 -3 -49
-5 -135 -5 -190 1 -55 5 -131 11 -169 5 -37 8 -118 6 -180 -2 -61 -9 -132 -16
-156 -7 -25 -13 -86 -15 -137 -1 -51 -7 -98 -12 -105 -6 -7 -14 -53 -18 -103
-4 -49 -14 -103 -22 -118 -10 -21 -11 -32 -3 -42 7 -8 8 -37 4 -81 -4 -47 -14
-80 -29 -104 -13 -19 -26 -53 -30 -75 -3 -22 -17 -92 -32 -155 -14 -63 -32
-131 -40 -150 -8 -19 -24 -53 -35 -75 -12 -22 -27 -47 -34 -56 -8 -8 -14 -33
-14 -55 0 -21 -6 -49 -13 -60 -6 -12 -28 -46 -47 -76 -19 -30 -40 -63 -46 -74
-6 -10 -17 -19 -24 -19 -8 0 -20 22 -27 50 -8 28 -21 77 -29 110 -8 33 -24 92
-34 132 -11 39 -20 96 -20 127 0 30 -5 58 -10 61 -6 3 -16 19 -24 33 -8 15
-21 59 -30 97 -8 39 -20 92 -27 119 -6 27 -19 64 -29 82 -10 17 -21 58 -25 90
-4 33 -18 104 -31 159 -13 55 -23 114 -23 130 0 17 0 52 -1 79 0 28 -5 55 -10
61 -5 6 -7 40 -4 75 2 36 6 106 9 155 2 50 4 106 5 125 1 19 -3 61 -8 92 -6
31 -13 61 -16 66 -3 6 -20 12 -38 15 -18 3 -44 8 -58 12 -21 5 -29 0 -48 -28
-12 -19 -27 -49 -32 -68 -6 -19 -10 -52 -10 -74 0 -24 -8 -50 -20 -65 -11 -14
-20 -32 -20 -41 0 -8 -13 -35 -28 -60 -16 -24 -27 -49 -25 -55 2 -6 -1 -23 -6
-37 -7 -17 -18 -27 -30 -27 -11 0 -25 -9 -31 -19 -5 -11 -24 -23 -42 -26 -17
-4 -52 -23 -77 -41 -25 -19 -72 -47 -103 -64 -32 -16 -68 -30 -81 -30 -13 0
-38 -11 -57 -25 -19 -14 -44 -25 -56 -25 -13 0 -49 -7 -80 -15 -31 -8 -73 -12
-93 -9 -20 3 -63 1 -96 -5 -48 -9 -63 -8 -81 3 -19 13 -22 27 -28 108 -3 51
-5 113 -4 138 1 25 1 74 0 110 0 36 -5 119 -11 185 -6 66 -17 142 -25 168 -9
26 -24 60 -34 75 -10 15 -19 36 -19 47 -1 11 -13 45 -28 75 -14 30 -32 66 -40
80 -8 13 -32 41 -54 61 -22 20 -56 42 -75 49 -20 6 -36 16 -36 21 0 5 -8 9
-17 9 -10 0 -29 13 -43 28 -25 28 -25 28 -120 23 -91 -6 -97 -7 -145 -45 -27
-21 -74 -50 -103 -64 -36 -17 -63 -38 -79 -64 -14 -21 -31 -38 -38 -38 -7 0
-15 -6 -18 -14 -3 -7 -24 -23 -47 -35 -23 -12 -50 -19 -60 -16 -11 3 -33 -1
-49 -9 -17 -9 -38 -16 -49 -16 -10 0 -29 -11 -42 -25 -12 -13 -26 -22 -30 -20
-4 3 -27 -11 -51 -30 -24 -19 -64 -39 -89 -45 -33 -8 -70 -31 -130 -80 -45
-38 -88 -78 -94 -88 -6 -10 -26 -41 -43 -68 -18 -27 -33 -55 -33 -62 0 -7 -4
-20 -9 -30 -6 -9 -23 -53 -39 -97 -16 -44 -32 -98 -36 -120 -4 -21 -14 -52
-22 -68 -11 -21 -16 -77 -18 -230 -2 -111 0 -227 4 -257 4 -30 13 -71 20 -90
7 -19 19 -48 26 -65 6 -16 15 -41 19 -55 4 -14 14 -34 21 -45 8 -11 14 -28 14
-39 0 -11 9 -40 21 -65 11 -25 25 -54 30 -63 5 -10 9 -25 9 -33 0 -8 8 -23 18
-33 9 -10 35 -44 57 -76 22 -32 58 -73 80 -92 22 -18 51 -44 65 -56 13 -13 44
-40 68 -62 34 -30 70 -48 173 -83 127 -42 133 -43 187 -32 32 6 82 12 112 14
30 1 71 2 91 3 28 2 38 7 42 22 5 19 11 20 54 15 41 -6 55 -3 96 20 26 15 72
51 102 81 30 29 55 59 55 66 0 6 9 22 21 34 14 15 22 41 26 83 3 34 9 61 13
61 4 0 22 14 39 32 17 17 31 39 31 48 0 9 9 25 19 34 11 10 24 29 29 44 6 15
17 63 27 107 9 44 25 104 36 133 10 28 29 77 41 107 14 35 28 55 38 55 8 0 26
7 39 16 16 12 34 15 63 10 22 -4 55 -2 72 3 17 5 66 12 109 16 42 4 83 12 90
19 7 7 38 15 70 18 41 3 64 11 81 27 13 12 41 25 62 28 21 3 47 14 57 24 11
12 32 19 53 19 28 0 43 9 78 45 25 25 52 45 61 45 9 0 37 9 62 21 45 20 47 20
60 3 7 -10 13 -30 13 -45 0 -14 7 -32 15 -39 11 -9 15 -32 15 -82 0 -49 6 -80
19 -106 11 -20 25 -57 31 -82 7 -25 16 -54 21 -65 4 -11 11 -35 14 -53 4 -18
18 -60 31 -94 13 -34 24 -72 24 -86 0 -13 7 -47 16 -75 9 -29 21 -56 25 -61 5
-6 9 -21 9 -35 0 -15 10 -55 21 -91 12 -36 25 -85 29 -110 5 -25 13 -72 20
-105 6 -33 13 -134 14 -225 2 -91 6 -172 10 -181 4 -8 3 -27 -3 -40 -5 -15 -5
-32 0 -41 6 -10 2 -36 -11 -74 -12 -33 -22 -75 -24 -94 -1 -19 3 -46 9 -60 7
-14 15 -42 19 -63 4 -20 20 -53 37 -71 16 -19 38 -36 50 -39 13 -4 26 1 37 14
9 10 22 19 29 19 7 0 22 9 33 20 11 11 20 30 20 43 1 12 14 38 30 57 22 25 30
45 30 72 0 21 4 38 10 38 5 0 18 10 30 22 11 12 20 34 20 49 0 16 17 61 39
102 21 40 42 89 46 108 4 19 19 53 34 75 15 23 33 66 40 97 10 38 10 60 3 72
-6 12 -6 28 0 47 6 16 19 33 30 39 16 9 19 17 14 43 -4 21 -1 39 11 56 9 14
22 28 29 33 7 4 20 22 30 40 9 17 21 55 25 82 5 28 13 76 17 107 5 32 15 65
23 75 8 10 21 30 29 46 7 15 19 27 26 27 7 0 20 -19 28 -42 9 -24 22 -67 30
-96 7 -30 11 -68 7 -85 -4 -18 -4 -70 0 -117 4 -47 12 -118 18 -158 9 -56 9
-85 1 -120 -7 -26 -14 -61 -17 -78 -3 -20 1 -41 12 -57 14 -22 14 -34 4 -93
-8 -45 -9 -99 -4 -158 5 -50 7 -133 6 -184 -3 -90 -2 -93 26 -121 15 -15 36
-40 46 -54 10 -15 26 -27 36 -27 10 0 26 9 36 20 10 11 25 20 34 20 9 0 26 18
39 40 12 22 27 40 31 40 5 0 18 16 30 36 12 19 21 51 21 71 0 26 7 40 25 55
14 11 48 54 75 95 28 42 50 81 51 87 0 6 2 21 5 33 2 13 12 31 22 41 10 10 38
54 61 97 24 44 52 92 62 107 11 14 19 42 19 61 0 26 7 41 25 55 14 11 25 27
25 37 0 9 18 38 41 65 39 47 40 49 26 77 -13 24 -13 32 -1 55 8 15 23 32 33
37 10 6 37 35 61 65 23 31 40 62 37 69 -3 7 1 24 9 38 7 13 13 34 14 47 0 12
6 22 15 22 8 0 27 -5 42 -11 15 -7 42 -18 58 -25 17 -8 45 -29 63 -48 22 -22
57 -41 100 -55 36 -12 102 -25 146 -28 45 -4 133 -7 196 -9 64 -1 124 3 134 8
11 6 47 17 80 24 34 8 86 25 116 38 30 13 78 31 106 40 29 9 68 16 88 16 20 0
46 6 59 13 12 6 33 20 46 30 13 9 31 17 41 17 9 0 36 13 58 30 23 16 44 30 47
30 2 0 24 -20 48 -43 24 -24 55 -47 70 -51 15 -3 26 -11 24 -18 -1 -6 14 -15
33 -20 19 -5 51 -16 70 -25 24 -11 59 -16 109 -15 41 1 79 -2 85 -7 6 -5 30
-11 53 -14 24 -3 45 -1 48 4 3 5 23 16 43 26 20 9 43 25 50 34 10 14 18 16 43
9 22 -7 39 -5 58 5 15 7 33 20 40 29 7 8 11 23 9 33 -2 13 4 19 25 21 15 2 27
7 27 11 0 4 25 20 55 36 31 15 60 36 65 45 5 10 21 21 35 24 14 4 36 1 51 -7
14 -7 32 -24 39 -38 8 -13 22 -40 31 -59 9 -19 27 -44 41 -56 17 -13 25 -30
25 -50 0 -16 6 -49 14 -73 8 -24 26 -57 39 -73 14 -16 25 -36 25 -44 0 -7 13
-20 29 -28 15 -8 36 -26 45 -40 9 -14 34 -35 56 -46 25 -13 59 -20 94 -20 30
0 58 5 61 10 3 6 18 10 33 10 19 0 42 15 77 51 28 27 66 57 85 66 19 8 56 28
81 44 40 25 49 27 75 17 26 -9 35 -8 69 16 22 14 62 42 90 61 27 19 61 35 74
35 14 0 39 -5 57 -12 17 -6 39 -24 49 -41 16 -26 21 -28 54 -22 20 3 53 6 74
6 21 0 51 -9 66 -20 18 -13 44 -20 77 -20 27 0 82 -3 122 -7 62 -5 82 -2 126
16 29 12 64 20 77 19 13 -2 46 3 72 10 35 10 51 20 58 37 7 21 15 24 58 24 43
0 52 4 70 29 12 16 21 36 21 43 0 8 8 22 18 31 10 10 26 17 35 17 9 0 18 -4
22 -10 3 -5 13 -6 23 -3 9 4 32 18 50 31 18 14 35 35 38 47 3 12 17 28 30 36
14 7 34 27 45 45 10 18 26 35 34 38 9 3 15 19 15 40 0 25 -6 38 -19 46 -11 5
-36 10 -56 10 -31 0 -44 -9 -97 -63 -34 -34 -65 -62 -68 -62 -3 -1 -15 -4 -27
-9 -13 -4 -23 -11 -23 -16 0 -5 -14 -16 -32 -24 -17 -9 -40 -16 -50 -16 -10 0
-36 -9 -57 -20 -22 -11 -59 -27 -83 -36 -23 -8 -56 -18 -73 -20 -16 -3 -57 -7
-90 -10 -33 -2 -81 -5 -108 -5 -34 0 -65 8 -109 30 -39 20 -76 31 -103 31 -28
0 -52 8 -75 25 -19 14 -56 48 -84 76 -27 28 -59 54 -70 59 -12 4 -46 7 -76 6
-53 -1 -55 -2 -60 -31 -3 -17 -9 -37 -15 -45 -5 -8 -36 -33 -69 -55 -32 -22
-65 -50 -73 -61 -7 -12 -26 -24 -41 -27 -16 -3 -55 -27 -88 -54 -32 -26 -60
-51 -62 -55 -2 -5 -9 -8 -15 -8 -7 0 -32 -11 -57 -24 -25 -13 -69 -29 -99 -37
l-53 -13 -32 36 c-17 20 -41 50 -53 66 -13 17 -23 41 -23 55 0 14 -16 49 -35
78 -22 35 -33 60 -29 74 3 12 -5 48 -17 81 -13 32 -24 77 -26 99 -2 22 -3 60
-3 84 -1 35 -8 55 -33 88 -18 23 -40 45 -49 48 -9 3 -36 1 -60 -6 -24 -7 -51
-19 -60 -27 -10 -8 -18 -23 -18 -32 0 -9 -34 -51 -76 -94 -42 -42 -81 -76 -87
-76 -5 0 -34 -25 -64 -56 -30 -31 -75 -65 -101 -76 -25 -11 -54 -30 -63 -41
-13 -17 -34 -23 -100 -29 -46 -4 -102 -10 -124 -12 -26 -3 -55 2 -81 14 -23
10 -50 26 -61 36 -10 11 -40 29 -66 42 -25 13 -49 28 -53 34 -4 5 2 22 13 36
11 15 32 33 46 40 17 8 27 21 27 35 0 13 13 47 28 77 15 30 33 74 40 96 7 23
12 62 12 88 0 26 -6 61 -13 79 -8 18 -34 49 -58 70 -40 35 -47 38 -85 32 -31
-4 -46 -2 -57 9 -12 13 -22 14 -49 5 -18 -6 -43 -15 -54 -21 -13 -6 -43 -7
-73 -3 -50 7 -51 7 -101 -42 -48 -46 -51 -52 -62 -122 -8 -56 -8 -91 2 -145 7
-39 19 -83 26 -98 8 -15 14 -38 14 -52 0 -14 5 -28 10 -31 6 -3 10 -19 10 -35
0 -20 -6 -31 -21 -35 -12 -4 -28 -14 -37 -22 -10 -8 -34 -25 -55 -39 -21 -13
-42 -24 -47 -24 -5 0 -31 -13 -57 -30 -27 -17 -60 -30 -79 -30 -18 0 -36 -5
-40 -11 -3 -6 -16 -8 -28 -5 -11 3 -38 1 -58 -3 -22 -5 -52 -4 -78 2 -34 9
-46 8 -73 -6 -17 -9 -46 -20 -64 -23 -17 -3 -34 -12 -37 -20 -3 -8 -9 -14 -14
-14 -5 0 -21 11 -35 24 -18 17 -42 25 -87 30 -34 4 -74 12 -88 17 -15 6 -40
25 -57 43 -16 18 -37 46 -46 62 -10 16 -26 33 -38 39 -12 5 -21 17 -21 25 0 9
-6 24 -14 35 -7 11 -19 54 -26 95 -7 41 -14 89 -16 105 -1 17 -10 50 -19 74
-9 25 -18 48 -21 52 -2 4 -17 4 -32 -1 -15 -4 -38 -11 -52 -14 -15 -3 -31 -18
-41 -38 -9 -18 -22 -46 -28 -63 -8 -21 -8 -41 -1 -64 5 -19 7 -37 5 -42 -3 -4
-1 -28 5 -53 8 -35 7 -51 -5 -73 -8 -15 -31 -64 -51 -108 -20 -44 -42 -91 -48
-104 -6 -13 -19 -26 -28 -29 -12 -3 -18 -14 -18 -31 0 -15 -18 -62 -41 -106
-22 -44 -51 -94 -65 -112 -13 -17 -24 -41 -24 -52 0 -11 -11 -31 -25 -45 -14
-14 -25 -32 -25 -41 0 -9 -9 -28 -20 -42 -11 -14 -20 -31 -20 -38 0 -7 -7 -19
-16 -26 -9 -7 -27 -38 -40 -67 -13 -30 -24 -67 -24 -83 0 -16 -4 -29 -10 -29
-5 0 -22 -14 -37 -31 -16 -17 -40 -37 -55 -45 -15 -8 -31 -14 -36 -14 -5 0
-14 17 -20 39 -10 32 -9 45 4 77 15 35 15 41 -1 73 -12 24 -18 71 -21 155 -2
67 -6 141 -9 166 -2 25 -6 97 -9 160 -2 63 -9 169 -15 235 -6 66 -13 149 -15
185 -2 36 -8 101 -14 145 -6 44 -11 85 -13 90 -1 6 1 32 6 58 5 31 3 63 -3 85
-6 21 -12 66 -13 102 -1 36 -8 78 -16 94 -8 16 -16 47 -18 70 -1 23 -4 48 -6
56 -2 8 0 52 4 97 6 57 3 130 -8 242 -12 113 -14 165 -6 179 7 13 7 45 2 95
-6 51 -17 91 -37 127 -15 28 -39 60 -52 71 -14 10 -33 19 -44 19 -10 0 -30
-11 -42 -25z m-2363 -277 c41 2 63 -2 73 -13 9 -8 31 -15 49 -15 27 0 39 -7
59 -33 15 -19 26 -46 26 -61 0 -15 7 -57 17 -94 9 -37 22 -76 29 -87 7 -11 16
-72 20 -135 4 -63 7 -124 7 -135 0 -11 -1 -60 -2 -110 -2 -49 0 -97 4 -106 3
-9 -1 -21 -9 -28 -9 -7 -23 -40 -32 -73 -11 -39 -25 -65 -41 -75 -19 -13 -31
-13 -69 -4 -26 7 -64 21 -84 31 -21 11 -40 26 -43 35 -4 8 -13 15 -20 15 -8 0
-26 9 -41 21 -14 11 -30 18 -35 15 -4 -3 -42 31 -82 76 -41 45 -84 92 -96 106
-13 14 -23 33 -23 43 0 10 -4 21 -10 24 -5 3 -10 19 -10 35 0 18 -8 34 -21 43
-13 9 -25 37 -34 73 -7 33 -17 67 -20 76 -5 12 5 28 29 53 32 32 39 35 76 29
26 -4 45 -2 55 6 9 8 15 30 15 57 0 37 -5 50 -30 73 -16 15 -30 32 -30 38 0 5
19 25 43 45 24 19 59 42 79 50 19 8 39 20 43 27 4 7 15 9 29 4 11 -4 47 -7 79
-6z m-597 -309 c10 -21 16 -58 16 -113 1 -44 6 -87 12 -95 6 -8 11 -31 12 -52
0 -24 8 -47 20 -61 12 -13 28 -44 38 -69 9 -26 26 -55 36 -64 11 -10 20 -22
20 -28 0 -5 13 -24 29 -43 16 -18 35 -48 41 -66 7 -19 26 -42 42 -51 15 -9 32
-25 36 -35 4 -11 30 -37 57 -59 42 -33 54 -38 72 -30 17 7 34 4 70 -13 26 -12
71 -37 99 -57 29 -19 69 -37 92 -40 33 -4 42 -10 47 -30 3 -14 3 -45 -1 -69
-3 -24 -12 -49 -20 -55 -8 -6 -14 -22 -14 -36 0 -13 -10 -43 -22 -66 -12 -23
-25 -49 -30 -57 -4 -8 -14 -26 -20 -40 -7 -14 -20 -36 -30 -49 -10 -13 -18
-31 -18 -41 0 -9 -14 -35 -31 -56 -17 -22 -37 -52 -44 -69 -7 -16 -30 -47 -51
-68 -21 -21 -49 -40 -63 -43 -15 -2 -43 -14 -64 -25 -29 -15 -42 -18 -52 -9
-9 8 -19 8 -32 1 -10 -5 -39 -16 -65 -25 -45 -14 -48 -13 -79 10 -23 17 -46
24 -77 24 -32 0 -52 7 -74 25 -16 13 -46 29 -66 35 -21 6 -60 31 -89 60 -29
27 -53 56 -53 64 0 8 -6 19 -14 23 -7 4 -21 22 -30 40 -9 18 -22 36 -28 40 -7
4 -19 18 -25 30 -7 13 -13 29 -13 36 0 7 -14 35 -31 61 -23 37 -29 55 -24 77
4 19 -3 49 -26 101 -31 71 -32 76 -30 206 1 74 6 157 11 184 6 28 10 67 10 88
0 26 7 43 25 60 14 13 25 32 25 43 0 11 5 38 12 61 7 22 20 47 30 54 10 7 18
19 18 26 0 7 13 30 30 52 17 23 30 51 30 69 0 26 6 33 36 44 25 9 40 23 49 45
8 18 21 38 29 45 10 8 29 11 54 6 30 -5 43 -2 63 14 13 11 27 20 31 21 4 0 15
-14 24 -31z m5438 -675 c11 -4 16 -19 16 -44 0 -25 -10 -53 -27 -79 -15 -23
-32 -41 -39 -41 -7 0 -22 9 -33 21 -15 16 -18 30 -14 62 3 23 8 45 12 49 3 4
20 14 36 22 17 9 31 16 32 16 1 0 8 -3 17 -6z"/>
</g>
</svg>
