<?xml version="1.0" standalone="no"?>
<!DOCTYPE svg PUBLIC "-//W3C//DTD SVG 20010904//EN"
 "http://www.w3.org/TR/2001/REC-SVG-20010904/DTD/svg10.dtd">
<svg version="1.0" xmlns="http://www.w3.org/2000/svg"
 width="468pt" height="78pt" viewBox="0 0 468 78"
 preserveAspectRatio="xMidYMid meet">
<metadata>
Created by POTRACE VERSION, written by Peter Selinger 2001-2007
</metadata>
<g transform="translate(0,78) scale(0.015082,-0.015082)"
fill="#000000" stroke="none">
<path d="M6565 5118 c-3 -8 -22 -14 -46 -14 -22 -1 -45 -6 -51 -12 -8 -8 -8
-15 0 -24 8 -10 -2 -21 -44 -48 -30 -19 -57 -44 -60 -55 -3 -11 -24 -35 -48
-53 -23 -19 -51 -47 -61 -63 -11 -16 -25 -29 -31 -29 -6 0 -19 -16 -30 -35
-10 -19 -27 -38 -36 -41 -10 -3 -18 -9 -18 -13 0 -5 -12 -22 -27 -38 -16 -17
-48 -54 -73 -83 -25 -29 -55 -63 -67 -77 -12 -13 -20 -30 -17 -38 4 -9 -1 -18
-11 -21 -9 -4 -14 -13 -11 -20 3 -8 -1 -14 -11 -14 -8 0 -40 -26 -69 -57 -30
-31 -54 -62 -54 -69 0 -8 -12 -27 -27 -43 -16 -17 -37 -42 -48 -56 -11 -14
-28 -36 -38 -48 -10 -12 -16 -30 -13 -40 3 -13 -1 -21 -14 -24 -11 -3 -22 -14
-25 -24 -4 -10 -13 -19 -21 -19 -8 0 -12 -5 -9 -10 3 -6 3 -19 0 -30 -4 -11
-12 -20 -18 -20 -7 0 -20 -18 -30 -40 -9 -22 -20 -39 -24 -39 -5 1 -15 1 -24
0 -9 0 -25 -18 -34 -38 -10 -21 -27 -47 -39 -59 -12 -11 -29 -24 -39 -27 -11
-4 -21 -16 -24 -26 -3 -11 -11 -22 -19 -25 -8 -3 -14 -15 -14 -26 0 -12 -5
-18 -10 -15 -6 3 -13 -1 -16 -9 -3 -9 -14 -16 -24 -16 -10 0 -20 -9 -23 -20
-3 -11 -12 -20 -21 -20 -9 0 -16 -7 -16 -15 0 -8 -27 -36 -59 -62 -33 -26 -60
-55 -61 -63 0 -8 -6 -22 -13 -31 -7 -9 -24 -19 -39 -23 -18 -4 -28 -13 -28
-24 0 -10 -10 -28 -23 -40 -13 -12 -28 -22 -33 -22 -6 0 -24 -15 -42 -33 -18
-18 -32 -38 -32 -45 0 -7 -8 -12 -17 -12 -10 0 -31 -18 -47 -40 -17 -22 -36
-40 -43 -40 -7 0 -13 -6 -13 -13 0 -7 -20 -28 -44 -46 -24 -18 -49 -44 -57
-57 -7 -13 -18 -24 -24 -24 -6 0 -26 -16 -43 -36 -27 -30 -30 -39 -20 -51 10
-13 9 -15 -7 -11 -14 3 -35 -11 -67 -45 -27 -26 -48 -46 -48 -43 0 3 -15 -2
-32 -12 -18 -10 -37 -28 -43 -40 -5 -12 -15 -22 -22 -22 -7 0 -13 -6 -13 -14
0 -8 -9 -18 -20 -21 -12 -4 -19 -14 -18 -23 2 -11 -5 -18 -19 -20 -13 -2 -23
-8 -23 -13 0 -5 -7 -9 -15 -9 -8 0 -15 -6 -15 -12 0 -7 -16 -25 -34 -40 -19
-16 -40 -28 -47 -28 -7 0 -9 -3 -6 -6 3 -4 -3 -18 -14 -33 -15 -18 -30 -26
-52 -26 -28 0 -33 -5 -43 -40 -7 -25 -13 -34 -17 -25 -4 12 -6 12 -6 -2 -1 -9
-10 -20 -21 -23 -11 -3 -23 -17 -26 -30 -3 -13 -12 -26 -20 -29 -8 -3 -14 -12
-14 -19 0 -8 -13 -20 -29 -27 -16 -6 -32 -18 -35 -26 -3 -8 -15 -14 -26 -14
-17 0 -20 -4 -15 -22 7 -23 7 -23 -9 -3 -8 11 -16 15 -16 8 0 -6 -18 -30 -40
-52 -32 -34 -44 -40 -65 -35 -23 6 -25 4 -25 -30 0 -25 -4 -36 -15 -36 -9 0
-15 -10 -15 -26 0 -16 -4 -23 -11 -18 -6 3 -14 2 -18 -4 -4 -7 -27 -22 -51
-35 -25 -13 -51 -34 -57 -48 -7 -13 -13 -18 -13 -10 0 7 -19 -7 -42 -32 -24
-24 -57 -52 -75 -61 -17 -8 -34 -25 -38 -36 -3 -11 -16 -25 -28 -32 -12 -7
-25 -11 -29 -10 -4 1 -10 -9 -14 -23 -3 -14 -10 -25 -16 -25 -5 0 -6 -9 -3
-20 3 -11 2 -20 -3 -20 -6 0 -13 8 -16 17 -5 12 -9 14 -18 5 -9 -9 -9 -15 0
-24 7 -7 12 -15 12 -19 0 -4 -13 -6 -29 -4 -19 3 -31 -1 -35 -11 -3 -8 -17
-14 -31 -14 -14 0 -25 -4 -25 -9 0 -6 5 -13 10 -16 6 -4 8 -11 4 -16 -3 -6
-12 -8 -20 -5 -8 3 -14 -1 -14 -9 0 -8 -4 -15 -9 -15 -5 0 -7 -10 -4 -21 5
-18 3 -20 -16 -14 -12 4 -21 2 -21 -4 0 -6 -7 -11 -15 -11 -9 0 -18 -7 -21
-15 -4 -8 -14 -15 -24 -15 -11 0 -20 -10 -24 -25 -5 -20 -13 -25 -36 -25 -24
0 -30 4 -30 23 0 18 -2 19 -10 7 -5 -8 -10 -10 -10 -5 0 6 -7 1 -15 -9 -8 -11
-15 -35 -15 -54 0 -25 -5 -35 -20 -39 -11 -3 -20 -9 -20 -14 0 -5 -9 -9 -19
-9 -11 0 -23 -9 -26 -20 -3 -11 -11 -20 -16 -20 -5 0 -9 9 -9 20 0 11 -4 20
-10 20 -5 0 -10 -6 -10 -13 0 -7 5 -18 12 -25 8 -8 5 -16 -13 -31 -13 -11 -31
-20 -40 -21 -9 0 -23 -7 -30 -17 -8 -9 -13 -19 -12 -22 2 -3 -11 -10 -27 -16
-16 -5 -48 -29 -70 -52 -22 -24 -44 -43 -48 -43 -4 0 -18 -10 -32 -23 -14 -13
-31 -22 -38 -19 -6 2 -17 -8 -23 -22 -7 -14 -20 -26 -31 -26 -10 0 -23 -9 -30
-20 -7 -11 -19 -20 -26 -20 -7 0 -15 -7 -18 -15 -4 -8 -17 -15 -31 -15 -15 0
-51 -21 -91 -52 -36 -29 -75 -58 -86 -65 -12 -6 -36 -19 -54 -29 -29 -15 -35
-15 -43 -3 -6 10 -9 8 -9 -11 0 -14 -4 -30 -8 -35 -4 -6 -27 -17 -51 -25 -24
-8 -48 -22 -55 -32 -6 -10 -19 -18 -28 -18 -9 0 -21 -6 -25 -13 -4 -8 -27 -22
-50 -32 -24 -11 -43 -22 -43 -27 0 -4 -9 -8 -19 -8 -11 0 -23 -4 -26 -10 -3
-5 -15 -10 -26 -10 -10 0 -19 -4 -19 -10 0 -5 -17 -18 -37 -28 -21 -10 -47
-23 -58 -29 -11 -6 -55 -28 -97 -47 -43 -20 -81 -36 -85 -36 -5 0 -14 -9 -21
-20 -7 -11 -23 -20 -35 -20 -13 0 -45 -17 -71 -37 -42 -33 -50 -35 -69 -24
-17 11 -22 11 -31 0 -6 -8 -21 -20 -34 -27 -12 -6 -33 -12 -46 -12 -14 0 -27
-4 -31 -9 -3 -5 -21 -7 -40 -4 -24 4 -35 2 -35 -7 0 -8 -8 -10 -25 -6 -13 3
-44 1 -68 -6 -24 -6 -50 -8 -58 -5 -8 4 -25 15 -38 24 -24 17 -24 17 -19 -4 4
-16 1 -22 -16 -25 -12 -3 -31 -1 -42 3 -10 4 -42 8 -71 8 -33 1 -66 9 -88 21
-20 11 -47 20 -60 20 -14 0 -30 9 -37 20 -7 11 -21 20 -30 20 -10 0 -18 5 -18
10 0 6 -8 10 -17 10 -10 0 -26 6 -35 14 -11 8 -15 20 -11 37 5 20 3 22 -8 12
-10 -10 -16 -9 -31 4 -10 9 -18 24 -18 33 0 10 -8 21 -17 25 -16 6 -16 8 3 23
12 9 24 28 27 41 4 14 1 31 -5 38 -8 10 -14 11 -25 1 -11 -9 -15 -7 -20 12 -6
21 -7 21 -18 6 -12 -15 -13 -15 -20 1 -4 10 -9 27 -11 38 -1 11 -6 52 -10 90
-4 39 -6 84 -6 100 0 17 4 47 7 67 4 21 11 35 16 32 5 -3 9 0 9 6 0 5 -5 19
-12 29 -9 15 -8 22 5 36 9 9 17 19 17 23 0 4 -14 8 -30 9 -17 1 -28 -2 -25 -7
3 -5 0 -12 -6 -16 -6 -3 -16 0 -21 7 -7 10 -8 8 -5 -9 5 -20 2 -23 -14 -19
-13 4 -19 0 -19 -12 0 -9 -4 -21 -10 -27 -5 -5 -11 -39 -14 -74 -3 -36 -5 -65
-6 -65 -1 0 -3 -8 -5 -18 -2 -10 -6 -25 -9 -33 -3 -9 -10 -12 -16 -9 -5 3 -10
-3 -10 -13 0 -11 7 -23 16 -26 10 -4 13 -13 9 -25 -3 -11 -1 -22 5 -26 6 -3 8
-10 5 -15 -3 -5 -1 -11 5 -15 5 -3 10 -25 10 -48 0 -23 8 -65 19 -92 10 -28
28 -72 40 -98 11 -27 21 -55 21 -63 0 -8 8 -23 18 -33 9 -11 23 -26 30 -35 6
-8 12 -19 12 -25 0 -5 16 -23 35 -39 19 -17 50 -38 69 -47 19 -9 36 -25 39
-35 3 -14 13 -17 38 -15 19 1 39 -1 44 -5 6 -4 28 -11 50 -15 22 -4 76 -9 120
-12 44 -2 85 -5 90 -5 6 0 35 5 65 12 30 6 84 13 120 16 36 3 72 11 80 18 8 7
42 21 75 31 33 10 64 21 70 26 5 5 17 9 27 9 10 0 18 5 18 11 0 5 4 8 10 4 5
-3 17 -2 27 3 10 6 31 16 46 23 15 7 44 12 63 12 27 -1 34 3 34 18 0 10 5 19
11 19 6 0 24 9 39 20 16 11 35 17 44 14 9 -3 16 -2 16 3 0 5 16 15 35 23 19 8
35 17 35 21 0 5 18 13 40 19 22 6 45 8 50 5 6 -3 15 -3 21 1 8 5 8 8 0 13 -7
5 -2 12 14 21 14 7 25 20 25 28 0 9 7 13 20 9 14 -4 29 3 46 19 17 18 30 23
46 18 16 -5 20 -3 16 8 -4 10 10 21 42 36 26 12 50 29 54 37 3 9 19 15 41 15
22 0 34 4 30 10 -4 6 4 19 17 30 13 11 29 19 36 20 6 0 12 4 12 9 0 6 23 22
50 37 28 15 50 33 50 41 0 7 10 17 23 22 12 5 29 5 38 0 13 -7 18 -3 23 17 4
13 18 30 31 36 14 6 25 15 25 19 0 5 15 15 34 23 18 8 43 22 56 32 13 11 30
27 38 36 12 13 18 15 24 5 6 -9 8 -8 8 3 0 8 9 25 19 38 11 12 26 22 33 22 8
0 27 13 43 30 22 23 32 27 42 19 10 -9 13 -8 13 1 0 7 12 24 26 37 l26 24 20
-20 c10 -12 23 -21 28 -21 6 0 10 5 10 11 0 6 -7 17 -16 26 -14 14 -12 19 17
49 18 19 39 34 46 34 7 0 13 5 13 10 0 6 5 10 10 10 6 0 15 -10 20 -22 8 -22
9 -22 9 4 1 19 13 39 39 63 20 19 40 35 44 35 3 0 9 -8 11 -17 3 -13 5 -12 6
5 0 13 6 32 12 44 8 15 17 18 35 14 17 -5 24 -3 23 6 -1 7 -1 18 0 24 0 6 18
23 40 37 30 20 41 23 51 14 10 -10 12 -8 7 6 -4 12 2 25 18 39 14 12 25 28 25
35 0 7 5 13 10 13 6 0 11 -1 13 -2 2 -2 18 13 35 32 18 19 32 32 32 28 0 -3
18 12 40 34 22 22 40 44 40 48 0 4 7 14 16 21 9 8 22 14 28 14 6 0 18 5 27 10
9 6 18 19 21 30 2 12 11 20 23 20 14 0 21 8 23 26 2 17 12 31 28 38 14 6 32
11 40 11 8 0 27 14 41 31 18 21 32 29 46 25 15 -4 17 -2 8 7 -6 6 -11 15 -11
19 0 4 5 8 10 8 5 0 19 9 30 20 11 11 20 25 20 30 0 6 12 15 27 21 18 7 30 6
37 -1 5 -5 14 -10 18 -10 4 0 8 6 8 14 0 8 -5 16 -11 18 -7 2 -7 12 1 32 8 22
15 27 31 23 13 -3 27 2 37 13 9 10 44 47 77 84 33 36 66 66 73 66 7 0 33 19
57 41 25 23 45 48 45 55 0 8 8 14 18 14 9 0 26 11 36 25 10 13 22 22 27 19 5
-3 9 0 9 5 0 6 -5 11 -11 11 -5 0 -7 5 -4 11 4 5 12 8 18 6 7 -2 34 18 60 44
26 27 52 49 58 49 6 0 17 6 25 14 8 8 14 19 14 25 0 6 4 11 9 11 5 0 26 18 47
40 21 22 46 40 56 40 10 0 18 4 18 9 0 5 14 23 31 40 17 17 33 31 36 31 3 0
14 11 25 25 11 14 25 25 31 25 7 0 17 10 22 23 6 13 17 21 28 19 9 -2 17 2 17
8 0 5 -4 10 -10 10 -5 0 -10 5 -10 10 0 6 7 10 15 10 8 0 15 5 15 10 0 6 9 10
20 10 14 0 20 7 20 22 0 12 3 18 7 15 3 -4 16 5 29 18 13 14 26 25 30 25 3 0
22 16 41 35 20 20 43 41 53 48 9 7 32 33 51 58 19 25 39 44 45 42 5 -2 14 7
19 19 6 13 24 30 41 38 17 8 29 20 27 26 -2 7 20 29 49 50 29 21 58 45 64 53
7 8 10 21 7 28 -3 7 2 13 11 13 9 0 17 5 17 10 1 6 2 14 3 20 0 5 6 14 12 20
9 9 14 9 19 1 3 -6 4 -25 0 -41 -4 -17 -13 -30 -21 -30 -8 0 -14 -7 -14 -15 0
-8 -4 -15 -8 -15 -4 0 -15 -12 -24 -27 -9 -16 -30 -43 -47 -62 -17 -19 -31
-40 -31 -47 0 -7 -10 -20 -21 -28 -12 -8 -27 -25 -35 -38 -7 -13 -18 -33 -23
-45 -5 -11 -26 -34 -45 -49 -20 -16 -38 -41 -41 -56 -4 -14 -12 -32 -20 -38
-7 -6 -11 -19 -8 -29 3 -14 -3 -20 -26 -24 -17 -4 -31 -12 -31 -20 0 -7 -13
-28 -30 -47 -16 -19 -29 -43 -30 -52 0 -10 -9 -22 -20 -28 -11 -6 -20 -17 -20
-25 0 -8 -13 -24 -29 -36 -19 -14 -27 -27 -24 -40 4 -13 0 -19 -11 -19 -8 0
-22 -13 -30 -28 -8 -16 -21 -34 -29 -41 -8 -6 -13 -20 -10 -30 3 -11 -6 -27
-25 -42 -16 -14 -32 -37 -36 -52 -3 -15 -11 -24 -19 -21 -7 2 -20 -8 -28 -23
-9 -16 -14 -34 -12 -41 3 -7 -5 -24 -17 -37 -13 -14 -26 -22 -30 -20 -5 3 -10
-5 -14 -18 -3 -12 -14 -32 -25 -43 -10 -12 -21 -29 -22 -39 -2 -10 -20 -26
-39 -37 -33 -17 -34 -19 -12 -24 18 -5 20 -9 11 -20 -6 -8 -15 -11 -20 -8 -5
3 -17 -3 -28 -13 -10 -10 -22 -37 -26 -61 -4 -26 -12 -42 -21 -42 -8 0 -14 -6
-14 -13 0 -7 -9 -18 -20 -25 -11 -7 -20 -19 -20 -26 0 -8 -11 -28 -25 -44 -13
-16 -22 -32 -18 -35 3 -4 -6 -11 -21 -16 -18 -7 -26 -18 -26 -34 0 -13 -9 -33
-20 -45 -11 -12 -20 -26 -20 -31 0 -6 -11 -18 -25 -27 -14 -9 -25 -23 -25 -30
0 -8 -6 -14 -14 -14 -8 0 -18 -9 -21 -20 -4 -11 -11 -17 -17 -14 -7 5 -9 -2
-6 -20 4 -20 1 -26 -13 -26 -14 0 -19 -7 -19 -29 0 -17 -6 -31 -15 -35 -8 -3
-20 -17 -25 -31 -5 -14 -14 -25 -20 -25 -5 0 -10 -7 -10 -16 0 -8 4 -12 10 -9
6 3 7 -1 4 -10 -4 -8 -17 -18 -30 -21 -15 -4 -25 -16 -30 -37 -4 -18 -16 -40
-28 -50 -11 -10 -21 -23 -21 -27 0 -5 -9 -17 -20 -27 -11 -11 -28 -22 -38 -26
-10 -4 -17 -13 -14 -20 2 -6 9 -11 15 -10 5 1 8 -7 5 -18 -3 -11 -13 -24 -23
-29 -10 -5 -20 -20 -24 -34 -3 -13 -17 -31 -31 -40 -15 -10 -25 -26 -25 -41 0
-15 -9 -29 -22 -36 -13 -7 -26 -17 -30 -23 -4 -6 -5 -21 -1 -33 4 -18 -6 -34
-43 -73 -27 -28 -57 -60 -67 -71 -10 -11 -15 -24 -12 -29 4 -6 -7 -22 -24 -36
-17 -14 -31 -32 -31 -40 0 -7 -9 -18 -21 -24 -11 -7 -28 -19 -37 -29 -9 -10
-22 -26 -28 -37 -7 -10 -19 -18 -29 -17 -13 1 -16 -6 -13 -35 3 -32 0 -37 -19
-40 -12 -2 -27 -9 -33 -17 -6 -8 -17 -12 -24 -9 -8 3 -11 -6 -8 -31 3 -25 0
-35 -9 -35 -8 -1 -26 -20 -41 -44 -16 -24 -28 -48 -28 -54 0 -5 -8 -12 -18
-14 -10 -3 -24 -23 -32 -49 -8 -24 -17 -46 -20 -49 -3 -3 -14 -18 -24 -35 -11
-16 -25 -34 -33 -38 -7 -4 -13 -16 -13 -26 0 -10 -7 -24 -15 -31 -8 -7 -15
-19 -15 -26 0 -9 12 -14 34 -14 19 0 38 -4 41 -10 3 -5 17 -10 31 -10 17 0 24
5 24 19 0 11 5 23 10 26 6 3 10 1 10 -6 0 -8 4 -8 15 1 13 11 13 15 3 21 -9 6
-2 19 27 49 21 22 48 40 60 41 11 0 14 3 8 6 -9 3 -7 16 10 46 12 23 27 45 34
50 6 4 26 32 43 63 22 38 37 54 47 50 11 -4 13 -1 8 14 -4 11 1 32 12 50 9 16
21 30 25 30 4 0 8 7 8 15 0 8 9 19 20 25 11 6 20 15 20 20 0 6 13 24 29 40 15
17 31 30 35 30 4 0 4 -10 1 -21 -5 -16 -3 -20 6 -17 9 3 13 17 11 36 -2 16 4
47 13 68 8 20 24 47 35 58 11 12 37 40 57 64 21 23 48 55 60 70 12 15 37 44
54 65 18 20 39 37 46 37 7 0 13 7 13 15 0 9 7 18 15 21 8 4 15 12 15 19 0 7
16 23 35 35 19 12 35 28 35 36 0 8 7 14 15 14 8 0 19 9 25 20 6 11 16 17 25
14 10 -4 15 0 15 11 0 10 8 24 18 31 9 7 25 14 34 14 9 0 20 9 23 20 3 11 15
20 25 20 10 0 25 11 34 25 9 14 23 25 31 25 8 0 15 5 15 10 0 6 9 20 20 32 11
12 20 18 21 12 1 -5 4 1 7 14 4 13 9 22 12 20 3 -2 25 12 48 30 26 21 49 32
58 28 11 -4 15 -2 11 8 -3 8 4 21 16 29 12 8 37 29 54 46 18 17 37 31 43 31 5
0 10 -5 10 -11 0 -5 5 -7 10 -4 6 4 8 9 6 13 -2 4 13 16 35 26 23 12 39 26 39
37 0 9 -6 20 -12 22 -7 3 3 5 23 5 31 -1 43 5 70 37 19 21 50 45 69 52 19 8
43 22 52 30 9 8 34 15 55 15 21 0 32 3 26 5 -7 3 -13 11 -13 19 0 8 11 19 25
24 14 5 25 14 25 20 0 5 7 10 15 10 8 0 31 8 51 17 33 16 37 16 48 1 8 -10 17
-13 25 -8 8 4 11 14 9 21 -3 8 10 20 34 31 21 9 38 22 38 28 0 5 11 10 24 10
13 0 29 7 36 15 7 8 20 15 30 15 9 0 32 7 51 16 19 9 44 26 56 37 20 18 23 18
29 3 3 -9 10 -16 15 -16 5 0 9 7 9 15 0 11 11 15 36 15 20 0 55 5 76 12 36 11
42 10 57 -9 9 -12 31 -24 48 -28 18 -3 36 -11 39 -17 4 -5 8 -31 10 -57 2 -25
-2 -62 -8 -81 -6 -19 -20 -61 -31 -93 -12 -34 -16 -61 -11 -66 5 -5 23 -12 40
-16 28 -5 35 -2 55 27 13 18 27 36 32 39 5 4 6 16 2 28 -4 14 -1 29 8 39 8 9
20 34 27 55 6 21 9 49 6 62 -3 13 -2 27 4 30 7 4 7 12 0 25 -5 10 -10 32 -10
49 0 16 -7 37 -15 45 -12 12 -14 20 -5 36 8 15 8 20 -3 20 -7 0 -35 20 -61 45
-27 25 -52 43 -56 40 -4 -3 -22 0 -40 6 -24 9 -42 9 -71 0 -21 -7 -39 -15 -39
-20 0 -5 -11 -6 -24 -4 -14 3 -39 -3 -58 -13 -18 -11 -38 -25 -44 -33 -6 -8
-17 -12 -25 -9 -7 2 -24 -8 -37 -24 -13 -15 -32 -28 -42 -28 -10 0 -26 -7 -35
-16 -15 -15 -17 -15 -34 0 -13 12 -21 14 -26 7 -3 -6 -3 -16 1 -23 5 -8 2 -9
-11 -4 -11 4 -25 0 -37 -11 -11 -10 -35 -18 -57 -18 -31 0 -37 -3 -37 -19 1
-14 -11 -26 -34 -38 -19 -9 -45 -17 -58 -18 -14 0 -27 -9 -34 -25 -7 -16 -22
-27 -45 -31 -18 -3 -37 -11 -41 -18 -4 -6 -19 -17 -35 -25 -15 -8 -44 -30 -65
-48 -20 -18 -41 -33 -45 -33 -5 0 -5 -4 -2 -10 3 -5 -3 -10 -14 -10 -14 0 -21
-6 -21 -19 0 -14 -5 -18 -21 -14 -12 4 -27 -2 -38 -13 -10 -11 -30 -29 -45
-42 -15 -12 -32 -20 -37 -16 -6 3 -31 -15 -55 -42 -24 -26 -44 -51 -44 -56 0
-4 -8 -8 -19 -8 -10 0 -41 -20 -67 -45 -27 -25 -52 -45 -56 -45 -5 0 -8 -6 -8
-13 0 -7 -10 -17 -22 -22 -13 -6 -28 -21 -35 -35 -7 -14 -13 -22 -13 -18 0 4
-16 -4 -36 -17 -20 -14 -41 -25 -47 -25 -5 0 -16 8 -24 17 -13 16 -13 15 -8
-13 5 -28 2 -33 -44 -63 -37 -23 -55 -30 -67 -23 -14 8 -12 10 10 16 16 4 26
13 26 25 0 10 6 21 14 24 7 3 24 27 36 53 13 26 37 61 55 79 17 18 29 38 27
44 -2 6 3 11 12 11 9 0 21 20 32 55 15 46 21 55 38 53 13 -2 20 2 18 10 -1 7
7 22 18 34 11 12 20 32 20 45 0 14 4 21 10 18 6 -3 10 0 10 8 0 8 10 25 23 38
12 13 28 37 35 52 7 16 20 31 30 34 9 2 26 23 37 46 11 23 28 51 38 61 9 11
15 27 12 37 -4 11 1 18 15 22 13 3 18 11 14 20 -3 10 3 20 18 28 13 7 25 13
28 13 2 1 3 9 2 19 -2 12 4 20 17 24 12 3 22 17 26 33 3 16 22 44 41 64 19 19
34 40 34 46 0 5 5 10 10 10 6 0 10 8 10 19 0 10 7 24 16 32 8 7 25 31 36 53
11 23 27 48 35 56 7 8 26 29 42 46 15 17 36 53 47 80 10 27 35 65 56 85 21 20
38 40 38 44 0 4 13 24 30 44 16 20 36 44 45 54 8 9 15 26 15 37 0 11 7 23 15
26 8 4 15 12 15 19 0 7 11 20 25 29 14 9 25 25 25 35 0 10 7 21 15 25 8 3 15
13 15 21 0 9 5 13 10 10 6 -3 10 3 10 14 0 12 7 21 15 21 8 0 15 8 15 18 0 11
8 26 18 35 10 10 22 14 25 10 4 -3 7 5 7 18 0 13 12 35 26 48 14 13 23 30 20
38 -3 7 1 13 9 13 8 0 15 6 15 13 0 6 16 25 35 40 19 15 35 33 35 39 0 6 14
26 30 45 17 18 30 38 30 43 0 6 9 19 20 30 11 11 20 27 20 35 0 8 7 15 15 15
8 0 15 6 15 13 0 8 11 24 25 37 14 13 25 29 25 37 0 7 9 13 20 13 18 0 19 3
10 21 -7 11 -10 22 -8 24 2 1 14 8 26 14 13 7 22 15 19 17 -2 3 13 24 34 47
22 23 39 49 39 57 0 8 20 40 45 70 25 30 48 54 53 53 4 -1 17 18 30 42 12 25
26 45 31 45 5 0 19 16 30 36 12 20 35 41 51 47 17 6 30 17 30 25 0 7 23 36 52
64 30 29 47 53 40 56 -9 3 -8 7 2 18 8 8 22 11 32 7 13 -5 16 -3 11 9 -3 10 0
19 9 22 8 3 14 12 14 20 0 7 7 17 16 20 9 3 20 4 25 0 5 -3 9 2 9 11 0 9 5 13
10 10 7 -4 9 2 5 17 -4 16 -1 29 11 38 9 8 24 14 33 15 10 0 41 27 70 60 29
33 59 64 67 68 8 4 14 14 14 20 0 7 13 21 30 30 16 10 37 33 46 52 9 19 20 35
24 35 4 0 20 13 36 30 16 16 39 40 51 54 12 13 25 25 30 27 5 2 27 30 50 62
23 32 53 67 67 78 18 14 25 27 21 39 -4 13 0 20 15 25 13 4 20 15 20 31 0 13
3 23 8 23 4 -1 12 -1 18 0 6 0 14 18 17 38 4 22 2 42 -6 51 -6 8 -12 22 -12
30 0 8 -6 17 -12 19 -7 3 -15 -1 -18 -9z m-3683 -3650 c-7 -7 -12 -8 -12 -2 0
6 3 14 7 17 3 4 9 5 12 2 2 -3 -1 -11 -7 -17z"/>
<path d="M24690 4315 c0 -8 -9 -15 -19 -15 -11 0 -21 -6 -24 -12 -3 -9 -29
-13 -92 -11 -73 1 -91 -2 -101 -15 -10 -13 -17 -15 -31 -6 -10 6 -54 9 -105 7
-47 -1 -97 -7 -110 -11 -12 -5 -76 -7 -140 -6 -69 2 -120 -1 -123 -6 -4 -6
-17 -7 -30 -4 -12 3 -26 1 -30 -6 -5 -8 -12 -7 -25 5 -15 14 -18 14 -30 0 -9
-11 -16 -12 -26 -4 -9 7 -19 7 -30 1 -11 -6 -27 -6 -45 0 -18 6 -34 6 -46 0
-10 -6 -45 -8 -77 -6 -34 2 -65 -1 -72 -7 -7 -6 -21 -9 -31 -7 -10 1 -23 -1
-30 -5 -6 -4 -22 -3 -35 2 -12 4 -43 7 -68 5 -25 -2 -69 -9 -99 -15 -30 -6
-93 -9 -140 -6 -47 2 -101 0 -119 -5 -19 -5 -45 -20 -58 -33 -22 -22 -26 -23
-53 -9 -23 11 -39 12 -82 4 -30 -6 -63 -15 -74 -20 -11 -5 -27 -9 -35 -8 -8 2
-40 -1 -70 -6 -30 -5 -59 -11 -64 -14 -6 -3 -42 -7 -80 -8 -39 -1 -107 -5
-151 -8 -44 -4 -103 -11 -131 -17 -27 -5 -63 -9 -80 -9 -16 1 -56 -1 -89 -4
-33 -2 -84 -9 -113 -15 -30 -6 -57 -13 -61 -16 -5 -2 -35 -7 -67 -11 -33 -4
-82 -6 -109 -5 -32 1 -64 -6 -87 -18 -21 -10 -48 -16 -61 -14 -13 3 -43 -1
-68 -8 -24 -7 -53 -13 -64 -15 -11 -1 -101 -5 -200 -9 -99 -3 -235 -7 -301 -9
-75 -3 -131 -9 -145 -17 -13 -7 -26 -14 -29 -14 -3 -1 -14 -4 -26 -8 -11 -4
-28 -22 -36 -41 -16 -33 -16 -34 12 -65 16 -17 35 -31 42 -31 7 0 25 -7 41
-15 21 -11 34 -11 58 -3 16 6 48 8 70 4 24 -4 39 -2 39 4 0 6 10 8 23 5 12 -3
31 -6 42 -7 11 0 92 5 180 12 88 7 178 18 200 26 28 9 41 10 46 2 4 -6 12 -7
20 -2 7 4 22 9 34 10 11 1 52 8 90 14 39 7 86 12 106 11 20 -1 48 3 63 8 14 6
72 13 127 16 56 3 107 9 113 14 6 5 22 9 36 9 14 0 93 3 175 7 83 3 167 11
187 16 21 5 53 6 75 1 21 -5 55 -7 76 -4 21 2 41 10 44 17 3 9 33 16 81 20 42
4 88 13 102 20 14 6 44 10 68 7 25 -2 48 1 57 8 9 7 32 14 53 15 20 2 84 6
142 9 58 4 194 8 302 10 108 2 202 7 208 11 6 4 72 8 148 9 76 2 151 -1 169
-7 24 -8 38 -7 57 2 17 9 29 10 42 3 10 -6 27 -7 40 -2 12 5 53 12 90 15 38 4
107 9 154 11 47 2 96 5 110 7 14 2 31 6 37 10 5 4 47 5 91 3 44 -2 84 -1 87 3
4 3 32 7 63 8 32 1 66 2 77 3 11 0 38 -3 61 -6 22 -3 58 -1 79 5 22 6 42 7 45
2 3 -4 14 -5 25 -1 10 4 32 2 47 -4 15 -6 28 -14 28 -18 0 -4 -9 -13 -21 -21
-20 -14 -20 -16 -2 -25 17 -10 17 -11 -2 -30 -11 -11 -57 -58 -102 -105 -46
-47 -83 -92 -83 -101 0 -9 -11 -18 -25 -22 -18 -4 -25 -13 -25 -30 0 -13 4
-24 9 -24 6 0 13 5 16 10 3 6 20 10 37 10 20 0 39 9 58 30 15 17 38 30 49 30
13 0 26 10 33 24 6 14 24 30 39 37 16 6 29 15 29 19 0 4 11 19 25 34 13 14 29
26 34 26 5 0 23 17 38 37 15 21 43 54 61 73 18 19 36 47 39 62 3 16 18 38 34
49 27 19 28 24 25 80 -2 40 -8 66 -20 77 -13 14 -39 18 -129 20 -62 1 -161 2
-222 3 -60 0 -133 -4 -161 -9 -28 -4 -56 -6 -62 -4 -6 2 -8 10 -5 18 3 8 0 14
-6 14 -6 0 -11 -7 -11 -15z m240 -115 c0 -5 -4 -10 -10 -10 -5 0 -10 5 -10 10
0 6 5 10 10 10 6 0 10 -4 10 -10z m-1125 -30 c3 -5 -1 -10 -9 -10 -9 0 -16 5
-16 10 0 6 4 10 9 10 6 0 13 -4 16 -10z m315 -10 c0 -5 -2 -10 -4 -10 -3 0 -8
5 -11 10 -3 6 -1 10 4 10 6 0 11 -4 11 -10z m245 -10 c3 -5 1 -10 -4 -10 -6 0
-11 5 -11 10 0 6 2 10 4 10 3 0 8 -4 11 -10z m-925 -30 c0 -5 -4 -10 -10 -10
-5 0 -10 5 -10 10 0 6 5 10 10 10 6 0 10 -4 10 -10z"/>
<path d="M22150 3611 c-8 -4 -24 -13 -35 -18 -11 -6 -19 -18 -17 -28 2 -9 -7
-25 -20 -34 -13 -8 -26 -15 -30 -13 -5 1 -8 -4 -8 -12 0 -8 -13 -23 -30 -33
-16 -9 -30 -23 -30 -29 0 -7 -16 -21 -35 -33 -19 -11 -39 -31 -44 -43 -5 -13
-17 -31 -27 -40 -11 -9 -23 -17 -29 -17 -5 -1 -23 -11 -40 -23 -16 -13 -33
-22 -37 -20 -5 1 -9 -4 -9 -10 -1 -7 -1 -19 0 -25 1 -7 -3 -13 -9 -13 -5 0
-10 -9 -10 -20 0 -11 -5 -20 -11 -20 -6 0 -25 -12 -44 -26 -18 -14 -38 -38
-43 -54 -6 -15 -17 -27 -25 -27 -7 1 -30 -17 -49 -40 -20 -23 -38 -40 -41 -37
-3 3 -8 -4 -12 -15 -3 -12 -11 -21 -16 -21 -5 0 -9 5 -9 11 0 6 -5 5 -13 -3
-7 -7 -13 -26 -13 -42 1 -24 -4 -31 -29 -38 -16 -5 -39 -11 -50 -12 -11 -2
-23 -4 -27 -5 -5 0 -8 -11 -8 -23 0 -13 -7 -31 -14 -40 -7 -10 -17 -18 -22
-18 -5 0 -18 -12 -31 -26 -12 -14 -20 -31 -17 -38 3 -7 -7 -24 -21 -39 -15
-14 -41 -27 -58 -29 -26 -2 -33 -9 -42 -38 -6 -19 -29 -54 -51 -77 -23 -24
-46 -43 -52 -43 -7 0 -12 -6 -12 -12 0 -7 -17 -28 -37 -45 -30 -25 -35 -34
-24 -42 7 -5 11 -14 7 -19 -4 -6 -12 -9 -19 -7 -7 3 -19 -10 -28 -27 -11 -23
-23 -33 -39 -33 -18 0 -26 -8 -32 -33 -7 -24 -17 -36 -38 -44 -17 -5 -30 -16
-30 -24 0 -8 -7 -17 -15 -20 -8 -4 -15 -15 -15 -26 0 -15 -6 -19 -27 -16 -24
3 -28 0 -26 -19 2 -13 -2 -23 -7 -23 -6 0 -8 -11 -4 -25 4 -15 2 -25 -5 -25
-5 0 -19 -10 -31 -22 -11 -12 -30 -23 -42 -25 -12 -2 -25 -9 -30 -16 -4 -6
-22 -16 -39 -22 -18 -6 -35 -17 -37 -25 -3 -9 1 -11 11 -7 9 3 19 2 22 -3 4
-6 0 -10 -8 -10 -8 0 -20 -18 -27 -40 -10 -31 -18 -40 -36 -40 -13 0 -28 -8
-33 -19 -6 -10 -7 -22 -3 -26 4 -5 2 -5 -5 -1 -6 3 -16 -1 -21 -10 -5 -10 -16
-15 -24 -12 -9 4 -22 -6 -34 -23 -10 -16 -27 -32 -36 -35 -10 -3 -18 -10 -18
-15 0 -5 -16 -19 -35 -30 -19 -12 -35 -26 -35 -32 0 -7 -22 -36 -48 -64 -27
-29 -53 -53 -58 -53 -5 0 -15 -13 -22 -29 -8 -18 -22 -31 -35 -33 -14 -2 -25
-14 -32 -33 -5 -16 -15 -34 -22 -38 -7 -4 -13 -17 -13 -29 0 -16 -3 -18 -13
-9 -10 8 -17 7 -25 -1 -7 -7 -12 -21 -12 -31 0 -12 -5 -17 -14 -14 -9 4 -38
-21 -78 -65 -34 -39 -62 -75 -60 -79 1 -5 -4 -9 -11 -9 -7 0 -37 -23 -67 -50
-30 -28 -64 -53 -75 -56 -11 -3 -42 -32 -70 -65 -27 -32 -55 -59 -61 -59 -6 0
-21 -9 -34 -20 -18 -15 -26 -17 -37 -9 -11 9 -13 7 -11 -12 2 -18 -6 -28 -34
-44 -25 -13 -40 -29 -44 -48 -4 -20 -10 -27 -21 -23 -9 4 -21 2 -27 -2 -6 -5
-22 -12 -36 -15 -14 -4 -43 -22 -64 -42 -22 -19 -41 -35 -43 -35 -2 0 -8 12
-14 26 -7 21 -6 31 6 44 8 9 13 19 10 22 -3 3 13 8 37 11 23 3 47 13 54 21 6
9 17 16 24 16 8 0 33 21 57 47 24 27 43 54 43 60 0 9 -13 11 -47 7 -27 -4 -53
-11 -58 -18 -6 -6 -21 -17 -34 -24 -14 -8 -34 -11 -54 -6 -18 4 -38 15 -45 25
-7 10 -22 24 -33 30 -17 9 -30 6 -65 -13 -42 -22 -44 -25 -44 -68 0 -34 5 -48
20 -58 17 -11 19 -19 14 -74 -4 -35 -10 -67 -15 -72 -5 -6 -9 -19 -9 -30 0
-12 9 -32 19 -45 10 -13 27 -25 38 -26 11 0 32 -11 48 -23 15 -12 31 -22 35
-22 4 0 18 11 32 23 14 13 31 34 37 46 7 12 16 19 20 17 5 -3 31 6 59 20 28
14 63 41 77 60 15 20 46 44 69 54 22 10 61 39 86 64 25 25 50 45 55 46 6 0 32
23 57 50 26 28 50 50 54 50 5 0 41 34 81 75 39 41 77 75 82 75 6 0 11 6 11 13
0 7 24 37 54 65 30 29 59 52 64 52 6 0 13 8 17 19 3 10 19 30 35 45 17 14 30
33 30 41 0 8 11 17 25 21 14 3 25 13 25 20 0 8 7 17 15 20 8 4 15 12 15 20 0
8 5 14 10 14 6 0 10 6 10 12 0 7 38 50 85 95 47 45 85 85 85 88 0 3 18 24 40
46 22 23 38 44 35 49 -3 4 6 11 19 14 13 3 38 19 55 35 17 16 31 33 31 38 1 4
15 17 33 28 17 11 42 39 55 63 13 23 30 42 38 42 7 0 26 18 40 40 15 22 34 40
44 40 9 0 24 8 33 18 10 10 17 27 17 36 0 10 9 20 20 23 11 3 20 9 20 14 0 5
11 14 24 19 17 6 27 20 31 42 5 24 15 37 33 46 15 6 32 25 38 41 7 18 25 36
48 46 20 10 36 24 36 32 0 9 27 42 60 74 33 32 60 65 60 74 0 9 9 15 23 15 12
0 27 4 34 8 6 4 15 20 18 35 4 15 16 32 26 38 11 5 19 19 19 29 0 11 6 20 14
20 8 0 16 7 20 15 3 8 12 15 21 15 8 0 15 5 15 10 0 6 11 15 25 20 14 5 25 18
25 28 0 9 10 26 23 37 12 10 23 18 25 17 1 -1 7 -2 13 -2 5 0 8 4 4 10 -3 5 0
18 7 30 7 11 18 20 24 20 7 0 15 10 19 23 4 12 7 26 6 30 -1 5 3 6 8 3 5 -3
14 1 21 9 7 8 18 15 24 15 6 0 20 14 29 30 10 17 25 30 33 30 8 0 14 5 14 10
0 6 10 26 23 45 12 19 27 33 33 31 6 -2 24 4 40 15 16 10 25 19 19 19 -5 0 3
11 18 25 15 14 27 32 27 40 0 8 14 22 30 30 17 9 36 27 42 40 6 14 15 25 19
25 4 0 40 33 81 74 40 41 87 89 104 108 17 18 41 42 55 54 13 11 31 23 41 27
9 3 19 19 23 36 4 17 11 31 16 31 5 0 9 4 9 9 0 5 -8 8 -17 7 -12 -1 -17 5
-15 17 2 9 -3 17 -10 16 -7 0 -20 -4 -28 -8z"/>
<path d="M14701 3563 c-8 -15 -13 -16 -30 -5 -12 6 -36 12 -56 12 -19 0 -50
-9 -69 -19 -19 -11 -37 -17 -40 -14 -3 4 -6 -1 -6 -10 0 -10 -8 -17 -18 -17
-10 0 -25 -9 -34 -19 -9 -10 -35 -22 -59 -26 -24 -4 -54 -14 -66 -22 -13 -9
-23 -21 -23 -29 0 -7 -10 -19 -22 -26 -13 -7 -26 -11 -30 -10 -5 1 -8 -2 -8
-8 0 -5 -6 -10 -14 -10 -7 0 -19 -7 -26 -15 -7 -9 -19 -14 -27 -11 -7 3 -20
-6 -29 -19 -9 -14 -25 -25 -35 -25 -11 0 -19 -4 -19 -10 0 -5 -7 -10 -16 -10
-9 0 -25 -12 -36 -26 -11 -14 -27 -23 -34 -20 -8 3 -14 0 -14 -8 0 -7 -11 -23
-25 -36 -14 -13 -25 -32 -25 -42 0 -14 -5 -18 -18 -14 -12 4 -26 -1 -37 -14
-10 -11 -23 -20 -30 -20 -6 0 -26 -12 -43 -26 -20 -17 -32 -36 -32 -52 0 -19
-3 -22 -13 -13 -11 8 -18 6 -32 -9 -10 -11 -23 -20 -29 -20 -7 0 -16 -13 -22
-28 -6 -16 -31 -41 -57 -58 -25 -16 -45 -36 -44 -44 1 -9 -6 -15 -16 -15 -10
0 -23 -7 -28 -16 -5 -9 -20 -20 -34 -23 -14 -4 -25 -14 -25 -23 0 -9 -3 -13
-7 -10 -3 4 -17 -3 -30 -15 -13 -12 -23 -28 -23 -35 0 -8 -13 -19 -29 -24 -16
-6 -41 -28 -55 -49 -14 -21 -34 -41 -46 -45 -11 -3 -20 -12 -20 -18 0 -7 -14
-25 -30 -40 -17 -16 -33 -40 -36 -53 -4 -15 -13 -24 -25 -24 -10 0 -19 -6 -19
-13 0 -7 -9 -18 -21 -25 -12 -7 -23 -11 -26 -9 -2 3 -13 -2 -24 -11 -10 -9
-19 -24 -19 -33 0 -9 -8 -23 -18 -32 -10 -10 -23 -17 -29 -17 -5 0 -15 -17
-21 -37 -8 -28 -20 -42 -44 -53 -18 -8 -40 -15 -48 -15 -8 0 -17 -11 -18 -25
-2 -13 -11 -30 -20 -36 -9 -7 -17 -20 -17 -30 0 -10 -8 -20 -18 -22 -11 -2
-27 -12 -36 -21 -10 -10 -15 -23 -13 -29 2 -8 -9 -12 -33 -12 -30 0 -36 -3
-33 -19 2 -12 -20 -44 -61 -87 -35 -38 -77 -77 -93 -86 -15 -10 -28 -15 -28
-11 0 4 -6 -1 -13 -12 -8 -10 -19 -15 -24 -12 -6 4 -18 -2 -28 -13 -12 -13
-31 -20 -57 -20 -26 0 -41 -5 -45 -16 -3 -9 -13 -14 -24 -11 -13 4 -24 -4 -36
-23 -9 -15 -22 -26 -29 -23 -7 2 -27 -3 -46 -12 -18 -10 -40 -24 -49 -32 -9
-7 -29 -16 -44 -19 -16 -3 -36 -9 -46 -15 -11 -5 -18 -15 -16 -21 1 -6 -12
-12 -30 -14 -17 -1 -47 -11 -67 -23 -33 -21 -35 -21 -45 -4 -6 11 -11 13 -11
5 0 -7 -25 -24 -55 -38 -31 -13 -64 -24 -75 -24 -11 0 -20 -6 -20 -14 0 -9 -7
-12 -20 -9 -14 4 -20 0 -20 -11 0 -11 -9 -16 -30 -16 -20 0 -30 -5 -30 -15 0
-9 -10 -15 -26 -15 -14 0 -23 4 -19 10 3 6 1 10 -4 10 -6 0 -11 -5 -11 -11 0
-6 -8 -18 -17 -27 -12 -12 -18 -13 -20 -5 -3 9 -10 9 -28 -3 -14 -9 -33 -12
-48 -9 -14 4 -28 2 -31 -4 -4 -6 -18 -11 -30 -11 -13 0 -29 -6 -35 -14 -7 -8
-31 -18 -54 -21 -23 -4 -48 -11 -57 -15 -8 -4 -31 -13 -51 -19 -19 -6 -44 -11
-55 -11 -11 0 -24 -4 -29 -8 -6 -4 -36 -16 -67 -27 -32 -10 -65 -26 -74 -37
-10 -10 -27 -18 -39 -18 -11 0 -26 5 -32 11 -7 7 -24 4 -57 -11 -25 -12 -46
-27 -46 -32 0 -6 -8 -7 -17 -3 -10 4 -28 7 -41 6 -12 0 -39 -9 -60 -20 -26
-13 -53 -18 -92 -16 -30 2 -61 -2 -67 -7 -7 -6 -19 -8 -27 -5 -7 3 -48 1 -91
-4 -43 -6 -86 -14 -96 -20 -10 -5 -36 -10 -58 -11 -26 -1 -48 5 -59 15 -10 10
-22 14 -25 10 -4 -3 -15 1 -24 10 -10 8 -34 18 -54 22 -19 4 -40 10 -45 13 -6
4 -22 23 -36 42 -14 19 -31 54 -37 77 -7 23 -16 45 -22 49 -7 4 -6 13 3 27 8
12 15 49 17 82 2 55 0 62 -21 72 -13 6 -31 14 -41 17 -10 3 -28 -1 -41 -9 -13
-9 -28 -26 -34 -40 -8 -17 -8 -26 -1 -31 6 -3 9 -17 6 -30 -2 -14 1 -24 7 -24
8 0 8 -3 0 -8 -5 -4 -22 -44 -37 -89 -15 -45 -27 -90 -27 -100 0 -10 -7 -28
-15 -40 -9 -12 -23 -42 -32 -65 -8 -24 -21 -65 -27 -93 -10 -40 -17 -51 -35
-53 -13 -2 -26 -12 -28 -23 -3 -10 -9 -19 -13 -19 -5 0 -40 -32 -79 -71 -39
-39 -71 -79 -71 -89 0 -12 -6 -17 -17 -15 -10 1 -31 -5 -47 -14 -16 -9 -41
-26 -54 -39 -14 -12 -45 -27 -68 -33 -24 -6 -49 -17 -55 -25 -6 -8 -17 -14
-25 -14 -7 0 -19 -9 -27 -21 -12 -16 -24 -20 -56 -18 -22 2 -43 0 -47 -4 -4
-4 -21 -7 -38 -6 -17 0 -39 3 -48 7 -10 4 -17 12 -18 17 0 6 -3 17 -5 26 -3 9
1 29 10 45 8 16 15 35 15 42 0 6 4 12 8 12 5 0 21 27 35 60 15 33 31 60 36 60
5 0 11 10 15 23 3 13 17 36 30 50 14 15 31 27 39 27 8 0 17 9 20 20 3 11 12
20 21 20 9 0 16 5 16 10 0 6 11 10 25 10 17 0 23 4 19 14 -4 10 6 16 36 21 28
5 40 11 36 20 -2 7 9 22 24 34 16 11 34 21 41 21 6 0 28 17 49 38 38 38 38 39
28 85 -5 26 -13 47 -18 47 -5 0 -10 -6 -13 -12 -3 -10 -9 -10 -26 0 -11 6 -25
12 -31 12 -5 0 -10 -7 -10 -15 0 -9 -9 -15 -24 -15 -14 0 -32 -10 -40 -22 -9
-12 -16 -18 -16 -13 0 6 -6 3 -13 -5 -7 -9 -26 -22 -44 -29 -17 -7 -47 -31
-67 -53 -20 -22 -36 -44 -36 -49 0 -5 -4 -9 -10 -9 -5 0 -19 -9 -30 -20 -11
-11 -26 -20 -34 -20 -7 0 -39 -12 -70 -26 -31 -14 -56 -29 -56 -34 0 -5 -10
-10 -22 -12 -13 -2 -27 -13 -33 -25 -5 -12 -20 -26 -33 -32 -12 -6 -34 -11
-48 -11 -13 0 -34 -5 -47 -12 -12 -6 -31 -16 -42 -22 -11 -5 -47 -23 -80 -39
-33 -17 -64 -36 -68 -43 -4 -8 -15 -14 -22 -14 -8 0 -15 -6 -15 -14 0 -8 -8
-15 -17 -15 -10 0 -34 -2 -53 -4 -19 -2 -44 -8 -55 -14 -11 -6 -42 -20 -70
-31 -27 -12 -75 -29 -105 -38 -30 -9 -78 -25 -107 -35 -28 -10 -60 -15 -71
-12 -11 2 -30 -1 -43 -8 -17 -9 -24 -9 -27 0 -2 6 -7 11 -12 11 -4 0 -11 -10
-14 -23 -7 -20 -8 -21 -15 -3 -6 17 -9 17 -23 3 -9 -9 -18 -13 -21 -10 -4 3
-14 2 -24 -2 -10 -4 -31 -9 -48 -10 -16 -2 -34 0 -40 5 -5 4 -25 11 -43 15
-18 3 -37 15 -42 26 -6 10 -16 19 -23 19 -7 0 -25 11 -40 25 -15 14 -27 32
-27 40 0 8 -5 15 -12 15 -6 0 -9 3 -6 6 4 3 -1 22 -9 42 -8 20 -15 38 -14 40
0 1 1 7 1 13 0 5 -4 7 -10 4 -5 -3 -10 -4 -10 -1 0 2 8 12 18 22 11 12 17 33
17 66 0 28 5 48 11 48 6 0 16 18 23 40 6 22 16 40 22 40 5 0 9 6 8 13 -1 6 1
26 6 42 4 17 20 41 34 55 15 14 30 25 33 25 3 0 16 12 27 27 12 14 21 29 21
33 0 3 -16 3 -35 -1 -33 -6 -35 -5 -35 22 0 16 7 37 14 47 7 9 17 17 21 17 5
0 34 26 66 58 31 31 76 73 98 92 22 19 41 40 41 45 0 6 9 16 20 23 16 10 20
10 21 0 0 -9 3 -8 7 2 4 8 15 27 25 42 10 15 20 35 22 45 1 12 10 17 24 16 12
-2 24 4 27 12 4 8 12 15 18 15 7 0 19 11 26 25 7 14 17 25 22 25 5 0 22 14 38
30 16 17 32 30 35 30 4 0 13 6 21 14 7 8 23 12 34 9 14 -4 20 0 20 12 0 10 9
33 21 51 11 19 27 34 35 34 8 0 17 7 20 15 4 8 11 15 18 15 6 0 23 11 38 25
15 14 34 25 43 25 8 0 15 5 15 11 0 6 7 8 16 5 8 -3 12 -2 9 4 -3 6 1 10 9 10
10 0 16 9 16 25 0 17 5 25 18 25 10 0 31 13 47 30 15 16 31 28 34 28 3 -1 19
5 36 13 16 8 39 24 52 37 13 13 23 27 23 33 0 6 4 8 9 4 5 -3 35 3 65 12 31
10 56 23 56 28 0 6 12 16 27 23 15 6 33 12 40 12 7 0 13 5 13 10 0 6 6 10 13
8 6 -1 25 10 41 25 16 15 33 27 37 27 5 0 9 -4 9 -10 0 -5 5 -10 10 -10 6 0
10 6 10 14 0 8 13 17 30 21 16 3 50 3 75 0 30 -5 50 -3 60 5 8 7 22 10 30 6 8
-3 15 -1 15 4 0 5 -5 12 -10 15 -6 4 -8 15 -5 24 3 10 3 25 -1 34 -3 9 -24 18
-55 22 -39 6 -54 3 -68 -9 -10 -9 -33 -16 -53 -16 -20 0 -46 -9 -61 -20 -14
-11 -37 -20 -52 -20 -18 0 -29 -6 -32 -20 -4 -15 -14 -20 -39 -20 -26 0 -37
-5 -43 -21 -5 -15 -17 -22 -40 -24 -19 -2 -37 -9 -42 -16 -4 -8 -13 -14 -19
-14 -6 0 -14 -4 -18 -10 -4 -5 -20 -17 -37 -25 -16 -9 -28 -19 -25 -24 3 -4
-22 -21 -55 -37 -33 -17 -64 -32 -70 -33 -5 -1 -25 -16 -42 -33 -18 -17 -33
-34 -33 -38 0 -3 -6 -13 -14 -21 -8 -8 -22 -14 -30 -14 -9 0 -16 -4 -16 -10 0
-5 -6 -10 -14 -10 -8 0 -16 -7 -20 -15 -3 -8 -14 -15 -23 -15 -10 0 -25 -9
-33 -20 -8 -11 -19 -20 -24 -20 -5 0 -22 -13 -37 -30 -16 -16 -29 -35 -29 -42
0 -7 -13 -14 -29 -15 -17 -1 -39 -10 -50 -20 -12 -9 -21 -23 -21 -29 0 -6 -10
-14 -21 -17 -15 -4 -20 -11 -16 -21 5 -11 0 -16 -13 -16 -10 0 -22 -9 -25 -20
-5 -15 -12 -19 -27 -14 -17 5 -19 2 -16 -22 2 -22 -1 -28 -20 -30 -12 -2 -34
-11 -47 -20 -14 -9 -25 -21 -25 -26 0 -5 -6 -16 -14 -24 -8 -8 -19 -14 -25
-14 -5 0 -16 -12 -23 -27 -7 -16 -23 -29 -35 -31 -13 -2 -24 -13 -27 -28 -5
-17 -12 -24 -21 -20 -10 3 -28 -12 -52 -44 -22 -29 -43 -48 -51 -45 -9 3 -10
0 -3 -13 7 -12 3 -25 -14 -46 -15 -19 -29 -27 -39 -23 -9 4 -16 2 -16 -3 0 -6
-5 -10 -11 -10 -6 0 -31 -21 -55 -47 -24 -27 -44 -55 -44 -64 0 -9 -6 -21 -12
-27 -7 -5 -22 -12 -33 -14 -15 -2 -19 -10 -17 -27 3 -18 0 -22 -12 -18 -9 4
-27 2 -41 -3 -14 -5 -25 -16 -25 -25 0 -8 -4 -15 -9 -15 -5 0 -11 -9 -14 -20
-3 -11 -16 -24 -29 -29 -12 -5 -49 -34 -80 -64 -32 -30 -58 -60 -58 -65 0 -5
-20 -26 -46 -47 -25 -20 -48 -34 -52 -30 -4 4 -1 10 6 12 6 3 12 11 12 19 0 8
7 17 16 21 8 3 20 16 25 29 5 13 14 23 21 22 6 -2 14 5 16 16 2 10 19 33 38
51 19 18 34 43 34 54 0 12 6 21 15 21 8 0 24 8 35 17 11 10 20 23 20 30 0 7
16 30 35 50 19 20 35 40 35 44 0 3 13 20 30 37 16 17 32 42 35 55 4 12 24 34
45 47 30 18 36 27 28 37 -8 10 -3 14 22 19 23 5 28 9 18 16 -10 8 -10 11 0 15
6 2 10 9 6 14 -3 5 0 8 8 7 8 -2 14 9 16 30 2 23 8 32 22 32 10 0 21 -6 23
-12 3 -7 6 -3 6 10 1 13 5 20 11 17 6 -4 10 6 10 23 0 16 7 35 15 42 8 7 15
17 15 23 0 5 11 20 26 33 14 13 30 24 35 24 6 0 7 5 4 11 -4 5 1 19 11 30 9
10 22 19 29 19 6 0 18 15 26 33 8 17 21 32 29 33 8 1 20 2 25 3 6 1 3 6 -5 11
-10 6 -11 10 -2 10 6 0 12 6 12 13 0 7 11 27 23 45 13 17 28 28 32 24 5 -4 5
-2 2 4 -4 7 14 38 41 70 26 33 50 61 55 62 4 2 7 12 7 23 0 10 6 19 13 19 6 0
27 25 46 55 18 30 37 55 41 55 4 0 12 12 19 26 6 15 14 24 18 21 3 -4 23 17
44 46 21 29 49 68 63 87 13 19 35 46 50 59 14 14 26 30 26 37 0 6 12 22 28 33
15 12 32 25 37 29 6 4 19 24 29 44 11 21 25 38 33 38 8 0 12 4 9 9 -3 5 22 36
55 70 34 33 65 61 69 61 5 0 10 -6 12 -12 3 -9 10 -8 23 5 9 10 24 16 31 13
10 -4 14 3 14 20 0 19 4 25 15 20 8 -3 22 -3 30 0 8 4 15 13 15 21 0 8 5 11
11 7 8 -5 10 1 6 18 -5 18 -2 28 8 32 8 3 15 13 15 23 0 10 14 31 30 47 23 22
30 25 30 13 0 -9 4 -17 10 -17 5 0 7 13 3 32 -4 21 -3 29 5 24 6 -4 10 1 9 13
0 11 9 42 22 69 13 28 21 58 18 66 -4 10 -19 16 -41 16 -19 0 -41 -7 -49 -15
-8 -8 -17 -11 -20 -8 -4 3 -14 -9 -24 -27 -10 -18 -39 -60 -65 -93 -27 -33
-48 -66 -48 -72 0 -7 -20 -25 -44 -40 -35 -22 -46 -35 -48 -59 -2 -23 -9 -32
-25 -34 -15 -2 -23 -10 -23 -23 0 -12 -7 -19 -18 -19 -10 0 -35 -17 -55 -38
-20 -21 -37 -42 -37 -47 0 -4 -8 -17 -17 -27 -14 -16 -15 -21 -3 -28 10 -6 7
-10 -16 -16 -16 -4 -39 -18 -51 -31 -13 -13 -23 -28 -23 -32 0 -4 -9 -16 -20
-26 -11 -10 -20 -24 -20 -30 0 -7 -7 -18 -15 -25 -9 -7 -14 -19 -11 -27 3 -8
-2 -13 -12 -13 -9 0 -28 -14 -42 -31 -14 -18 -37 -46 -52 -64 -16 -18 -28 -42
-28 -54 0 -14 -6 -21 -20 -21 -13 0 -28 -12 -38 -30 -9 -16 -20 -30 -24 -30
-5 0 -8 -13 -8 -30 0 -23 -5 -30 -19 -30 -11 0 -23 -9 -26 -21 -4 -11 -17 -24
-31 -29 -15 -6 -22 -15 -18 -24 3 -8 -3 -23 -13 -34 -10 -10 -26 -29 -37 -42
-10 -13 -26 -40 -35 -60 -9 -21 -35 -55 -57 -76 -22 -22 -48 -51 -57 -66 -9
-15 -14 -34 -11 -42 4 -9 -2 -16 -17 -18 -12 -2 -29 -17 -39 -35 -9 -18 -20
-30 -23 -26 -4 3 -10 -3 -13 -13 -4 -10 -14 -26 -23 -35 -9 -9 -27 -31 -41
-48 -14 -18 -37 -46 -51 -62 -14 -16 -29 -25 -33 -21 -4 4 -12 -1 -17 -11 -7
-12 -17 -15 -35 -11 -14 4 -24 2 -24 -5 0 -6 7 -11 16 -11 11 0 14 -5 9 -17
-4 -10 -10 -31 -14 -48 -4 -19 -17 -35 -33 -43 -16 -7 -29 -24 -33 -42 -4 -16
-20 -41 -36 -54 -16 -14 -29 -28 -29 -33 0 -4 -9 -14 -20 -21 -11 -7 -20 -21
-20 -32 0 -11 -6 -20 -13 -20 -8 0 -20 -11 -27 -25 -7 -14 -19 -25 -27 -25 -7
0 -13 -9 -13 -20 0 -11 -11 -27 -25 -36 -14 -9 -24 -24 -23 -33 2 -9 -3 -15
-10 -13 -7 1 -20 -4 -28 -12 -7 -8 -14 -21 -14 -28 0 -7 -6 -20 -13 -29 -7 -9
-22 -19 -33 -23 -16 -5 -20 -13 -17 -30 4 -18 0 -26 -16 -31 -12 -3 -21 -11
-21 -16 0 -6 -4 -7 -10 -4 -5 3 -10 0 -10 -8 0 -8 -7 -17 -15 -21 -8 -3 -15
-12 -15 -19 0 -8 -9 -22 -20 -32 -12 -10 -19 -26 -18 -34 2 -9 -6 -21 -17 -26
-11 -6 -24 -20 -30 -32 -5 -12 -19 -26 -31 -32 -12 -5 -25 -19 -29 -30 -3 -11
-14 -22 -23 -25 -10 -3 -25 -18 -34 -33 -9 -16 -26 -38 -38 -51 -15 -16 -20
-30 -16 -47 5 -19 3 -23 -9 -19 -8 4 -25 -6 -40 -23 -14 -15 -28 -38 -31 -50
-3 -13 -10 -23 -15 -23 -5 0 -9 -11 -9 -25 0 -14 5 -25 10 -25 6 0 10 -7 10
-16 0 -8 5 -12 10 -9 6 4 17 2 25 -5 10 -9 17 -5 31 19 11 18 29 33 47 37 17
3 32 14 34 25 3 10 10 19 17 19 6 0 22 16 36 35 14 19 33 37 42 40 9 3 49 37
87 74 39 37 71 71 71 74 0 4 8 16 17 27 10 11 23 20 30 20 7 0 13 7 13 15 0 8
7 15 15 15 9 0 20 11 25 25 5 14 14 25 20 25 6 0 19 8 29 17 10 10 21 26 24
36 4 10 11 16 15 13 5 -3 15 5 22 18 7 13 23 30 37 37 17 9 23 19 19 32 -4 15
0 18 15 14 11 -3 19 0 19 7 0 6 14 24 31 39 17 15 35 27 40 27 5 0 9 6 9 13 0
6 10 17 23 23 22 10 23 8 19 -20 -3 -25 -2 -29 8 -19 7 6 13 30 13 52 0 28 4
41 13 41 8 0 14 6 14 13 0 8 17 26 37 40 34 24 37 25 49 9 8 -9 14 -23 14 -29
0 -7 -4 -13 -8 -13 -5 0 -14 -11 -20 -25 -7 -14 -12 -37 -12 -50 0 -13 -4 -27
-10 -30 -5 -3 -10 -17 -10 -31 0 -13 -4 -24 -10 -24 -5 0 -10 -9 -10 -20 0
-11 -4 -20 -10 -20 -6 0 -10 -40 -10 -99 0 -77 3 -101 15 -111 9 -7 13 -20 10
-28 -3 -8 7 -31 22 -51 15 -20 33 -40 40 -44 7 -4 13 -14 13 -22 0 -8 12 -22
27 -32 14 -9 31 -18 37 -20 6 -1 37 -9 68 -17 35 -8 81 -12 122 -9 37 3 69 10
72 14 3 5 25 9 50 9 24 0 44 5 44 10 0 6 22 10 49 10 28 0 53 5 56 10 3 6 14
10 23 10 9 0 28 6 42 13 14 7 59 24 100 38 41 13 121 47 177 76 56 28 99 54
96 57 -3 3 8 8 23 12 16 4 53 18 82 31 28 12 69 34 90 47 20 14 51 28 67 32
17 4 46 20 66 35 20 16 46 29 58 29 12 0 21 -4 21 -9 0 -6 -4 -13 -10 -16 -5
-3 -10 -17 -10 -31 0 -13 -5 -24 -11 -24 -6 0 -8 -7 -5 -17 4 -10 -2 -24 -14
-36 -16 -14 -20 -29 -18 -55 2 -20 -2 -37 -9 -39 -6 -2 -13 4 -16 14 -4 15 -5
14 -6 -4 0 -12 4 -25 10 -28 6 -4 7 -19 4 -36 -5 -22 -1 -34 19 -54 14 -14 26
-30 26 -35 0 -5 15 -13 33 -18 17 -6 42 -9 54 -8 13 1 26 5 29 9 4 4 19 7 34
7 14 0 49 7 76 16 27 9 53 21 59 25 5 5 15 9 22 9 7 0 36 11 65 25 29 14 62
31 73 38 11 6 34 21 50 33 17 12 40 24 53 28 13 4 50 30 83 58 33 27 65 61 72
75 7 16 17 23 29 20 10 -3 18 0 18 7 0 7 11 19 25 26 16 8 25 22 25 36 0 17 4
22 15 18 10 -4 18 3 25 20 5 14 14 26 20 26 5 0 10 8 10 18 0 10 14 31 31 48
17 16 44 57 61 92 16 34 31 62 32 62 1 0 26 -11 54 -25 29 -14 52 -29 52 -34
0 -5 15 -13 33 -16 17 -4 38 -12 44 -17 7 -6 37 -12 65 -15 29 -2 88 -6 132
-9 46 -2 84 0 91 6 7 6 20 8 28 4 9 -3 49 -1 88 6 40 6 78 15 84 20 7 6 14 7
17 4 3 -3 41 0 84 6 43 5 81 14 84 18 3 4 12 8 20 9 8 1 56 14 105 28 50 14
115 32 145 40 30 7 70 18 89 24 18 6 44 17 57 26 13 8 32 15 44 15 11 0 20 4
20 10 0 5 6 7 14 4 8 -3 25 0 38 7 13 7 29 12 35 11 7 -2 34 9 60 23 26 14 55
25 64 25 9 0 19 3 23 7 3 4 17 8 29 10 12 2 42 9 66 15 24 7 51 23 61 36 10
12 25 22 34 22 9 0 19 7 22 15 4 8 12 15 19 15 7 0 16 -7 19 -16 5 -12 10 -11
33 10 15 14 30 23 34 20 4 -2 10 0 14 6 3 5 26 10 51 10 24 0 44 5 44 10 0 6
8 19 18 29 9 10 35 22 57 26 21 3 57 16 80 27 22 12 42 21 45 20 3 0 13 7 23
15 9 9 17 12 17 8 0 -5 11 2 25 15 14 13 28 21 31 17 3 -3 27 5 52 18 46 24
47 24 66 5 19 -19 19 -20 -24 -60 -34 -32 -49 -40 -67 -35 -13 3 -23 1 -23 -5
0 -6 4 -9 9 -5 5 3 12 1 16 -5 3 -6 -7 -24 -24 -41 -18 -17 -31 -41 -31 -55 0
-15 -6 -24 -15 -24 -8 0 -15 -7 -15 -15 0 -8 -6 -15 -13 -15 -8 0 -30 -18 -50
-40 -23 -24 -37 -49 -37 -65 0 -16 -6 -25 -15 -25 -8 0 -15 -8 -15 -18 0 -9
-9 -23 -20 -30 -11 -7 -20 -21 -20 -32 0 -11 -4 -20 -9 -20 -5 0 -22 -19 -38
-42 -16 -24 -34 -61 -41 -83 -7 -22 -16 -60 -22 -85 -5 -25 -6 -71 -3 -103 3
-32 10 -60 14 -63 5 -3 9 -14 9 -25 0 -10 6 -19 14 -19 8 0 18 -9 21 -20 4
-12 25 -33 48 -47 23 -14 60 -28 82 -31 22 -3 65 -5 95 -5 30 0 71 4 90 8 19
4 41 12 48 18 7 5 15 7 19 4 3 -4 15 -1 27 5 11 7 25 11 29 10 5 -1 21 5 38
15 16 10 29 20 29 24 0 4 26 10 57 14 32 4 75 16 95 26 20 10 44 19 52 19 8 0
16 3 18 8 2 4 50 31 108 60 58 29 114 52 125 52 11 0 29 6 40 13 11 8 27 16
36 20 11 4 16 0 15 -11 -1 -12 6 -16 22 -14 13 2 34 -4 47 -12 13 -9 38 -16
54 -16 16 0 33 -5 36 -10 4 -7 26 -8 58 -4 29 4 55 11 58 17 4 5 16 7 28 4 12
-3 24 -1 27 4 3 5 14 9 24 9 16 0 18 -6 15 -32 -3 -18 -7 -49 -11 -69 -4 -28
0 -47 18 -80 14 -24 23 -50 20 -58 -3 -9 1 -11 17 -6 11 3 21 3 21 -2 0 -4 17
-14 38 -21 20 -7 48 -14 62 -16 14 -1 35 -8 46 -14 12 -6 43 -16 70 -22 27 -7
76 -14 109 -17 33 -2 85 -10 115 -17 30 -7 77 -12 103 -10 26 1 61 -3 77 -9
25 -10 32 -9 43 7 12 16 18 17 50 7 20 -7 41 -9 47 -6 6 4 53 9 103 11 51 2
130 6 176 9 46 3 88 8 92 11 5 3 28 7 51 10 23 2 47 -1 54 -7 8 -7 14 -7 18 0
4 6 13 8 21 5 7 -3 22 -1 33 5 13 7 26 6 47 -5 22 -11 30 -12 36 -3 4 7 28 12
57 10 28 -1 53 3 57 9 3 5 18 7 33 4 15 -2 45 2 67 10 25 9 44 11 51 5 6 -5
31 -7 55 -5 24 2 45 8 46 12 2 6 38 6 86 1 45 -5 90 -13 99 -18 10 -5 19 -5
23 1 3 6 21 10 40 10 20 0 35 6 39 15 3 8 15 15 26 15 11 0 20 3 20 7 0 4 -4
22 -10 40 -5 18 -15 50 -21 71 -7 20 -17 40 -22 44 -6 4 -16 4 -22 0 -5 -4
-38 -5 -71 -3 -39 2 -64 -2 -69 -9 -4 -6 -30 -10 -64 -9 -32 1 -64 -2 -71 -6
-7 -5 -27 -10 -44 -11 -17 -2 -53 -6 -81 -9 -27 -4 -75 -8 -105 -9 -30 -2
-113 -7 -185 -10 -71 -4 -132 -9 -136 -12 -4 -2 -47 -7 -96 -10 -48 -3 -132
-6 -185 -6 -54 -1 -98 -5 -98 -10 0 -5 -6 -6 -12 -1 -7 4 -47 9 -88 10 -41 1
-113 5 -160 7 -47 2 -110 9 -140 14 -30 5 -60 8 -66 5 -6 -2 -27 5 -45 16 -19
12 -44 21 -56 21 -13 0 -32 9 -43 20 -11 11 -23 20 -27 20 -5 0 -29 11 -55 24
-32 16 -44 26 -37 33 6 6 11 17 12 24 2 8 22 33 46 55 29 29 49 40 62 37 11
-3 19 0 19 6 0 7 12 23 26 38 24 24 24 26 8 44 -9 10 -14 24 -11 32 3 7 -3 18
-12 24 -9 6 -29 9 -43 8 -15 -2 -31 -6 -37 -9 -5 -4 -14 2 -20 11 -9 16 -11
16 -19 -7 -5 -14 -8 -29 -5 -33 3 -4 -12 -7 -32 -5 -20 1 -39 -2 -43 -7 -4 -6
-21 -18 -39 -27 -17 -10 -40 -18 -51 -18 -11 0 -33 -7 -48 -15 -16 -8 -35 -15
-41 -15 -7 0 -13 7 -13 15 0 8 -6 15 -14 15 -8 0 -18 5 -21 10 -3 6 2 13 12
17 10 3 37 14 60 25 23 10 59 35 80 56 21 21 53 45 71 53 17 7 32 17 32 21 0
5 4 8 9 8 6 0 22 11 37 25 15 14 34 24 43 23 12 -2 15 4 14 25 -1 15 2 25 7
22 5 -3 19 0 32 7 13 7 35 24 51 37 15 14 27 30 27 36 0 6 14 24 30 40 17 16
30 37 30 46 0 10 4 19 8 21 5 2 12 20 15 40 4 25 1 40 -9 49 -8 6 -14 17 -14
23 0 6 -12 17 -27 24 -15 6 -31 12 -35 12 -4 0 -8 -7 -8 -15 0 -9 -6 -12 -15
-9 -8 4 -15 12 -15 20 0 8 -4 14 -10 14 -5 0 -10 -3 -10 -7 0 -5 -15 -25 -33
-45 -20 -22 -43 -38 -55 -38 -13 0 -22 -6 -22 -15 0 -9 -7 -18 -15 -21 -8 -4
-15 -13 -15 -21 0 -9 -6 -12 -18 -9 -13 4 -23 -1 -32 -19 -7 -14 -19 -25 -27
-25 -7 0 -13 -4 -13 -10 0 -5 -6 -10 -13 -10 -7 0 -18 -9 -25 -20 -7 -12 -10
-25 -7 -29 3 -5 -2 -11 -10 -15 -8 -3 -17 -1 -20 4 -4 6 -10 10 -14 10 -4 0
-13 -11 -19 -25 -6 -14 -18 -25 -27 -25 -8 0 -15 -4 -15 -8 0 -5 -25 -35 -55
-68 -30 -32 -66 -72 -80 -87 -14 -15 -25 -34 -25 -41 0 -8 -17 -21 -37 -30
-21 -8 -49 -22 -63 -30 -14 -9 -45 -24 -70 -34 -25 -10 -64 -27 -88 -37 -23
-10 -47 -24 -52 -31 -6 -6 -18 -10 -28 -7 -9 2 -28 -6 -42 -19 -13 -13 -36
-24 -50 -24 -14 -1 -50 -11 -80 -22 -30 -10 -74 -25 -98 -32 -23 -7 -47 -19
-53 -26 -6 -7 -16 -11 -24 -8 -7 3 -20 -4 -28 -16 -10 -15 -25 -21 -53 -21
-22 0 -64 -2 -94 -4 -30 -2 -72 -6 -92 -10 -33 -6 -37 -5 -40 17 -2 12 -13 27
-26 33 -13 6 -20 16 -17 24 3 7 -1 19 -9 25 -7 6 -16 25 -19 43 -4 18 -2 35 3
38 6 4 5 14 -3 26 -10 16 -9 21 2 28 8 5 11 16 7 29 -5 14 0 28 13 41 12 12
21 28 21 36 0 8 4 15 9 15 5 0 12 13 16 30 4 16 13 33 20 37 7 5 30 29 49 55
20 26 36 51 36 56 0 5 11 19 25 32 14 13 25 28 25 34 0 6 18 26 40 45 22 19
40 38 40 42 0 4 18 26 40 48 22 22 40 45 40 51 0 5 6 10 13 10 7 0 24 15 37
33 13 17 38 47 55 66 16 18 62 65 100 104 39 39 75 71 80 72 6 0 26 7 45 14
19 8 42 22 50 30 8 9 51 34 94 56 44 22 86 39 93 37 7 -2 13 5 13 14 0 10 5
14 15 10 9 -3 21 4 31 19 9 14 25 25 36 25 12 0 29 9 39 21 10 12 23 18 30 14
6 -4 15 -2 19 4 4 7 14 13 22 15 9 1 22 7 29 13 8 6 24 14 37 17 12 4 22 13
22 21 0 7 10 15 23 19 12 3 38 19 56 35 27 24 37 28 48 19 7 -6 16 -8 20 -4 3
3 1 6 -6 6 -7 0 -9 5 -5 11 3 6 15 9 25 6 13 -4 24 3 35 22 8 14 31 36 50 49
18 12 38 22 43 22 6 0 15 -8 20 -17 8 -14 10 -15 11 -3 0 8 19 32 42 52 24 21
49 38 56 38 6 0 12 5 12 10 0 6 9 10 19 10 11 0 21 5 23 11 2 6 27 11 56 12
28 1 52 5 52 8 0 4 -7 9 -15 13 -8 3 -15 10 -15 16 0 5 7 10 15 10 8 0 15 4
15 10 0 5 12 13 27 16 15 4 33 12 40 18 6 6 28 22 48 36 21 14 45 32 54 40 10
8 26 21 37 28 10 7 27 15 37 18 9 4 17 10 17 15 0 5 11 9 25 9 14 0 25 4 25
10 0 5 18 22 40 36 22 15 40 31 40 36 0 5 16 24 35 43 18 19 37 31 40 25 3 -5
23 9 45 30 26 25 46 37 56 33 10 -4 17 1 21 16 3 11 9 18 14 16 4 -3 13 4 19
15 6 11 16 20 23 18 7 -1 24 6 40 16 15 10 27 24 27 31 0 7 15 20 33 29 17 9
41 22 51 29 11 6 30 23 42 37 13 14 24 33 24 42 0 11 5 15 15 12 9 -4 15 0 15
10 0 9 5 16 10 16 6 0 22 12 35 28 13 15 25 33 25 40 0 6 4 12 9 12 5 0 12 15
16 33 3 17 9 53 12 79 4 39 1 50 -16 65 -12 9 -21 25 -21 35 0 9 -5 29 -12 43
-6 14 -17 25 -25 25 -7 0 -13 5 -13 10 0 6 -8 10 -17 10 -9 0 -24 7 -34 16
-16 14 -18 14 -28 -3z m-143 -126 c10 5 40 9 68 8 38 -1 56 -7 74 -25 12 -12
26 -39 31 -59 4 -20 5 -37 1 -39 -5 -1 -6 -19 -4 -40 3 -20 1 -34 -3 -30 -5 5
-14 -2 -21 -15 -7 -12 -21 -39 -30 -60 -12 -28 -22 -37 -34 -34 -11 3 -22 -6
-32 -27 -9 -17 -19 -40 -24 -51 -6 -18 -8 -18 -11 -2 -3 9 -9 17 -14 17 -5 0
-9 -8 -9 -19 0 -10 -7 -24 -15 -31 -8 -6 -19 -9 -25 -5 -6 4 -20 -2 -31 -14
-11 -12 -25 -21 -31 -21 -6 0 -22 -12 -35 -27 -13 -16 -29 -39 -34 -52 -6 -14
-15 -21 -24 -17 -8 3 -17 1 -20 -5 -4 -5 -11 -6 -17 -3 -7 5 -9 2 -5 -8 3 -10
-4 -20 -21 -29 -15 -7 -31 -12 -35 -11 -4 1 -15 -3 -23 -10 -9 -7 -26 -22 -37
-34 -12 -11 -37 -26 -54 -33 -18 -7 -42 -28 -53 -46 -11 -18 -32 -41 -46 -50
-22 -14 -28 -15 -35 -4 -7 11 -9 10 -9 -3 0 -9 6 -19 13 -21 6 -3 0 -6 -15 -6
-19 -1 -28 -6 -28 -18 0 -15 -1 -15 -19 1 -17 16 -19 16 -24 -4 -3 -14 -12
-20 -24 -18 -10 2 -17 -2 -15 -9 1 -7 -8 -23 -20 -35 -13 -13 -34 -29 -47 -36
-13 -7 -26 -10 -29 -8 -2 3 -28 -13 -58 -34 -35 -26 -55 -36 -60 -29 -5 8 -10
6 -16 -5 -5 -9 -15 -16 -23 -16 -8 0 -31 -16 -51 -36 -26 -27 -39 -33 -47 -25
-6 6 -16 11 -21 11 -6 0 -5 -5 2 -12 8 -8 -3 -18 -46 -40 -31 -15 -61 -28 -65
-28 -5 0 -5 5 -2 10 3 6 2 10 -3 10 -5 0 -13 -14 -18 -31 -8 -27 -15 -32 -44
-36 -19 -2 -36 -8 -38 -13 -2 -6 -10 -10 -17 -10 -8 0 -22 -10 -32 -23 -10
-13 -31 -24 -48 -25 -16 -1 -33 -9 -38 -17 -4 -9 -12 -13 -17 -10 -5 3 -12 -5
-15 -16 -6 -19 -9 -20 -16 -7 -6 10 -17 14 -29 11 -15 -4 -19 -11 -15 -24 4
-13 1 -19 -9 -19 -11 0 -16 -9 -17 -27 0 -27 -1 -27 -9 -5 -5 12 -14 22 -21
22 -6 0 -16 -13 -22 -30 -10 -26 -15 -29 -44 -25 -18 2 -33 0 -33 -5 0 -6 -9
-10 -20 -10 -11 0 -20 4 -20 10 0 5 9 14 20 20 11 6 20 17 20 25 0 8 8 23 18
33 9 9 30 25 45 35 15 9 27 24 27 32 0 9 11 21 25 27 14 6 25 17 25 24 0 8 14
20 30 29 17 9 30 22 30 30 0 8 4 15 10 15 5 0 20 16 32 34 13 19 31 37 41 40
10 2 21 14 24 25 3 12 20 26 39 33 19 7 34 18 34 26 0 8 6 12 15 8 9 -3 15 1
15 11 0 8 17 34 37 57 20 22 45 44 55 48 10 4 18 14 18 21 0 8 9 22 20 32 11
10 20 14 20 9 0 -5 5 -1 11 9 5 9 16 17 24 17 7 0 16 8 19 18 3 10 27 34 54
55 26 20 72 59 102 88 30 28 67 57 83 65 15 8 27 18 27 23 0 4 14 24 31 44 17
21 38 37 45 37 8 0 14 6 14 14 0 7 11 21 25 30 13 9 30 16 38 16 7 0 27 16 44
35 17 19 38 35 45 35 8 0 28 16 45 35 17 19 41 35 52 35 11 0 25 9 31 20 6 11
19 20 29 20 10 0 35 16 55 35 21 19 44 35 51 35 7 0 21 7 29 16 12 12 16 12
16 2 0 -7 10 -2 23 13 13 14 28 24 34 22 7 -3 34 18 60 45 36 37 51 46 61 39
10 -8 19 -8 30 0z m-978 -2047 c0 -5 -4 -10 -9 -10 -5 0 -13 -9 -16 -20 -3
-11 -13 -20 -21 -20 -8 0 -17 -7 -20 -15 -4 -8 -12 -15 -20 -15 -7 0 -17 -6
-21 -13 -4 -7 -25 -26 -45 -41 -23 -17 -46 -26 -60 -24 -22 4 -22 5 -3 13 11
5 43 26 72 47 35 25 50 43 47 53 -4 9 1 17 12 21 11 3 30 12 44 19 14 8 28 15
33 15 4 0 7 -4 7 -10z m-5840 -167 c0 -5 -4 -14 -9 -22 -6 -9 -11 -10 -15 -2
-4 6 -4 16 -1 21 3 6 10 10 16 10 5 0 9 -3 9 -7z"/>
<path d="M28676 3021 c-3 -5 -26 -12 -50 -15 -28 -5 -54 -16 -68 -31 -13 -14
-30 -25 -39 -25 -8 0 -26 -11 -39 -25 -13 -14 -31 -25 -41 -25 -10 0 -24 -3
-33 -6 -9 -3 -16 -12 -16 -20 0 -8 -8 -14 -17 -14 -9 0 -32 -5 -50 -12 -18 -7
-33 -16 -33 -20 0 -4 -7 -8 -15 -8 -8 0 -15 -5 -15 -11 0 -6 -8 -8 -19 -4 -10
3 -24 -1 -31 -10 -7 -8 -21 -15 -31 -15 -10 0 -23 -8 -28 -18 -5 -10 -30 -28
-55 -40 -25 -13 -62 -42 -83 -65 -21 -24 -59 -55 -84 -70 -26 -14 -49 -35 -52
-46 -3 -11 -17 -23 -33 -27 -16 -4 -37 -15 -48 -25 -10 -10 -34 -25 -53 -34
-18 -9 -31 -20 -28 -26 4 -5 -1 -9 -9 -9 -9 0 -23 -11 -32 -25 -9 -14 -25 -25
-35 -25 -11 0 -19 -7 -19 -16 0 -11 -6 -13 -19 -9 -14 4 -21 0 -26 -15 -4 -11
-26 -30 -49 -41 -24 -11 -49 -31 -56 -44 -7 -14 -22 -25 -32 -25 -10 0 -18 -5
-18 -11 0 -5 -15 -23 -32 -40 -18 -16 -38 -29 -46 -29 -7 0 -15 -7 -18 -15 -3
-8 -21 -24 -40 -36 -19 -11 -34 -27 -34 -35 0 -8 -4 -14 -10 -14 -5 0 -21 -10
-34 -21 -15 -13 -22 -27 -19 -37 5 -12 1 -14 -20 -8 -20 5 -27 3 -27 -9 0 -8
-6 -15 -14 -15 -7 0 -19 -7 -26 -15 -7 -8 -23 -15 -35 -15 -16 0 -25 -8 -29
-25 -4 -15 -14 -25 -24 -25 -9 0 -26 -14 -37 -30 -11 -16 -26 -30 -34 -30 -8
0 -11 -6 -7 -15 3 -9 0 -15 -10 -15 -9 0 -21 -13 -27 -30 -6 -16 -17 -30 -24
-30 -6 0 -26 -13 -42 -28 -22 -20 -28 -31 -20 -39 7 -7 1 -14 -20 -23 -19 -8
-31 -20 -31 -31 0 -15 -5 -18 -22 -14 -18 4 -33 -5 -67 -40 -24 -25 -50 -44
-56 -41 -6 2 -17 -5 -23 -15 -7 -11 -23 -19 -39 -19 -18 0 -37 -12 -59 -35
-21 -23 -37 -33 -48 -29 -9 3 -23 1 -31 -6 -7 -6 -22 -10 -32 -9 -10 1 -25 0
-33 -4 -8 -3 -40 -13 -70 -23 -30 -10 -67 -29 -82 -42 -16 -15 -33 -22 -45
-18 -10 3 -39 -5 -66 -19 -27 -13 -68 -27 -93 -31 -24 -3 -47 -10 -49 -15 -3
-4 -12 -6 -20 -3 -7 3 -18 -4 -25 -16 -7 -12 -18 -19 -25 -16 -8 3 -17 1 -19
-3 -3 -5 -27 -11 -54 -15 -27 -3 -57 -13 -68 -21 -10 -8 -34 -15 -52 -15 -18
0 -35 -6 -38 -12 -2 -8 -27 -14 -60 -16 -31 -1 -86 -12 -123 -24 -36 -11 -70
-23 -76 -26 -5 -4 -24 -5 -42 -3 -23 2 -34 -3 -43 -18 -6 -12 -21 -21 -35 -21
-13 0 -25 5 -27 11 -3 9 -9 9 -26 0 -12 -6 -33 -9 -47 -5 -14 4 -55 -3 -100
-17 -41 -13 -75 -27 -75 -31 0 -5 -7 -8 -15 -8 -8 0 -24 -5 -35 -12 -15 -9
-24 -9 -43 1 -16 8 -40 11 -64 7 -21 -3 -54 -8 -74 -10 -20 -2 -43 -7 -50 -12
-8 -4 -32 -9 -54 -10 -22 0 -50 3 -61 7 -12 4 -25 4 -30 -1 -5 -5 -40 -14 -79
-20 -38 -6 -109 -12 -157 -13 -77 -2 -89 0 -102 18 -12 17 -13 22 0 36 8 8 14
23 14 32 0 9 6 17 14 17 7 0 22 12 32 28 10 15 34 44 53 64 20 20 53 56 75 80
21 24 61 67 90 95 28 29 54 53 59 53 4 0 7 7 7 15 0 8 5 15 10 15 6 0 10 9 10
20 0 11 6 20 13 20 7 0 24 10 37 22 16 15 25 18 28 10 2 -7 8 -12 13 -12 5 0
7 11 3 24 -5 20 2 29 40 57 25 18 46 35 46 39 0 3 14 14 30 23 17 10 30 23 30
28 0 6 12 24 28 41 15 16 40 44 55 60 22 24 25 33 15 39 -10 6 -10 13 -2 26 6
10 9 23 7 30 -3 8 -11 9 -26 3 -12 -4 -31 -12 -42 -15 -11 -4 -29 -9 -40 -11
-11 -2 -34 -6 -52 -10 -17 -3 -40 -15 -49 -25 -9 -10 -25 -19 -35 -19 -10 0
-21 -5 -24 -10 -3 -6 -17 -10 -31 -10 -14 0 -24 -6 -24 -15 0 -9 -6 -12 -15
-9 -10 4 -15 0 -15 -15 0 -12 -6 -21 -15 -21 -8 0 -15 -4 -15 -8 0 -5 -8 -9
-17 -9 -10 1 -30 0 -44 -1 -15 -1 -37 -13 -50 -26 -13 -12 -34 -28 -47 -35
-13 -7 -25 -25 -29 -42 -5 -29 -6 -29 -20 -10 -8 13 -20 18 -31 14 -9 -3 -31
-16 -48 -29 -20 -14 -49 -24 -78 -26 -25 -2 -46 -7 -46 -13 0 -5 -16 -20 -35
-32 -19 -13 -40 -23 -45 -23 -6 0 -24 -7 -40 -15 -27 -14 -30 -13 -58 10 -17
14 -37 25 -46 25 -9 0 -34 -11 -55 -24 -21 -13 -45 -40 -54 -59 -10 -19 -17
-43 -17 -52 0 -13 -6 -16 -26 -12 -16 3 -28 0 -31 -9 -3 -8 -11 -14 -19 -14
-8 0 -14 -3 -14 -7 0 -5 -12 -14 -27 -20 -15 -7 -32 -13 -38 -13 -6 0 -22 -11
-34 -24 -12 -13 -36 -26 -52 -30 -20 -4 -29 -11 -29 -25 0 -13 -5 -18 -14 -15
-8 3 -40 1 -72 -5 -31 -6 -64 -17 -73 -25 -9 -7 -44 -24 -78 -36 -35 -13 -63
-26 -63 -31 0 -4 -10 -11 -22 -16 -13 -4 -27 -8 -33 -8 -5 -1 -37 -9 -70 -19
-33 -10 -74 -26 -91 -37 -17 -10 -38 -19 -46 -19 -9 0 -21 -7 -28 -15 -9 -11
-16 -12 -26 -4 -10 8 -20 6 -40 -10 -15 -12 -35 -21 -45 -21 -11 0 -19 -4 -19
-10 0 -5 -7 -10 -15 -10 -9 0 -28 -9 -43 -20 -17 -12 -50 -21 -91 -25 -48 -3
-67 -10 -77 -24 -11 -15 -22 -18 -54 -14 -27 4 -40 2 -40 -6 0 -7 -8 -11 -17
-10 -10 1 -27 -1 -38 -5 -11 -4 -32 -14 -48 -22 -15 -9 -36 -12 -48 -9 -11 4
-36 -1 -57 -11 -20 -9 -60 -17 -89 -18 -35 0 -54 -5 -58 -14 -3 -9 -12 -11
-23 -7 -9 4 -33 7 -52 7 -19 0 -51 -3 -71 -5 -20 -2 -41 -7 -46 -10 -6 -4 -38
-2 -72 4 -34 5 -71 15 -82 22 -10 6 -19 16 -19 22 0 6 11 22 25 37 14 15 48
37 75 49 28 12 50 25 50 30 0 5 9 9 19 9 10 0 21 7 25 15 3 8 11 15 18 15 7 0
26 14 41 30 16 17 33 30 38 30 5 0 38 22 72 48 34 26 79 57 99 69 20 12 45 29
55 37 10 9 36 31 57 49 21 17 45 47 53 65 13 32 12 36 -10 66 -14 17 -26 40
-28 50 -2 10 -29 31 -59 47 -38 20 -70 29 -101 29 -25 0 -49 -3 -53 -7 -4 -4
-13 -8 -19 -8 -7 -1 -33 -5 -60 -9 -28 -5 -53 -16 -61 -27 -7 -10 -16 -16 -19
-13 -4 4 -14 1 -23 -7 -9 -7 -26 -18 -38 -24 -11 -6 -25 -20 -31 -33 -5 -12
-18 -22 -27 -22 -10 0 -18 -6 -18 -14 0 -9 -8 -12 -26 -8 -16 3 -32 -2 -44
-14 -11 -11 -25 -24 -32 -30 -7 -5 -21 -13 -31 -17 -9 -3 -21 -17 -26 -29 -5
-13 -23 -34 -40 -47 -17 -13 -31 -29 -31 -35 0 -7 -16 -31 -35 -53 -21 -24
-31 -44 -25 -48 5 -3 10 -9 10 -13 0 -4 -10 -12 -21 -17 -14 -6 -29 -31 -41
-68 -18 -54 -19 -61 -4 -96 8 -21 12 -41 9 -45 -4 -3 -15 -6 -25 -6 -10 0 -18
-4 -18 -9 0 -5 -14 -12 -31 -16 -17 -4 -42 -13 -57 -21 -15 -8 -40 -14 -55
-14 -16 0 -30 -7 -34 -15 -3 -9 -21 -27 -40 -40 -20 -13 -41 -21 -48 -19 -6 3
-20 -6 -29 -20 -9 -15 -25 -26 -35 -26 -11 0 -21 -6 -23 -12 -3 -7 -18 -13
-34 -14 -16 -1 -53 -16 -82 -33 -29 -17 -60 -31 -68 -31 -9 0 -18 -8 -21 -19
-3 -13 -11 -17 -24 -14 -13 4 -19 0 -19 -12 0 -12 -5 -15 -20 -10 -11 3 -25 3
-32 -2 -7 -4 -29 -13 -48 -20 -21 -8 -38 -9 -45 -3 -7 6 -14 8 -17 5 -2 -3
-28 -9 -58 -15 -30 -6 -58 -6 -64 -1 -6 4 -26 8 -44 8 -25 0 -39 7 -56 28
l-23 29 -40 -38 c-29 -29 -39 -45 -35 -62 2 -12 12 -29 21 -36 9 -8 33 -20 54
-27 26 -9 70 -11 144 -7 59 4 124 11 144 16 20 6 42 17 49 25 7 8 23 15 36 15
12 0 26 5 29 10 3 6 21 10 38 10 20 0 43 10 61 25 16 14 48 30 70 35 23 6 51
15 64 20 12 5 22 16 22 23 0 8 8 21 19 31 10 9 25 14 33 11 8 -3 40 1 70 9 31
8 68 22 82 31 21 14 29 15 41 5 12 -10 15 -10 15 2 0 8 8 22 18 31 10 10 28
17 39 17 11 0 32 9 47 21 15 11 33 18 41 15 8 -3 17 0 21 6 5 7 10 3 15 -11 5
-12 17 -24 26 -27 10 -4 45 -17 78 -29 48 -18 78 -23 150 -21 50 1 96 -3 103
-7 7 -6 12 -6 12 1 0 5 12 13 28 16 15 4 79 15 142 26 63 11 140 24 170 30 30
7 64 17 75 23 11 6 36 12 55 14 19 2 47 13 63 24 15 11 32 17 37 14 5 -3 31
-1 57 6 26 6 57 14 68 18 11 5 37 16 58 25 21 9 44 16 51 16 7 0 33 13 57 30
26 17 57 30 76 30 17 0 35 5 38 10 3 6 14 10 24 10 10 0 29 9 43 19 13 11 41
23 62 26 21 4 40 14 43 22 3 8 1 18 -5 22 -5 3 18 7 52 8 42 2 65 8 72 18 7 9
29 21 50 27 21 5 61 21 90 34 29 13 58 24 64 24 7 0 24 6 38 14 15 8 65 33
112 57 61 30 98 42 132 43 27 1 48 4 48 9 0 4 -10 7 -22 8 -14 1 -7 5 16 10
22 5 43 6 47 2 4 -5 3 -30 -2 -58 -5 -27 -7 -56 -4 -64 3 -7 0 -19 -5 -27 -6
-7 -12 -45 -14 -84 -1 -39 -8 -76 -14 -82 -6 -6 -8 -23 -5 -38 3 -19 0 -29
-10 -33 -8 -3 -18 -19 -22 -36 -5 -23 -1 -37 14 -57 12 -15 21 -39 21 -55 0
-20 4 -27 13 -23 8 3 20 -2 27 -11 7 -8 18 -15 25 -15 7 0 16 7 19 16 3 8 11
12 16 9 6 -4 20 3 30 15 11 12 22 31 26 42 3 11 18 21 35 25 20 4 40 20 61 49
17 24 42 51 55 59 12 9 23 21 23 29 0 9 21 15 66 20 36 4 80 4 98 0 20 -3 36
-1 40 5 5 7 15 7 32 1 16 -7 60 -6 122 0 53 6 124 15 157 21 33 6 80 13 105
15 25 1 63 5 85 7 22 3 51 7 65 10 14 2 45 10 70 16 25 7 65 19 90 26 25 8 64
16 87 18 24 2 46 6 50 10 3 4 17 7 30 7 13 0 26 6 28 13 4 8 25 11 73 9 60 -3
74 0 134 31 43 21 71 30 77 24 5 -5 18 -6 28 -2 10 5 21 8 25 7 4 -1 20 3 35
10 15 6 33 12 38 13 6 1 20 3 32 3 12 1 28 9 37 17 8 8 22 12 31 9 10 -4 22 1
31 15 9 12 19 19 24 16 5 -3 21 0 36 6 16 5 60 17 97 25 38 8 81 21 96 28 14
8 48 20 75 26 27 6 51 9 53 6 3 -3 12 1 19 9 8 7 14 18 14 24 0 6 4 11 9 11 6
0 13 -5 17 -11 3 -6 9 -7 13 -3 3 5 21 17 39 27 19 9 40 17 49 17 8 0 29 6 46
14 18 8 47 19 66 25 19 6 37 11 41 11 5 0 2 -19 -5 -42 -7 -25 -19 -44 -29
-46 -9 -2 -16 -9 -16 -16 0 -7 -9 -21 -20 -31 -13 -11 -18 -25 -14 -37 3 -11
0 -18 -8 -18 -7 0 -26 -25 -41 -56 -14 -31 -25 -60 -22 -64 3 -5 -3 -28 -13
-52 -13 -29 -18 -62 -16 -103 2 -40 8 -63 18 -71 9 -6 16 -22 16 -36 0 -13 10
-34 23 -45 12 -11 44 -33 71 -47 27 -15 72 -30 100 -33 28 -3 56 -9 61 -12 6
-4 62 -6 125 -5 63 1 135 7 160 14 25 7 52 19 61 27 9 7 23 11 32 7 9 -3 45
-1 80 5 35 6 82 20 105 31 22 11 53 20 67 20 14 0 25 5 25 10 0 6 -5 10 -12
10 -6 0 -9 2 -6 5 3 3 27 8 53 10 26 3 53 9 60 15 6 5 15 7 18 4 3 -4 22 1 42
10 22 11 60 17 102 17 38 0 79 0 93 1 14 0 36 0 50 -2 14 -1 48 3 77 9 29 6
60 18 70 28 10 10 47 24 83 32 36 8 70 20 75 27 6 7 21 14 35 16 20 2 26 -2
28 -22 2 -13 14 -37 27 -52 13 -15 26 -37 30 -48 3 -11 11 -20 17 -20 5 0 27
-13 48 -30 21 -16 43 -30 50 -30 7 0 24 -7 38 -15 15 -8 49 -24 75 -35 27 -12
65 -24 85 -27 20 -3 47 -6 60 -5 12 0 22 -4 22 -8 0 -4 30 -13 68 -20 37 -6
74 -14 82 -17 8 -4 21 -5 29 -4 7 1 20 0 29 -4 8 -3 96 -8 196 -12 100 -3 250
-6 334 -6 127 0 152 -3 152 -15 0 -12 4 -11 21 3 17 16 34 19 110 16 71 -2 95
1 116 14 16 11 28 13 32 7 3 -5 49 -11 101 -12 52 -1 100 -1 105 -1 6 0 74 2
152 5 78 2 147 7 153 11 5 3 16 3 23 -2 6 -4 26 -9 42 -11 17 -2 37 -3 45 -4
8 0 39 3 69 6 30 3 60 11 68 17 9 9 17 9 27 0 7 -6 24 -11 37 -11 13 1 38 -2
54 -5 17 -3 92 -7 168 -8 76 -2 140 0 143 4 3 5 19 6 37 2 18 -3 38 -10 44
-15 8 -7 23 -6 42 0 16 6 32 8 34 5 3 -2 13 -6 22 -7 9 -1 21 -9 26 -17 7 -11
16 -7 44 23 19 20 35 41 35 46 0 6 -18 17 -40 26 -23 9 -52 13 -65 10 -14 -3
-25 -2 -25 3 0 5 5 14 12 21 9 9 5 12 -20 12 -23 0 -30 -4 -26 -14 4 -10 -5
-16 -26 -21 -24 -5 -34 -3 -44 11 -9 12 -21 15 -42 11 -16 -3 -54 -1 -84 4
-37 6 -65 5 -87 -3 -25 -9 -38 -9 -59 0 -14 7 -48 15 -75 17 -27 3 -49 1 -49
-4 0 -5 -16 -12 -36 -15 -21 -4 -41 -3 -49 4 -7 6 -19 9 -26 8 -9 -2 -13 5
-12 19 2 16 -2 21 -12 17 -8 -4 -15 -12 -15 -19 0 -7 -9 -15 -21 -18 -11 -3
-32 -1 -47 3 -15 5 -57 11 -94 13 -37 3 -68 1 -70 -3 -2 -4 -15 -10 -30 -14
-18 -4 -28 -2 -28 5 0 7 -14 9 -42 5 -24 -3 -59 -7 -78 -9 -19 -2 -38 1 -41 6
-4 5 -66 9 -140 9 -87 -1 -135 -5 -140 -13 -5 -8 -8 -8 -14 1 -4 7 -17 9 -31
6 -17 -5 -24 -2 -24 9 0 8 -4 15 -10 15 -5 0 -10 -9 -10 -20 0 -14 -7 -20 -22
-20 -13 0 -41 5 -63 11 -22 5 -66 12 -98 14 -32 2 -61 6 -65 9 -3 3 -16 -1
-28 -9 -13 -8 -30 -12 -38 -9 -9 3 -16 12 -16 20 0 9 -9 12 -27 9 -16 -2 -58
-7 -94 -10 -57 -5 -68 -3 -84 15 -10 11 -22 20 -27 20 -4 0 -8 -4 -8 -10 0 -5
8 -10 17 -10 13 0 14 -3 5 -12 -9 -9 -18 -8 -39 2 -16 7 -64 14 -108 17 -44 2
-91 5 -105 6 -14 1 -36 8 -49 16 -13 7 -36 11 -52 7 -23 -4 -29 -2 -29 11 0 9
-3 14 -6 10 -3 -3 -14 2 -24 11 -9 9 -20 24 -23 32 -4 12 -6 12 -6 -1 -1 -9
-8 -20 -18 -23 -9 -4 -25 2 -38 14 -12 11 -26 20 -32 20 -6 0 -22 9 -37 21
-14 11 -30 17 -36 14 -6 -3 -13 1 -16 9 -3 9 -12 16 -20 16 -8 0 -14 4 -14 8
0 5 -11 14 -25 20 -14 7 -30 24 -35 38 -6 15 -19 38 -29 53 -13 18 -16 33 -10
48 5 13 3 28 -6 39 -9 13 -26 18 -56 19 -24 0 -55 -4 -69 -9 -20 -6 -22 -6
-13 4 6 7 22 18 35 26 12 7 34 19 48 26 14 7 35 25 47 39 13 15 34 30 47 33
14 3 26 16 30 31 4 15 14 25 24 25 9 0 33 15 53 33 20 17 41 42 48 54 6 12 11
44 11 71 0 34 -5 52 -14 55 -8 3 -48 3 -90 0 -42 -3 -79 -10 -82 -14 -3 -5
-13 -9 -23 -9 -10 0 -23 -6 -29 -13 -6 -7 -23 -14 -39 -15 -15 -1 -47 -12 -71
-25 -23 -12 -44 -29 -47 -38 -3 -8 -21 -23 -40 -32 -20 -9 -41 -17 -48 -17 -7
0 -23 -8 -36 -17 -13 -10 -31 -26 -39 -35 -9 -10 -20 -18 -25 -18 -4 0 -15 -6
-24 -12 -8 -7 -29 -28 -46 -45 -17 -18 -36 -33 -42 -33 -7 0 -29 -15 -49 -34
-20 -19 -36 -38 -36 -43 0 -5 -8 -16 -17 -24 -10 -9 -31 -32 -48 -52 -16 -19
-34 -33 -40 -31 -6 3 -15 -10 -20 -28 -8 -28 -14 -33 -37 -30 -18 2 -31 -4
-41 -19 -9 -12 -20 -18 -26 -15 -5 4 -18 -5 -27 -19 -13 -20 -19 -23 -31 -14
-10 9 -20 9 -41 -1 -15 -7 -44 -14 -64 -15 -26 -1 -47 -10 -65 -27 -22 -21
-32 -24 -45 -17 -12 7 -24 6 -37 -1 -11 -5 -33 -10 -48 -10 -16 0 -33 -4 -38
-9 -6 -6 -35 -11 -65 -12 -30 -1 -74 -11 -97 -21 -23 -11 -47 -17 -53 -13 -6
4 -28 8 -48 10 -20 1 -43 -2 -49 -7 -9 -7 -13 -7 -13 1 0 6 -9 11 -20 11 -12
0 -31 11 -44 25 -13 14 -33 25 -45 25 -11 0 -21 4 -21 9 0 5 -9 13 -20 16 -13
4 -23 19 -27 36 -3 16 -15 36 -27 44 -11 8 -16 15 -10 15 5 0 15 20 22 45 6
24 9 51 6 59 -4 9 1 18 10 22 9 3 16 16 16 29 0 12 7 28 15 35 9 7 14 19 11
26 -3 7 6 25 20 39 14 15 23 33 20 40 -3 8 10 25 28 39 19 14 36 36 39 48 4
14 19 28 37 35 16 6 30 17 30 25 1 7 22 30 48 50 26 21 59 49 74 63 15 14 32
25 38 25 6 0 34 12 63 27 28 15 57 34 63 42 10 12 15 13 27 3 12 -10 16 -10
21 3 3 8 13 15 22 15 9 0 34 10 55 22 21 12 41 30 45 40 3 10 12 18 20 18 8 0
22 4 32 9 9 5 33 16 54 25 20 9 43 16 51 16 9 0 18 4 21 9 3 5 30 20 61 35 30
14 55 30 55 36 0 5 5 10 10 10 6 0 19 9 30 20 11 11 29 20 39 20 11 0 23 5 26
11 4 5 19 15 33 21 15 6 31 10 36 9 5 -1 23 11 40 28 17 16 75 53 128 80 53
28 103 51 112 51 9 0 16 6 16 14 0 8 19 23 43 34 24 11 49 27 56 36 8 9 23 16
35 16 11 0 32 12 45 25 13 14 28 25 34 25 6 0 17 7 26 15 9 9 32 27 51 40 19
14 46 30 60 37 14 7 29 18 33 25 4 7 16 13 26 13 10 0 21 9 24 19 2 11 17 22
34 25 17 4 39 15 49 24 11 10 37 28 59 42 22 13 53 34 69 47 16 13 34 22 41
19 6 -2 20 10 30 27 10 18 27 42 38 55 11 12 28 22 38 22 10 0 21 12 28 30 5
17 17 30 25 30 9 0 16 6 16 13 0 7 8 22 18 33 10 10 23 33 29 49 7 17 12 41
13 55 1 14 2 48 3 75 1 28 6 53 11 56 5 4 6 18 2 32 -4 19 -16 29 -44 36 -20
6 -45 11 -54 11 -9 0 -19 -4 -22 -9z m-20 -152 c3 -5 1 -9 -4 -9 -6 0 -4 -16
3 -37 11 -32 11 -42 -2 -66 -8 -17 -12 -40 -8 -54 5 -21 3 -24 -10 -19 -9 3
-18 -1 -22 -10 -3 -8 -19 -22 -36 -30 -16 -9 -40 -28 -54 -42 -13 -14 -33 -31
-46 -38 -12 -7 -33 -19 -47 -26 -13 -7 -42 -32 -63 -55 -21 -23 -52 -45 -68
-48 -23 -5 -29 -12 -29 -32 0 -21 -4 -24 -20 -20 -12 3 -40 -5 -65 -20 -25
-13 -46 -29 -46 -34 -1 -5 -2 -14 -3 -21 0 -7 -20 -16 -43 -21 -23 -4 -52 -19
-65 -32 -13 -14 -29 -25 -36 -25 -7 0 -24 -7 -37 -16 -13 -9 -29 -13 -35 -9
-5 3 -10 1 -10 -4 0 -6 -7 -11 -15 -11 -9 0 -15 -9 -15 -21 0 -13 -5 -19 -13
-16 -8 3 -14 -3 -14 -15 -1 -11 -5 -23 -8 -26 -3 -4 -14 -1 -25 5 -14 10 -21
9 -30 -2 -7 -8 -19 -15 -27 -15 -7 0 -16 -7 -19 -15 -4 -8 -11 -15 -16 -15 -6
0 -27 -13 -47 -29 -20 -15 -56 -39 -81 -51 -25 -12 -49 -29 -53 -36 -4 -8 -15
-14 -22 -14 -8 0 -15 -4 -15 -8 0 -4 -17 -14 -37 -21 -21 -8 -49 -22 -62 -32
-13 -11 -32 -19 -41 -19 -10 0 -32 -13 -50 -30 -18 -16 -36 -30 -40 -30 -4 0
-13 -6 -20 -14 -6 -8 -18 -12 -26 -9 -8 3 -20 1 -27 -4 -6 -5 -31 -15 -54 -23
-24 -7 -43 -16 -43 -20 0 -4 -18 -13 -39 -20 -22 -7 -54 -27 -73 -44 -18 -17
-44 -36 -57 -43 -13 -7 -25 -13 -26 -13 -2 0 -1 9 2 19 3 11 15 21 26 23 12 2
27 15 34 29 7 15 24 34 38 43 14 9 25 12 25 6 0 -5 5 -10 10 -10 6 0 10 9 10
20 0 12 16 31 40 48 21 15 39 32 40 38 0 7 12 20 28 30 15 10 32 22 38 28 7 6
33 29 59 51 26 22 62 54 79 71 17 18 51 44 75 59 31 19 40 29 31 35 -9 6 -7
11 9 19 12 7 25 9 30 7 5 -3 21 10 37 29 15 19 36 37 46 41 10 3 18 12 18 20
0 8 7 14 15 14 8 0 25 6 37 13 12 6 33 22 46 34 14 11 36 27 50 35 14 7 35 22
47 33 12 11 38 35 57 53 20 17 41 32 47 32 5 0 22 11 37 25 15 14 33 25 39 25
7 0 15 7 19 15 3 8 12 15 20 15 7 0 21 11 30 25 9 14 23 25 32 25 8 0 17 6 20
14 3 8 19 20 35 26 16 7 29 18 29 24 0 7 18 20 40 30 23 10 61 33 86 52 25 20
56 34 72 34 15 0 41 12 57 26 17 14 44 32 60 40 17 8 50 25 75 39 25 14 49 30
53 34 4 4 19 6 33 3 13 -2 27 -8 30 -13z m-160 -346 c-3 -4 -9 -4 -12 0 -3 3
-2 11 2 18 6 11 8 11 12 0 2 -7 1 -15 -2 -18z m-3846 -928 c-7 -9 -15 -13 -17
-11 -3 3 -2 9 2 15 3 6 11 11 17 11 6 0 6 -6 -2 -15z m-40 -27 c0 -7 -19 -31
-41 -53 -23 -22 -46 -52 -51 -67 -5 -14 -19 -29 -32 -32 -12 -3 -28 -17 -34
-32 -7 -14 -10 -29 -7 -33 2 -5 -7 -19 -21 -32 -14 -13 -29 -24 -32 -23 -4 0
-15 -1 -25 -4 -12 -3 -16 -10 -12 -23 4 -12 2 -19 -6 -19 -7 0 -27 -11 -46
-26 -18 -14 -33 -34 -33 -45 0 -10 -5 -19 -10 -19 -6 0 -48 -38 -94 -84 -46
-46 -89 -93 -95 -105 -7 -11 -18 -21 -25 -21 -7 0 -30 16 -50 36 -21 20 -41
47 -46 59 -5 13 -6 32 -3 44 3 14 1 21 -8 21 -8 0 -14 11 -14 25 0 14 3 25 7
25 3 0 9 14 13 31 5 20 18 37 37 48 17 9 40 26 51 38 11 12 26 19 35 16 8 -4
21 2 28 12 7 9 32 28 56 41 24 13 59 31 78 41 19 9 37 17 40 18 3 1 45 21 95
45 49 24 101 54 115 67 14 13 34 23 46 23 11 0 29 9 39 20 10 11 24 20 32 20
7 0 13 -6 13 -12z m3590 -218 c0 -5 -11 -10 -24 -10 -13 0 -29 -6 -36 -14 -6
-8 -18 -12 -26 -9 -8 3 -14 1 -14 -5 0 -6 5 -12 12 -14 6 -2 -9 -23 -33 -46
-24 -23 -51 -42 -60 -42 -8 0 -25 -9 -37 -20 -12 -11 -27 -20 -34 -20 -7 0
-24 -9 -38 -20 -14 -11 -35 -20 -47 -20 -14 0 -23 -6 -23 -15 0 -10 -10 -15
-27 -15 -15 0 -47 -10 -71 -22 -25 -11 -47 -29 -50 -40 -3 -11 -13 -18 -29
-18 -18 0 -24 5 -21 18 2 9 8 17 13 17 5 0 27 19 48 43 22 23 44 42 50 42 5 0
24 15 41 32 17 18 37 32 43 30 7 -2 13 2 13 8 0 6 16 18 35 27 19 9 35 21 35
26 0 5 6 7 14 4 7 -3 19 0 25 6 7 7 15 12 19 12 4 0 18 10 31 21 12 12 35 25
49 29 15 3 45 10 67 14 22 5 48 9 58 10 9 0 17 -3 17 -9z m-6030 -76 c0 -11 6
-14 20 -9 12 4 27 1 35 -5 10 -8 13 -22 9 -39 -4 -14 -12 -31 -19 -36 -7 -6
-15 -22 -17 -35 -2 -18 -10 -26 -28 -29 -14 -1 -27 -7 -30 -11 -3 -5 -27 -18
-53 -29 -26 -11 -50 -27 -53 -36 -4 -8 -15 -15 -25 -15 -10 0 -19 -4 -19 -10
0 -5 -5 -10 -11 -10 -6 0 -24 -10 -41 -22 -16 -13 -43 -35 -60 -50 -16 -16
-39 -28 -50 -28 -11 0 -39 -16 -62 -35 -24 -19 -48 -35 -53 -35 -6 0 -14 -7
-17 -16 -5 -13 -9 -14 -21 -4 -11 9 -13 23 -9 54 4 22 17 52 29 66 12 14 24
30 26 36 2 7 34 44 71 83 50 52 87 81 140 107 40 20 86 43 101 51 16 8 31 21
34 29 3 8 19 14 39 14 24 0 34 5 34 15 0 8 7 15 15 15 8 0 15 -7 15 -16z
m1615 -124 c-3 -5 -10 -10 -16 -10 -5 0 -9 5 -9 10 0 6 7 10 16 10 8 0 12 -4
9 -10z m-268 -72 c-3 -8 -6 -5 -6 6 -1 11 2 17 5 13 3 -3 4 -12 1 -19z m4453
8 c0 -3 -4 -8 -10 -11 -5 -3 -10 -1 -10 4 0 6 5 11 10 11 6 0 10 -2 10 -4z
m-70 -120 c0 -3 -4 -8 -10 -11 -5 -3 -10 -1 -10 4 0 6 5 11 10 11 6 0 10 -2
10 -4z m-3320 -52 c0 -8 -5 -12 -10 -9 -6 4 -8 11 -5 16 4 5 8 9 11 9 2 0 4
-7 4 -16z m80 -24 c0 -5 -5 -10 -11 -10 -5 0 -7 5 -4 10 3 6 8 10 11 10 2 0 4
-4 4 -10z m-770 -35 c5 -14 14 -25 20 -25 5 0 10 -4 10 -9 0 -6 -13 -18 -30
-27 -28 -17 -28 -19 -13 -36 15 -17 15 -18 0 -18 -10 0 -26 9 -38 21 -16 16
-19 27 -13 47 4 15 6 37 6 50 -1 17 4 22 23 22 18 0 28 -7 35 -25z m260 -5 c0
-5 -2 -10 -4 -10 -3 0 -8 5 -11 10 -3 6 -1 10 4 10 6 0 11 -4 11 -10z m-2610
-81 c0 -6 -4 -7 -10 -4 -5 3 -10 11 -10 16 0 6 5 7 10 4 6 -3 10 -11 10 -16z
m280 -219 c0 -5 -4 -10 -10 -10 -5 0 -10 5 -10 10 0 6 5 10 10 10 6 0 10 -4
10 -10z"/>
<path d="M7244 2592 c-12 -2 -30 -12 -39 -22 -13 -14 -19 -39 -20 -87 -2 -62
-5 -69 -29 -83 -14 -8 -26 -24 -26 -35 0 -11 -10 -29 -21 -39 -16 -13 -18 -21
-10 -29 6 -6 11 -15 11 -20 0 -4 -4 -5 -10 -2 -5 3 -10 -3 -10 -14 0 -11 -9
-22 -20 -26 -11 -3 -20 -15 -20 -26 0 -10 6 -19 13 -19 6 0 3 -7 -8 -16 -16
-12 -17 -16 -6 -23 8 -6 24 -5 38 2 18 8 20 13 12 24 -9 10 -7 13 10 13 12 0
21 6 21 14 0 8 8 21 18 28 10 7 22 28 25 47 4 19 16 41 28 49 13 9 19 21 16
33 -3 11 -1 19 3 19 5 0 16 13 26 28 9 16 29 33 44 39 23 9 28 15 23 32 -4 15
2 30 17 46 22 23 22 23 2 43 -10 10 -30 21 -43 23 -13 3 -34 3 -45 1z"/>
<path d="M5973 1326 c-41 -19 -54 -31 -64 -60 -7 -20 -18 -35 -25 -32 -6 2
-17 -11 -24 -29 -8 -21 -18 -31 -27 -28 -8 3 -11 0 -8 -9 3 -8 -8 -27 -24 -44
-17 -16 -31 -35 -31 -41 0 -7 -7 -13 -15 -13 -8 0 -15 -4 -15 -8 0 -4 5 -13
12 -20 9 -9 7 -12 -10 -12 -12 0 -22 -4 -22 -10 0 -5 -5 -10 -11 -10 -7 0 -22
-12 -36 -27 -13 -16 -33 -42 -44 -60 -11 -18 -28 -35 -38 -38 -12 -3 -21 -19
-26 -41 -4 -26 -10 -34 -21 -30 -9 4 -18 -3 -24 -20 -6 -14 -8 -30 -4 -35 3
-5 -2 -9 -11 -9 -8 0 -21 -11 -27 -25 -6 -14 -15 -25 -20 -25 -4 0 -8 -6 -8
-14 0 -8 -13 -22 -28 -31 -16 -10 -32 -25 -38 -35 -5 -10 -26 -44 -48 -76 -21
-33 -47 -69 -58 -81 -12 -12 -27 -33 -34 -45 -7 -13 -20 -37 -29 -55 -8 -17
-23 -34 -32 -37 -10 -3 -28 -24 -39 -45 -12 -22 -19 -50 -17 -63 3 -15 21 -31
49 -45 43 -22 43 -22 68 -2 13 10 29 19 35 19 6 0 11 6 11 14 0 8 11 23 25 34
14 11 25 25 25 30 0 6 8 12 17 14 15 3 14 6 -6 25 -13 12 -20 27 -16 33 4 6
13 9 20 6 8 -3 19 2 26 10 6 8 8 18 4 22 -4 4 -10 1 -12 -5 -3 -7 -9 -13 -15
-13 -7 0 -5 7 3 17 8 10 20 28 27 41 7 13 22 41 34 63 11 21 24 39 29 39 5 0
9 6 9 14 0 8 6 21 13 28 6 8 17 23 23 33 7 12 21 19 34 17 17 -1 20 2 15 17
-3 10 0 30 6 45 7 14 16 26 21 26 4 0 22 19 38 43 17 23 47 64 68 91 20 27 54
66 75 88 20 21 37 42 37 47 0 5 7 11 15 15 8 3 20 18 27 33 l11 28 7 -25 c6
-23 8 -22 19 18 7 23 24 56 39 73 15 17 39 44 55 60 15 16 27 34 27 39 0 6 9
10 20 10 11 0 20 5 20 10 0 6 -6 10 -14 10 -8 0 -18 5 -21 10 -4 6 -3 10 2 9
4 -1 13 -1 19 0 7 0 14 10 17 21 3 11 2 31 -1 45 l-7 25 -52 -24z"/>
<path d="M3740 1025 c0 -8 5 -15 10 -15 6 0 10 7 10 15 0 8 -4 15 -10 15 -5 0
-10 -7 -10 -15z"/>
<path d="M9330 989 c0 -5 5 -7 10 -4 6 3 10 8 10 11 0 2 -4 4 -10 4 -5 0 -10
-5 -10 -11z"/>
<path d="M23460 984 c0 -8 5 -12 10 -9 6 3 10 10 10 16 0 5 -4 9 -10 9 -5 0
-10 -7 -10 -16z"/>
<path d="M30992 511 c6 -11 18 -17 26 -13 12 4 12 8 -4 19 -10 7 -22 13 -26
13 -4 0 -3 -9 4 -19z"/>
</g>
</svg>
