<?xml version="1.0" encoding="UTF-8" standalone="no"?>
<!-- Created with Inkscape (http://www.inkscape.org/) -->

<svg
   xmlns:dc="http://purl.org/dc/elements/1.1/"
   xmlns:cc="http://creativecommons.org/ns#"
   xmlns:rdf="http://www.w3.org/1999/02/22-rdf-syntax-ns#"
   xmlns:svg="http://www.w3.org/2000/svg"
   xmlns="http://www.w3.org/2000/svg"
   xmlns:xlink="http://www.w3.org/1999/xlink"
   xmlns:sodipodi="http://sodipodi.sourceforge.net/DTD/sodipodi-0.dtd"
   xmlns:inkscape="http://www.inkscape.org/namespaces/inkscape"
   version="1.1"
   width="255.32831"
   height="122.99682"
   id="svg2"
   inkscape:version="0.48.5 r10040"
   sodipodi:docname="Neil deGrasse Tyson signature.svg">
  <title
     id="title3116">HAL9000</title>
  <sodipodi:namedview
     pagecolor="#ffffff"
     bordercolor="#666666"
     borderopacity="1"
     objecttolerance="10"
     gridtolerance="10"
     guidetolerance="10"
     inkscape:pageopacity="0"
     inkscape:pageshadow="2"
     inkscape:window-width="1440"
     inkscape:window-height="852"
     id="namedview139"
     showgrid="false"
     inkscape:zoom="1.8458066"
     inkscape:cx="127.66416"
     inkscape:cy="61.498407"
     inkscape:window-x="4"
     inkscape:window-y="4"
     inkscape:window-maximized="0"
     inkscape:current-layer="svg2"
     fit-margin-top="0"
     fit-margin-left="0"
     fit-margin-right="0"
     fit-margin-bottom="0" />
  <defs
     id="defs4">
    <linearGradient
       id="linearGradient4716">
      <stop
         id="stop4718"
         style="stop-color:#0a1314;stop-opacity:1"
         offset="0" />
      <stop
         id="stop4720"
         style="stop-color:#0a1314;stop-opacity:0"
         offset="1" />
    </linearGradient>
    <linearGradient
       id="linearGradient4698">
      <stop
         id="stop4700"
         style="stop-color:#424a4b;stop-opacity:1"
         offset="0" />
      <stop
         id="stop4702"
         style="stop-color:#424a4b;stop-opacity:0"
         offset="1" />
    </linearGradient>
    <linearGradient
       id="linearGradient4680">
      <stop
         id="stop4682"
         style="stop-color:#0e191c;stop-opacity:1"
         offset="0" />
      <stop
         id="stop4684"
         style="stop-color:#0e191c;stop-opacity:0"
         offset="1" />
    </linearGradient>
    <linearGradient
       id="linearGradient4662">
      <stop
         id="stop4664"
         style="stop-color:#f5f4f1;stop-opacity:1"
         offset="0" />
      <stop
         id="stop4666"
         style="stop-color:#f5f4f1;stop-opacity:0"
         offset="1" />
    </linearGradient>
    <linearGradient
       id="linearGradient4632">
      <stop
         id="stop4634"
         style="stop-color:#626463;stop-opacity:1"
         offset="0" />
      <stop
         id="stop4636"
         style="stop-color:#626463;stop-opacity:0"
         offset="1" />
    </linearGradient>
    <linearGradient
       id="linearGradient4622">
      <stop
         id="stop4624"
         style="stop-color:#b9b5b4;stop-opacity:1"
         offset="0" />
      <stop
         id="stop4626"
         style="stop-color:#9d9290;stop-opacity:0"
         offset="1" />
    </linearGradient>
    <linearGradient
       id="linearGradient4594">
      <stop
         id="stop4596"
         style="stop-color:#473e3e;stop-opacity:1"
         offset="0" />
      <stop
         id="stop4598"
         style="stop-color:#473e3e;stop-opacity:0"
         offset="1" />
    </linearGradient>
    <linearGradient
       id="linearGradient4584">
      <stop
         id="stop4586"
         style="stop-color:#b1aba9;stop-opacity:1"
         offset="0" />
      <stop
         id="stop4588"
         style="stop-color:#b1aba9;stop-opacity:0"
         offset="1" />
    </linearGradient>
    <linearGradient
       id="linearGradient4572">
      <stop
         id="stop4574"
         style="stop-color:#e0d8d4;stop-opacity:1"
         offset="0" />
      <stop
         id="stop4580"
         style="stop-color:#e0d8d4;stop-opacity:0.45490196"
         offset="0.67647064" />
      <stop
         id="stop4576"
         style="stop-color:#e0d8d4;stop-opacity:0"
         offset="1" />
    </linearGradient>
    <linearGradient
       id="linearGradient4562">
      <stop
         id="stop4564"
         style="stop-color:#cfcdc7;stop-opacity:1"
         offset="0" />
      <stop
         id="stop4566"
         style="stop-color:#cfcdc7;stop-opacity:0"
         offset="1" />
    </linearGradient>
    <linearGradient
       id="linearGradient4546">
      <stop
         id="stop4548"
         style="stop-color:#444544;stop-opacity:1"
         offset="0" />
      <stop
         id="stop4550"
         style="stop-color:#706062;stop-opacity:0"
         offset="1" />
    </linearGradient>
    <linearGradient
       id="linearGradient4454">
      <stop
         id="stop4456"
         style="stop-color:#bebbb6;stop-opacity:1"
         offset="0" />
      <stop
         id="stop4458"
         style="stop-color:#bebbb6;stop-opacity:0"
         offset="1" />
    </linearGradient>
    <linearGradient
       id="linearGradient4446">
      <stop
         id="stop4448"
         style="stop-color:#8f908a;stop-opacity:1"
         offset="0" />
      <stop
         id="stop4450"
         style="stop-color:#8f908a;stop-opacity:0"
         offset="1" />
    </linearGradient>
    <linearGradient
       id="linearGradient4438">
      <stop
         id="stop4440"
         style="stop-color:#ffffff;stop-opacity:1"
         offset="0" />
      <stop
         id="stop4442"
         style="stop-color:#ffffff;stop-opacity:0"
         offset="1" />
    </linearGradient>
    <linearGradient
       id="linearGradient4430">
      <stop
         id="stop4432"
         style="stop-color:#ea3231;stop-opacity:1"
         offset="0" />
      <stop
         id="stop4434"
         style="stop-color:#ea3231;stop-opacity:0"
         offset="1" />
    </linearGradient>
    <linearGradient
       id="linearGradient3971">
      <stop
         id="stop3973"
         style="stop-color:#ea1117;stop-opacity:1"
         offset="0" />
      <stop
         id="stop3975"
         style="stop-color:#d3070e;stop-opacity:1"
         offset="0.36951563" />
      <stop
         id="stop3977"
         style="stop-color:#c10914;stop-opacity:0"
         offset="1" />
    </linearGradient>
    <linearGradient
       id="linearGradient3862">
      <stop
         id="stop3864"
         style="stop-color:#ea1117;stop-opacity:1"
         offset="0" />
      <stop
         id="stop3866"
         style="stop-color:#ea1117;stop-opacity:0"
         offset="1" />
    </linearGradient>
    <linearGradient
       id="linearGradient3798">
      <stop
         id="stop3800"
         style="stop-color:#f8ee46;stop-opacity:1"
         offset="0" />
      <stop
         id="stop3802"
         style="stop-color:#d3321c;stop-opacity:0"
         offset="1" />
    </linearGradient>
    <linearGradient
       id="linearGradient3774">
      <stop
         id="stop3776"
         style="stop-color:#ea1117;stop-opacity:1"
         offset="0" />
      <stop
         id="stop3782"
         style="stop-color:#cd0d14;stop-opacity:1"
         offset="0.36951563" />
      <stop
         id="stop3778"
         style="stop-color:#c10914;stop-opacity:0"
         offset="1" />
    </linearGradient>
    <filter
       color-interpolation-filters="sRGB"
       id="filter4426">
      <feGaussianBlur
         id="feGaussianBlur4428"
         stdDeviation="0.79644532" />
    </filter>
    <filter
       x="-0.014859335"
       y="-0.10673607"
       width="1.0297188"
       height="1.2134721"
       color-interpolation-filters="sRGB"
       id="filter4487">
      <feGaussianBlur
         id="feGaussianBlur4489"
         stdDeviation="0.49337636" />
    </filter>
    <filter
       color-interpolation-filters="sRGB"
       id="filter4511">
      <feGaussianBlur
         id="feGaussianBlur4513"
         stdDeviation="0.36832783" />
    </filter>
    <radialGradient
       cx="355.6181"
       cy="263.47437"
       r="214.64285"
       fx="355.6181"
       fy="263.47437"
       id="radialGradient4735"
       xlink:href="#linearGradient4662"
       gradientUnits="userSpaceOnUse"
       gradientTransform="matrix(0.49590542,0.02361451,-0.04756507,0.99886814,191.79733,-8.0995301)" />
    <radialGradient
       cx="688.20172"
       cy="322.61343"
       r="214.64285"
       fx="688.20172"
       fy="322.61343"
       id="radialGradient4737"
       xlink:href="#linearGradient4662"
       gradientUnits="userSpaceOnUse"
       gradientTransform="matrix(0.18891652,0.20859515,-0.74120407,0.67127976,623.54686,-26.528142)" />
    <radialGradient
       cx="-50.826534"
       cy="568.55469"
       r="214.64285"
       fx="-50.826534"
       fy="568.55469"
       id="radialGradient4739"
       xlink:href="#linearGradient4662"
       gradientUnits="userSpaceOnUse"
       gradientTransform="matrix(0.24198071,-0.24251704,0.72109578,0.71950102,-205.95295,-86.121137)" />
    <radialGradient
       cx="143.2925"
       cy="560.57587"
       r="214.64285"
       fx="143.2925"
       fy="560.57587"
       id="radialGradient4741"
       xlink:href="#linearGradient4680"
       gradientUnits="userSpaceOnUse"
       gradientTransform="matrix(0.55737084,1.1227092,-1.0153425,0.5040684,651.47245,105.56632)" />
    <radialGradient
       cx="359.53653"
       cy="680.74078"
       r="214.64285"
       fx="359.53653"
       fy="680.74078"
       id="radialGradient4743"
       xlink:href="#linearGradient4698"
       gradientUnits="userSpaceOnUse"
       gradientTransform="matrix(0.59429926,-0.0196788,0.03309447,0.99945223,124.48576,7.5040537)" />
    <radialGradient
       cx="549.07318"
       cy="531.27026"
       r="214.64285"
       fx="549.07318"
       fy="531.27026"
       id="radialGradient4745"
       xlink:href="#linearGradient4716"
       gradientUnits="userSpaceOnUse"
       gradientTransform="matrix(-0.28951144,0.61897854,-1.0261698,-0.47996685,1253.2096,446.39787)" />
    <radialGradient
       cx="137.3555"
       cy="130.31177"
       r="87.547356"
       fx="137.3555"
       fy="130.31177"
       id="radialGradient4965"
       xlink:href="#linearGradient3774"
       gradientUnits="userSpaceOnUse" />
    <radialGradient
       cx="137.3555"
       cy="130.31177"
       r="87.547356"
       fx="137.3555"
       fy="130.31177"
       id="radialGradient4967"
       xlink:href="#linearGradient3971"
       gradientUnits="userSpaceOnUse" />
    <radialGradient
       cx="126.875"
       cy="125.125"
       r="44.125"
       fx="126.875"
       fy="125.125"
       id="radialGradient4969"
       xlink:href="#linearGradient3862"
       gradientUnits="userSpaceOnUse" />
    <radialGradient
       cx="493.20697"
       cy="120.2355"
       r="20.152544"
       fx="493.20697"
       fy="120.2355"
       id="radialGradient4971"
       xlink:href="#linearGradient3798"
       gradientUnits="userSpaceOnUse"
       gradientTransform="matrix(0.75621888,0,0,0.75621888,120.23455,29.311144)" />
    <linearGradient
       x1="59.75"
       y1="853.86218"
       x2="63.5"
       y2="848.86218"
       id="linearGradient4973"
       xlink:href="#linearGradient4454"
       gradientUnits="userSpaceOnUse" />
    <linearGradient
       x1="65.5"
       y1="878.36218"
       x2="89"
       y2="879.86218"
       id="linearGradient4975"
       xlink:href="#linearGradient4438"
       gradientUnits="userSpaceOnUse" />
    <linearGradient
       x1="159.09903"
       y1="895.73804"
       x2="155.03316"
       y2="895.2077"
       id="linearGradient4977"
       xlink:href="#linearGradient4430"
       gradientUnits="userSpaceOnUse" />
    <linearGradient
       x1="201.5"
       y1="859.36218"
       x2="192.5"
       y2="865.86218"
       id="linearGradient4979"
       xlink:href="#linearGradient4446"
       gradientUnits="userSpaceOnUse" />
    <radialGradient
       cx="565.67145"
       cy="446.36511"
       r="214.64285"
       fx="565.67145"
       fy="446.36511"
       id="radialGradient4981"
       xlink:href="#linearGradient4546"
       gradientUnits="userSpaceOnUse"
       gradientTransform="matrix(-0.01141222,0.7200172,-0.98807046,-0.01566569,1003.895,64.801116)" />
    <radialGradient
       cx="525.8512"
       cy="583.23352"
       r="214.64285"
       fx="525.8512"
       fy="583.23352"
       id="radialGradient4983"
       xlink:href="#linearGradient4562"
       gradientUnits="userSpaceOnUse"
       gradientTransform="matrix(-0.13019845,0.14665728,-0.25941753,-0.23030421,735.49435,657.5781)" />
    <radialGradient
       cx="338.53104"
       cy="703.86841"
       r="214.64285"
       fx="338.53104"
       fy="703.86841"
       id="radialGradient4985"
       xlink:href="#linearGradient4572"
       gradientUnits="userSpaceOnUse"
       gradientTransform="matrix(-0.27995439,0.0091529,-0.01235873,-0.37800452,464.47395,950.87477)" />
    <radialGradient
       cx="241.97748"
       cy="591.31604"
       r="214.64285"
       fx="241.97748"
       fy="591.31604"
       id="radialGradient4987"
       xlink:href="#linearGradient4584"
       gradientUnits="userSpaceOnUse"
       gradientTransform="matrix(0.0653018,0.07876991,-0.51364189,0.42581899,480.05196,325.10195)" />
    <radialGradient
       cx="148.8054"
       cy="479.24811"
       r="214.64285"
       fx="148.8054"
       fy="479.24811"
       id="radialGradient4989"
       xlink:href="#linearGradient4594"
       gradientUnits="userSpaceOnUse"
       gradientTransform="matrix(0.03414964,0.69195514,-1.3162287,0.06495088,774.52389,345.15386)" />
    <radialGradient
       cx="361.88593"
       cy="270.58835"
       r="214.64285"
       fx="361.88593"
       fy="270.58835"
       id="radialGradient4991"
       xlink:href="#linearGradient4622"
       gradientUnits="userSpaceOnUse"
       gradientTransform="matrix(0.50253939,0.0288342,-0.05728614,0.9983578,195.52495,-9.9903306)" />
    <radialGradient
       cx="113.19639"
       cy="362.84845"
       r="214.64285"
       fx="113.19639"
       fy="362.84845"
       id="radialGradient4993"
       xlink:href="#linearGradient4632"
       gradientUnits="userSpaceOnUse"
       gradientTransform="matrix(-0.08238352,0.11533689,-0.81373347,-0.58123819,490.52721,552.42839)" />
  </defs>
  <metadata
     id="metadata7">
    <rdf:RDF>
      <cc:Work
         rdf:about="">
        <dc:format>image/svg+xml</dc:format>
        <dc:type
           rdf:resource="http://purl.org/dc/dcmitype/StillImage" />
        <dc:title>HAL9000</dc:title>
        <dc:date />
        <dc:creator>
          <cc:Agent>
            <dc:title>MorningLemon</dc:title>
          </cc:Agent>
        </dc:creator>
        <dc:language>German</dc:language>
        <dc:subject>
          <rdf:Bag>
            <rdf:li>HAL</rdf:li>
            <rdf:li>9000</rdf:li>
            <rdf:li>HAL9000</rdf:li>
            <rdf:li>robot</rdf:li>
            <rdf:li>space</rdf:li>
          </rdf:Bag>
        </dc:subject>
        <dc:description>The famous red eye of HAL 9000 from Stanley Kubricks Film &quot;2001: A Space Odyssey&quot;.</dc:description>
        <cc:license
           rdf:resource="http://creativecommons.org/licenses/by/3.0/" />
      </cc:Work>
      <cc:License
         rdf:about="http://creativecommons.org/licenses/by/3.0/">
        <cc:permits
           rdf:resource="http://creativecommons.org/ns#Reproduction" />
        <cc:permits
           rdf:resource="http://creativecommons.org/ns#Distribution" />
        <cc:requires
           rdf:resource="http://creativecommons.org/ns#Notice" />
        <cc:requires
           rdf:resource="http://creativecommons.org/ns#Attribution" />
        <cc:permits
           rdf:resource="http://creativecommons.org/ns#DerivativeWorks" />
      </cc:License>
    </rdf:RDF>
  </metadata>
  <g
     id="g3375"
     transform="translate(295.18682,-254.55323)">
    <path
       sodipodi:nodetypes="caaacsscacsccc"
       inkscape:connector-curvature="0"
       id="path3371"
       d="m -264.69018,294.49965 c 1.1048,-14.3835 4.24963,-22.22964 10.28837,-31.46571 1.48576,-2.27242 3.70493,-4.10219 6.07658,-5.42379 2.95294,-1.64552 6.37977,-2.38411 9.72347,-2.88135 3.1868,-0.47391 2.34417,0.19089 9.66529,-0.0693 0,0 2.47724,0.0354 3.71191,3.39929 1.82303,4.96687 0.11446,4.65094 -4.2048,2.81196 -4.38703,-1.86784 -3.02461,-2.07786 -6.99007,-2.85044 -2.86204,0.0387 -3.75865,-0.0875 -5.52548,0.45435 -2.37403,0.72803 -2.98504,1.48303 -6.49026,3.65665 -5.84411,3.54436 -9.89115,11.85231 -11.38308,19.13602 -0.50862,2.48315 -2.58165,11.25306 -3.18564,14.27806 0.84727,0.58192 -1.87287,0.34812 -1.68629,-0.66266 z"
       style="fill:#000000" />
    <path
       sodipodi:nodetypes="ccsscssssscsssssssssssscsssssssssssssscsscssssssscsssssssccssssssssssssssccsssscssssssssscssscsssssssscsssssssssssssssccsscsssssssssssssssssssssscsssssssssssssssssscssssssssss"
       inkscape:connector-curvature="0"
       id="path3369"
       d="m -140.87269,375.25864 0.14317,-6.15151 c 0.0787,-3.38332 1.13346,-10.6515 2.34383,-16.1515 3.96698,-18.0263 4.31096,-22.36622 2.20559,-27.82749 l -1.86104,-4.82748 -1.7507,2.67191 c -1.22009,1.86209 -2.34664,2.51606 -3.71698,2.15771 -1.09573,-0.28655 -5.37485,1.04609 -9.66508,3.00996 -8.69347,3.97948 -17.18055,5.2174 -21.19879,3.09205 -1.67577,-0.88636 -2.83079,-2.68539 -3.50332,-5.45668 l -1.00333,-4.13437 -2.93423,1.5374 c -4.40565,2.30835 -14.3173,2.82269 -18.74491,0.97271 -4.22684,-1.76608 -8.62692,-7.73794 -9.43516,-12.80555 -0.65592,-4.11253 1.00801,-8.8902 3.0962,-8.8902 1.70051,0 2.08106,2.53815 0.52475,3.5 -3.13916,1.94011 1.20687,12.52138 6.20432,15.10566 6.15973,3.18532 17.17895,1.05375 21.97608,-4.25108 0.92421,-1.02203 2.17859,-3.16858 2.78749,-4.77012 1.00602,-2.64603 0.80779,-3.22069 -2.1713,-6.29433 -3.39398,-3.50169 -9.62887,-7.51966 -13.54659,-8.72987 -1.69275,-0.5229 -2.25,-0.29424 -2.25,0.92325 0,1.29079 -0.70829,1.07804 -3.5,-1.05131 -3.40728,-2.59885 -4.76206,-6.45702 -2.25,-6.40761 2.31998,0.0456 12.22117,3.70953 16.25,6.01324 4.85468,2.77594 11.5,8.90472 11.5,10.6061 0,1.79794 1.89314,2.68659 3.2938,1.54613 0.66341,-0.54017 2.954,-1.45928 5.09019,-2.04248 5.03309,-1.37407 7.95575,0.0919 13.58283,6.81279 6.84694,8.17792 8.56661,6.08437 4.6828,-5.70092 -2.98158,-9.0475 -6.64914,-20.10998 -7.37971,-22.25945 -0.33584,-0.98812 -1.13021,-0.13848 -2.32782,2.48982 -1.6759,3.67796 -1.69182,4.12925 -0.20367,5.77363 1.88212,2.07972 0.54645,4.16683 -2.03314,3.17695 -3.68535,-1.4142 -2.9998,-6.03446 2.09508,-14.11965 3.53536,-5.61035 5.50764,-5.24061 6.36152,1.19258 0.36404,2.74267 2.48849,9.47756 4.72101,14.96642 2.23252,5.48887 4.34492,11.28098 4.69423,12.87137 0.34931,1.59039 1.43908,3.10186 2.42171,3.35883 1.00206,0.26204 2.10832,1.85546 2.51924,3.62863 0.72034,3.10832 0.75421,3.07197 2.01662,-2.16457 0.70618,-2.9293 1.57135,-5.61339 1.9226,-5.96463 1.15676,-1.15676 3.8901,1.36735 4.97726,4.59625 0.59538,1.76827 2.67535,4.26405 4.70052,5.64019 3.52105,2.39261 3.68398,2.41161 5.3065,0.61874 0.92066,-1.01731 2.01781,-3.13551 2.43812,-4.70711 0.50574,-1.891 1.41631,-2.85745 2.69226,-2.85745 1.68933,0 1.89066,0.62504 1.62605,5.04813 -0.1661,2.77646 0.18516,6.32947 0.78059,7.89557 l 1.0826,2.84745 2.3848,-2.24041 c 3.75979,-3.53214 4.08204,-6.69248 0.95653,-9.38093 -2.02447,-1.74137 -2.67435,-3.25939 -2.75779,-6.4418 -0.20626,-7.86624 4.01932,-7.67042 7.83139,0.36291 1.89782,3.99936 2.37376,4.1016 5.96034,1.2804 3.10478,-2.44222 3.77158,-1.97156 5.41903,3.82503 2.42779,8.54224 8.2818,10.04862 24.00784,6.17783 4.75017,-1.1692 10.8054,-2.11378 13.45607,-2.09906 11.741235,0.42265 11.396744,7.51011 2.02874,3.52823 -1.79254,-0.68786 -9.08847,0.50807 -19.34814,3.17149 -9.46207,2.45636 -16.64807,1.57789 -20.28628,-2.47994 -1.53245,-1.70921 -3.04473,-4.39995 -3.36063,-5.97943 -0.52901,-2.64509 -0.76958,-2.78283 -3.04757,-1.7449 -1.36028,0.61978 -3.57586,3.30282 -4.92353,5.96231 -5.34432,10.54651 -12.236,12.68934 -13.81093,4.29422 -0.80355,-4.28331 -2.57106,-4.67245 -2.57106,-0.56605 0,5.47353 -6.93994,9.2261 -10.07548,5.44801 -0.7262,-0.87502 -1.38971,-3.23752 -1.47446,-5.25 -0.19722,-4.68284 -1.42545,-9.15906 -2.51315,-9.15906 -1.37813,0 -2.27155,6.9706 -1.19539,9.32653 0.54605,1.19541 2.15452,3.52348 3.57438,5.17348 1.41986,1.65 4.66685,5.7 7.21554,9 6.54405,8.47315 6.13448,10.58796 -4.58775,23.6889 l -8.22852,10.05401 c -0.26669,1.47872 -6.35903,3.49634 -9.21517,-0.43988 z m 9.6561,-5.55307 c 5.25682,-5.53428 11.61374,-14.45012 12.00056,-16.83127 0.18596,-1.1447 -0.79156,-3.6197 -2.17226,-5.5 -1.3807,-1.8803 -4.07952,-5.78036 -5.99738,-8.6668 -1.91786,-2.88644 -3.76527,-5.24894 -4.10535,-5.25 -0.62497,-0.002 -1.69858,5.57128 -2.31127,11.99807 -0.18352,1.925 -0.81589,6.2 -1.40528,9.5 -1.59203,8.91385 -1.78275,18.5 -0.36807,18.5 0.43838,0 2.39995,-1.6875 4.35905,-3.75 z m 10.82384,-40.77417 c -0.69572,-0.83829 -1.47088,-1.31823 -1.72258,-1.06653 -0.69349,0.69349 0.71555,2.5907 1.9241,2.5907 0.6631,0 0.58723,-0.57379 -0.20152,-1.52417 z m -34.64676,-3.32127 c 3.6037,-1.73803 6.7668,-3.50732 7.02912,-3.93176 0.26231,-0.42444 -1.09208,-2.93378 -3.00977,-5.57631 -4.24315,-5.84698 -8.79414,-8.08572 -13.26715,-6.52642 -1.69696,0.59157 -3.08538,1.48155 -3.08538,1.97775 0,0.49619 -0.5625,0.90774 -1.25,0.91455 -0.6875,0.007 -2.34515,1.69431 -3.68368,3.75 -2.91586,4.47816 -3.10386,9.98904 -0.40977,12.01205 2.78842,2.09384 10.17214,0.9995 17.67663,-2.61986 z m 54.19074,-13.07921 c -0.36228,-1.14145 -1.10493,-2.07536 -1.65032,-2.07536 -0.5454,0 -0.80946,0.3375 -0.58681,0.75 0.22265,0.4125 0.7098,1.60191 1.08256,2.64313 0.91125,2.54545 1.98995,1.31428 1.15457,-1.31777 z m -190.91702,26.03623 c -3.55063,-3.70606 -4.45451,-9.5718 -2.15901,-14.01083 1.23141,-2.38128 2.24098,-3.14313 3.85984,-2.91274 3.02073,0.42988 3.71449,4.81198 0.76182,4.81198 -2.36857,0 -2.77508,2.7911 -0.91985,6.31575 2.53182,4.81006 4.86149,4.791 8.03441,-0.0657 3.40202,-5.20742 6.04234,-11.94109 6.7325,-17.17005 0.65742,-4.9809 2.59973,-6.40756 3.95977,-2.90851 3.11626,8.01742 4.57955,11.43254 5.22611,12.19705 0.40398,0.47767 0.72722,-4.47356 0.87544,-11 0.5439,-23.94964 0.71918,-21.12171 1.72594,-22.09457 1.79109,-1.73078 2.52351,-8.53095 1.06068,14.53819 -0.58091,9.1611 0.3705,19.61288 0.5,23.18789 0.32587,8.99598 -1.62461,8.6366 -6.74862,-1.24347 -3.75746,-7.24508 -5.51593,-9.34478 -5.51593,-6.58629 0,2.02528 -6.27649,15.22665 -8.35817,17.57976 -2.69196,3.04297 -5.71242,2.82954 -9.03493,-0.63842 z m 96.47868,-3.2557 c -5.16862,-0.94573 -9.49013,-3.63109 -17.23588,-10.71028 l -5.62191,-5.1381 -3.99625,3.99624 c -2.46811,2.46811 -4.92511,3.99625 -6.42533,3.99625 -2.38505,0 -6.01709,-2.61854 -7.20417,-5.19389 -0.47282,-1.02577 -0.74444,-0.98622 -1.2655,0.18428 -0.3649,0.81971 -1.90529,2.73221 -3.42307,4.25 -6.44122,6.44122 -17.91347,0.6025 -17.91347,-9.11693 0,-4.98647 8.77884,-8.20177 12.42857,-4.55203 2.09263,2.09263 1.99512,2.82449 -0.81106,6.08686 -2.14145,2.48958 -2.64733,2.64916 -5,1.5772 -1.43963,-0.65593 -2.61751,-0.79226 -2.61751,-0.30294 0,1.34722 5.94553,6.06745 7.64247,6.06745 4.71097,0 9.62153,-6.80953 9.15724,-12.69847 -0.47294,-5.99876 2.19768,-4.87407 3.86118,1.62608 1.6439,6.4235 2.82341,8.07239 5.77446,8.07239 2.39266,0 7.56465,-4.77841 7.56465,-6.98899 0,-0.75876 -0.90301,-3.24492 -2.00668,-5.52481 -4.34404,-8.97359 -4.89778,-31.82756 -0.95834,-39.5531 3.90015,-7.6485 6.37948,-7.05454 9.61544,2.30352 3.29131,9.51812 2.09597,34.30639 -1.90401,39.48444 -0.66087,0.85551 0.75535,3.00185 4.73071,7.1696 5.80387,6.08476 14.2532,11.10935 18.68142,11.10935 1.35256,0 3.33271,0.64286 4.40033,1.42858 2.10468,1.54894 2.2812,1.33803 -2.55887,3.05742 -0.275,0.0977 -2.48649,-0.18586 -4.91442,-0.63012 z m -52.58558,-19.35589 c 0,-1.61502 -5.06106,-1.73381 -6.3758,-0.14964 -1.01948,1.22839 -0.6221,1.42828 2.58559,1.30056 2.08462,-0.083 3.79021,-0.60092 3.79021,-1.15092 z m 32.24083,-9.05628 c 0.77172,-2.16905 1.64402,-9.11872 1.93845,-15.44372 0.45234,-9.71712 0.24301,-12.27388 -1.35021,-16.49174 -2.49913,-6.61612 -4.6186,-6.93545 -6.87187,-1.03536 -1.4499,3.79652 -1.65178,6.58496 -1.18033,16.30346 0.5631,11.60785 3.01045,21.62787 5.11146,20.92753 0.52216,-0.17405 1.58079,-2.09113 2.3525,-4.26017 z m 26.95765,2.87744 c -3.08026,-5.06896 -3.00963,-8.09323 0.14953,-6.4025 2.86376,1.53264 5.7621,10.01922 3.65199,10.69331 -0.55,0.1757 -2.26068,-1.75516 -3.80152,-4.29081 z m -53.61427,-4.94123 c -1.19523,-1.51949 -2.04064,-3.67692 -1.87868,-4.79429 0.33527,-2.31304 7.12688,-6.5442 10.54447,-6.56919 2.6591,-0.0194 3.01261,1.8103 0.5,2.58794 -4.46058,1.38053 -8.25,3.47077 -8.25,4.55069 0,0.65309 0.75437,2.02101 1.67637,3.03981 1.16846,1.29113 1.35894,2.16981 0.62869,2.90006 -0.73026,0.73026 -1.70613,0.21063 -3.22085,-1.71502 z m -20.08421,-21.26189 c 0,-0.55 0.45,-1.27812 1,-1.61804 0.55,-0.33992 1,-0.16803 1,0.38197 0,0.55 -0.45,1.27811 -1,1.61803 -0.55,0.33992 -1,0.16804 -1,-0.38196 z"
       style="fill:#000000" />
  </g>
</svg>
